<svg xmlns="http://www.w3.org/2000/svg" xmlns:xlink="http://www.w3.org/1999/xlink" width="400" height="80" viewBox="0 0 400 80">
  <defs>
    <clipPath id="clip-path">
      <rect id="長方形_10" data-name="長方形 10" width="104" height="22" transform="translate(0 0)" fill="none"/>
    </clipPath>
  </defs>
  <g id="グループ_1199" data-name="グループ 1199" transform="translate(-520 -2318)">
    <rect id="長方形_1143" data-name="長方形 1143" width="400" height="80" rx="16" transform="translate(520 2318)" fill="#f2f2f2"/>
    <g id="グループ_1198" data-name="グループ 1198" transform="translate(668 2358.079)">
      <g id="グループ_7" data-name="グループ 7" transform="translate(0 -0.079)" clip-path="url(#clip-path)">
        <path id="パス_1" data-name="パス 1" d="M7.415.188l5.132,9.88a.346.346,0,0,0,.655-.173c-.032-.687-.06-1.479-.06-2.129V.348A.347.347,0,0,1,13.489,0h5.877a.348.348,0,0,1,.348.348V20.263a.347.347,0,0,1-.348.347H12.9a.349.349,0,0,1-.3-.181L7.159,10.462a.347.347,0,0,0-.652.178c.034.7.064,1.529.064,2.2v7.419a.347.347,0,0,1-.347.347H.347A.347.347,0,0,1,0,20.263V.348A.347.347,0,0,1,.347,0h6.76a.347.347,0,0,1,.308.188" transform="translate(0 0.152)"/>
        <path id="パス_2" data-name="パス 2" d="M36.527,23.12c-2.837,0-5.825-1.254-5.825-4.988s3.764-4.6,5.974-4.69l3.525-.149v-.15c0-.836-.686-1.434-2.479-1.434a10.577,10.577,0,0,0-4.445,1.164.344.344,0,0,1-.476-.186L31.419,9.122a.344.344,0,0,1,.18-.443,18.225,18.225,0,0,1,7.019-1.45c3.137,0,4.929.6,6.273,1.792s2.03,2.838,2.03,5.377v8.016a.347.347,0,0,1-.347.348h-5.7a.346.346,0,0,1-.345-.309l-.116-1.035a5.275,5.275,0,0,1-3.883,1.7m.9-5.287c0,.9.746,1.195,1.493,1.195a1.819,1.819,0,0,0,1.232-.49.341.341,0,0,0,.112-.257V16.92a.347.347,0,0,0-.37-.347l-.974.065c-.717.029-1.493.3-1.493,1.195" transform="translate(-9.137 -2)"/>
        <path id="パス_3" data-name="パス 3" d="M61.386,7.9,63.43,14.5a.347.347,0,0,0,.663,0L66.162,7.9a.348.348,0,0,1,.332-.243h6.1a.347.347,0,0,1,.322.478l-5.93,14.539a.348.348,0,0,1-.322.216H60.707a.346.346,0,0,1-.322-.216l-5.9-14.539a.347.347,0,0,1,.322-.478h6.248a.347.347,0,0,1,.332.244" transform="translate(-16.208 -2.127)"/>
        <path id="パス_4" data-name="パス 4" d="M89.795,23.121c-4.839,0-8.573-2.718-8.573-7.946S85.105,7.23,89.885,7.23s8.065,2.987,8.065,7.617c0,.58-.037,1.2-.064,1.561a.346.346,0,0,1-.346.32H88.326a.348.348,0,0,0-.324.483c.465.992,1.736,1.219,2.778,1.219A7.938,7.938,0,0,0,94.7,17.4a.344.344,0,0,1,.452.079L97.3,20.254a.345.345,0,0,1-.052.479c-.923.757-3.054,2.387-7.449,2.387m0-11.709a1.846,1.846,0,0,0-1.857,1.344.352.352,0,0,0,.337.449h3.052a.352.352,0,0,0,.339-.442,1.825,1.825,0,0,0-1.871-1.351" transform="translate(-24.173 -2)"/>
        <path id="パス_5" data-name="パス 5" d="M113.6,7.528a.347.347,0,0,1,.347.363l-.072,1.579A4.062,4.062,0,0,1,117.7,7.229a3.643,3.643,0,0,1,1.263.191.342.342,0,0,1,.219.341l-.288,5.89h-.3a4.585,4.585,0,0,0-1.942-.448,2.613,2.613,0,0,0-2.091.985,4.284,4.284,0,0,0-.6,2.6v5.626a.347.347,0,0,1-.348.347h-6.026a.347.347,0,0,1-.348-.347V7.875a.348.348,0,0,1,.348-.348Z" transform="translate(-31.918 -2)"/>
        <path id="パス_6" data-name="パス 6" d="M129.741,23.12c-2.837,0-5.824-1.254-5.824-4.988s3.763-4.6,5.974-4.69l3.525-.149v-.15c0-.836-.687-1.434-2.479-1.434a10.576,10.576,0,0,0-4.445,1.164.344.344,0,0,1-.476-.186l-1.381-3.565a.343.343,0,0,1,.179-.443,18.222,18.222,0,0,1,7.019-1.45c3.136,0,4.929.6,6.273,1.792s2.031,2.838,2.031,5.377v8.016a.347.347,0,0,1-.347.348h-5.7a.348.348,0,0,1-.346-.31l-.115-1.035a5.277,5.277,0,0,1-3.883,1.7m.9-5.287c0,.9.747,1.195,1.493,1.195a1.816,1.816,0,0,0,1.232-.49.34.34,0,0,0,.112-.256V16.92a.347.347,0,0,0-.37-.347l-.974.065c-.717.029-1.493.3-1.493,1.195" transform="translate(-36.879 -2)"/>
      </g>
    </g>
    <text id="中小企業がAI時代を迷わず進むためのナビゲーション型メディア" transform="translate(720 2345.41)" font-size="12" font-family="NotoSansJP-Bold, Noto Sans JP" font-weight="700"><tspan x="-173.286" y="0">中小企業</tspan><tspan y="0">が</tspan><tspan y="0">AI</tspan><tspan y="0">時代</tspan><tspan y="0">を</tspan><tspan y="0">迷</tspan><tspan y="0">わず</tspan><tspan y="0">進</tspan><tspan y="0">むためのナビゲーション</tspan><tspan y="0">型</tspan><tspan y="0">メディア</tspan></text>
  </g>
</svg>
