<svg xmlns="http://www.w3.org/2000/svg" xmlns:xlink="http://www.w3.org/1999/xlink" width="263.866" height="78.739" viewBox="0 0 263.866 78.739">
  <defs>
    <linearGradient id="linear-gradient" x1="1.697" y1="-0.118" x2="1.69" y2="0.9" gradientUnits="objectBoundingBox">
      <stop offset="0" stop-color="#217fff"/>
      <stop offset="1" stop-color="#1ca7a7"/>
    </linearGradient>
    <clipPath id="clip-path">
      <rect id="長方形_212" data-name="長方形 212" width="263.866" height="78.739" transform="translate(0 0)" fill="url(#linear-gradient)"/>
    </clipPath>
  </defs>
  <g id="グループ_295" data-name="グループ 295" transform="translate(0 0)">
    <g id="グループ_294" data-name="グループ 294" clip-path="url(#clip-path)">
      <text id="Making_AI_Work" data-name="Making AI Work" transform="translate(100.484 72.96)" fill="#ff2121" font-size="21.246" font-family="AzoSans-Bold, Azo Sans" font-weight="700"><tspan x="0" y="0">Making AI</tspan><tspan y="0" letter-spacing="-0.03em"> </tspan><tspan y="0" letter-spacing="-0.068em">W</tspan><tspan y="0">ork</tspan></text>
      <path id="パス_1051" data-name="パス 1051" d="M29.2,1.657H44.495l29.2,71.908H56.811l-5.76-15.1h-29l-5.86,15.1H0Zm-2.284,44.4H46.283L43.3,38.009c-2.086-5.662-4.668-12.813-6.556-18.275h-.2C34.663,25.2,32.08,32.347,29.8,38.406Z" fill="url(#linear-gradient)"/>
      <rect id="長方形_211" data-name="長方形 211" width="15.792" height="71.907" transform="translate(71.114 1.657)" fill="url(#linear-gradient)"/>
      <path id="パス_1052" data-name="パス 1052" d="M100.484,43.184c3.7-5.444,6.66-12.9,7.559-15.222l5.285,5.391a83.835,83.835,0,0,1-8.245,17.918Zm7.189-16.279a38.743,38.743,0,0,0-7.03-6.132l3.805-6.765a37.238,37.238,0,0,1,7.453,6.025Zm22.834-11.946h10.782v8.034H130.507v4.969H139.6V50.69H114.544V27.962h8.827V22.993H112.9V14.959h10.466V10.73c-3.33.106-4.809.159-8.827.159l-.951-4.6-4.229,6.925A36.846,36.846,0,0,0,101.806,7.4L105.929.635a40.993,40.993,0,0,1,7.558,5.285L112.9,2.96c3.7.053,17.6.106,25.213-2.22L141.184,8.4c-3.33,1.11-5.5,1.321-10.677,1.85Zm1.955,20.614H121.733v7.241h10.729Z" fill="url(#linear-gradient)"/>
      <path id="パス_1053" data-name="パス 1053" d="M167.824,50.8h-6.977V36.155h-6.554c-.265,2.431-1.163,10.306-4.651,15.275l-6.555-6.237c1.533-2.485,4.228-6.977,4.228-17.231V2.7H182.1V46.144c0,3.277-1.639,5.127-4.388,5.127H170.89l-1.269-8.986h3.753c1.058,0,1.11-.264,1.11-1.638V36.155h-6.66Zm-6.977-39.907h-6.236v4.916h6.236Zm0,12.474h-6.236v5.074h6.236Zm13.637-12.474h-6.66v4.916h6.66Zm0,12.474h-6.66v5.074h6.66Z" fill="url(#linear-gradient)"/>
      <path id="パス_1054" data-name="パス 1054" d="M223.852,13.426v8.985H210.585c-.317,6.343-.475,10.73-3.647,16.069-3.065,5.18-7.241,8.193-13.848,10.941l-4.493-8.14c13.373-4.81,13.584-12.58,13.743-18.87H187.911V13.426H202.34V3.436h8.245v9.99Z" fill="url(#linear-gradient)"/>
      <path id="パス_1055" data-name="パス 1055" d="M256.783,18.077a120.064,120.064,0,0,1-21.09,9.144v8.511c0,2.166.212,2.695,2.907,2.695h11.2a35.158,35.158,0,0,0,8.934-1l.316,9.408a34.437,34.437,0,0,1-7.029.687H237.332c-8.087,0-9.779-3.858-9.779-9.408V4.546h8.14V18.077a76.9,76.9,0,0,0,16.65-8.139Zm-2.59-5.656a50.406,50.406,0,0,0-3.542-9.408l3.489-1.532a52.679,52.679,0,0,1,3.753,9.3Zm6.131-1.585a45.462,45.462,0,0,0-3.594-9.3L260.166,0a42.859,42.859,0,0,1,3.7,9.2Z" fill="url(#linear-gradient)"/>
    </g>
  </g>
</svg>
