<svg xmlns="http://www.w3.org/2000/svg" xmlns:xlink="http://www.w3.org/1999/xlink" width="88" height="20" viewBox="0 0 88 20">
  <defs>
    <clipPath id="clip-path">
      <rect id="長方形_10" data-name="長方形 10" width="63" height="13" transform="translate(0 0)" fill="none"/>
    </clipPath>
  </defs>
  <g id="グループ_1039" data-name="グループ 1039" transform="translate(-668 -394.409)">
    <text id="by" transform="translate(677 410.409)" font-size="14" font-family="NotoSansJP-Bold, Noto Sans JP" font-weight="700"><tspan x="-8.428" y="0">by</tspan></text>
    <g id="グループ_1038" data-name="グループ 1038" transform="translate(693 399.079)">
      <g id="グループ_7" data-name="グループ 7" transform="translate(0 -0.079)" clip-path="url(#clip-path)">
        <path id="パス_1" data-name="パス 1" d="M4.5.114l3.118,6a.21.21,0,0,0,.4-.1c-.019-.417-.036-.9-.036-1.293V.211A.211.211,0,0,1,8.194,0h3.57a.211.211,0,0,1,.211.211v12.1a.211.211,0,0,1-.211.211H7.836a.212.212,0,0,1-.185-.11l-3.3-6.054a.21.21,0,0,0-.4.108c.02.428.039.929.039,1.339v4.506a.211.211,0,0,1-.211.211H.211A.211.211,0,0,1,0,12.308V.211A.211.211,0,0,1,.211,0H4.317A.211.211,0,0,1,4.5.114" transform="translate(0 0.092)"/>
        <path id="パス_2" data-name="パス 2" d="M34.24,16.882c-1.723,0-3.538-.762-3.538-3.03S32.988,11.057,34.331,11l2.141-.09v-.091c0-.508-.417-.871-1.506-.871a6.425,6.425,0,0,0-2.7.707.209.209,0,0,1-.289-.113l-.839-2.166a.209.209,0,0,1,.109-.269,11.07,11.07,0,0,1,4.264-.881,5.314,5.314,0,0,1,3.81,1.088,4.022,4.022,0,0,1,1.233,3.266v4.869a.211.211,0,0,1-.211.211H36.879a.21.21,0,0,1-.209-.188l-.07-.629a3.2,3.2,0,0,1-2.359,1.034m.544-3.211c0,.544.453.726.907.726a1.1,1.1,0,0,0,.748-.3.207.207,0,0,0,.068-.156v-.827a.211.211,0,0,0-.225-.211l-.592.04c-.436.018-.907.181-.907.726" transform="translate(-17.603 -4.053)"/>
        <path id="パス_3" data-name="パス 3" d="M58.666,7.8l1.242,4.012a.211.211,0,0,0,.4,0L61.567,7.8a.211.211,0,0,1,.2-.148h3.7a.211.211,0,0,1,.2.291l-3.6,8.831a.211.211,0,0,1-.2.131H58.254a.21.21,0,0,1-.2-.131L54.474,7.945a.211.211,0,0,1,.2-.29h3.8a.211.211,0,0,1,.2.148" transform="translate(-31.224 -4.297)"/>
        <path id="パス_4" data-name="パス 4" d="M86.429,16.883c-2.939,0-5.207-1.651-5.207-4.827S83.581,7.23,86.484,7.23s4.9,1.814,4.9,4.627c0,.352-.023.727-.039.948a.21.21,0,0,1-.21.195h-5.6a.211.211,0,0,0-.2.294,1.763,1.763,0,0,0,1.687.741,4.822,4.822,0,0,0,2.381-.625.209.209,0,0,1,.275.048l1.3,1.684a.209.209,0,0,1-.032.291,6.592,6.592,0,0,1-4.525,1.45m0-7.113a1.121,1.121,0,0,0-1.128.816.214.214,0,0,0,.2.273H87.36a.214.214,0,0,0,.206-.268,1.109,1.109,0,0,0-1.137-.82" transform="translate(-46.569 -4.053)"/>
        <path id="パス_5" data-name="パス 5" d="M111.109,7.41a.211.211,0,0,1,.211.221l-.044.959A2.467,2.467,0,0,1,113.6,7.229a2.213,2.213,0,0,1,.767.116.208.208,0,0,1,.133.207l-.175,3.577h-.181a2.785,2.785,0,0,0-1.18-.272,1.587,1.587,0,0,0-1.27.6,2.6,2.6,0,0,0-.363,1.579v3.417a.211.211,0,0,1-.211.211h-3.66a.211.211,0,0,1-.211-.211V7.622a.211.211,0,0,1,.211-.211Z" transform="translate(-61.49 -4.053)"/>
        <path id="パス_6" data-name="パス 6" d="M127.455,16.882c-1.723,0-3.538-.762-3.538-3.03S126.2,11.057,127.546,11l2.141-.09v-.091c0-.508-.417-.871-1.506-.871a6.424,6.424,0,0,0-2.7.707.209.209,0,0,1-.289-.113l-.839-2.166a.209.209,0,0,1,.109-.269,11.069,11.069,0,0,1,4.264-.881,5.315,5.315,0,0,1,3.81,1.088,4.023,4.023,0,0,1,1.233,3.266v4.869a.211.211,0,0,1-.211.211h-3.465a.211.211,0,0,1-.21-.188l-.07-.628a3.206,3.206,0,0,1-2.359,1.034M128,13.67c0,.544.454.726.907.726a1.1,1.1,0,0,0,.748-.3.206.206,0,0,0,.068-.156v-.827a.211.211,0,0,0-.225-.211l-.592.04c-.436.018-.907.181-.907.726" transform="translate(-71.048 -4.053)"/>
      </g>
    </g>
  </g>
</svg>
