<svg xmlns="http://www.w3.org/2000/svg" width="1252.354" height="336.641" viewBox="0 0 1252.354 336.641">
  <g id="グループ_1036" data-name="グループ 1036" transform="translate(-89.823 -1535)">
    <g id="グループ_1034" data-name="グループ 1034" transform="translate(89.823 1535)">
      <path id="パス_2299" data-name="パス 2299" d="M17.615,16.93H192.74V316.4H17.615ZM0,336.641H210.354V0H0Z" fill="#f2f2ee"/>
      <rect id="長方形_961" data-name="長方形 961" width="3.283" height="311.869" transform="translate(54.348 10.73)" fill="#f2f2ee"/>
      <rect id="長方形_962" data-name="長方形 962" width="3.283" height="311.869" transform="translate(105.694 10.73)" fill="#f2f2ee"/>
      <rect id="長方形_963" data-name="長方形 963" width="3.283" height="311.869" transform="translate(150.602 10.73)" fill="#f2f2ee"/>
      <rect id="長方形_964" data-name="長方形 964" width="187.709" height="3.283" transform="translate(11.315 59.687)" fill="#f2f2ee"/>
      <rect id="長方形_965" data-name="長方形 965" width="187.709" height="3.283" transform="translate(11.315 131.486)" fill="#f2f2ee"/>
      <rect id="長方形_966" data-name="長方形 966" width="187.709" height="3.283" transform="translate(11.315 203.285)" fill="#f2f2ee"/>
      <rect id="長方形_967" data-name="長方形 967" width="187.709" height="3.283" transform="translate(11.315 275.084)" fill="#f2f2ee"/>
    </g>
    <g id="グループ_1035" data-name="グループ 1035" transform="translate(1131.823 1535)">
      <path id="パス_2299-2" data-name="パス 2299" d="M17.615,16.93H192.74V316.4H17.615ZM0,336.641H210.354V0H0Z" fill="#f2f2ee"/>
      <rect id="長方形_961-2" data-name="長方形 961" width="3.283" height="311.869" transform="translate(54.348 10.73)" fill="#f2f2ee"/>
      <rect id="長方形_962-2" data-name="長方形 962" width="3.283" height="311.869" transform="translate(105.694 10.73)" fill="#f2f2ee"/>
      <rect id="長方形_963-2" data-name="長方形 963" width="3.283" height="311.869" transform="translate(150.602 10.73)" fill="#f2f2ee"/>
      <rect id="長方形_964-2" data-name="長方形 964" width="187.709" height="3.283" transform="translate(11.315 59.687)" fill="#f2f2ee"/>
      <rect id="長方形_965-2" data-name="長方形 965" width="187.709" height="3.283" transform="translate(11.315 131.486)" fill="#f2f2ee"/>
      <rect id="長方形_966-2" data-name="長方形 966" width="187.709" height="3.283" transform="translate(11.315 203.285)" fill="#f2f2ee"/>
      <rect id="長方形_967-2" data-name="長方形 967" width="187.709" height="3.283" transform="translate(11.315 275.084)" fill="#f2f2ee"/>
    </g>
  </g>
</svg>
