<svg xmlns="http://www.w3.org/2000/svg" xmlns:xlink="http://www.w3.org/1999/xlink" width="414" height="681" viewBox="0 0 414 681">
  <defs>
    <filter id="長方形_205" x="0" y="27" width="414" height="654" filterUnits="userSpaceOnUse">
      <feOffset dy="12" input="SourceAlpha"/>
      <feGaussianBlur stdDeviation="9" result="blur"/>
      <feFlood flood-opacity="0.161"/>
      <feComposite operator="in" in2="blur"/>
      <feComposite in="SourceGraphic"/>
    </filter>
    <clipPath id="clip-path">
      <circle id="楕円形_11" data-name="楕円形 11" cx="35" cy="35" r="35" fill="#c1ecff"/>
    </clipPath>
  </defs>
  <g id="グループ_1217" data-name="グループ 1217" transform="translate(-3512 1078)">
    <g id="グループ_289" data-name="グループ 289">
      <g transform="matrix(1, 0, 0, 1, 3512, -1078)" filter="url(#長方形_205)">
        <rect id="長方形_205-2" data-name="長方形 205" width="360" height="600" rx="20" transform="translate(27 42)" fill="#fff"/>
      </g>
      <rect id="長方形_206" data-name="長方形 206" width="320" height="88" rx="20" transform="translate(3559 -917)" fill="#ededed"/>
      <text id="ChatGPTに過去の売上データを投入_需要予測のヒントを取得" data-name="ChatGPTに過去の売上データを投入→需要予測のヒントを取得" transform="translate(3579 -901)" font-size="18" font-family="NotoSansJP-Bold, Noto Sans JP" font-weight="700"><tspan x="0" y="21">ChatGPT</tspan><tspan y="21">に</tspan><tspan y="21">過去</tspan><tspan y="21">の</tspan><tspan y="21">売上</tspan><tspan y="21">データを</tspan><tspan y="21">投</tspan><tspan x="0" y="47">入→需要予測</tspan><tspan y="47">のヒントを</tspan><tspan y="47">取得</tspan></text>
      <text id="推奨ツール" transform="translate(3594.1 -790)" fill="#9199a6" font-size="16" font-family="NotoSansJP-Bold, Noto Sans JP" font-weight="700"><tspan x="0" y="0">推奨</tspan><tspan y="0">ツール</tspan></text>
      <text id="月間ツールコスト目安" transform="translate(3593.409 -720)" fill="#9199a6" font-size="16" font-family="NotoSansJP-Bold, Noto Sans JP" font-weight="700"><tspan x="0" y="0">月間</tspan><tspan y="0">ツールコスト</tspan><tspan y="0">目安</tspan></text>
      <text id="難易度" transform="translate(3594.283 -650)" fill="#9199a6" font-size="16" font-family="NotoSansJP-Bold, Noto Sans JP" font-weight="700"><tspan x="0" y="0">難易度</tspan></text>
      <text id="ChatGPT_Googleスプレッドシート" data-name="ChatGPT + Googleスプレッドシート" transform="translate(3586 -764)" font-size="15" font-family="NotoSansJP-Bold, Noto Sans JP" font-weight="700"><tspan x="0" y="0">ChatGPT + Google</tspan><tspan y="0">スプレッドシート</tspan></text>
      <text id="無料_5_000_月" data-name="無料〜¥5,000/月" transform="translate(3593.645 -690)" font-size="18" font-family="NotoSansJP-Bold, Noto Sans JP" font-weight="700"><tspan x="0" y="0">無料〜¥5,000/月</tspan></text>
      <text id="プログラミング不要_今すぐ始められ_ます_" data-name="プログラミング不要。今すぐ始められ
ます。" transform="translate(3596 -641)" font-size="18" font-family="NotoSansJP-Bold, Noto Sans JP" font-weight="700"><tspan x="0" y="21">プログラミング</tspan><tspan y="21">不要。今</tspan><tspan y="21">すぐ</tspan><tspan y="21">始</tspan><tspan y="21">め</tspan><tspan x="0" y="47">られ</tspan></text>
      <g id="グループ_277" data-name="グループ 277" transform="translate(3569 -804.998)">
        <path id="パス_985" data-name="パス 985" d="M261.209,3.684a.8.8,0,0,0-1.135,0l-1.707,1.707a.8.8,0,0,1-.681.227l-1-.142a.8.8,0,0,1-.681-.681l-.142-1a.8.8,0,0,1,.227-.681L257.8,1.41a.8.8,0,0,0,0-1.135h0a.8.8,0,0,0-.453-.227,4.824,4.824,0,1,0,4.09,4.093A.806.806,0,0,0,261.209,3.684Z" transform="translate(-242.485 0.001)" fill="#9199a6"/>
        <path id="パス_986" data-name="パス 986" d="M11.169,209.8a.557.557,0,0,0-.1-.868,5.93,5.93,0,0,1-1.243-1.017,6.017,6.017,0,0,1-.709-.929.556.556,0,0,0-.865-.1l-3.3,3.3a1.493,1.493,0,0,1-1.1.443,3.71,3.71,0,0,0-3.808,4.213.648.648,0,0,0,.129.317.618.618,0,0,0,.922.055L2.4,213.9a.617.617,0,0,1,.524-.175l.767.11a.617.617,0,0,1,.524.524l.11.767a.617.617,0,0,1-.175.524l-1.313,1.313a.617.617,0,0,0,0,.873h0a.625.625,0,0,0,.355.176A3.718,3.718,0,0,0,7.424,214.2a1.5,1.5,0,0,1,.444-1.108Z" transform="translate(0 -199.049)" fill="#9199a6"/>
      </g>
      <path id="パス_1048" data-name="パス 1048" d="M103.717,73.621l1.21-1.21-1.491-1.491-1.323,1.323a9.432,9.432,0,0,0-4.26-1.57V68.5h-2.11v2.172a9.528,9.528,0,1,0,7.975,2.949Zm-6.922,5.431a3.16,3.16,0,0,1,1.058,6.14v1.249h-2.11V85.187a3.162,3.162,0,0,1-2.11-2.972h2.11A1.058,1.058,0,1,0,96.8,81.157a3.16,3.16,0,0,1-1.058-6.14V73.768h2.11v1.249a3.162,3.162,0,0,1,2.11,2.972h-2.11a1.058,1.058,0,1,0-1.058,1.064Z" transform="translate(3481.7 -804.605)" fill="#9199a6"/>
      <g id="Layer_2" data-name="Layer 2" transform="translate(3569 -666)">
        <rect id="長方形_193" data-name="長方形 193" width="5" height="8" rx="2" transform="translate(7 11)" fill="#9199a6"/>
        <rect id="長方形_194" data-name="長方形 194" width="5" height="6" rx="2" transform="translate(0 13)" fill="#9199a6"/>
        <rect id="長方形_195" data-name="長方形 195" width="5" height="12" rx="2" transform="translate(14 7)" fill="#9199a6"/>
        <path id="パス_989" data-name="パス 989" d="M5.675,12.179a.683.683,0,0,0,.168-.021,28.594,28.594,0,0,0,6.951-2.782,28.537,28.537,0,0,0,6.453-4.985V6.071a.679.679,0,0,0,1.357,0V2.679A.679.679,0,0,0,19.925,2H16.532a.679.679,0,1,0,0,1.357h1.816a27.161,27.161,0,0,1-6.22,4.837A27.221,27.221,0,0,1,5.507,10.84a.679.679,0,0,0,.168,1.338Z" transform="translate(-2.96 -2)" fill="#9199a6"/>
      </g>
      <circle id="楕円形_15" data-name="楕円形 15" cx="60" cy="60" r="60" transform="translate(3659 -1078)" fill="#fff"/>
      <g id="グループ_278" data-name="グループ 278" transform="translate(3684 -1062)">
        <circle id="楕円形_8" data-name="楕円形 8" cx="35" cy="35" r="35" fill="#c1ecff"/>
        <g id="マスクグループ_1" data-name="マスクグループ 1" clip-path="url(#clip-path)">
          <g id="グループ_241" data-name="グループ 241" transform="translate(6.902 8.04)">
            <g id="グループ_240" data-name="グループ 240" transform="translate(0 0)">
              <path id="パス_931" data-name="パス 931" d="M159.267,58.041l4.083-4.864c-3.532-3.492-6.842-6.865-8.468-11.163a14.05,14.05,0,0,1-.933-6.642,14.5,14.5,0,0,1,2.655-6.331c1.372-2.033,3.046-3.987,4.489-6.283a18.164,18.164,0,0,0,2.958-7.822c.678-5.582-1.156-11.458-4.784-14.935a17.513,17.513,0,0,1,3.357,14.624,15.5,15.5,0,0,1-3.189,6.562c-1.539,1.914-3.357,3.62-5.032,5.661a17.883,17.883,0,0,0-4.035,7.687,19.281,19.281,0,0,0,.391,9.234,27.973,27.973,0,0,0,3.724,7.91A76.173,76.173,0,0,0,159.267,58.041Z" transform="translate(-131.079 0)" fill="#5fa348"/>
              <path id="パス_932" data-name="パス 932" d="M83.293,318.974a15.326,15.326,0,0,0-12.535-6.483,6.843,6.843,0,0,0-1.069.056,15.35,15.35,0,0,0-24.783,0h-.67A15.341,15.341,0,0,0,31.7,319.029Z" transform="translate(-31.702 -257.304)" fill="#fcd462"/>
              <path id="パス_933" data-name="パス 933" d="M182.5,183.522a7.988,7.988,0,0,1-.319-.8,11.317,11.317,0,0,1-.518-2.3,11.569,11.569,0,0,1,1.714-7.519,11.963,11.963,0,0,1,3.764-3.724,12.988,12.988,0,0,1,6-1.946,13.747,13.747,0,0,1,7.137,1.427,14.13,14.13,0,0,1,6.052,5.749l-.614.311c-.407.207-1,.518-1.722.957a22.663,22.663,0,0,0-5.3,4.346,42.25,42.25,0,0,1-3.476,3.421,12.368,12.368,0,0,1-3.142,2.217,6.378,6.378,0,0,1-3.835.375,14.175,14.175,0,0,1-5.733-2.52Z" transform="translate(-157.625 -140.479)" fill="#65b54e"/>
              <path id="パス_934" data-name="パス 934" d="M202.677,180.336a14.705,14.705,0,0,1,1.555.319,15.286,15.286,0,0,0-12.9.462,11.6,11.6,0,0,0,1.97-3.317,3.257,3.257,0,0,0,.223-1.3,30.524,30.524,0,0,1-3.142,5.127,15.341,15.341,0,0,0-5.869,6.267,13.05,13.05,0,0,0-1.4,5.135,1.18,1.18,0,0,0,.861,1.156c.8.247,1.379,1.85,1.284,1.108-.319-2.105.47-6.842,1.658-8.668a8.053,8.053,0,0,1,6.379-.446,8.487,8.487,0,0,1,2.727,1.475,9.37,9.37,0,0,0-4.633-2.735,6.059,6.059,0,0,0-3.189.072,14.254,14.254,0,0,1,4.92-3.476,15.05,15.05,0,0,1,2.6-.861,5.782,5.782,0,0,1,3.245,1.148,3.985,3.985,0,0,1,.893.957,4.921,4.921,0,0,0-2.823-2.392c.526-.088,1.045-.159,1.539-.2a17.631,17.631,0,0,1,4.107.167Z" transform="translate(-158.908 -148.29)" fill="#5fa348"/>
              <path id="パス_935" data-name="パス 935" d="M287.874,215.661c.064.12.128.231.191.359A3.788,3.788,0,0,0,287.874,215.661Z" transform="translate(-246.928 -181.19)"/>
              <path id="パス_936" data-name="パス 936" d="M236.89,46.483a5.468,5.468,0,0,1,.112-.6,7.766,7.766,0,0,1,4.178-5.231,8.114,8.114,0,0,1,3.492-.8,8.663,8.663,0,0,1,4.146,1.013,9.35,9.35,0,0,1,3.6,3.349,9.617,9.617,0,0,1,1.443,5.47h-.47c-.3,0-.749-.056-1.324-.064a15.6,15.6,0,0,0-4.6.622,27.868,27.868,0,0,1-3.189.733,8.374,8.374,0,0,1-2.608.183,4.44,4.44,0,0,1-2.376-1.2,9.657,9.657,0,0,1-2.408-3.484Z" transform="translate(-204.093 -33.486)" fill="#65b54e"/>
              <path id="パス_937" data-name="パス 937" d="M246.017,54.95c.51.446.8.741.8.741a10.365,10.365,0,0,0-7.6-4.322,7.871,7.871,0,0,0,2.313-1.2,2.2,2.2,0,0,0,.59-.678,21.015,21.015,0,0,1-3.628,1.842,10.366,10.366,0,0,0-5.582,1.531,8.944,8.944,0,0,0-2.647,2.448.8.8,0,0,0,.1.973c.367.422.136,1.555.343,1.092a11.7,11.7,0,0,1,4.035-4.4,5.415,5.415,0,0,1,3.811,1.993,5.645,5.645,0,0,1,1.045,1.826A6.284,6.284,0,0,0,237.9,53.6a4.211,4.211,0,0,0-1.914-1.124,9.767,9.767,0,0,1,4.107-.247,11.449,11.449,0,0,1,1.8.43,3.9,3.9,0,0,1,1.459,1.81,2.592,2.592,0,0,1,.167.877,3.316,3.316,0,0,0-.8-2.392c.335.136.662.287.957.438A12.25,12.25,0,0,1,246.017,54.95Z" transform="translate(-198.421 -41.578)" fill="#5fa348"/>
              <path id="パス_938" data-name="パス 938" d="M313.865,86.155a1.6,1.6,0,0,1,0,.271A1.923,1.923,0,0,0,313.865,86.155Z" transform="translate(-268.765 -72.384)"/>
              <path id="パス_939" data-name="パス 939" d="M82.109,95.088s1.89,1.922.4,1.284-6.7-2.313-8.365-3.11a10.685,10.685,0,0,1-4.473-6.419,13.989,13.989,0,0,0-2.1-4.107s.08-.143.271-.43a7.676,7.676,0,0,1,.981-1.188,11.163,11.163,0,0,1,5.661-2.9A9.339,9.339,0,0,1,80.865,79.5a12.853,12.853,0,0,1,5.183,5.741,8.381,8.381,0,0,1,.494,6.323,5.78,5.78,0,0,1-4.433,3.525Z" transform="translate(-61.839 -65.617)" fill="#65b54e"/>
              <path id="パス_940" data-name="パス 940" d="M94.525,113.79c-1.531-1.483-3.189-3.309-4.441-4.6a46.336,46.336,0,0,1-.7-5.821c-.191-1.81-.43-3.245-.43-3.245.056,2.344-.1,3.987-.136,5.223a11.163,11.163,0,0,0,.112,2.639A27.922,27.922,0,0,0,84.295,104a7.654,7.654,0,0,1-.965-2.209,6.376,6.376,0,0,1-.175-1.188,7.616,7.616,0,0,0,.438,2.95c-.279-.167-.558-.327-.8-.47a14.987,14.987,0,0,0-2.153-.949c-.518-.183-.8-.271-.8-.271a39.979,39.979,0,0,1,5.925,4.394,4.248,4.248,0,0,0-2.7.351,4.371,4.371,0,0,0-.917.582,5.582,5.582,0,0,1,4.091-.478,53.182,53.182,0,0,1,6.85,8.5.989.989,0,0,0,1.22.359,1.1,1.1,0,0,0,.207-1.778Z" transform="translate(-72.15 -84.12)" fill="#5fa348"/>
            </g>
          </g>
        </g>
      </g>
      <g id="グループ_255" data-name="グループ 255" transform="translate(3776 -1023)">
        <rect id="長方形_196" data-name="長方形 196" width="110" height="28" rx="8" fill="#ededed"/>
        <text id="ノーコード実装" transform="translate(6 19)" fill="#37b2e7" font-size="14" font-family="NotoSansJP-Bold, Noto Sans JP" font-weight="700" letter-spacing="-0.02em"><tspan x="0" y="0">ノーコード</tspan><tspan y="0">実装</tspan></text>
      </g>
      <text id="Lv." transform="translate(3559 -1001)" fill="#ccc" font-size="20" font-family="AzoSans-Black, Azo Sans" font-weight="800"><tspan x="0" y="0">Lv.</tspan></text>
      <text id="_" data-name="★" transform="translate(3591 -1001)" fill="#37b2e7" font-size="20" font-family="HiraginoSans-W8, Hiragino Sans"><tspan x="0" y="0">★</tspan></text>
      <text id="_2" data-name="★" transform="translate(3613 -1001)" fill="#ccc" font-size="20" font-family="HiraginoSans-W8, Hiragino Sans"><tspan x="0" y="0">★</tspan></text>
      <text id="_3" data-name="★" transform="translate(3635 -1001)" fill="#ccc" font-size="20" font-family="HiraginoSans-W8, Hiragino Sans"><tspan x="0" y="0">★</tspan></text>
      <text id="すぐはじめる" transform="translate(3719 -944)" fill="#37b2e8" font-size="32" font-family="NotoSansJP-Bold, Noto Sans JP" font-weight="700"><tspan x="-96" y="0">すぐはじめる</tspan></text>
    </g>
    <g id="グループ_1211" data-name="グループ 1211">
      <rect id="長方形_1144" data-name="長方形 1144" width="320" height="60" rx="12" transform="translate(3559 -520)" fill="#36b3e8"/>
      <text id="関連記事を読む_" data-name="関連記事を読む  →" transform="translate(3719 -484)" fill="#fff" font-size="18" font-family="NotoSansJP-Bold, Noto Sans JP" font-weight="700"><tspan x="-76.086" y="0">関連記事</tspan><tspan y="0">を</tspan><tspan y="0">読</tspan><tspan y="0" xml:space="preserve">む  →</tspan></text>
    </g>
  </g>
</svg>
