<svg xmlns="http://www.w3.org/2000/svg" xmlns:xlink="http://www.w3.org/1999/xlink" width="414" height="681" viewBox="0 0 414 681">
  <defs>
    <filter id="長方形_207" x="0" y="27" width="414" height="654" filterUnits="userSpaceOnUse">
      <feOffset dy="12" input="SourceAlpha"/>
      <feGaussianBlur stdDeviation="9" result="blur"/>
      <feFlood flood-opacity="0.161"/>
      <feComposite operator="in" in2="blur"/>
      <feComposite in="SourceGraphic"/>
    </filter>
    <clipPath id="clip-path">
      <circle id="楕円形_12" data-name="楕円形 12" cx="35" cy="35" r="35" fill="#d6ffc1"/>
    </clipPath>
  </defs>
  <g id="グループ_1215" data-name="グループ 1215" transform="translate(-3897 1078)">
    <g id="グループ_288" data-name="グループ 288">
      <g transform="matrix(1, 0, 0, 1, 3897, -1078)" filter="url(#長方形_207)">
        <rect id="長方形_207-2" data-name="長方形 207" width="360" height="600" rx="20" transform="translate(27 42)" fill="#fff"/>
      </g>
      <rect id="長方形_208" data-name="長方形 208" width="320" height="110" rx="20" transform="translate(3944 -917)" fill="#ededed"/>
      <text id="Googleスプレッドシート_AI分析で季節_トレンド要因を加味した需要予測" data-name="Googleスプレッドシート＋AI分析で季節・トレンド要因を加味した需要予測" transform="translate(3964 -901)" font-size="18" font-family="NotoSansJP-Bold, Noto Sans JP" font-weight="700"><tspan x="0" y="21">Google</tspan><tspan y="21">スプレッドシート＋</tspan><tspan y="21">AI</tspan><tspan y="21">分析</tspan><tspan x="0" y="47">で</tspan><tspan y="47">季節・</tspan><tspan y="47">トレンド</tspan><tspan y="47">要因</tspan><tspan y="47">を</tspan><tspan y="47">加味</tspan><tspan y="47">した</tspan><tspan x="0" y="73">需要予測</tspan></text>
      <text id="推奨ツール" transform="translate(3979.1 -770)" fill="#9199a6" font-size="16" font-family="NotoSansJP-Bold, Noto Sans JP" font-weight="700"><tspan x="0" y="0">推奨</tspan><tspan y="0">ツール</tspan></text>
      <text id="月間ツールコスト目安" transform="translate(3978.409 -684)" fill="#9199a6" font-size="16" font-family="NotoSansJP-Bold, Noto Sans JP" font-weight="700"><tspan x="0" y="0">月間</tspan><tspan y="0">ツールコスト</tspan><tspan y="0">目安</tspan></text>
      <text id="難易度" transform="translate(3979.283 -614)" fill="#9199a6" font-size="16" font-family="NotoSansJP-Bold, Noto Sans JP" font-weight="700"><tspan x="0" y="0">難易度</tspan></text>
      <text id="Googleスプレッドシート_ChatGPT_Zapier" data-name="Googleスプレッドシート + ChatGPT + Zapier" transform="translate(3971 -761)" font-size="15" font-family="NotoSansJP-Bold, Noto Sans JP" font-weight="700"><tspan x="0" y="17">Google</tspan><tspan y="17">スプレッドシート + </tspan><tspan y="17">ChatGPT + </tspan><tspan x="0" y="38">Zapier</tspan></text>
      <text id="_5_000_30_000_月" data-name="¥5,000〜¥30,000/月" transform="translate(3978.645 -654)" font-size="18" font-family="NotoSansJP-Bold, Noto Sans JP" font-weight="700"><tspan x="0" y="0">¥5,000〜¥30,000/月</tspan></text>
      <text id="簡単な設定作業あり_ITに詳しくなくてもOK" data-name="簡単な設定作業あり。ITに詳しくなくてもOK" transform="translate(3981 -605)" font-size="18" font-family="NotoSansJP-Bold, Noto Sans JP" font-weight="700"><tspan x="0" y="21">簡単</tspan><tspan y="21">な</tspan><tspan y="21">設定作業</tspan><tspan y="21">あり。</tspan><tspan y="21">IT</tspan><tspan y="21">に</tspan><tspan y="21">詳</tspan><tspan y="21">しく</tspan><tspan x="0" y="47">なくても</tspan><tspan y="47">OK</tspan></text>
      <g id="グループ_280" data-name="グループ 280" transform="translate(3954 -784.998)">
        <path id="パス_985" data-name="パス 985" d="M261.209,3.684a.8.8,0,0,0-1.135,0l-1.707,1.707a.8.8,0,0,1-.681.227l-1-.142a.8.8,0,0,1-.681-.681l-.142-1a.8.8,0,0,1,.227-.681L257.8,1.41a.8.8,0,0,0,0-1.135h0a.8.8,0,0,0-.453-.227,4.824,4.824,0,1,0,4.09,4.093A.806.806,0,0,0,261.209,3.684Z" transform="translate(-242.485 0.001)" fill="#9199a6"/>
        <path id="パス_986" data-name="パス 986" d="M11.169,209.8a.557.557,0,0,0-.1-.868,5.93,5.93,0,0,1-1.243-1.017,6.017,6.017,0,0,1-.709-.929.556.556,0,0,0-.865-.1l-3.3,3.3a1.493,1.493,0,0,1-1.1.443,3.71,3.71,0,0,0-3.808,4.213.648.648,0,0,0,.129.317.618.618,0,0,0,.922.055L2.4,213.9a.617.617,0,0,1,.524-.175l.767.11a.617.617,0,0,1,.524.524l.11.767a.617.617,0,0,1-.175.524l-1.313,1.313a.617.617,0,0,0,0,.873h0a.625.625,0,0,0,.355.176A3.718,3.718,0,0,0,7.424,214.2a1.5,1.5,0,0,1,.444-1.108Z" transform="translate(0 -199.049)" fill="#9199a6"/>
      </g>
      <path id="パス_1049" data-name="パス 1049" d="M103.717,73.621l1.21-1.21-1.491-1.491-1.323,1.323a9.432,9.432,0,0,0-4.26-1.57V68.5h-2.11v2.172a9.528,9.528,0,1,0,7.975,2.949Zm-6.922,5.431a3.16,3.16,0,0,1,1.058,6.14v1.249h-2.11V85.187a3.162,3.162,0,0,1-2.11-2.972h2.11A1.058,1.058,0,1,0,96.8,81.157a3.16,3.16,0,0,1-1.058-6.14V73.768h2.11v1.249a3.162,3.162,0,0,1,2.11,2.972h-2.11a1.058,1.058,0,1,0-1.058,1.064Z" transform="translate(3866.7 -768.605)" fill="#9199a6"/>
      <g id="Layer_2" data-name="Layer 2" transform="translate(3954 -630)">
        <rect id="長方形_193" data-name="長方形 193" width="5" height="8" rx="2" transform="translate(7 11)" fill="#9199a6"/>
        <rect id="長方形_194" data-name="長方形 194" width="5" height="6" rx="2" transform="translate(0 13)" fill="#9199a6"/>
        <rect id="長方形_195" data-name="長方形 195" width="5" height="12" rx="2" transform="translate(14 7)" fill="#9199a6"/>
        <path id="パス_989" data-name="パス 989" d="M5.675,12.179a.683.683,0,0,0,.168-.021,28.594,28.594,0,0,0,6.951-2.782,28.537,28.537,0,0,0,6.453-4.985V6.071a.679.679,0,0,0,1.357,0V2.679A.679.679,0,0,0,19.925,2H16.532a.679.679,0,1,0,0,1.357h1.816a27.161,27.161,0,0,1-6.22,4.837A27.221,27.221,0,0,1,5.507,10.84a.679.679,0,0,0,.168,1.338Z" transform="translate(-2.96 -2)" fill="#9199a6"/>
      </g>
      <circle id="楕円形_16" data-name="楕円形 16" cx="60" cy="60" r="60" transform="translate(4044 -1078)" fill="#fff"/>
      <g id="グループ_281" data-name="グループ 281" transform="translate(4161 -1023)">
        <rect id="長方形_196" data-name="長方形 196" width="110" height="28" rx="8" fill="#ededed"/>
        <text id="ローコード実装" transform="translate(6 19)" fill="#65b54e" font-size="14" font-family="NotoSansJP-Bold, Noto Sans JP" font-weight="700" letter-spacing="-0.02em"><tspan x="0" y="0">ローコード</tspan><tspan y="0">実装</tspan></text>
      </g>
      <text id="Lv." transform="translate(3944 -1001)" fill="#ccc" font-size="20" font-family="AzoSans-Black, Azo Sans" font-weight="800"><tspan x="0" y="0">Lv.</tspan></text>
      <text id="_" data-name="★" transform="translate(3976 -1001)" fill="#65b54e" font-size="20" font-family="HiraginoSans-W8, Hiragino Sans"><tspan x="0" y="0">★</tspan></text>
      <text id="_2" data-name="★" transform="translate(3998 -1001)" fill="#65b54e" font-size="20" font-family="HiraginoSans-W8, Hiragino Sans"><tspan x="0" y="0">★</tspan></text>
      <text id="_3" data-name="★" transform="translate(4020 -1001)" fill="#ccc" font-size="20" font-family="HiraginoSans-W8, Hiragino Sans"><tspan x="0" y="0">★</tspan></text>
      <text id="しっかり始める" transform="translate(4104 -944)" fill="#65b54e" font-size="32" font-family="NotoSansJP-Bold, Noto Sans JP" font-weight="700"><tspan x="-112" y="0">しっかり</tspan><tspan y="0">始</tspan><tspan y="0">める</tspan></text>
      <g id="グループ_282" data-name="グループ 282" transform="translate(781 -1047)">
        <circle id="楕円形_9" data-name="楕円形 9" cx="35" cy="35" r="35" transform="translate(3288 -15)" fill="#d6ffc1"/>
        <g id="マスクグループ_2" data-name="マスクグループ 2" transform="translate(3288 -15)" clip-path="url(#clip-path)">
          <g id="グループ_245" data-name="グループ 245" transform="translate(0.143 12.297)">
            <g id="グループ_244" data-name="グループ 244" transform="translate(0 0)">
              <path id="パス_941" data-name="パス 941" d="M107.665,92.7a.991.991,0,0,1-.991-.984c0-1.519,0-37.272,19.446-52.307a.991.991,0,0,1,1.2,1.569c-18.665,14.464-18.672,50.362-18.672,50.724A.991.991,0,0,1,107.665,92.7Z" transform="translate(-72.157 -31.67)" fill="#5fa348"/>
              <path id="パス_942" data-name="パス 942" d="M126.41,96.439s2.5-12.923,16.278-7.81C142.688,88.629,136.223,100.988,126.41,96.439Z" transform="translate(-85.507 -64.26)" fill="#65b54e"/>
              <path id="パス_943" data-name="パス 943" d="M103.3,81.731s5.959-11.752-8.114-16.033C95.182,65.7,92.724,79.409,103.3,81.731Z" transform="translate(-64.216 -49.558)" fill="#65b54e"/>
              <path id="パス_944" data-name="パス 944" d="M148.133,56.131s4.946-10.414,15.519-3.059C163.63,53.072,155.437,62.133,148.133,56.131Z" transform="translate(-100.201 -39.239)" fill="#65b54e"/>
              <path id="パス_945" data-name="パス 945" d="M133.076,34.614s7.629-8.678-3.363-15.382C129.713,19.232,124.622,30.325,133.076,34.614Z" transform="translate(-86.714 -18.127)" fill="#65b54e"/>
              <path id="パス_946" data-name="パス 946" d="M165.811,24.848s3.276-13.559,17.624-7.449C183.435,17.4,176,30.142,165.811,24.848Z" transform="translate(-112.159 -15.817)" fill="#65b54e"/>
              <path id="パス_947" data-name="パス 947" d="M62.269,128.652a.723.723,0,0,0,.58-.843c0-.013-.005-.027-.008-.04-.238-1.114-6-27.357-22.686-35.269a.744.744,0,1,0-.636,1.345c16.055,7.593,21.84,33.953,21.84,34.235a.723.723,0,0,0,.837.588l.046-.009Z" transform="translate(-26.443 -67.639)" fill="#5fa348"/>
              <g id="グループ_242" data-name="グループ 242" transform="translate(0 18.222)">
                <path id="パス_948" data-name="パス 948" d="M71.161,160.092s-1.982-10.594-13.3-6.508C57.884,153.612,63.12,163.772,71.161,160.092Z" transform="translate(-39.139 -126.594)" fill="#65b54e"/>
                <path id="パス_949" data-name="パス 949" d="M101.544,148.3s-4.823-9.647,6.718-13.1C108.262,135.2,110.215,146.442,101.544,148.3Z" transform="translate(-68.011 -114.796)" fill="#65b54e"/>
                <path id="パス_950" data-name="パス 950" d="M56.526,130.836s-3.884-9.083-13.212-3.117C43.314,127.719,50.054,135.754,56.526,130.836Z" transform="translate(-29.299 -108.36)" fill="#65b54e"/>
                <path id="パス_951" data-name="パス 951" d="M84.094,113.347s-6.27-7.673,3.377-13.075c0,0,4.006,9.69-3.377,13.075Z" transform="translate(-55.529 -91.167)" fill="#65b54e"/>
                <path id="パス_952" data-name="パス 952" d="M35.8,104.176s-5.3-6.856-11.882.246C23.914,104.421,31.385,109.766,35.8,104.176Z" transform="translate(-16.177 -91.794)" fill="#65b54e"/>
                <path id="パス_953" data-name="パス 953" d="M57.445,83.963s-6.993-5.135,0-11.831C57.445,72.126,62.991,79.458,57.445,83.963Z" transform="translate(-36.755 -72.132)" fill="#65b54e"/>
                <path id="パス_954" data-name="パス 954" d="M14.138,84.772S9.56,75.371,0,82.111C0,82.11,7.528,90.29,14.138,84.772Z" transform="translate(0 -77.236)" fill="#65b54e"/>
              </g>
              <g id="グループ_243" data-name="グループ 243" transform="translate(3.406 2.233)">
                <path id="パス_955" data-name="パス 955" d="M103.34,149.7a20.254,20.254,0,0,1,3.392-6.407A20.337,20.337,0,0,0,104,147.288a4.6,4.6,0,0,0-.246-2.17,4.445,4.445,0,0,1,.043,2.553,20.293,20.293,0,0,0-2.126,7.76h.723a19.73,19.73,0,0,1,.781-5.178h.058A6.364,6.364,0,0,1,107,147.3a6.5,6.5,0,0,0-3.66,2.408Z" transform="translate(-72.179 -104.28)" fill="#5fa348"/>
                <path id="パス_956" data-name="パス 956" d="M76.308,160.281h.043a6.392,6.392,0,0,0-2.56-2.893,6.333,6.333,0,0,1,2.264,2.7,21.335,21.335,0,0,0-2.509-1.446l.043-.043-2.516-2.235,2.17,2.1a20.975,20.975,0,0,0-4.672-1.591,20.624,20.624,0,0,1,5.4,2.329,24.177,24.177,0,0,1-4.513-.26,23.868,23.868,0,0,0,4.918.506,19.658,19.658,0,0,1,2.068,1.519l-5.163.224,5.489.051a19.321,19.321,0,0,1,2.654,2.784l.55-.434A20.267,20.267,0,0,0,76.308,160.281Z" transform="translate(-49.789 -113.123)" fill="#5fa348"/>
                <path id="パス_957" data-name="パス 957" d="M85.847,116.369a19.213,19.213,0,0,1,.376-3.2,4.391,4.391,0,0,1,1.808-1.96,4.494,4.494,0,0,0-1.685,1.446,18.869,18.869,0,0,1,1.323-3.775,17.783,17.783,0,0,0-1.005,2.17,3.182,3.182,0,0,0-.282-1.649,3.158,3.158,0,0,1,.079,2.285,18.489,18.489,0,0,0-.824,3.312,15.557,15.557,0,0,0-1-2.242,15.359,15.359,0,0,1,.955,2.538,18.525,18.525,0,0,0,0,5.51l.629-.123a18.077,18.077,0,0,1-.369-3.855,4.888,4.888,0,0,1,2.17-2.683A4.92,4.92,0,0,0,85.847,116.369Z" transform="translate(-60.658 -80.998)" fill="#5fa348"/>
                <path id="パス_958" data-name="パス 958" d="M64.838,133.188a18.417,18.417,0,0,0-3.941-2.227,7.448,7.448,0,0,0-2.712-1.924,7.235,7.235,0,0,1,2.35,1.786,19.332,19.332,0,0,0-3.254-.955l-2.5-1.526,2.134,1.446a18.672,18.672,0,0,0-3.616-.326,18.791,18.791,0,0,1,5.561,1.078l-3.08.1,3.551.087a18.329,18.329,0,0,1,5.127,2.958Z" transform="translate(-39.462 -94.166)" fill="#5fa348"/>
                <path id="パス_959" data-name="パス 959" d="M60.4,90.872a15.635,15.635,0,0,1-1.15-3.167,3.227,3.227,0,0,1,1.042-1.873,3.275,3.275,0,0,0-1.107,1.627,16.1,16.1,0,0,1-.42-3.262,3.616,3.616,0,0,1,1.591-2.842,3.711,3.711,0,0,0-1.591,2.025v-.355a16.08,16.08,0,0,1,.282-2.422,17.576,17.576,0,0,0-.376,2.134l-.456-1.446.427,1.627a16.088,16.088,0,0,0-.058,2.437,3.417,3.417,0,0,0-.875-1.172,3.343,3.343,0,0,1,.882,1.446,16.257,16.257,0,0,0,1.3,5.5Z" transform="translate(-42.439 -61.872)" fill="#5fa348"/>
                <path id="パス_960" data-name="パス 960" d="M42.895,106.6a16.348,16.348,0,0,0-3.254-.947h-.058a17.275,17.275,0,0,0-2.032-.238,12.447,12.447,0,0,1-3.486-.824,11.97,11.97,0,0,0,2.365.8,16.814,16.814,0,0,0-4.158.579,15.33,15.33,0,0,1,1.895-.282,3.4,3.4,0,0,0-1.208.665,3.7,3.7,0,0,1,2.017-.723,16.478,16.478,0,0,1,3.435.2,7.12,7.12,0,0,0-3.124,1.577,7.031,7.031,0,0,1,3.753-1.446,15.848,15.848,0,0,1,3.616,1.179Z" transform="translate(-25.235 -78.095)" fill="#5fa348"/>
                <path id="パス_961" data-name="パス 961" d="M18.728,85.487a15.986,15.986,0,0,0-4.542-2.357,14.4,14.4,0,0,1,3.848,2.119,21.387,21.387,0,0,0-3-.723v-.043h-.123a20.2,20.2,0,0,0-4.382-.238,19.736,19.736,0,0,1,3.862.369,21.248,21.248,0,0,1-3.7.542,20.694,20.694,0,0,0,4.216-.441,17.892,17.892,0,0,1,1.822.477,5.481,5.481,0,0,1-3.2.723,5.546,5.546,0,0,0,3.435-.644,21.135,21.135,0,0,1,2.264.919,15.928,15.928,0,0,1-4.881,1.078,15.782,15.782,0,0,0,5.228-.912,18.675,18.675,0,0,1,2.943,1.815l.4-.55A19.524,19.524,0,0,0,18.728,85.487Z" transform="translate(-10.527 -63.582)" fill="#5fa348"/>
                <path id="パス_962" data-name="パス 962" d="M134.314,95.613a26.634,26.634,0,0,0-4.859.2,25.454,25.454,0,0,1,5.221-2.025,25.745,25.745,0,0,0-7.232,2.719,24.182,24.182,0,0,0,2.314-2.321,25.382,25.382,0,0,1-4.194,3.486,24.628,24.628,0,0,0-4.809,4.238l.665.535a23.805,23.805,0,0,1,3.1-3.24l6.942-.072-6.508-.275a25.55,25.55,0,0,1,3.811-2.64A26.5,26.5,0,0,1,134.314,95.613Z" transform="translate(-85.088 -70.794)" fill="#5fa348"/>
                <path id="パス_963" data-name="パス 963" d="M109.315,84.592a15.066,15.066,0,0,0-.231-5.641,13.735,13.735,0,0,1,.079,5.185,26.472,26.472,0,0,0-1.62-3.782h.043l-1.15-4.44.788,3.811a25.3,25.3,0,0,0-2.893-4.129,24.866,24.866,0,0,1,3.674,6.566,18.221,18.221,0,0,1-3.681-3.7A18.275,18.275,0,0,0,108.2,82.7a24.022,24.022,0,0,1,1.366,7.8h.86a24.78,24.78,0,0,0-1.112-5.9Z" transform="translate(-73.974 -58.485)" fill="#5fa348"/>
                <path id="パス_964" data-name="パス 964" d="M156,55.6a21.274,21.274,0,0,0-3.182.079,5.322,5.322,0,0,0,1.945-1.063,5.217,5.217,0,0,1-2.5,1.063v.051c-.622.079-1.244.181-1.858.3q-1.085.239-2.17.586a9.51,9.51,0,0,0,1.887-2.17,9.287,9.287,0,0,1-2.365,2.329,22.335,22.335,0,0,0-5.387,2.661l.456.6A20.87,20.87,0,0,1,145.9,58.1a26.562,26.562,0,0,1,5.062,0,27.462,27.462,0,0,0-4.5-.311,22.564,22.564,0,0,1,4.426-1.577,6.833,6.833,0,0,1,3.616.607,6.875,6.875,0,0,0-2.676-.8A21.7,21.7,0,0,1,156,55.6Z" transform="translate(-99.707 -44.185)" fill="#5fa348"/>
                <path id="パス_965" data-name="パス 965" d="M140.71,33.04a14.053,14.053,0,0,1-.535,4.563,22.089,22.089,0,0,0-.723-4.071,11.569,11.569,0,0,0,.072-4.021,9.953,9.953,0,0,1-.159,3.616,21.655,21.655,0,0,0-1.446-3.681,21.705,21.705,0,0,1,1.714,6.718,19.83,19.83,0,0,1-1.526-3.616,20.309,20.309,0,0,0,1.584,4.194,20.888,20.888,0,0,1-.571,6.508l.723.173a21.7,21.7,0,0,0,.369-5.062,14.283,14.283,0,0,0,.5-5.322Z" transform="translate(-96.698 -27.268)" fill="#5fa348"/>
                <path id="パス_966" data-name="パス 966" d="M173.275,24.432c-1.186-.079-2.379-.094-3.565-.058a26.193,26.193,0,0,1,5.062-1.62,26.817,26.817,0,0,0-5.836,1.635c-.6.246-1.2.514-1.779.8a7.684,7.684,0,0,0,1.721-2.473,7.459,7.459,0,0,1-2.524,2.893,26.757,26.757,0,0,0-6.711,5.062l.723.6a25.446,25.446,0,0,1,3.941-3.688,22.956,22.956,0,0,1,4.722-.542,22.321,22.321,0,0,0-4.281.224,26.433,26.433,0,0,1,4.549-2.654A36.276,36.276,0,0,1,173.275,24.432Z" transform="translate(-111.394 -22.718)" fill="#5fa348"/>
              </g>
            </g>
          </g>
        </g>
      </g>
    </g>
    <g id="グループ_1212" data-name="グループ 1212">
      <rect id="長方形_1145" data-name="長方形 1145" width="320" height="60" rx="12" transform="translate(3944 -520)" fill="#65b54e"/>
      <text id="関連記事を読む_" data-name="関連記事を読む  →" transform="translate(4104 -484)" fill="#fff" font-size="18" font-family="NotoSansJP-Bold, Noto Sans JP" font-weight="700"><tspan x="-76.086" y="0">関連記事</tspan><tspan y="0">を</tspan><tspan y="0">読</tspan><tspan y="0" xml:space="preserve">む  →</tspan></text>
    </g>
  </g>
</svg>
