<svg xmlns="http://www.w3.org/2000/svg" xmlns:xlink="http://www.w3.org/1999/xlink" width="414" height="681" viewBox="0 0 414 681">
  <defs>
    <filter id="長方形_209" x="0" y="27" width="414" height="654" filterUnits="userSpaceOnUse">
      <feOffset dy="12" input="SourceAlpha"/>
      <feGaussianBlur stdDeviation="9" result="blur"/>
      <feFlood flood-opacity="0.161"/>
      <feComposite operator="in" in2="blur"/>
      <feComposite in="SourceGraphic"/>
    </filter>
    <clipPath id="clip-path">
      <circle id="楕円形_13" data-name="楕円形 13" cx="35" cy="35" r="35" fill="#ebff98"/>
    </clipPath>
  </defs>
  <g id="グループ_1216" data-name="グループ 1216" transform="translate(-4282 1078)">
    <g id="グループ_287" data-name="グループ 287">
      <g transform="matrix(1, 0, 0, 1, 4282, -1078)" filter="url(#長方形_209)">
        <rect id="長方形_209-2" data-name="長方形 209" width="360" height="600" rx="20" transform="translate(27 42)" fill="#fff"/>
      </g>
      <rect id="長方形_210" data-name="長方形 210" width="320" height="88" rx="20" transform="translate(4329 -917)" fill="#ededed"/>
      <text id="機械学習ベースの需要予測_自動発注最適化システム" data-name="機械学習ベースの需要予測＋自動発注最適化システム" transform="translate(4349 -901)" font-size="18" font-family="NotoSansJP-Bold, Noto Sans JP" font-weight="700"><tspan x="0" y="21">機械学習</tspan><tspan y="21">ベースの</tspan><tspan y="21">需要予測＋自動</tspan><tspan x="0" y="47">発注最適化</tspan><tspan y="47">システム</tspan></text>
      <text id="推奨ツール" transform="translate(4364.1 -790)" fill="#9199a6" font-size="16" font-family="NotoSansJP-Bold, Noto Sans JP" font-weight="700"><tspan x="0" y="0">推奨</tspan><tspan y="0">ツール</tspan></text>
      <text id="月間ツールコスト目安" transform="translate(4363.409 -720)" fill="#9199a6" font-size="16" font-family="NotoSansJP-Bold, Noto Sans JP" font-weight="700"><tspan x="0" y="0">月間</tspan><tspan y="0">ツールコスト</tspan><tspan y="0">目安</tspan></text>
      <text id="難易度" transform="translate(4364.283 -650)" fill="#9199a6" font-size="16" font-family="NotoSansJP-Bold, Noto Sans JP" font-weight="700"><tspan x="0" y="0">難易度</tspan></text>
      <text id="Python_BigQuery_ChatGPT_API" data-name="Python + BigQuery + ChatGPT API" transform="translate(4356 -764)" font-size="15" font-family="NotoSansJP-Bold, Noto Sans JP" font-weight="700"><tspan x="0" y="0">Python + BigQuery + ChatGPT API</tspan></text>
      <text id="_30_000_月" data-name="¥30,000〜/月" transform="translate(4363.645 -690)" font-size="18" font-family="NotoSansJP-Bold, Noto Sans JP" font-weight="700"><tspan x="0" y="0">¥30,000〜/月</tspan></text>
      <text id="専門家またはエンジニアのサポートが必要です" transform="translate(4366 -641)" font-size="18" font-family="NotoSansJP-Bold, Noto Sans JP" font-weight="700"><tspan x="0" y="21">専門家</tspan><tspan y="21">またはエンジニアのサポー</tspan><tspan x="0" y="47">トが</tspan><tspan y="47">必要</tspan><tspan y="47">です</tspan></text>
      <g id="グループ_283" data-name="グループ 283" transform="translate(4339 -804.998)">
        <path id="パス_985" data-name="パス 985" d="M261.209,3.684a.8.8,0,0,0-1.135,0l-1.707,1.707a.8.8,0,0,1-.681.227l-1-.142a.8.8,0,0,1-.681-.681l-.142-1a.8.8,0,0,1,.227-.681L257.8,1.41a.8.8,0,0,0,0-1.135h0a.8.8,0,0,0-.453-.227,4.824,4.824,0,1,0,4.09,4.093A.806.806,0,0,0,261.209,3.684Z" transform="translate(-242.485 0.001)" fill="#9199a6"/>
        <path id="パス_986" data-name="パス 986" d="M11.169,209.8a.557.557,0,0,0-.1-.868,5.93,5.93,0,0,1-1.243-1.017,6.017,6.017,0,0,1-.709-.929.556.556,0,0,0-.865-.1l-3.3,3.3a1.493,1.493,0,0,1-1.1.443,3.71,3.71,0,0,0-3.808,4.213.648.648,0,0,0,.129.317.618.618,0,0,0,.922.055L2.4,213.9a.617.617,0,0,1,.524-.175l.767.11a.617.617,0,0,1,.524.524l.11.767a.617.617,0,0,1-.175.524l-1.313,1.313a.617.617,0,0,0,0,.873h0a.625.625,0,0,0,.355.176A3.718,3.718,0,0,0,7.424,214.2a1.5,1.5,0,0,1,.444-1.108Z" transform="translate(0 -199.049)" fill="#9199a6"/>
      </g>
      <path id="パス_1050" data-name="パス 1050" d="M103.717,73.621l1.21-1.21-1.491-1.491-1.323,1.323a9.432,9.432,0,0,0-4.26-1.57V68.5h-2.11v2.172a9.528,9.528,0,1,0,7.975,2.949Zm-6.922,5.431a3.16,3.16,0,0,1,1.058,6.14v1.249h-2.11V85.187a3.162,3.162,0,0,1-2.11-2.972h2.11A1.058,1.058,0,1,0,96.8,81.157a3.16,3.16,0,0,1-1.058-6.14V73.768h2.11v1.249a3.162,3.162,0,0,1,2.11,2.972h-2.11a1.058,1.058,0,1,0-1.058,1.064Z" transform="translate(4251.7 -804.605)" fill="#9199a6"/>
      <g id="Layer_2" data-name="Layer 2" transform="translate(4339 -666)">
        <rect id="長方形_193" data-name="長方形 193" width="5" height="8" rx="2" transform="translate(7 11)" fill="#9199a6"/>
        <rect id="長方形_194" data-name="長方形 194" width="5" height="6" rx="2" transform="translate(0 13)" fill="#9199a6"/>
        <rect id="長方形_195" data-name="長方形 195" width="5" height="12" rx="2" transform="translate(14 7)" fill="#9199a6"/>
        <path id="パス_989" data-name="パス 989" d="M5.675,12.179a.683.683,0,0,0,.168-.021,28.594,28.594,0,0,0,6.951-2.782,28.537,28.537,0,0,0,6.453-4.985V6.071a.679.679,0,0,0,1.357,0V2.679A.679.679,0,0,0,19.925,2H16.532a.679.679,0,1,0,0,1.357h1.816a27.161,27.161,0,0,1-6.22,4.837A27.221,27.221,0,0,1,5.507,10.84a.679.679,0,0,0,.168,1.338Z" transform="translate(-2.96 -2)" fill="#9199a6"/>
      </g>
      <circle id="楕円形_17" data-name="楕円形 17" cx="60" cy="60" r="60" transform="translate(4429 -1078)" fill="#fff"/>
      <g id="グループ_285" data-name="グループ 285" transform="translate(4546 -1023)">
        <rect id="長方形_196" data-name="長方形 196" width="110" height="28" rx="8" fill="#ededed"/>
        <text id="カスタム開発" transform="translate(54 19)" fill="#b19623" font-size="14" font-family="NotoSansJP-Bold, Noto Sans JP" font-weight="700" letter-spacing="-0.02em"><tspan x="-41.3" y="0">カスタム</tspan><tspan y="0">開発</tspan></text>
      </g>
      <text id="Lv." transform="translate(4329 -1001)" fill="#ccc" font-size="20" font-family="AzoSans-Black, Azo Sans" font-weight="800"><tspan x="0" y="0">Lv.</tspan></text>
      <text id="_" data-name="★" transform="translate(4361 -1001)" fill="#b19623" font-size="20" font-family="HiraginoSans-W8, Hiragino Sans"><tspan x="0" y="0">★</tspan></text>
      <text id="_2" data-name="★" transform="translate(4383 -1001)" fill="#b19623" font-size="20" font-family="HiraginoSans-W8, Hiragino Sans"><tspan x="0" y="0">★</tspan></text>
      <text id="_3" data-name="★" transform="translate(4405 -1001)" fill="#b19623" font-size="20" font-family="HiraginoSans-W8, Hiragino Sans"><tspan x="0" y="0">★</tspan></text>
      <text id="本格導入" transform="translate(4489 -944)" fill="#b19623" font-size="32" font-family="NotoSansJP-Bold, Noto Sans JP" font-weight="700"><tspan x="-64" y="0">本格導入</tspan></text>
      <g id="グループ_286" data-name="グループ 286" transform="translate(982 -1047)">
        <circle id="楕円形_10" data-name="楕円形 10" cx="35" cy="35" r="35" transform="translate(3472 -15)" fill="#ebff98"/>
        <g id="マスクグループ_3" data-name="マスクグループ 3" transform="translate(3472 -15)" clip-path="url(#clip-path)">
          <g id="グループ_249" data-name="グループ 249" transform="translate(4.015 7.095)">
            <g id="グループ_248" data-name="グループ 248" transform="translate(0 0)">
              <path id="パス_967" data-name="パス 967" d="M117.494,195.467a2.821,2.821,0,0,1-.572-.346c-.141-.092-.233-.078-.311-.275-.219-.543.459-.24.783-.24.12,0,.3.056.367-.056s-.127-.339-.247-.381a.706.706,0,0,0,.064-.48c-.127-.3-.226,0-.43-.078a.282.282,0,0,1-.226-.329.307.307,0,0,1,.007-.031c.064-.219.155-.127.339-.2.071,0,.092-.12.191-.134s.2.085.289.071a.325.325,0,0,0,.3-.3c0-.3-.169-.12-.332-.169s-.148-.176-.254-.31-.706-.289-.452-.706c.071-.1.254-.078.3-.219s-.064-.2-.078-.289c-.056-.261-.042-.409-.3-.529a1.789,1.789,0,0,0-.649-.183c-.2,0-.332.31-.579.042-.127-.141,0-.36-.106-.48s-.43,0-.565,0-.43.049-.522-.05v-.2l-.127-.183c-.05-.2.148-.226.127-.43s-.374-.254-.445-.43l-.042.064v-.092a.763.763,0,0,0,.064-.6.931.931,0,0,1-.868-.254c-.05-.056,0-.141-.092-.212s-.183-.1-.261-.155c-.212-.141-.169-.155-.219-.339,0,0,.085-.092.056-.169s-.191-.162-.332-.2-.346,0-.43-.2.1-.367.064-.423a.515.515,0,0,0-.459,0c-.381-.3.2-.494.169-.706s-.409-.275-.607-.254-.219.106-.381.155c-.339.106-.551-.226-.833-.339a2.216,2.216,0,0,1-.487-.268c-.127-.085-.381-.24-.543-.148s-.05.3-.141.423-.318,0-.515.176-.127.48-.367.268c-.134-.12,0-.43-.282-.438-.169,0-.423.268-.572.339s-.318,0-.48.056a2.878,2.878,0,0,0-.438.169,2.439,2.439,0,0,1-.423.176c-.254.064-.318,0-.515.183a1.085,1.085,0,0,0-.254.466c-.078.2-.05.261-.31.31a.536.536,0,0,1-.473-.106c-.092.508-.318.12-.614.416-.12.113-.085.226-.113.381-.064.3-.092.169-.339.275s-.3.551-.219.882.289.438-.064.557a.374.374,0,0,1-.466-.169c-.064-.106,0-1.073-.381-.557-.1.134,0,.339,0,.48-.1.289-.346.127-.438.31s.127.3.049.445-.388.071-.529.148-.092.162-.219.212a.562.562,0,0,1-.289,0c-.071,0-.176.035-.155.261,0,.388.2.254-.2.43-.092.042-.127.127-.24.162s-.282-.064-.353.085.134.226.155.311a.524.524,0,0,1,0,.226c0,.148-.2,0-.085.219.056.12.318.176.423.247a1.025,1.025,0,0,0-.071.48c0,.127.106.176.127.268a1.319,1.319,0,0,1,0,.289c0,.085.275.2.31.325a.261.261,0,0,1-.092.282c-.1.078-.247-.035-.339,0l-.092.191c-.233.183-.557.064-.741.3-.092.127-.049.3-.162.438s-.36.05-.423.268c-.113.367.466.212.572.48.042.106-.042.247,0,.346.056.3.113.092.212.233s.05.219.141.318c.233.275.706,0,1-.056-.071.191-.706.374-.748.565s.494.219.381.572c.162.134.409.042.6.078a1.274,1.274,0,0,0,.6.078c-.155.2-.445.409-.459.706.2,0,.346.134.261.353a.487.487,0,0,0,.374,0,.267.267,0,0,1,.056.176.706.706,0,0,0,.042-.494l-.092-.092a.649.649,0,0,1,.473.466c.035.134-.085.416,0,.522.148.226.875.092,1.094.155s.3.2.459.261.543.085.48.374-.438.183-.092.346a.5.5,0,0,0,.621-.183c.176,0,.183.2.2.332.12,0,.169-.141.275-.169a1.09,1.09,0,0,1,.3,0c.1,0,.169-.155.282-.183s.24.049.353,0a1.552,1.552,0,0,1,.3-.113l.2.078c.176,0,.423-.247.494.092.2.049.169-.148.318-.184s.183.05.31.085.332,0,.43.134c.318,0,.706-.049,1.009-.042l.452-.155a1.513,1.513,0,0,1,.473,0c.141,0,.2-.282.487-.36a1.571,1.571,0,0,1,1.009-.141,1.236,1.236,0,0,1,.268.106l.078.183h.183a1.41,1.41,0,0,0,.3.176h.494a2.461,2.461,0,0,1,.579.049.4.4,0,0,0,.162.1c.078.014.085-.134.212-.064s0,.318.36.346.212-.148.409-.289c.3-.212.261.191.551.183a1.149,1.149,0,0,0-.042-.445l-.24-.275h-.247c-.078,0,0-.162,0-.183s-.318,0-.409-.191c-.2-.409.529-.12.706-.064s.261.2.466.141.219-.416.445-.085c.056-.423.84.141.494-.551.43-.1,0-.31,0-.466,0-.3.24-.233.4-.268.4-.092.466-.289.48-.706a.706.706,0,0,1,.141-.459c.127-.233.071-.2.325-.261h.162c.113,0,.141-.1.233-.141s.353-.092.4-.191c.085-.388-.648-.282-.832-.345Z" transform="translate(-85.695 -158.299)" fill="#467536"/>
              <path id="パス_968" data-name="パス 968" d="M211.177,311.046s2.117,11.552-1.235,17.092H216.7s-2.117-13.055-1.355-18.552S211.177,311.046,211.177,311.046Z" transform="translate(-181.34 -263.977)" fill="#985b3f"/>
              <path id="パス_969" data-name="パス 969" d="M301.238,198.863a3.159,3.159,0,0,1-.572-.346c-.148-.092-.233-.085-.318-.282-.212-.536.466-.233.79-.233.113,0,.3.056.367-.056s-.134-.339-.247-.388a.748.748,0,0,0,.064-.48c-.127-.3-.226,0-.438-.071a.289.289,0,0,1-.217-.347.193.193,0,0,1,.005-.02c.063-.219.155-.127.332-.191s.1-.12.19-.134.212.085.289.071a.318.318,0,0,0,.3-.3c0-.3-.162-.127-.332-.176s-.141-.169-.247-.3-.706-.289-.459-.706c.071-.106.261-.078.3-.219s-.056-.212-.071-.3c-.056-.254-.042-.4-.3-.529a1.774,1.774,0,0,0-.656-.176c-.19,0-.332.31-.572.035-.127-.134,0-.36-.106-.473s-.438,0-.565,0-.438.049-.522-.05v-.2l-.134-.176c-.049-.2.155-.226.134-.43s-.374-.254-.445-.43l-.049.056v-.085a.8.8,0,0,0,.064-.6.967.967,0,0,1-.875-.254c-.049-.056,0-.148-.085-.212a1.207,1.207,0,0,0-.261-.155c-.212-.148-.169-.155-.219-.346,0,0,.078-.085.056-.162s-.191-.162-.339-.2-.346,0-.423-.2.1-.367.064-.423a.514.514,0,0,0-.459,0c-.381-.3.191-.494.169-.706s-.416-.282-.614-.261-.212.113-.374.162c-.346.106-.551-.226-.833-.339a1.933,1.933,0,0,1-.487-.268c-.134-.085-.388-.24-.543-.148s-.049.3-.148.423-.31,0-.515.176-.12.473-.367.261c-.134-.113,0-.423-.282-.43-.162,0-.416.268-.572.332s-.31,0-.48.064a3.091,3.091,0,0,0-.438.2,2.2,2.2,0,0,1-.423.183c-.261.056-.318,0-.515.183a1.1,1.1,0,0,0-.254.459c-.078.2-.049.268-.318.318a.543.543,0,0,1-.473-.176c-.085.508-.311.12-.614.416-.113.113-.078.226-.113.381-.064.3-.085.169-.339.275s-.289.551-.212.882.289.438-.071.557a.4.4,0,0,1-.466-.169c-.056-.106,0-1.073-.381-.557-.092.127,0,.339,0,.473-.1.3-.353.134-.437.318s.127.3.042.445-.388.064-.529.148-.085.162-.212.212a.562.562,0,0,1-.289,0c-.071,0-.176,0-.155.254,0,.388.2.261-.2.438-.092.042-.127.12-.24.162s-.282-.064-.353.085.127.226.148.3a.563.563,0,0,1,0,.233c0,.141-.2,0-.085.219.05.12.318.176.423.247a1.03,1.03,0,0,0-.078.48c0,.127.106.169.134.268a.943.943,0,0,1,0,.282c0,.078.268.2.3.332a.254.254,0,0,1-.085.282c-.1.078-.247-.042-.346,0l-.085.191c-.233.176-.557.056-.706.3-.1.127-.049.3-.169.43s-.36.056-.423.275c-.106.367.466.212.572.473a.986.986,0,0,1,0,.353c.049.289.113.085.212.226s.042.219.134.325c.24.275.706,0,1-.056-.071.191-.706.367-.748.565s.494.219.374.572c.169.134.416.042.607.071s.339.141.6.085c-.155.2-.445.409-.459.706.2.035.346.127.254.353a.543.543,0,0,0,.381,0,.276.276,0,0,1,.05.183.706.706,0,0,0,.042-.5l-.085-.085a.705.705,0,0,1,.473.459c0,.141-.085.423,0,.529.148.219.875.092,1.094.148s.3.212.459.268.536.085.473.374-.43.183-.085.346a.494.494,0,0,0,.614-.191c.183,0,.191.2.2.339.12-.035.169-.148.275-.176a1.09,1.09,0,0,1,.3,0c.106,0,.169-.155.275-.176s.247.049.36,0a1.7,1.7,0,0,1,.3-.12l.2.078c.176,0,.423-.24.494.092.2.056.169-.141.318-.176s.176.049.3.085a1.144,1.144,0,0,1,.438.127c.318,0,.706-.056,1.009-.042l.452-.155a1.291,1.291,0,0,1,.466,0c.247-.092.212-.289.494-.36a1.6,1.6,0,0,1,1-.148,1.182,1.182,0,0,1,.275.113l.078.176h.183a1.867,1.867,0,0,0,.3.183h.494a3.237,3.237,0,0,1,.579.049.426.426,0,0,0,.155.092c.071.014.085-.127.212-.064s.042.325.367.353.212-.148.409-.289.261.191.543.183a1.03,1.03,0,0,0,0-.445l-.247-.275h-.24c-.071,0,0-.155,0-.183s-.318,0-.416-.183c-.2-.409.536-.12.706-.064s.254.2.466.141.212-.423.438-.085c.064-.43.847.141.5-.551.43-.1,0-.318,0-.466,0-.3.247-.233.409-.268.388-.092.466-.3.473-.706a.705.705,0,0,1,.141-.466c.134-.226.078-.191.332-.254h.155c.113,0,.148-.1.24-.141s.353-.092.4-.2C302.149,198.814,301.422,198.905,301.238,198.863Z" transform="translate(-243.449 -161.215)" fill="#539642"/>
              <path id="パス_970" data-name="パス 970" d="M325.011,153.492a3.162,3.162,0,0,1-.572-.346c-.141-.092-.233-.078-.31-.275-.219-.543.459-.24.783-.24.12,0,.3.056.367-.056s-.127-.339-.247-.388a.706.706,0,0,0,.064-.473c-.127-.3-.226,0-.43-.078a.289.289,0,0,1-.225-.342c0-.009,0-.017.007-.025.063-.212.155-.12.339-.191.071,0,.092-.12.19-.134s.2.085.289.071a.325.325,0,0,0,.3-.3c0-.3-.169-.12-.332-.176s-.148-.169-.254-.3-.706-.289-.452-.706c.071-.106.254-.078.3-.219s-.056-.2-.078-.3c-.056-.254-.042-.4-.3-.522a1.664,1.664,0,0,0-.649-.183c-.2,0-.332.311-.579.042-.127-.141,0-.36-.106-.48s-.43,0-.565,0-.43.05-.522-.049v-.2l-.127-.183c-.049-.2.148-.226.127-.43s-.374-.254-.445-.43l-.042.064v-.092a.763.763,0,0,0,.064-.6.931.931,0,0,1-.868-.254c-.049-.056,0-.148-.092-.212a1.206,1.206,0,0,0-.261-.155c-.212-.148-.169-.155-.219-.339,0,0,.085-.092.056-.169s-.19-.162-.339-.2-.339,0-.423-.2.1-.367.064-.423a.515.515,0,0,0-.459,0c-.381-.3.2-.494.169-.706s-.452-.381-.635-.381-.219.106-.381.155c-.339.106-.551-.226-.833-.339a2.066,2.066,0,0,1-.487-.268c-.127-.085-.381-.24-.543-.148s-.05.3-.141.423-.318,0-.515.176-.127.48-.367.261c-.134-.113,0-.423-.282-.43-.169,0-.423.268-.572.332s-.318,0-.48.064a2.352,2.352,0,0,0-.445.212,2.442,2.442,0,0,1-.423.176c-.254.056-.318,0-.515.183a1.085,1.085,0,0,0-.254.466c-.078.2-.049.261-.311.311a.536.536,0,0,1-.473-.106c-.092.508-.318.12-.614.416-.12.113-.085.226-.113.381-.063.3-.092.169-.339.275s-.3.551-.219.882.289.438-.064.557a.367.367,0,0,1-.466-.169c-.063-.106,0-1.073-.381-.557-.1.134,0,.339-.035.48-.1.289-.346.127-.438.31s.127.3.05.445-.388.071-.529.148-.092.162-.219.212-.219-.035-.289,0-.176,0-.155.261c0,.388.2.254-.2.43-.092.042-.12.127-.24.162s-.282-.064-.353.085.134.226.155.31a.52.52,0,0,1,0,.226c0,.148-.2,0-.085.219.056.12.318.176.423.247a1.023,1.023,0,0,0-.071.48c0,.127.106.176.127.268a1.322,1.322,0,0,1,0,.289c0,.085.275.2.31.325a.261.261,0,0,1-.092.282c-.1.078-.247,0-.339,0l-.092.191c-.233.183-.557.064-.706.3-.092.127-.05.3-.162.438s-.36.05-.423.268c-.113.367.466.212.572.48.042.106-.042.247,0,.346.056.3.113.092.212.226s.049.219.141.325c.233.275.706,0,.995-.056-.071.191-.706.367-.748.565s.494.219.381.572c.162.134.409.042.6.078a1.273,1.273,0,0,0,.6.078c-.155.2-.445.409-.459.706.2,0,.346.134.261.353a.487.487,0,0,0,.374,0,.267.267,0,0,1,.056.176.707.707,0,0,0,.042-.494l-.092-.092a.649.649,0,0,1,.473.466c0,.134-.085.416,0,.522.148.219.875.092,1.094.155s.3.2.459.261.543.085.48.374-.438.183-.092.346a.508.508,0,0,0,.621-.191c.176,0,.183.2.2.339.12,0,.169-.141.275-.169a1.09,1.09,0,0,1,.3,0c.1,0,.169-.148.282-.176s.24.05.353,0a2.488,2.488,0,0,1,.3-.12l.134.127c.176,0,.423-.24.494.092.2.056.169-.141.318-.176s.183.049.31.085.332,0,.43.127h.035c.318,0,.67-.05,1.009-.042l.452-.155a1.33,1.33,0,0,1,.473,0c.141,0,.2-.282.487-.36a1.528,1.528,0,0,1,1.009-.141,1.238,1.238,0,0,1,.268.106l.078.183h.183a1.8,1.8,0,0,0,.3.176h.494a3.236,3.236,0,0,1,.579.05.339.339,0,0,0,.162.092c.077.007.085-.127.2-.056s.042.318.367.346.219-.148.409-.289c.3-.212.261.191.55.183a1.148,1.148,0,0,0-.042-.445l-.24-.275h-.247c-.078,0,0-.155,0-.176s-.318,0-.409-.191c-.2-.409.529-.12.706-.064s.261.2.466.141.219-.423.445-.085c.056-.423.84.141.494-.551.43-.1,0-.318,0-.466,0-.3.24-.233.4-.268.388-.092.466-.289.48-.706a.706.706,0,0,1,.141-.466c.127-.226.071-.191.325-.254h.162c.113,0,.141-.1.233-.141s.353-.092.4-.191C325.922,153.408,325.2,153.492,325.011,153.492Z" transform="translate(-263.828 -122.153)" fill="#4d873d"/>
              <path id="パス_971" data-name="パス 971" d="M166.543,254.47a3.161,3.161,0,0,1-.572-.346c-.148-.092-.233-.085-.318-.282-.212-.536.466-.233.79-.233.113,0,.3.056.367-.056s-.134-.339-.247-.388a.748.748,0,0,0,.064-.48c-.127-.3-.226,0-.438-.071a.289.289,0,0,1-.217-.347.2.2,0,0,1,.005-.02c.064-.219.155-.127.332-.191s.1-.12.191-.134.212.085.289.071a.318.318,0,0,0,.3-.3c0-.311-.162-.127-.332-.176s-.141-.169-.247-.3-.706-.289-.459-.706c.071-.106.261-.078.3-.219s-.056-.212-.071-.3c-.056-.254-.042-.4-.3-.529a1.774,1.774,0,0,0-.656-.176c-.191,0-.332.31-.572,0-.127-.134,0-.36-.106-.473s-.438,0-.565,0-.438.049-.522-.049v-.2l-.134-.176c-.05-.2.155-.226.134-.43s-.374-.261-.445-.43l-.049.056v-.085a.769.769,0,0,0,.064-.6.987.987,0,0,1-.875-.254c-.05-.064,0-.148-.085-.212a1.206,1.206,0,0,0-.261-.155c-.212-.148-.169-.155-.219-.346,0,0,.078-.085.056-.162s-.191-.162-.339-.2-.339,0-.423-.2.1-.374.064-.423a.538.538,0,0,0-.459,0c-.381-.3.191-.494.169-.706s-.416-.282-.614-.261-.212.113-.374.162c-.346.106-.551-.226-.833-.339a2.187,2.187,0,0,1-.487-.268c-.134-.085-.388-.24-.543-.148s-.05.3-.148.423-.31,0-.515.176-.12.473-.367.261c-.134-.113,0-.423-.282-.43-.162,0-.416.261-.572.332s-.31,0-.48.064a3.09,3.09,0,0,0-.437.2,2.2,2.2,0,0,1-.423.183c-.261.056-.318,0-.515.176a1.171,1.171,0,0,0-.254.466c-.078.2-.049.268-.31.318a.55.55,0,0,1-.48-.106c-.085.508-.311.12-.607.416-.12.113-.085.226-.12.381-.064.3-.085.169-.339.275s-.289.551-.212.882.289.43-.071.557a.4.4,0,0,1-.466-.169c-.056-.106,0-1.073-.381-.557-.092.127,0,.339,0,.473-.1.3-.353.134-.438.318s.127.3.042.438-.388.071-.529.155-.085.162-.212.212a.562.562,0,0,1-.289,0c-.071,0-.176,0-.155.254,0,.388.2.261-.2.438-.092.042-.127.12-.24.162s-.282-.064-.353.085.127.226.148.3a.562.562,0,0,1,0,.233c0,.141-.2,0-.085.219.05.12.318.176.423.247a1.031,1.031,0,0,0-.078.48c0,.12.106.169.134.268a.942.942,0,0,1,0,.282c0,.078.275.2.3.332a.254.254,0,0,1-.085.282c-.1.071-.247-.042-.346,0l-.085.191c-.233.176-.557.056-.706.3-.1.127-.05.3-.169.43s-.36.056-.423.275c-.106.36.466.2.572.473.042.113-.035.254,0,.353.05.289.113.085.212.226s.042.219.134.325c.24.275.706,0,1-.056-.071.191-.706.367-.748.565s.494.219.374.565c.169.141.416.05.607.078s.339.141.6.085c-.155.2-.445.409-.459.706.2,0,.346.127.254.353a.543.543,0,0,0,.381,0,.275.275,0,0,1,.049.183.706.706,0,0,0,.042-.5l-.085-.085a.649.649,0,0,1,.473.459c.035.141-.085.423,0,.529.148.219.875.092,1.094.148s.3.212.459.268.536.085.473.374-.43.183-.085.346a.508.508,0,0,0,.621-.191c.176,0,.183.2.2.339.12,0,.169-.148.275-.176a1.09,1.09,0,0,1,.3,0c.106,0,.169-.155.282-.176s.24.05.353.035.254-.12.3-.12l.2.078c.176,0,.423-.24.494.092.2.056.169-.141.318-.176s.176.05.3.085.339,0,.438.127c.318,0,.706-.056,1.009-.042l.452-.162a1.469,1.469,0,0,1,.466,0c.254-.092.212-.289.494-.36a1.6,1.6,0,0,1,1-.148,1.183,1.183,0,0,1,.275.113l.078.176H161a1.87,1.87,0,0,0,.3.183h.494a2.861,2.861,0,0,1,.579.042.408.408,0,0,0,.155.1c.07.014.085-.127.212-.063s.042.325.367.353.212-.148.409-.289.261.191.543.183a1.02,1.02,0,0,0,0-.445l-.332-.318h-.24c-.071,0,0-.155,0-.183s-.318,0-.416-.184c-.2-.409.536-.12.706-.064s.261.2.466.141.212-.423.438-.092c.064-.423.847.141.5-.543.43-.1,0-.318,0-.466,0-.3.247-.233.409-.275.388-.085.466-.289.473-.706a.7.7,0,0,1,.141-.466c.134-.226.078-.191.332-.254h.155c.113,0,.148-.1.24-.141s.353-.092.4-.2C167.453,254.42,166.726,254.526,166.543,254.47Z" transform="translate(-127.807 -208.925)" fill="#539642"/>
              <g id="グループ_246" data-name="グループ 246" transform="translate(19.761 10.007)">
                <path id="パス_972" data-name="パス 972" d="M198.2,209.835a3.161,3.161,0,0,1-.572-.346c-.141-.092-.233-.078-.311-.282-.219-.536.459-.233.783-.233.12,0,.3.056.367-.056s-.127-.339-.247-.388a.706.706,0,0,0,.064-.473c-.127-.3-.226,0-.43-.078a.282.282,0,0,1-.226-.329.271.271,0,0,1,.008-.031c.064-.219.155-.127.339-.2.071,0,.092-.12.191-.134s.2.085.282.071a.325.325,0,0,0,.311-.3c0-.3-.169-.12-.339-.176s-.141-.169-.247-.3-.706-.289-.459-.706c.078-.106.261-.078.31-.219s-.064-.212-.078-.3c-.056-.254-.042-.4-.3-.529a1.785,1.785,0,0,0-.649-.176c-.2,0-.332.311-.579.042-.127-.141,0-.36-.106-.48s-.438,0-.565,0-.43.05-.522-.049v-.2l-.127-.183c-.049-.2.148-.226.127-.43s-.374-.254-.445-.43l-.042.056v-.085a.769.769,0,0,0,.064-.6.931.931,0,0,1-.868-.254c-.056-.056,0-.148-.092-.212a1.205,1.205,0,0,0-.261-.155c-.212-.148-.169-.155-.219-.346,0,0,.078-.085.056-.162s-.191-.162-.339-.2-.339,0-.423-.2.1-.367.064-.423a.515.515,0,0,0-.459,0c-.381-.3.2-.494.169-.706s-.416-.275-.614-.254-.212.106-.374.155c-.339.106-.551-.226-.833-.339a2.068,2.068,0,0,1-.487-.268c-.134-.085-.381-.24-.543-.148s-.05.3-.141.423-.318,0-.515.176-.127.48-.367.261c-.134-.113,0-.423-.282-.43-.169,0-.423.268-.572.332s-.318,0-.48.064a2.83,2.83,0,0,0-.445.2,2.027,2.027,0,0,1-.423.184c-.261.056-.318,0-.515.183a1.1,1.1,0,0,0-.254.459c-.078.2-.05.268-.311.318a.529.529,0,0,1-.473-.106c-.092.508-.318.12-.614.416-.12.113-.085.226-.12.381-.056.3-.085.169-.339.275s-.289.551-.212.882.289.438-.071.557a.374.374,0,0,1-.466-.169c-.056-.106,0-1.073-.374-.557-.1.134,0,.339,0,.48-.1.289-.346.127-.438.31s.127.3.05.445-.4.063-.536.148-.085.162-.212.212a.562.562,0,0,1-.289,0c-.071,0-.176,0-.155.261,0,.381.2.254-.2.43-.092.042-.127.127-.24.162s-.282-.064-.353.085.134.226.155.311a.519.519,0,0,1,0,.226c0,.141-.2,0-.085.219.049.12.318.176.423.247a1.025,1.025,0,0,0-.071.48c0,.127.1.176.127.268a.943.943,0,0,1,0,.282c0,.078.275.2.3.332a.247.247,0,0,1-.085.282c-.1.078-.247,0-.346,0l-.085.191c-.233.176-.557.056-.706.3-.092.127-.05.3-.162.438s-.367.049-.43.268c-.106.367.473.212.579.48.042.106-.042.247,0,.346.05.289.113.092.212.226s.05.219.134.325c.24.275.706,0,1-.056-.071.191-.706.367-.748.565s.494.219.381.572c.162.134.409.042.6.078a1.274,1.274,0,0,0,.6.078c-.155.2-.445.409-.459.706.2,0,.346.134.261.353a.487.487,0,0,0,.374,0,.289.289,0,0,1,.056.176.706.706,0,0,0,.042-.494l-.092-.092a.649.649,0,0,1,.473.459c0,.141-.085.423,0,.529.148.219.875.092,1.094.155s.3.2.459.261.543.085.473.374-.43.183-.085.346a.508.508,0,0,0,.621-.191c.176,0,.183.2.2.339.12,0,.169-.141.275-.169a1.091,1.091,0,0,1,.3,0c.1,0,.169-.155.282-.176s.24.049.353,0a1.716,1.716,0,0,1,.3-.12l.2.078c.176,0,.423-.24.494.092.2.056.169-.141.318-.176s.176.05.3.085.339.035.438.127c.318,0,.706-.05,1.009-.042l.452-.155a1.331,1.331,0,0,1,.473,0c.141,0,.2-.282.487-.36a1.527,1.527,0,0,1,1.009-.141,1.237,1.237,0,0,1,.268.106l.078.183h.183a1.464,1.464,0,0,0,.3.183h.494a2.467,2.467,0,0,1,.579.049c.035,0,.085.085.155.092s.092-.127.212-.056.042.318.367.346.212-.148.409-.289c.3-.212.261.191.551.183a1.15,1.15,0,0,0-.042-.445l-.24-.275h-.247c-.071,0,0-.155,0-.176s-.318,0-.409-.191c-.2-.409.529-.12.706-.064s.261.2.466.141.219-.423.445-.085c.056-.43.84.141.494-.551.43-.1,0-.318,0-.466,0-.3.247-.233.409-.268.388-.092.466-.289.48-.706a.657.657,0,0,1,.141-.466c.127-.226.071-.191.325-.254h.155c.113,0,.148-.1.24-.141s.353-.092.4-.191c.043-.451-.684-.338-.867-.4Z" transform="translate(-174.767 -180.641)" fill="#467536"/>
                <path id="パス_973" data-name="パス 973" d="M249.5,128.933a2.821,2.821,0,0,1-.572-.346c-.148-.092-.233-.078-.318-.275-.212-.543.466-.24.79-.233.113,0,.3.05.367-.056s-.134-.339-.247-.388a.748.748,0,0,0,.064-.48c-.127-.3-.226,0-.438-.071a.289.289,0,0,1-.217-.347.2.2,0,0,1,.005-.02c.064-.219.155-.127.332-.191s.1-.12.191-.141.212.085.289.078a.324.324,0,0,0,.3-.31c0-.3-.162-.12-.332-.169s-.141-.176-.247-.3-.706-.3-.459-.706c.071-.106.261-.085.3-.226s-.056-.2-.071-.289c-.056-.261-.042-.409-.3-.529a1.653,1.653,0,0,0-.656-.176c-.191,0-.332.311-.572,0-.127-.141,0-.36-.106-.473s-.438,0-.565,0-.438.056-.522-.049v-.2l-.134-.176c-.049-.212.155-.233.134-.438s-.374-.254-.445-.423l-.049.056v-.092a.763.763,0,0,0,.064-.6.938.938,0,0,1-.875-.254c-.05-.056,0-.141-.085-.212s-.183-.1-.261-.155c-.212-.141-.169-.155-.219-.339,0,0,.078-.092.056-.169s-.191-.155-.339-.2-.346,0-.423-.2.1-.367.064-.416a.641.641,0,0,0-.459-.035c-.381-.3.191-.487.169-.706s-.416-.282-.614-.261-.212.106-.374.162c-.346.106-.551-.233-.833-.339a2.213,2.213,0,0,1-.487-.275c-.134-.085-.388-.24-.543-.148s-.049.311-.148.423-.31,0-.515.176-.12.48-.367.268c-.134-.12,0-.423-.282-.438-.162,0-.416.268-.572.339s-.311,0-.48.056a3.146,3.146,0,0,0-.438.212,2.7,2.7,0,0,1-.423.176c-.261.064-.318,0-.515.183a1.086,1.086,0,0,0-.254.466c-.078.2-.049.261-.318.31a.565.565,0,0,1-.473-.1c-.085.5-.311.113-.607.409-.12.12-.085.233-.12.381-.064.311-.085.169-.339.275s-.289.551-.212.882.289.438-.071.565a.388.388,0,0,1-.466-.176c-.056-.106,0-1.073-.381-.551-.092.127,0,.332,0,.473-.1.289-.353.134-.438.318s.127.3.042.438-.388.071-.529.148-.085.169-.212.219-.219-.042-.289,0-.176.042-.155.261c0,.388.2.254-.2.438-.092.035-.127.12-.24.162s-.282-.064-.353.085.127.219.148.3a.537.537,0,0,1,0,.226c0,.148-.2,0-.085.219.05.12.318.176.423.254a1,1,0,0,0-.078.473c0,.127.106.176.134.268a.992.992,0,0,1,0,.289c0,.085.268.2.3.325a.268.268,0,0,1-.085.289c-.1.071-.247-.042-.346,0l-.085.191c-.233.183-.557.063-.706.3s-.05.3-.169.438-.36.056-.423.268c-.106.367.466.212.572.48a.947.947,0,0,1,0,.346c.05.3.113.092.212.233s.042.219.134.325c.24.275.706,0,1-.056-.071.183-.706.367-.748.557s.494.219.374.572c.169.134.416.042.607.078a1.273,1.273,0,0,0,.6.078c-.155.212-.445.409-.459.706.2,0,.346.134.254.353a.507.507,0,0,0,.381,0,.261.261,0,0,1,.049.176.658.658,0,0,0,.042-.494l-.085-.092a.705.705,0,0,1,.473.466c0,.141-.085.416,0,.522.148.226.875.092,1.094.155s.3.2.459.268.536.078.473.374-.43.176-.085.339a.5.5,0,0,0,.621-.183c.176,0,.183.2.2.332.12,0,.169-.141.275-.169a1.089,1.089,0,0,1,.3,0c.106,0,.169-.155.282-.183s.24.056.353,0a1.172,1.172,0,0,1,.3-.113l.2.078c.176,0,.423-.247.494.092.2.05.169-.148.318-.183s.176.05.3.085.339.035.438.134c.318,0,.706-.049,1.009-.042l.452-.155a1.469,1.469,0,0,1,.466,0c.247-.085.212-.282.494-.36a1.558,1.558,0,0,1,1-.141,1.176,1.176,0,0,1,.275.106l.078.183h.183a1.26,1.26,0,0,0,.3.176h.494a3.236,3.236,0,0,1,.579.05.409.409,0,0,0,.155.1c.07.014.085-.127.212-.064s.042.318.367.346.212-.148.409-.282.261.183.543.176a1.033,1.033,0,0,0,0-.445l-.247-.268h-.24c-.071,0,0-.155,0-.183s-.318,0-.416-.191c-.2-.409.536-.12.706-.064s.254.212.466.141.212-.416.438-.085c.064-.423.847.141.5-.543.43-.1,0-.318,0-.473,0-.3.247-.233.409-.268.388-.085.466-.289.473-.706a.707.707,0,0,1,.141-.459c.134-.226.078-.2.332-.261h.155c.113,0,.148-.1.24-.141s.353-.092.4-.191c.043-.387-.684-.282-.867-.345Z" transform="translate(-218.794 -111.129)" fill="#467536"/>
                <path id="パス_974" data-name="パス 974" d="M166.415,81.826a3.162,3.162,0,0,1-.572-.346c-.148-.092-.233-.078-.318-.275-.212-.543.466-.24.79-.24.113,0,.3.056.367-.056s-.134-.339-.247-.388a.705.705,0,0,0,.064-.473c-.127-.3-.226,0-.437-.078a.282.282,0,0,1-.218-.334c0-.009,0-.017.007-.026.064-.219.155-.127.332-.2s.1-.12.191-.134.212.085.289.071a.317.317,0,0,0,.3-.3c0-.3-.162-.12-.332-.176s-.141-.169-.247-.3-.706-.289-.459-.706c.071-.1.261-.078.3-.219s-.056-.2-.071-.289c-.056-.261-.042-.409-.3-.529a1.667,1.667,0,0,0-.656-.183c-.191,0-.332.31-.572.042-.127-.141,0-.36-.106-.48s-.437,0-.565,0-.437.049-.522-.05v-.2l-.134-.183c-.05-.2.155-.226.134-.43s-.374-.254-.445-.43l-.049.064v-.092a.762.762,0,0,0,.064-.6.946.946,0,0,1-.875-.254c-.049-.056,0-.148-.085-.212s-.183-.1-.261-.155c-.212-.148-.169-.155-.219-.339,0,0,.078-.092.056-.169s-.191-.162-.339-.2-.339,0-.423-.2.1-.367.064-.423a.515.515,0,0,0-.459,0c-.381-.3.191-.494.169-.706s-.416-.275-.614-.254-.212.106-.374.155c-.346.106-.551-.226-.833-.339a1.934,1.934,0,0,1-.487-.268c-.134-.085-.388-.24-.543-.148s-.05.3-.148.423-.311,0-.515.176-.12.48-.367.268c-.134-.12,0-.43-.282-.438-.162,0-.416.268-.572.332s-.31,0-.48.064a2.5,2.5,0,0,0-.438.212,2.7,2.7,0,0,1-.423.176c-.261.056-.318,0-.515.183a1.086,1.086,0,0,0-.254.466c-.078.2-.049.261-.31.311a.55.55,0,0,1-.48-.106c-.085.508-.311.12-.607.416-.12.113-.085.226-.12.381-.064.3-.085.169-.339.275s-.289.551-.212.882.289.438-.071.557a.374.374,0,0,1-.486-.209v0c-.056-.106,0-1.073-.381-.557-.092.134,0,.339,0,.48-.1.289-.353.127-.438.311s.127.3.042.445-.388.071-.529.148-.085.162-.212.212a.562.562,0,0,1-.289,0c-.071,0-.176,0-.155.261,0,.388.2.254-.2.43-.092.042-.127.127-.24.162s-.282-.064-.353.085.127.226.148.311a.538.538,0,0,1,0,.226c0,.148-.2,0-.085.219.05.12.318.176.423.247a1.03,1.03,0,0,0-.078.48c0,.127.106.176.134.268a.992.992,0,0,1,0,.289c0,.085.275.2.3.325a.254.254,0,0,1-.085.282c-.1.078-.247,0-.346,0l-.085.191c-.233.183-.557.064-.706.3s-.05.3-.169.438-.36.049-.423.268c-.106.367.466.212.572.48.042.106-.035.247,0,.346.049.3.113.092.212.226s.042.226.134.325c.24.275.706,0,1-.056-.071.191-.706.374-.748.565s.494.219.374.572c.169.134.416.042.607.078a1.274,1.274,0,0,0,.6.078c-.155.2-.445.409-.459.706.2,0,.346.134.254.353a.507.507,0,0,0,.381,0,.262.262,0,0,1,.049.176.663.663,0,0,0,.042-.494l-.085-.092a.649.649,0,0,1,.473.466c.035.134-.085.416,0,.522.148.219.875.092,1.094.155s.3.2.459.261.536.085.473.374-.43.183-.085.346a.508.508,0,0,0,.621-.191c.176.035.183.2.2.339.12,0,.169-.141.275-.169a1.09,1.09,0,0,1,.3,0c.106,0,.169-.148.282-.176s.24.05.353,0a1.532,1.532,0,0,1,.3-.113l.2.071c.176,0,.423-.24.494.092.2.056.169-.141.318-.176s.176.05.3.085.339,0,.438.127c.318,0,.706-.05,1.009-.042l.452-.155a1.291,1.291,0,0,1,.466,0c.254-.092.212-.282.494-.36a1.513,1.513,0,0,1,1-.141,1.176,1.176,0,0,1,.275.106l.078.183h.183a1.8,1.8,0,0,0,.3.176h.494a2.46,2.46,0,0,1,.579.05.408.408,0,0,0,.155.1c.071.014.085-.134.212-.064s.042.318.367.346.212-.148.409-.289.261.191.543.183a1.03,1.03,0,0,0,0-.445l-.311-.282h-.24c-.071,0,0-.155,0-.176s-.318,0-.416-.191c-.2-.409.536-.12.706-.064s.261.2.466.141.212-.423.438-.085c.064-.423.847.141.5-.551.43-.1,0-.318,0-.466,0-.3.247-.233.409-.268.388-.092.466-.289.473-.706a.705.705,0,0,1,.141-.466c.134-.226.078-.191.332-.254h.155c.113,0,.148-.1.24-.141s.325-.1.325-.169c.205-.409-.522-.3-.705-.367Z" transform="translate(-147.44 -70.74)" fill="#467536"/>
              </g>
              <path id="パス_975" data-name="パス 975" d="M206.843,167.8a3,3,0,0,1-.579-.346c-.141-.092-.233-.085-.311-.282-.219-.536.459-.233.783-.233.12,0,.3.056.374-.056s-.134-.339-.247-.388a.741.741,0,0,0,.056-.48c-.127-.3-.219,0-.43-.071a.289.289,0,0,1-.225-.342c0-.008,0-.017.007-.025.064-.219.162-.127.339-.191s.092-.12.191-.134.212.085.289.071a.325.325,0,0,0,.3-.3c0-.3-.169-.127-.332-.176s-.148-.169-.254-.3-.706-.289-.452-.706c.071-.106.261-.078.3-.219s-.056-.212-.078-.3c-.056-.254-.042-.4-.3-.529a1.743,1.743,0,0,0-.649-.176c-.191,0-.332.311-.579.042-.12-.141,0-.367-.106-.48s-.43,0-.557,0-.438.05-.529-.049v-.2l-.127-.183c-.049-.2.155-.226.127-.43s-.374-.254-.438-.43l-.064.042v-.085a.8.8,0,0,0,.056-.6.974.974,0,0,1-.9-.261c-.05-.056,0-.148-.092-.212a1.024,1.024,0,0,0-.254-.155c-.212-.148-.169-.155-.226-.346,0,0,.085-.085.056-.162s-.191-.162-.332-.2-.346,0-.423-.2.092-.367.056-.423a.5.5,0,0,0-.452,0c-.381-.3.191-.494.162-.706s-.409-.282-.607-.261-.212.113-.381.162c-.339.106-.543-.226-.826-.339a2.118,2.118,0,0,1-.494-.268c-.127-.085-.381-.24-.536-.148s-.05.3-.148.423-.31,0-.515.176-.12.473-.367.261c-.134-.113,0-.423-.282-.43-.169,0-.423.268-.572.332s-.318,0-.48.064a3.184,3.184,0,0,0-.445.2,2.029,2.029,0,0,1-.423.183c-.254.056-.311,0-.515.183a1.188,1.188,0,0,0-.254.459c-.078.2-.042.268-.311.318a.536.536,0,0,1-.473-.106c-.085.508-.31.12-.614.416-.113.113-.085.226-.113.381-.064.3-.092.169-.339.275s-.289.551-.212.882.289.438-.071.557a.4.4,0,0,1-.466-.169c-.056-.106,0-1.073-.381-.557-.1.127,0,.339,0,.473-.1.3-.346.134-.438.318s.134.3.05.438-.388.071-.529.155-.092.162-.219.212a.565.565,0,0,1-.289,0c-.078,0-.169,0-.155.254,0,.388.2.261-.191.438-.1.042-.127.12-.247.162s-.282-.064-.353.085.134.226.155.3a.552.552,0,0,1,0,.233c0,.141-.191,0-.085.219.056.12.325.176.43.247a1.03,1.03,0,0,0-.078.48c0,.12.106.169.127.268a1.253,1.253,0,0,1,0,.282c0,.078.275.2.311.332a.247.247,0,0,1-.092.282c-.092.078-.247-.042-.339,0l-.092.191c-.226.176-.557.056-.706.3-.1.127-.05.3-.169.43s-.36.056-.423.275c-.106.36.466.212.572.473.042.113-.042.254,0,.353.049.289.113.085.212.226s.042.219.134.325c.24.275.706,0,1-.056-.071.191-.706.367-.755.565s.5.219.381.565c.162.141.409.049.607.078s.332.141.593.085c-.155.2-.445.409-.459.706.212,0,.346.127.261.353a.543.543,0,0,0,.381,0,.326.326,0,0,1,.049.184.757.757,0,0,0,.042-.5l-.085-.085a.649.649,0,0,1,.466.459c0,.141-.078.423,0,.529.148.219.882.092,1.094.148s.3.212.466.268.536.085.473.374-.438.183-.092.346a.5.5,0,0,0,.621-.191c.183,0,.183.2.2.339.12,0,.176-.148.282-.169a1.383,1.383,0,0,1,.3,0c.1,0,.169-.155.282-.176s.247.05.36.035.254-.12.3-.12l.2.078c.169,0,.423-.24.494.092.2.056.169-.141.311-.176s.183.05.31.085a1.143,1.143,0,0,1,.438.127c.325,0,.706-.05,1.009-.042l.452-.155a1.33,1.33,0,0,1,.473,0c.141,0,.2-.289.487-.36a1.627,1.627,0,0,1,1.009-.148,1.183,1.183,0,0,1,.275.113l.078.176h.184a1.584,1.584,0,0,0,.3.183h.487a3.342,3.342,0,0,1,.586.05.366.366,0,0,0,.155.092c.078.014.085-.127.212-.064s.042.325.36.353.219-.148.409-.289c.3-.212.261.191.551.183a1.158,1.158,0,0,0,0-.445l-.247-.275h-.24c-.071,0,0-.155,0-.183s-.318,0-.409-.183c-.2-.409.529-.12.706-.064s.254.2.466.141.212-.423.438-.085c.064-.43.847.141.494-.551.43-.1,0-.318,0-.466,0-.3.247-.233.4-.275.4-.085.473-.282.48-.706a.705.705,0,0,1,.141-.466c.127-.226.078-.191.325-.254h.162c.113,0,.141-.1.233-.141s.353-.092.4-.2c.085-.452-.642-.339-.825-.4Z" transform="translate(-162.37 -134.53)" fill="#4d873d"/>
              <path id="パス_976" data-name="パス 976" d="M89.609,160.71a3.613,3.613,0,0,1-.572-.346c-.141-.092-.233-.085-.311-.282-.219-.536.459-.233.783-.233.12,0,.3.056.367-.056s-.127-.339-.247-.388a.748.748,0,0,0,.064-.48c-.127-.3-.226,0-.43-.071a.289.289,0,0,1-.225-.342c0-.008,0-.017.007-.025.064-.219.155-.127.332-.191s.1-.12.2-.134.2.078.282.071a.318.318,0,0,0,.3-.3c0-.311-.162-.127-.332-.176s-.141-.176-.247-.3-.706-.289-.459-.706c.071-.106.261-.085.3-.226s-.056-.2-.071-.289c-.056-.254-.042-.4-.3-.529a1.774,1.774,0,0,0-.656-.176c-.191,0-.332.311-.572,0-.127-.141,0-.36-.106-.473s-.438,0-.565,0-.43.056-.522-.05v-.2l-.127-.176c-.056-.2.148-.226.127-.438s-.374-.254-.445-.423l-.05.056v-.078a.769.769,0,0,0,.064-.6.987.987,0,0,1-.875-.254c-.05-.064,0-.148-.085-.212a1.205,1.205,0,0,0-.261-.155c-.212-.148-.169-.162-.219-.346,0,0,.078-.092.056-.162s-.191-.162-.339-.2-.339,0-.423-.2.1-.374.064-.423a.641.641,0,0,0-.459-.035c-.381-.289.2-.487.169-.706s-.416-.282-.614-.261-.212.113-.374.162c-.339.106-.551-.226-.833-.339a2.738,2.738,0,0,1-.487-.268c-.134-.092-.388-.247-.543-.155s-.05.311-.141.43-.318,0-.522.176-.12.473-.367.261c-.134-.12,0-.423-.282-.43-.162,0-.416.261-.565.332s-.318,0-.487.064a2.479,2.479,0,0,0-.438.2,2,2,0,0,1-.423.176c-.261.063-.318,0-.515.183a1.085,1.085,0,0,0-.254.466c-.078.2-.05.268-.31.311a.571.571,0,0,1-.48-.1c-.085.508-.31.113-.607.409-.12.12-.085.233-.12.388-.056.3-.085.162-.339.268s-.289.557-.212.889.289.43-.071.557a.388.388,0,0,1-.466-.176c-.056-.1,0-1.066-.381-.551-.092.127,0,.332,0,.473-.1.289-.346.134-.438.318s.127.3.05.438-.4.071-.536.155-.085.162-.212.212a.562.562,0,0,1-.289,0c-.071,0-.176.042-.155.261,0,.388.2.261-.2.438-.092.042-.127.12-.24.162s-.282-.064-.353.085.127.219.155.3a.552.552,0,0,1,0,.233c0,.141-.2,0-.085.212.05.12.318.183.423.254a1.01,1.01,0,0,0-.071.48c0,.12.1.169.127.261a.991.991,0,0,1,0,.289c0,.078.275.2.3.325a.268.268,0,0,1-.085.289c-.1.071-.247-.042-.346,0l-.085.191c-.233.176-.557.056-.706.3-.1.12-.05.3-.169.43s-.36.056-.423.268c-.106.367.466.212.572.48.049.113-.035.247,0,.346.049.3.113.092.212.233s.05.219.134.325c.24.275.706,0,1-.056-.071.191-.706.367-.748.557s.494.219.381.572c.162.141.409.049.6.078a1.364,1.364,0,0,0,.6.085c-.155.2-.445.409-.459.706.2,0,.346.127.254.346a.507.507,0,0,0,.381,0,.324.324,0,0,1,.056.176.706.706,0,0,0,.042-.494l-.092-.085a.649.649,0,0,1,.473.459c.035.141-.085.416,0,.522.148.226.875.1,1.094.155s.3.212.459.268.536.085.473.374-.43.176-.085.346a.508.508,0,0,0,.621-.191c.176,0,.183.2.2.332.12,0,.169-.141.275-.169a1.09,1.09,0,0,1,.3,0c.1,0,.169-.155.282-.183s.24.056.353.042.254-.12.3-.12l.2.078c.176,0,.423-.247.494.092.2.056.169-.141.318-.183s.176.05.3.092.339,0,.438.127c.318,0,.706-.056,1.009-.05l.452-.155a1.515,1.515,0,0,1,.473,0c.247-.085.2-.282.487-.353a1.618,1.618,0,0,1,1.009-.148.984.984,0,0,1,.268.113l.078.176h.183a1.87,1.87,0,0,0,.3.183h.494a2.86,2.86,0,0,1,.579.042c.035,0,.085.085.155.1s.092-.127.212-.064.042.325.367.353.212-.148.409-.289.261.183.551.176a1.161,1.161,0,0,0-.042-.445l-.247-.268H86.6c-.071,0,0-.155,0-.183s-.318,0-.416-.183c-.2-.416.536-.12.706-.071s.261.212.466.148.219-.423.445-.092c.056-.423.84.141.494-.543.43-.1,0-.318,0-.473,0-.3.247-.233.409-.268.388-.085.466-.289.48-.706a.656.656,0,0,1,.134-.459c.134-.226.078-.2.332-.261h.155c.113,0,.148-.106.24-.148s.353-.092.4-.191c.071-.409-.655-.3-.839-.359Z" transform="translate(-61.762 -128.403)" fill="#4d873d"/>
              <path id="パス_977" data-name="パス 977" d="M26.72,178.207a2.823,2.823,0,0,1-.572-.346c-.141-.092-.233-.078-.311-.275-.219-.543.459-.24.783-.24.12,0,.3.056.367-.056s-.127-.339-.247-.388a.705.705,0,0,0,.064-.473c-.127-.3-.226,0-.43-.078a.282.282,0,0,1-.226-.329.292.292,0,0,1,.007-.031c.064-.219.155-.127.339-.2.071,0,.092-.12.191-.134s.2.085.289.071a.325.325,0,0,0,.3-.3c0-.3-.169-.12-.332-.176s-.148-.169-.254-.3-.706-.289-.452-.706c.071-.106.254-.078.3-.219s-.056-.2-.078-.3c-.056-.254-.042-.4-.3-.529a1.785,1.785,0,0,0-.649-.176c-.2,0-.332.31-.579.042-.127-.141,0-.36-.106-.48s-.43,0-.565,0-.43.049-.522-.05v-.2l-.127-.183c-.05-.2.148-.226.127-.43s-.374-.254-.445-.43l-.042.064v-.092a.769.769,0,0,0,.064-.6.931.931,0,0,1-.868-.254c-.05-.056,0-.148-.092-.212s-.183-.1-.261-.155c-.212-.148-.169-.155-.219-.346,0,0,.085-.085.056-.162s-.191-.162-.339-.2-.339,0-.423-.2.1-.367.064-.423a.514.514,0,0,0-.459,0c-.381-.3.2-.494.169-.706s-.409-.275-.607-.254-.219.106-.381.155c-.339.106-.551-.226-.833-.339a2.217,2.217,0,0,1-.487-.268c-.127-.085-.381-.24-.543-.148s-.05.3-.141.423-.318,0-.515.176-.127.48-.367.261c-.134-.113,0-.423-.282-.43-.169,0-.423.268-.572.332s-.318,0-.48.064a2.352,2.352,0,0,0-.445.212,2.442,2.442,0,0,1-.423.176c-.261.056-.318,0-.515.183a1.086,1.086,0,0,0-.254.466c-.078.2-.05.261-.31.31a.536.536,0,0,1-.487-.148c-.092.508-.318.12-.614.416-.12.113-.085.226-.113.381-.064.3-.092.169-.339.275s-.3.551-.219.882.289.438-.064.557a.367.367,0,0,1-.466-.169c-.064-.106,0-1.073-.381-.557-.1.134,0,.339,0,.48-.1.289-.346.127-.438.311s.127.3.05.445-.388.064-.529.148-.092.162-.219.212a.562.562,0,0,1-.289,0c-.071,0-.176,0-.155.261,0,.388.2.254-.2.43-.092.042-.12.127-.24.162s-.282-.064-.353.085.134.226.155.31a.524.524,0,0,1,0,.226c0,.148-.2,0-.085.219.056.12.318.176.423.247a1.025,1.025,0,0,0-.071.48c0,.127.106.176.127.268a1.255,1.255,0,0,1,0,.282c0,.078.275.2.31.332a.261.261,0,0,1-.092.282c-.1.078-.247,0-.339,0l-.092.191c-.233.183-.557.056-.741.3-.092.127-.05.3-.162.438s-.36.05-.423.268c-.113.367.466.212.572.48.042.106-.042.247,0,.346.056.289.113.092.212.226s.05.219.141.325c.233.275.706,0,1-.056-.071.191-.706.367-.748.565s.494.219.381.572c.162.134.409.042.6.078a1.274,1.274,0,0,0,.6.078c-.155.2-.445.409-.459.706.2.035.346.134.261.353a.486.486,0,0,0,.374,0,.267.267,0,0,1,.056.176.706.706,0,0,0,.042-.494l-.092-.092a.649.649,0,0,1,.473.466c0,.134-.085.416,0,.522.148.219.875.092,1.094.155s.3.2.459.261.543.085.48.374-.438.183-.092.346a.508.508,0,0,0,.621-.191c.176,0,.183.2.2.339.12,0,.169-.141.275-.169a1.09,1.09,0,0,1,.3,0c.1,0,.169-.148.282-.176s.24.049.353.035a2.7,2.7,0,0,0,.3-.12l.2.078c.176,0,.423-.24.494.092.2.056.169-.141.318-.176s.183.049.31.085.332,0,.43.127c.318,0,.706-.049,1.009-.042l.452-.155a1.33,1.33,0,0,1,.473,0c.141,0,.2-.282.487-.36a1.527,1.527,0,0,1,1.009-.141,1.239,1.239,0,0,1,.268.106l.078.183h.183a1.8,1.8,0,0,0,.3.176h.494a2.459,2.459,0,0,1,.579.05c.035,0,.085.085.162.1s.085-.134.212-.064.035.318.36.346.219-.148.409-.289c.3-.212.261.191.551.183a1.15,1.15,0,0,0-.042-.445l-.24-.275h-.247c-.078,0,0-.155,0-.176s-.318,0-.409-.191c-.2-.409.529-.12.706-.064s.261.2.466.141.219-.423.445-.085c.056-.423.84.141.494-.551.43-.1,0-.318,0-.466,0-.3.24-.233.4-.268.4-.092.466-.289.48-.706a.705.705,0,0,1,.141-.466c.127-.226.071-.191.325-.254H26.9c.113,0,.141-.1.233-.141s.353-.092.4-.191c.114-.438-.613-.325-.811-.388Z" transform="translate(-7.743 -143.481)" fill="#539642"/>
              <path id="パス_978" data-name="パス 978" d="M121.074,56.284a3.161,3.161,0,0,1-.572-.346c-.141-.092-.233-.085-.31-.282-.219-.536.459-.233.783-.233.12,0,.3.056.367-.056s-.127-.339-.247-.388a.748.748,0,0,0,.064-.48c-.127-.289-.226,0-.43-.071a.283.283,0,0,1-.229-.327.306.306,0,0,1,.01-.04c.064-.212.155-.12.332-.191s.1-.12.2-.134.2.085.282.071a.318.318,0,0,0,.3-.3c0-.3-.162-.12-.332-.176s-.141-.169-.247-.3-.706-.289-.459-.706c.071-.106.261-.078.31-.219s-.064-.212-.078-.3c-.056-.254-.042-.4-.3-.529a1.774,1.774,0,0,0-.656-.176c-.191,0-.325.31-.572.042-.127-.141,0-.36-.106-.48s-.438,0-.565,0-.43.05-.522-.05v-.2l-.127-.183c-.056-.2.148-.226.127-.43s-.374-.254-.445-.43l-.05.056v-.085a.769.769,0,0,0,.064-.6.967.967,0,0,1-.875-.254c-.049-.056,0-.148-.085-.212a1.206,1.206,0,0,0-.261-.155c-.212-.148-.169-.155-.219-.346,0,0,.078-.085.056-.162s-.191-.162-.339-.2-.339,0-.423-.2.1-.367.064-.423a.515.515,0,0,0-.459,0c-.381-.3.2-.494.169-.706s-.416-.275-.614-.254-.212.106-.374.155c-.339.106-.551-.226-.833-.339a2.066,2.066,0,0,1-.487-.268c-.134-.085-.381-.24-.543-.148s-.05.3-.141.423-.318,0-.522.176-.12.48-.36.261,0-.423-.289-.43c-.162,0-.416.268-.565.332s-.318,0-.487.064a3.093,3.093,0,0,0-.438.2,2.036,2.036,0,0,1-.423.183c-.261.056-.318,0-.515.183a1.1,1.1,0,0,0-.254.459c-.078.2-.05.268-.31.318a.529.529,0,0,1-.473-.106c-.092.508-.318.12-.614.416-.12.113-.085.226-.12.381-.056.3-.085.169-.339.275s-.289.551-.212.882.289.438-.071.557a.374.374,0,0,1-.466-.169c-.056-.106,0-1.073-.381-.557-.092.134,0,.339,0,.48-.1.289-.346.127-.438.31s.127.3.05.445-.4.064-.536.148-.085.162-.212.212-.219-.035-.289,0-.176,0-.155.261c0,.381.2.254-.2.43-.092.042-.127.12-.24.162s-.282-.064-.353.085.127.226.155.31a.52.52,0,0,1,0,.226c0,.141-.2,0-.085.219.05.12.318.176.423.247a1.025,1.025,0,0,0-.071.48c0,.127.1.176.127.268a.953.953,0,0,1,0,.282c0,.078.275.2.3.332a.254.254,0,0,1-.085.282c-.1.078-.247-.042-.346,0l-.085.191c-.233.176-.557.056-.741.3-.1.127-.05.3-.162.43s-.367.056-.43.275c-.106.367.466.212.572.48.05.106-.035.247,0,.346.05.289.113.085.212.226s.05.219.134.325c.24.275.706,0,1-.056-.071.191-.706.367-.748.565s.494.219.381.572c.162.134.409.042.6.078a1.274,1.274,0,0,0,.6.078c-.155.2-.445.409-.459.706.2,0,.346.134.254.353a.479.479,0,0,0,.381,0,.332.332,0,0,1,.056.183.756.756,0,0,0,.042-.5l-.092-.085a.649.649,0,0,1,.473.459c.035.141-.085.423,0,.529.148.219.875.092,1.094.155s.3.2.459.261.543.085.473.374-.43.183-.085.346a.508.508,0,0,0,.621-.191c.176,0,.183.2.2.339.12,0,.169-.141.275-.169a1.089,1.089,0,0,1,.3,0c.1,0,.169-.155.282-.176s.24.05.353.035.254-.12.3-.12l.2.078c.176,0,.423-.24.494.092.2.056.169-.141.318-.176s.176.05.3.085.339,0,.438.127c.318,0,.67-.05,1.009-.042l.452-.155a1.33,1.33,0,0,1,.473,0c.141,0,.2-.289.487-.36a1.572,1.572,0,0,1,1.009-.141,1.237,1.237,0,0,1,.268.106l.078.183h.169a1.465,1.465,0,0,0,.3.183h.494a2.46,2.46,0,0,1,.579.05.426.426,0,0,0,.155.092c.071.014.092-.127.212-.056s.042.318.367.346.212-.148.409-.289.261.191.551.183a1.15,1.15,0,0,0-.042-.445l-.2-.374h-.247c-.071,0,0-.155,0-.176s-.318,0-.416-.191c-.2-.409.536-.12.706-.064s.261.2.466.141.219-.423.445-.085c.056-.43.84.141.494-.551.43-.1,0-.318,0-.466,0-.3.247-.233.409-.268.388-.092.466-.289.48-.706a.657.657,0,0,1,.141-.466c.127-.226.071-.191.325-.254h.021c.113-.035.148-.1.24-.141s.353-.092.4-.2C121.984,56.234,121.258,56.347,121.074,56.284Z" transform="translate(-88.746 -38.804)" fill="#467536"/>
              <path id="パス_979" data-name="パス 979" d="M179.455,116.448a3.16,3.16,0,0,1-.572-.346c-.141-.092-.233-.085-.311-.282-.219-.536.459-.233.783-.233.12,0,.3.056.367-.056s-.127-.339-.247-.388a.748.748,0,0,0,.064-.48c-.127-.289-.226,0-.43-.071a.283.283,0,0,1-.229-.327.3.3,0,0,1,.01-.04c.064-.219.155-.127.332-.191s.1-.12.2-.134.2.085.282.071a.318.318,0,0,0,.3-.3c0-.3-.162-.127-.332-.176s-.141-.169-.247-.3-.706-.289-.459-.706c.071-.106.261-.078.31-.219s-.063-.212-.078-.3c-.056-.254-.042-.4-.3-.529a1.774,1.774,0,0,0-.656-.176c-.191,0-.332.31-.572.035-.127-.134,0-.353-.106-.473s-.438,0-.565,0-.43.05-.522-.05v-.2l-.127-.183c-.056-.2.148-.226.127-.43s-.374-.254-.445-.43l-.049.056V109.5a.769.769,0,0,0,.064-.6.973.973,0,0,1-.875-.254c-.049-.056,0-.148-.085-.212a1.205,1.205,0,0,0-.261-.155c-.212-.148-.169-.155-.219-.346,0,0,.078-.085.056-.162s-.191-.162-.339-.2-.339,0-.423-.2.1-.367.064-.423a.515.515,0,0,0-.459,0c-.381-.3.2-.494.169-.706s-.416-.282-.614-.254-.212.106-.374.155c-.339.106-.551-.226-.833-.339a2.065,2.065,0,0,1-.487-.268c-.134-.085-.381-.24-.543-.148s-.049.3-.141.423-.318,0-.522.176-.12.473-.36.261,0-.423-.282-.43c-.169,0-.423.268-.572.332s-.318,0-.487.064a3.092,3.092,0,0,0-.438.2,2.035,2.035,0,0,1-.423.183c-.261.056-.318,0-.515.183a1.1,1.1,0,0,0-.254.459c-.078.2-.05.268-.311.318a.55.55,0,0,1-.48-.106c-.085.508-.31.12-.607.416-.12.113-.085.226-.12.381-.056.3-.085.169-.339.275s-.289.551-.212.882.289.438-.071.557a.374.374,0,0,1-.515-.24c-.056-.106,0-1.073-.381-.557-.092.127,0,.339,0,.48-.1.289-.346.127-.438.31s.127.3.049.445-.4.064-.536.148-.085.162-.212.212a.562.562,0,0,1-.289,0c-.071,0-.176.035-.155.261,0,.381.2.254-.2.43-.092.042-.127.12-.24.162s-.282-.064-.353.085.134.226.155.3a.552.552,0,0,1,0,.233c0,.141-.2,0-.085.219.05.12.318.176.423.247a1.023,1.023,0,0,0-.071.48c0,.127.1.169.127.268a.952.952,0,0,1,0,.282c0,.078.275.2.3.332a.254.254,0,0,1-.085.282c-.1.078-.247-.042-.346,0l-.085.191c-.233.176-.557.056-.706.3-.092.127-.049.3-.169.43s-.36.056-.423.275c-.106.367.466.212.572.473.05.113-.035.254,0,.353.05.289.113.085.212.226s.049.219.134.325c.24.275.706,0,1-.056-.071.191-.706.367-.748.565s.494.219.381.572c.162.134.409.042.6.071s.339.141.6.085c-.155.2-.445.409-.459.706.2,0,.346.127.254.353a.543.543,0,0,0,.381,0,.332.332,0,0,1,.056.183.757.757,0,0,0,.042-.5l-.092-.085a.649.649,0,0,1,.473.459c0,.141-.085.423,0,.529.148.219.875.092,1.094.148s.3.212.459.268.543.085.473.374-.43.183-.085.346a.508.508,0,0,0,.621-.191c.176,0,.183.2.2.339.12,0,.169-.141.275-.169a1.089,1.089,0,0,1,.3,0c.1,0,.169-.155.282-.176s.24.05.353,0a1.525,1.525,0,0,1,.3-.12l.2.078c.176,0,.423-.24.494.092.2.056.169-.141.318-.176s.176.049.3.085.339.035.438.127h.035c.318,0,.67-.05,1.009-.042l.452-.155a1.33,1.33,0,0,1,.473,0c.141,0,.2-.289.487-.36a1.619,1.619,0,0,1,1.009-.148,1.8,1.8,0,0,1,.268.113l.078.176h.183a1.465,1.465,0,0,0,.3.183h.494a2.46,2.46,0,0,1,.579.05.426.426,0,0,0,.155.092c.071.014.092-.127.212-.064s.042.325.367.353.212-.148.409-.289.261.191.551.183a1.15,1.15,0,0,0-.042-.445l-.24-.275h-.247c-.071,0,0-.155,0-.176s-.318,0-.416-.191c-.2-.409.536-.12.706-.064s.261.2.466.141.219-.423.445-.085c.056-.43.84.141.494-.551.43-.1,0-.318,0-.466,0-.3.247-.233.409-.268.388-.092.466-.289.48-.706a.657.657,0,0,1,.141-.466c.127-.226.071-.191.325-.254h.155c.113-.035.148-.1.24-.141s.353-.092.4-.2c.086-.374-.641-.261-.825-.324Z" transform="translate(-138.856 -90.457)" fill="#539642"/>
              <g id="グループ_247" data-name="グループ 247" transform="translate(5.005 0)">
                <path id="パス_980" data-name="パス 980" d="M271.175,81.826a2.994,2.994,0,0,1-.579-.346c-.141-.092-.233-.078-.31-.275-.219-.543.459-.24.783-.24.12,0,.3.056.374-.056s-.134-.339-.254-.388a.705.705,0,0,0,.064-.473c-.127-.3-.226,0-.43-.078a.283.283,0,0,1-.227-.329.309.309,0,0,1,.008-.031c.064-.219.155-.127.339-.2.078,0,.092-.12.191-.134s.212.085.289.071a.318.318,0,0,0,.3-.3c0-.3-.169-.12-.332-.176s-.148-.169-.254-.3-.706-.289-.452-.706c.071-.1.254-.078.3-.219s-.056-.2-.078-.289c-.056-.261-.042-.409-.3-.529a1.632,1.632,0,0,0-.649-.183c-.191,0-.332.311-.579.042-.12-.141,0-.36-.106-.48s-.43,0-.557,0-.438.05-.529-.05v-.2l-.127-.183c-.049-.2.148-.226.127-.43s-.374-.254-.438-.43l-.049.064v-.092a.763.763,0,0,0,.063-.6.931.931,0,0,1-.868-.254c-.05-.056,0-.148-.092-.212s-.183-.1-.254-.155c-.219-.148-.169-.155-.226-.339,0,0,.085-.092.056-.169s-.191-.162-.332-.2-.346,0-.423-.2.092-.367.056-.423a.5.5,0,0,0-.452,0c-.388-.3.191-.494.162-.706s-.409-.275-.607-.254-.219.106-.381.155c-.339.106-.543-.226-.826-.339a2.118,2.118,0,0,1-.494-.268c-.127-.085-.381-.24-.536-.148s-.049.3-.148.423-.318,0-.515.176-.127.48-.367.268c-.134-.12,0-.43-.282-.438-.169,0-.423.268-.572.332s-.318,0-.48.064a2.573,2.573,0,0,0-.445.212,2.442,2.442,0,0,1-.423.176c-.254.056-.311,0-.515.183a1.085,1.085,0,0,0-.254.466c-.078.2-.042.261-.311.31a.536.536,0,0,1-.473-.106c-.085.508-.31.12-.614.416-.113.113-.085.226-.113.381-.064.3-.092.169-.339.275s-.289.551-.212.882.282.438-.071.557a.374.374,0,0,1-.466-.169c-.056-.106,0-1.073-.381-.557-.1.134,0,.339-.035.48-.1.289-.346.127-.437.311s.134.3.05.445-.388.071-.529.148-.092.162-.219.212a.566.566,0,0,1-.289,0c-.078,0-.169,0-.155.261,0,.388.2.254-.191.43-.1.042-.127.127-.247.162s-.282-.064-.353.085.134.226.155.31a.524.524,0,0,1,0,.226c0,.148-.191,0-.085.219.056.12.318.176.423.247a1.023,1.023,0,0,0-.071.48c0,.127.106.176.127.268a1.337,1.337,0,0,1,0,.289c0,.085.275.2.311.325a.261.261,0,0,1-.092.282c-.092.078-.247,0-.339,0l-.092.191c-.226.183-.557.064-.706.3s-.056.3-.169.438-.36.05-.423.268c-.106.367.466.212.572.48.042.106-.042.247,0,.346.049.3.113.092.212.226s.042.226.134.325c.24.275.706,0,1-.056-.064.191-.706.374-.748.565s.494.219.381.572c.162.134.409.042.607.078a1.227,1.227,0,0,0,.593.078c-.155.2-.445.409-.459.706.212,0,.346.134.261.353a.507.507,0,0,0,.381,0,.3.3,0,0,1,.049.176.706.706,0,0,0,.042-.494l-.092-.092a.649.649,0,0,1,.473.466c0,.134-.085.416,0,.522.148.219.875.092,1.094.155s.3.2.466.261.536.085.473.374-.438.183-.092.346a.5.5,0,0,0,.621-.191c.176.035.183.2.2.339.12,0,.176-.141.275-.169a1.09,1.09,0,0,1,.3,0c.1,0,.169-.148.282-.176s.247.05.353,0a1.4,1.4,0,0,1,.3-.113l.2.071c.169,0,.423-.24.494.092.2.056.169-.141.311-.176s.183.05.31.085.332,0,.43.127c.325,0,.706-.05,1.009-.042l.452-.155a1.33,1.33,0,0,1,.473,0c.141,0,.2-.282.487-.36a1.534,1.534,0,0,1,1.009-.141,1.3,1.3,0,0,1,.275.106l.078.183h.176a1.629,1.629,0,0,0,.3.176h.487a2.548,2.548,0,0,1,.586.05.353.353,0,0,0,.155.1c.078.014.085-.134.212-.064s0,.318.36.346.219-.148.409-.289c.3-.212.261.191.551.183a1.154,1.154,0,0,0-.035-.445l-.247-.275h-.24c-.071,0,0-.155,0-.176s-.318,0-.409-.191c-.2-.409.529-.12.706-.064s.254.2.466.141.212-.423.437-.085c.056-.423.847.141.494-.551.43-.1,0-.318,0-.466,0-.3.247-.233.4-.268.4-.092.473-.289.48-.706a.706.706,0,0,1,.141-.466c.127-.226.078-.191.325-.254h.162c.113,0,.141-.1.233-.141s.353-.092.4-.191C272.093,81.784,271.366,81.89,271.175,81.826Z" transform="translate(-222.625 -60.733)" fill="#4d873d"/>
                <path id="パス_981" data-name="パス 981" d="M277.012,257.9a3,3,0,0,1-.579-.346c-.141-.092-.233-.085-.31-.282-.219-.536.459-.233.783-.233.12,0,.3.056.367-.056s-.127-.339-.247-.388a.706.706,0,0,0,.064-.48c-.127-.3-.226,0-.43-.071a.3.3,0,0,1-.222-.356l0-.011c.064-.219.155-.127.339-.191.078,0,.092-.12.191-.134s.2.085.289.071a.325.325,0,0,0,.3-.3c0-.311-.169-.127-.332-.176s-.148-.169-.254-.3-.706-.289-.452-.706c.071-.106.254-.078.3-.219s-.056-.212-.078-.3c-.056-.254-.042-.4-.3-.529a1.744,1.744,0,0,0-.649-.176c-.191,0-.332.311-.579,0-.12-.134,0-.36-.106-.473s-.43,0-.565,0-.43.056-.522-.042V252l-.127-.183c-.049-.2.148-.226.127-.438s-.374-.254-.438-.423l-.049.056v-.085a.769.769,0,0,0,.064-.6.952.952,0,0,1-.868-.254c-.05-.056,0-.148-.092-.212a1.358,1.358,0,0,0-.254-.155c-.219-.148-.169-.155-.226-.346,0,0,.085-.085.056-.162s-.191-.162-.332-.2-.346,0-.423-.2.092-.374.056-.423a.524.524,0,0,0-.452,0c-.388-.3.191-.494.162-.706s-.409-.282-.607-.261-.219.113-.381.162c-.339.106-.543-.226-.826-.339a2.4,2.4,0,0,1-.494-.268c-.127-.085-.381-.24-.543-.148s-.042.3-.141.423-.318,0-.515.176-.127.473-.367.261c-.134-.113,0-.423-.282-.43-.169,0-.423.261-.572.332s-.318,0-.48.064a3.183,3.183,0,0,0-.445.2,2.027,2.027,0,0,1-.423.183c-.254.056-.31,0-.515.176a1.17,1.17,0,0,0-.254.466c-.078.2-.042.268-.31.318a.536.536,0,0,1-.473-.106c-.085.508-.31.113-.614.416-.113.113-.085.226-.113.381-.064.3-.092.169-.339.275s-.289.551-.219.882.289.43-.063.557a.381.381,0,0,1-.466-.169c-.056-.106,0-1.073-.381-.557-.1.127,0,.339,0,.473-.1.3-.346.134-.437.318s.134.3.049.445-.388.064-.529.148-.092.162-.219.212-.219-.035-.289,0-.169,0-.155.254c0,.388.2.261-.2.437-.092.042-.12.12-.24.162s-.282-.064-.353.085.134.226.155.3a.552.552,0,0,1,0,.233c0,.141-.191,0-.085.219.056.12.318.176.423.247a1.025,1.025,0,0,0-.071.48c0,.127.106.169.127.268a1.251,1.251,0,0,1,0,.282c0,.078.275.2.311.332a.261.261,0,0,1-.092.282c-.092.071-.247-.042-.339,0l-.092.191c-.226.176-.557.056-.706.3-.092.127-.049.3-.162.43s-.36.056-.423.275c-.113.36.466.2.572.473.042.113-.042.247,0,.353.05.289.113.085.212.226s.042.219.134.325c.233.275.706,0,.995-.056-.064.191-.706.367-.748.565s.494.219.381.572c.162.134.409.042.607.071s.332.141.593.085c-.155.2-.445.409-.459.706.2,0,.346.127.261.353a.544.544,0,0,0,.381,0,.326.326,0,0,1,.049.183.756.756,0,0,0,.042-.5l-.092-.085a.649.649,0,0,1,.473.459c0,.141-.085.423,0,.529.148.219.875.092,1.094.148s.3.212.466.268.536.085.473.374-.438.183-.092.346a.5.5,0,0,0,.621-.191c.176,0,.183.2.2.339.12,0,.176-.148.275-.176s.2.035.3,0,.169-.155.282-.176.24.049.353,0a1.707,1.707,0,0,1,.3-.12l.2.078c.169,0,.423-.24.487.092.2.056.176-.141.318-.176s.183.05.311.085.332,0,.43.127c.325,0,.706-.056,1.009-.042l.452-.162a1.514,1.514,0,0,1,.473,0c.247-.092.2-.289.487-.36a1.619,1.619,0,0,1,1.009-.148,1.135,1.135,0,0,1,.268.113l.085.176h.176a1.339,1.339,0,0,0,.3.183h.487a2.963,2.963,0,0,1,.586.042.353.353,0,0,0,.155.1c.077.014.085-.127.212-.064s0,.325.36.353.219-.148.409-.289c.3-.212.261.191.551.183a1.152,1.152,0,0,0-.035-.445l-.247-.275h-.24c-.071,0,0-.155,0-.183s-.318,0-.409-.183c-.2-.409.529-.12.706-.064s.254.2.466.141.212-.423.438-.092c.056-.423.847.148.494-.543.43-.1,0-.318,0-.466,0-.3.247-.233.4-.268.4-.092.473-.3.48-.706a.7.7,0,0,1,.141-.466c.127-.226.071-.191.325-.254h.162c.113-.035.141-.1.233-.141s.353-.092.4-.2C277.923,257.854,277.189,257.967,277.012,257.9Z" transform="translate(-227.672 -211.879)" fill="#4d873d"/>
                <path id="パス_982" data-name="パス 982" d="M70.138,240.624a2.67,2.67,0,0,1-.579-.346c-.141-.092-.233-.078-.31-.275-.219-.543.459-.24.783-.233.12,0,.3.049.374-.064s-.134-.339-.247-.381a.7.7,0,0,0,.056-.48c-.12-.3-.219,0-.43-.078a.275.275,0,0,1-.222-.32.324.324,0,0,1,.01-.04c.056-.219.155-.127.332-.2s.092-.12.191-.134.212.085.289.078a.325.325,0,0,0,.3-.311c0-.3-.169-.12-.332-.169s-.141-.176-.254-.31-.706-.289-.452-.706c.071-.1.261-.078.3-.219s-.056-.2-.078-.289c-.056-.261-.042-.409-.3-.529a1.756,1.756,0,0,0-.649-.2c-.191,0-.332.31-.572.042-.127-.141,0-.36-.106-.48s-.438,0-.565,0-.438.056-.529-.05v-.2l-.127-.183c-.05-.2.155-.226.134-.43s-.381-.254-.445-.423l-.05.056v-.092a.8.8,0,0,0,.056-.6.931.931,0,0,1-.868-.254c-.05-.056,0-.141-.085-.212s-.183-.1-.261-.155c-.212-.141-.169-.155-.226-.339,0,0,.085-.092.056-.169s-.191-.162-.332-.2-.346,0-.423-.2.092-.367.064-.416a.636.636,0,0,0-.459-.035c-.381-.3.191-.494.169-.706s-.416-.282-.614-.261-.212.106-.374.155c-.346.106-.551-.226-.833-.339a2.118,2.118,0,0,1-.494-.268c-.127-.085-.381-.24-.536-.148s-.05.3-.148.423-.31,0-.515.176-.12.48-.367.268c-.134-.12,0-.423-.282-.438-.162,0-.423.268-.572.339s-.318,0-.48.056a3.21,3.21,0,0,0-.445.212,2.4,2.4,0,0,1-.416.176c-.261.064-.318,0-.515.183a1.017,1.017,0,0,0-.254.466c-.078.2-.05.261-.318.311a.536.536,0,0,1-.473-.106c-.085.508-.31.12-.614.416-.113.113-.085.233-.113.381-.064.31-.085.169-.339.275s-.289.551-.212.882.289.438-.071.557a.374.374,0,0,1-.466-.169c-.056-.106,0-1.073-.381-.551-.092.127,0,.332,0,.473-.1.289-.353.134-.445.311s.134.311.05.445-.388.071-.529.148-.092.169-.219.212a.656.656,0,0,1-.289,0c-.078,0-.169,0-.155.261,0,.388.2.254-.191.43-.092.042-.127.127-.247.162s-.282-.064-.346.092.127.219.148.3a.524.524,0,0,1,0,.226c0,.148-.191,0-.085.219.056.12.325.176.43.247a1.031,1.031,0,0,0-.078.48c0,.127.106.176.127.268a1.319,1.319,0,0,1,0,.289c0,.085.275.2.31.325a.247.247,0,0,1-.092.282c-.092.078-.247,0-.339,0l-.085.191c-.233.184-.557.064-.741.3s-.05.3-.169.438-.36.05-.423.268c-.106.367.466.212.572.48.042.106-.042.247,0,.346.05.3.113.092.212.233s.042.219.134.318c.24.275.706,0,1-.056-.071.191-.706.374-.755.565s.5.219.381.572c.162.134.409.042.607.078a1.216,1.216,0,0,0,.593.078c-.155.212-.438.409-.459.706.212,0,.346.134.261.353a.508.508,0,0,0,.381,0,.3.3,0,0,1,.05.176.706.706,0,0,0,.042-.494l-.078-.1a.65.65,0,0,1,.466.466c0,.134-.078.416,0,.522.148.226.882.092,1.094.155s.3.2.466.261.536.085.473.374-.438.184-.092.346a.5.5,0,0,0,.621-.183c.183,0,.183.2.2.332.113,0,.169-.141.275-.169a1.041,1.041,0,0,1,.3,0c.1,0,.169-.155.282-.183s.247.056.36.035.254-.113.3-.113l.2.078c.169,0,.423-.247.494.092.2.05.169-.148.311-.183s.183.05.31.085.332,0,.438.134c.325,0,.706-.05,1.009-.042l.452-.155a1.514,1.514,0,0,1,.473,0c.141,0,.212-.282.487-.36a1.572,1.572,0,0,1,1.009-.141,1.177,1.177,0,0,1,.275.106l.078.183h.183a1.26,1.26,0,0,0,.3.176h.494a2.461,2.461,0,0,1,.579.049.408.408,0,0,0,.155.1c.071.014.085-.134.212-.064s.042.318.367.346.212-.148.4-.282c.3-.219.261.183.551.176a1.153,1.153,0,0,0-.035-.445l-.247-.268h-.24c-.071,0,0-.155,0-.184s-.318,0-.409-.191c-.2-.409.529-.12.706-.064s.254.2.466.141.212-.416.438-.085c.064-.423.847.141.494-.551.43-.092,0-.31,0-.466,0-.3.247-.233.409-.268.388-.092.466-.289.473-.706a.706.706,0,0,1,.141-.459c.134-.226.078-.2.332-.261h.155c.113,0,.141-.1.233-.141s.36-.092.4-.191C71.048,240.581,70.343,240.687,70.138,240.624Z" transform="translate(-50.02 -197.019)" fill="#4d873d"/>
                <path id="パス_983" data-name="パス 983" d="M62.039,111.979a3.16,3.16,0,0,1-.572-.346c-.148-.092-.233-.085-.318-.282-.212-.536.466-.233.79-.233.113,0,.3.056.367-.056s-.134-.339-.247-.388a.748.748,0,0,0,.064-.48c-.127-.289-.226,0-.438-.071a.289.289,0,0,1-.217-.347.2.2,0,0,1,.005-.02c.064-.219.155-.127.332-.191s.1-.12.191-.134.212.085.289.071a.318.318,0,0,0,.3-.3c0-.3-.169-.127-.332-.176s-.141-.169-.247-.3-.706-.289-.459-.706c.071-.106.261-.078.3-.219s-.056-.212-.071-.3c-.056-.254-.042-.4-.3-.529a1.774,1.774,0,0,0-.656-.176c-.191,0-.332.311-.572,0-.127-.134,0-.36-.106-.473s-.438-.035-.565,0-.438.05-.522-.05v-.2l-.134-.183c-.05-.2.155-.226.134-.43s-.374-.254-.445-.43l-.05.056V105a.8.8,0,0,0,.064-.6.96.96,0,0,1-.833-.24c-.05-.056,0-.148-.085-.212a1.2,1.2,0,0,0-.261-.155c-.212-.148-.169-.155-.219-.346,0,0,.078-.085.056-.162s-.191-.162-.339-.2-.346,0-.423-.2.1-.367.064-.423a.515.515,0,0,0-.459,0c-.381-.3.191-.494.169-.706s-.416-.282-.614-.254-.212.106-.374.155c-.346.106-.551-.226-.833-.339a1.933,1.933,0,0,1-.487-.268c-.134-.085-.388-.24-.543-.148s-.05.3-.148.423-.31,0-.515.176-.12.473-.367.261c-.134-.113,0-.423-.282-.43-.162,0-.416.268-.572.332s-.31,0-.48.064a3.093,3.093,0,0,0-.438.2,2.2,2.2,0,0,1-.423.183c-.261.056-.318,0-.515.183a1.1,1.1,0,0,0-.254.459c-.078.2-.05.268-.318.318a.543.543,0,0,1-.473-.106c-.085.508-.31.12-.614.416-.113.113-.078.226-.113.381-.064.3-.085.169-.339.275s-.289.551-.212.882.289.438-.071.557a.374.374,0,0,1-.466-.169c-.056-.106,0-1.073-.381-.557-.092.127,0,.339,0,.48-.1.289-.353.127-.438.311s.127.3.042.445-.388.064-.529.148-.085.162-.212.212a.563.563,0,0,1-.289,0c-.071,0-.176,0-.155.261,0,.381.2.254-.2.43-.092.042-.127.12-.24.162s-.282-.064-.353.085.127.226.148.3a.561.561,0,0,1,0,.233c0,.141-.2,0-.085.219.05.12.318.176.423.247a1.031,1.031,0,0,0-.078.48c0,.127.106.169.134.268a.942.942,0,0,1,0,.282c0,.078.268.2.3.332a.254.254,0,0,1-.085.282c-.1.078-.247-.042-.346,0l-.085.191c-.233.176-.557.056-.706.3-.1.127-.05.3-.169.43s-.36.056-.423.275c-.106.367.466.212.572.473.042.113-.035.254,0,.353.05.289.113.085.212.226s.042.219.134.325c.24.275.706,0,1-.056-.071.191-.706.367-.748.565s.494.219.374.572c.169.134.416.042.607.071s.339.141.593.085c-.148.2-.438.409-.452.706.2.035.346.127.254.353a.543.543,0,0,0,.381,0,.275.275,0,0,1,.05.183.706.706,0,0,0-.028-.565l-.085-.085a.705.705,0,0,1,.473.459c0,.141-.085.423,0,.529.141.219.875.092,1.094.148s.3.212.459.268.536.085.473.374-.43.183-.085.346a.494.494,0,0,0,.614-.191c.183,0,.191.2.2.339.113,0,.169-.141.275-.169a1.09,1.09,0,0,1,.3,0c.106,0,.169-.155.275-.176s.247.05.36.035.254-.12.3-.12l.2.078c.176,0,.423-.24.494.092.2.056.169-.141.318-.176s.176.05.3.085a1.143,1.143,0,0,1,.438.127h.035c.318,0,.67-.049,1.009-.042l.452-.155a1.291,1.291,0,0,1,.466,0c.247-.092.212-.289.494-.36a1.25,1.25,0,0,1,1.277-.035l.078.176H56.5a1.278,1.278,0,0,0,.3.183h.494a2.46,2.46,0,0,1,.579.05.426.426,0,0,0,.155.092c.071.014.085-.127.212-.064s.042.325.367.353.212-.148.409-.289.261.191.543.183a1.03,1.03,0,0,0-.035-.445l-.247-.275h-.24c-.071,0,0-.155,0-.183s-.318,0-.416-.183c-.2-.409.536-.12.706-.064s.254.2.466.141.212-.423.438-.085c.064-.43.847.141.5-.551.43-.1,0-.318,0-.466,0-.3.247-.233.409-.268.388-.092.466-.289.473-.706a.705.705,0,0,1,.141-.466c.134-.226.078-.191.332-.254h.155c.113,0,.148-.1.24-.141s.353-.092.4-.2C62.978,111.93,62.251,112.043,62.039,111.979Z" transform="translate(-43.128 -86.603)" fill="#4d873d"/>
                <path id="パス_984" data-name="パス 984" d="M201.546,11.085a2.67,2.67,0,0,1-.579-.346c-.141-.092-.233-.078-.311-.275-.219-.543.459-.24.783-.24.12,0,.3.056.374-.056s-.134-.339-.247-.388a.7.7,0,0,0,.056-.473c-.12-.3-.219,0-.43-.078a.282.282,0,0,1-.226-.329.29.29,0,0,1,.007-.031c.064-.219.162-.127.339-.2s.092-.12.191-.134.212.085.289.071a.318.318,0,0,0,.3-.3c0-.3-.169-.12-.332-.169s-.141-.176-.254-.31-.706-.289-.452-.706c.071-.1.261-.078.3-.219s-.056-.2-.078-.289c-.056-.261-.042-.409-.3-.529a1.757,1.757,0,0,0-.649-.183c-.191,0-.332.31-.572.042-.127-.141,0-.36-.106-.48s-.438,0-.565,0-.437.056-.529-.05v-.2l-.127-.183c-.05-.2.155-.226.134-.43s-.381-.254-.445-.43l-.05.064V4.14a.8.8,0,0,0,.056-.6.931.931,0,0,1-.868-.254c-.049-.056,0-.148-.092-.212s-.176-.1-.254-.155c-.212-.141-.169-.155-.226-.339,0,0,.085-.092.056-.169s-.191-.162-.332-.2-.346,0-.423-.2.092-.367.056-.423a.5.5,0,0,0-.452,0c-.381-.3.191-.494.169-.706s-.416-.275-.614-.254-.212.106-.381.155c-.339.106-.543-.226-.826-.339a2.118,2.118,0,0,1-.494-.268c-.127-.085-.381-.24-.536-.148s-.05.3-.148.423-.311,0-.515.176-.12.48-.367.268c-.134-.12,0-.43-.282-.438-.169,0-.423.268-.572.339s-.318,0-.48.056a3.215,3.215,0,0,0-.445.212,2.235,2.235,0,0,1-.423.176c-.254.064-.31,0-.508.183a1.017,1.017,0,0,0-.254.466c-.078.2-.05.261-.318.31a.536.536,0,0,1-.473-.106c-.085.508-.311.12-.614.416-.113.113-.085.233-.113.381-.064.3-.085.169-.339.275s-.289.551-.212.882.289.438-.071.557a.374.374,0,0,1-.466-.169c-.056-.106,0-1.073-.381-.557-.1.134,0,.339,0,.48-.092.289-.346.127-.438.31s.134.3.049.445-.388.071-.529.148-.092.162-.219.212a.564.564,0,0,1-.289,0c-.078,0-.169,0-.155.261,0,.388.2.254-.191.43-.1.042-.127.127-.247.162s-.282-.064-.353.085.134.226.155.31a.524.524,0,0,1,0,.226c0,.148-.191,0-.085.219.056.12.325.176.43.247a1.03,1.03,0,0,0-.078.48c0,.127.106.176.127.268a1.32,1.32,0,0,1,0,.289c0,.085.275.2.311.325a.247.247,0,0,1-.092.282c-.092.078-.247,0-.339,0l-.085.191c-.233.183-.557.064-.706.3s-.05.3-.169.438-.36.05-.423.268c-.106.367.466.212.572.48.042.106-.042.247,0,.346.05.3.113.092.212.233s.042.219.134.318c.24.275.706,0,1-.056-.071.191-.706.374-.755.565s.5.219.381.572c.162.134.409.042.607.078a1.216,1.216,0,0,0,.593.078c-.155.2-.445.409-.459.706.212,0,.346.134.261.353a.507.507,0,0,0,.381,0,.3.3,0,0,1,.049.176.706.706,0,0,0,.042-.494l-.085-.092a.65.65,0,0,1,.466.466c0,.134-.078.416,0,.522.148.226.882.092,1.094.155s.3.2.466.261.536.085.473.374-.438.183-.092.346a.5.5,0,0,0,.621-.183c.183,0,.183.2.2.332.113,0,.169-.141.275-.169a1.041,1.041,0,0,1,.3,0c.1,0,.169-.155.282-.183s.247.05.36,0a1.531,1.531,0,0,1,.3-.113l.2.078c.169,0,.423-.247.494.092.2.05.169-.148.311-.183s.183.05.31.085a1.144,1.144,0,0,1,.438.127c.325,0,.706-.05,1.009-.042l.452-.155a1.33,1.33,0,0,1,.473,0c.141,0,.212-.282.487-.36a1.572,1.572,0,0,1,1.009-.141,1.176,1.176,0,0,1,.275.106l.078.183h.183c.071,0,.212.162.3.176s.339,0,.487,0a2.548,2.548,0,0,1,.586.05.408.408,0,0,0,.155.1c.07.014.085-.134.212-.064s.042.318.36.346.219-.148.409-.289c.3-.212.261.191.551.183a1.159,1.159,0,0,0,0-.445l-.353-.318h-.24c-.071,0,0-.155,0-.176s-.318,0-.409-.191c-.2-.409.529-.12.706-.064s.254.2.466.141.212-.416.438-.085c.064-.423.847.141.494-.551.43-.1,0-.31,0-.466,0-.3.247-.233.4-.268.4-.092.473-.289.48-.706a.706.706,0,0,1,.141-.459c.134-.233.078-.2.332-.261h.155c.113,0,.141-.1.233-.141s.353-.092.4-.191c.149-.387-.578-.281-.775-.345Z" transform="translate(-162.876 0.002)" fill="#4d873d"/>
              </g>
            </g>
          </g>
        </g>
      </g>
    </g>
    <g id="グループ_1213" data-name="グループ 1213">
      <rect id="長方形_1146" data-name="長方形 1146" width="320" height="60" rx="12" transform="translate(4329 -520)" fill="#b19623"/>
      <text id="専門家に相談する_" data-name="専門家に相談する  →" transform="translate(4489 -484)" fill="#fff" font-size="18" font-family="NotoSansJP-Bold, Noto Sans JP" font-weight="700"><tspan x="-85.086" y="0">専門家</tspan><tspan y="0">に</tspan><tspan y="0">相談</tspan><tspan y="0" xml:space="preserve">する  →</tspan></text>
    </g>
  </g>
</svg>
