<svg xmlns="http://www.w3.org/2000/svg" xmlns:xlink="http://www.w3.org/1999/xlink" width="350" height="120" viewBox="0 0 350 120">
  <defs>
    <clipPath id="clip-path">
      <rect id="長方形_10" data-name="長方形 10" width="161" height="34" transform="translate(0 0)" fill="none"/>
    </clipPath>
  </defs>
  <g id="sp_bnr_navera" transform="translate(-20 -4072)">
    <g id="グループ_1282" data-name="グループ 1282" transform="translate(-500 1754)">
      <rect id="長方形_1143" data-name="長方形 1143" width="350" height="120" rx="12" transform="translate(520 2318)" fill="#f2f2f2"/>
      <g id="グループ_1198" data-name="グループ 1198" transform="translate(615 2384)">
        <g id="グループ_7" data-name="グループ 7" transform="translate(0 0)" clip-path="url(#clip-path)">
          <path id="パス_1" data-name="パス 1" d="M11.512.291,19.48,15.63a.538.538,0,0,0,1.016-.268c-.049-1.066-.093-2.3-.093-3.305V.54A.539.539,0,0,1,20.943,0h9.124a.54.54,0,0,1,.54.54V31.459a.539.539,0,0,1-.54.539H20.028a.542.542,0,0,1-.473-.281l-8.44-15.474a.538.538,0,0,0-1.012.277c.052,1.093.1,2.374.1,3.422V31.459A.538.538,0,0,1,9.663,32H.539A.538.538,0,0,1,0,31.459V.54A.539.539,0,0,1,.539,0H11.033a.539.539,0,0,1,.479.291" transform="translate(0 0.235)"/>
          <path id="パス_2" data-name="パス 2" d="M39.745,31.9c-4.4,0-9.043-1.948-9.043-7.745s5.844-7.142,9.276-7.281l5.472-.231v-.232c0-1.3-1.065-2.226-3.849-2.226a16.421,16.421,0,0,0-6.9,1.807.535.535,0,0,1-.739-.289l-2.144-5.535a.535.535,0,0,1,.279-.688,28.3,28.3,0,0,1,10.9-2.251c4.87,0,7.652.928,9.739,2.782s3.151,4.406,3.151,8.348V30.8a.539.539,0,0,1-.539.54H46.489a.538.538,0,0,1-.535-.48l-.18-1.607A8.19,8.19,0,0,1,39.745,31.9m1.391-8.208c0,1.39,1.158,1.855,2.318,1.855a2.824,2.824,0,0,0,1.913-.76.529.529,0,0,0,.174-.4V22.274a.539.539,0,0,0-.575-.539l-1.512.1c-1.113.046-2.318.463-2.318,1.855" transform="translate(2.778 0.889)"/>
          <path id="パス_3" data-name="パス 3" d="M65.213,8.034l3.173,10.255a.539.539,0,0,0,1.029,0L72.629,8.032a.54.54,0,0,1,.515-.377h9.467a.539.539,0,0,1,.5.743L73.9,30.969a.54.54,0,0,1-.5.336H64.16a.538.538,0,0,1-.5-.336L54.5,8.4a.539.539,0,0,1,.5-.742h9.7a.539.539,0,0,1,.515.379" transform="translate(4.927 0.928)"/>
          <path id="パス_4" data-name="パス 4" d="M94.531,31.9c-7.512,0-13.309-4.22-13.309-12.337S87.251,7.23,94.671,7.23s12.521,4.637,12.521,11.825c0,.9-.058,1.859-.1,2.424a.536.536,0,0,1-.538.5h-14.3a.54.54,0,0,0-.5.75c.722,1.54,2.695,1.893,4.313,1.893a12.325,12.325,0,0,0,6.085-1.6.534.534,0,0,1,.7.123l3.328,4.305a.535.535,0,0,1-.081.744c-1.433,1.176-4.741,3.707-11.564,3.707m0-18.179a2.866,2.866,0,0,0-2.883,2.086.547.547,0,0,0,.523.7H96.91a.547.547,0,0,0,.527-.686,2.834,2.834,0,0,0-2.9-2.1" transform="translate(7.349 0.889)"/>
          <path id="パス_5" data-name="パス 5" d="M117.117,7.692a.539.539,0,0,1,.539.564l-.112,2.451a6.306,6.306,0,0,1,5.935-3.479,5.656,5.656,0,0,1,1.961.3.532.532,0,0,1,.34.53l-.447,9.144h-.462a7.118,7.118,0,0,0-3.015-.7,4.057,4.057,0,0,0-3.246,1.53,6.651,6.651,0,0,0-.927,4.036V30.8a.539.539,0,0,1-.54.539h-9.355a.539.539,0,0,1-.54-.539V8.232a.54.54,0,0,1,.54-.54Z" transform="translate(9.703 0.889)"/>
          <path id="パス_6" data-name="パス 6" d="M132.959,31.9c-4.4,0-9.042-1.948-9.042-7.745s5.843-7.142,9.275-7.281l5.472-.231v-.232c0-1.3-1.066-2.226-3.849-2.226a16.42,16.42,0,0,0-6.9,1.807.534.534,0,0,1-.738-.289l-2.144-5.535a.533.533,0,0,1,.278-.688,28.29,28.29,0,0,1,10.9-2.251c4.869,0,7.652.928,9.739,2.782s3.153,4.406,3.153,8.348V30.8a.539.539,0,0,1-.539.54H139.7a.541.541,0,0,1-.537-.481l-.178-1.606a8.193,8.193,0,0,1-6.029,2.643m1.392-8.208c0,1.39,1.159,1.855,2.318,1.855a2.819,2.819,0,0,0,1.913-.761.527.527,0,0,0,.174-.4V22.274a.539.539,0,0,0-.575-.539l-1.512.1c-1.113.046-2.318.463-2.318,1.855" transform="translate(11.212 0.889)"/>
        </g>
      </g>
      <text id="中小企業がAI時代を迷わず進むための_ナビゲーション型メディア" data-name="中小企業がAI時代を迷わず進むための
ナビゲーション型メディア" transform="translate(691 2349.41)" font-size="14" font-family="NotoSansJP-Bold, Noto Sans JP" font-weight="700"><tspan x="-118.797" y="0">中小企業</tspan><tspan y="0">が</tspan><tspan y="0">AI</tspan><tspan y="0">時代</tspan><tspan y="0">を</tspan><tspan y="0">迷</tspan><tspan y="0">わず</tspan><tspan y="0">進</tspan><tspan y="0">むための</tspan><tspan x="-83.37" y="20">ナビゲーション</tspan><tspan y="20">型</tspan><tspan y="20">メディア</tspan></text>
    </g>
  </g>
</svg>
