<svg xmlns="http://www.w3.org/2000/svg" width="337.59" height="188.656" viewBox="0 0 337.59 188.656">
  <g id="sp_hero_maincopy" transform="translate(-26.496 -80.492)">
    <g id="グループ_1265" data-name="グループ 1265" transform="translate(-16 -10.396)">
      <rect id="長方形_381" data-name="長方形 381" width="138" height="50" rx="8" transform="translate(142 90.889)" fill="#ff4500"/>
      <path id="パス_3711" data-name="パス 3711" d="M-60.88.56A14.771,14.771,0,0,1-65.04.02,11.972,11.972,0,0,1-68.3-1.46a12.679,12.679,0,0,1-2.46-2.1L-68-7.28a15.784,15.784,0,0,0,2.98,2.14,7.327,7.327,0,0,0,3.62.9,6.815,6.815,0,0,0,2.66-.48,3.866,3.866,0,0,0,1.76-1.4,3.915,3.915,0,0,0,.62-2.24,4.5,4.5,0,0,0-.7-2.54,4.417,4.417,0,0,0-2.46-1.62,17.117,17.117,0,0,0-4.96-.56v-4.24a12.666,12.666,0,0,0,4.28-.58,4.32,4.32,0,0,0,2.22-1.6,4.212,4.212,0,0,0,.66-2.34,3.531,3.531,0,0,0-1.04-2.7,4.092,4.092,0,0,0-2.92-.98,6.17,6.17,0,0,0-2.9.7,12.8,12.8,0,0,0-2.66,1.9l-3.04-3.64a18.021,18.021,0,0,1,4.12-2.62A11.386,11.386,0,0,1-61-30.16a12.819,12.819,0,0,1,5.02.92,7.5,7.5,0,0,1,3.38,2.68,7.416,7.416,0,0,1,1.2,4.28,6.707,6.707,0,0,1-1.28,4.12,8.033,8.033,0,0,1-3.64,2.64v.2a8.914,8.914,0,0,1,2.98,1.42,7.119,7.119,0,0,1,2.12,2.46A7.273,7.273,0,0,1-50.44-8a7.52,7.52,0,0,1-1.42,4.6,9.042,9.042,0,0,1-3.8,2.94A13.114,13.114,0,0,1-60.88.56ZM-40.4-19.28h21.64v4.64H-40.4Zm20.04,0h5.04v1.26a6.842,6.842,0,0,1-.04.82q-.16,4.52-.36,7.78T-16.18-4A23.683,23.683,0,0,1-16.8-.56a5.385,5.385,0,0,1-.88,1.92,4.921,4.921,0,0,1-1.66,1.36,7.074,7.074,0,0,1-2.02.56A18.863,18.863,0,0,1-24,3.46q-1.64.02-3.44-.06A9.363,9.363,0,0,0-27.92.94,10.087,10.087,0,0,0-29-1.44q1.68.12,3.12.16t2.16.04a3.517,3.517,0,0,0,.92-.1,1.682,1.682,0,0,0,.72-.46,4.928,4.928,0,0,0,.78-2.3q.3-1.78.54-5.28t.4-9.06Zm-15.56-14.2,5.2,1.52a46.229,46.229,0,0,1-3.54,6.72,48.745,48.745,0,0,1-4.44,5.96,36.246,36.246,0,0,1-4.94,4.72q-.44-.52-1.2-1.26t-1.54-1.46a16.379,16.379,0,0,0-1.38-1.16,29.982,29.982,0,0,0,4.74-4.02,34.689,34.689,0,0,0,4.1-5.16A30.8,30.8,0,0,0-35.92-33.48Zm15.24-.08a34.192,34.192,0,0,0,2.32,3.92,45.092,45.092,0,0,0,2.98,3.9q1.62,1.9,3.32,3.58a33.718,33.718,0,0,0,3.34,2.92,13.635,13.635,0,0,0-1.42,1.26q-.78.78-1.48,1.58a18.372,18.372,0,0,0-1.18,1.48q-1.68-1.56-3.4-3.5t-3.38-4.12q-1.66-2.18-3.14-4.52t-2.68-4.62Zm-12.6,15.64h5.24a57.973,57.973,0,0,1-.92,6.56,23.013,23.013,0,0,1-2.1,6.04,17.133,17.133,0,0,1-4.2,5.18,23.451,23.451,0,0,1-7.22,3.98,9.166,9.166,0,0,0-.8-1.48q-.52-.8-1.12-1.58A11.018,11.018,0,0,0-45.6-.56a19.622,19.622,0,0,0,6.4-3.18A13.553,13.553,0,0,0-35.64-7.9a16.4,16.4,0,0,0,1.66-4.82Q-33.52-15.28-33.28-17.92Zm47,.56L18-16a27.822,27.822,0,0,1-3.12,4.5A33,33,0,0,1,10.9-7.52,33.668,33.668,0,0,1,6.56-4.4a12.058,12.058,0,0,0-.84-1.12Q5.16-6.2,4.54-6.88T3.48-7.96a26.924,26.924,0,0,0,5.88-4.02A20.269,20.269,0,0,0,13.72-17.36Zm.52-16.8L18.4-32q-1.6,1.88-3.32,3.78a41.968,41.968,0,0,1-3.16,3.18L8.64-26.92q.92-.96,1.96-2.2t2-2.56Q13.56-33,14.24-34.16Zm7.44,3,4.28,2.32q-2.12,2.24-4.6,4.62t-5,4.52q-2.52,2.14-4.76,3.74L8.4-18.04q1.68-1.28,3.48-2.86t3.58-3.36q1.78-1.78,3.38-3.54T21.68-31.16ZM4.84-26.68l2.84-3.08q1.48.92,3.1,2.06t3.06,2.32a15.84,15.84,0,0,1,2.28,2.22l-3.08,3.48a17.61,17.61,0,0,0-2.18-2.28Q9.48-23.2,7.9-24.44T4.84-26.68ZM21.28-22.2l3.68-2.04q1.2,1.32,2.4,2.88t2.2,3.1a19.977,19.977,0,0,1,1.56,2.82l-4.04,2.28a20.305,20.305,0,0,0-1.4-2.82q-.92-1.58-2.08-3.22T21.28-22.2ZM4-19.36q2.92-.04,6.72-.08t8.06-.12l8.5-.16-.16,3.84q-4.04.16-8.14.3t-7.86.24l-6.72.18Zm8.32,8.6a18.361,18.361,0,0,0,4.4,4.78,24.948,24.948,0,0,0,6.38,3.5A39.405,39.405,0,0,0,31.12-.4,11.581,11.581,0,0,0,30.06.84q-.54.72-1.02,1.48t-.8,1.4a35.652,35.652,0,0,1-8.3-2.7,26.342,26.342,0,0,1-6.6-4.42A25.377,25.377,0,0,1,8.48-9.56Zm1-2.4H24.08V-9.6H10.16Zm9.24,0h.88l.8-.2,3,1.36a22.378,22.378,0,0,1-3.5,5.94,24.063,24.063,0,0,1-4.94,4.5,30.526,30.526,0,0,1-6.1,3.22,45.619,45.619,0,0,1-6.94,2.1,16.207,16.207,0,0,0-.98-2.1A10.365,10.365,0,0,0,3.48-.28,44.178,44.178,0,0,0,9.76-1.9,28.08,28.08,0,0,0,15.3-4.46a20.091,20.091,0,0,0,4.4-3.56,14.737,14.737,0,0,0,2.86-4.5ZM1.4-25.36,5.6-23.8a44.11,44.11,0,0,1-3.02,4.84,50.269,50.269,0,0,1-3.7,4.6A36.506,36.506,0,0,1-5.04-10.6a11.928,11.928,0,0,0-.66-1.36q-.46-.84-.96-1.7a13.181,13.181,0,0,0-.9-1.38,34.642,34.642,0,0,0,3.34-2.92A34.618,34.618,0,0,0-1.1-21.5,27.5,27.5,0,0,0,1.4-25.36ZM.68-34l4.24,1.72a42.054,42.054,0,0,1-2.86,3.52q-1.62,1.8-3.34,3.44a31.447,31.447,0,0,1-3.4,2.84q-.32-.48-.78-1.12t-.92-1.3a11.125,11.125,0,0,0-.82-1.06,34.292,34.292,0,0,0,2.94-2.4,35.112,35.112,0,0,0,2.8-2.84A23.1,23.1,0,0,0,.68-34Zm-2.6,17.28L2.16-20.8l.4.16V3.64H-1.92ZM42,2.76Q40.8,1.24,39.32-.32t-3-3.06q-1.52-1.5-2.92-2.7l4.16-3.6Q39-8.52,40.64-6.94t3.14,3.18q1.5,1.6,2.5,2.84Z" transform="translate(222.76 130.409)" fill="#fff"/>
    </g>
    <path id="パス_3715" data-name="パス 3715" d="M-49.632-26.565q-.132.462-.248.908t-.215.841q-.3,1.551-.561,3.547t-.429,4.158q-.165,2.161-.165,4.24a39.218,39.218,0,0,0,.264,4.736,30.406,30.406,0,0,0,.743,3.993Q-49.764-2.31-49.2-.66L-53,.495a34.575,34.575,0,0,1-.94-3.531q-.446-2.046-.743-4.406a38.145,38.145,0,0,1-.3-4.768q0-1.65.116-3.316t.248-3.3q.132-1.634.313-3.135t.313-2.722q.033-.462.066-1.007a7.163,7.163,0,0,0,0-.974ZM-55.506-22.9q3.135,0,5.89-.132T-44.3-23.5a45.656,45.656,0,0,0,5.1-.957l.033,3.828q-1.716.3-3.779.545t-4.29.412q-2.228.165-4.372.247t-4.026.083q-.858,0-1.931-.033t-2.112-.083q-1.04-.049-1.8-.082l-.1-3.828q.561.066,1.617.182t2.26.2Q-56.5-22.9-55.506-22.9Zm14.223,4.818q-.1.3-.3.825t-.379,1.089q-.181.561-.28.891a30.089,30.089,0,0,1-2.326,5.429,25.515,25.515,0,0,1-2.954,4.29,20.064,20.064,0,0,1-3.135,2.987,18.158,18.158,0,0,1-3.7,2.129,10.393,10.393,0,0,1-4.191.908,5.009,5.009,0,0,1-2.211-.5A3.735,3.735,0,0,1-62.387-1.6,5.45,5.45,0,0,1-63-4.323a8.9,8.9,0,0,1,.726-3.5,13.116,13.116,0,0,1,2.013-3.267,15.3,15.3,0,0,1,3-2.755,15.066,15.066,0,0,1,3.7-1.9,22.169,22.169,0,0,1,3.547-.957,20.592,20.592,0,0,1,3.812-.363,12.941,12.941,0,0,1,5.494,1.122,9.4,9.4,0,0,1,3.812,3.069,7.649,7.649,0,0,1,1.386,4.554A10.636,10.636,0,0,1-36.069-4.9,8.829,8.829,0,0,1-37.9-1.815,10.861,10.861,0,0,1-41.25.627a17.619,17.619,0,0,1-5.115,1.485l-2.178-3.465A14.259,14.259,0,0,0-43.4-2.789a7.283,7.283,0,0,0,2.888-2.591A6.032,6.032,0,0,0-39.6-8.514a4.57,4.57,0,0,0-.776-2.607,5.44,5.44,0,0,0-2.31-1.865,8.979,8.979,0,0,0-3.778-.709,14.87,14.87,0,0,0-4.009.495,19.073,19.073,0,0,0-2.954,1.056,11.633,11.633,0,0,0-2.937,2,10.256,10.256,0,0,0-2.013,2.524A5.125,5.125,0,0,0-59.1-5.181a1.771,1.771,0,0,0,.363,1.2,1.463,1.463,0,0,0,1.155.412,6.281,6.281,0,0,0,2.739-.776,13.156,13.156,0,0,0,3.069-2.194,23.4,23.4,0,0,0,3.366-3.96A20.443,20.443,0,0,0-45.8-16.236a8.609,8.609,0,0,0,.2-.858q.1-.528.182-1.073t.116-.875Zm11.022-3.531q1.056.132,2.26.181t2.128.049a37.777,37.777,0,0,0,4.142-.231q2.1-.231,4.042-.611a33.144,33.144,0,0,0,3.531-.875l.132,3.828q-1.419.363-3.383.742t-4.141.627a37.977,37.977,0,0,1-4.29.247q-.99,0-2.013-.033t-2.112-.1Zm12.837-4.95q-.2.825-.528,2.145t-.743,2.772q-.412,1.452-.875,2.871a44.585,44.585,0,0,1-1.914,5.049q-1.188,2.673-2.574,5.214a43.67,43.67,0,0,1-2.805,4.521l-3.993-2.046a35.7,35.7,0,0,0,2.211-3.069q1.089-1.683,2.046-3.465t1.732-3.448a31,31,0,0,0,1.238-3.02,32.336,32.336,0,0,0,1.105-3.91,22.494,22.494,0,0,0,.544-4.076ZM-9.7-16.3q-.066,1.056-.049,2.1t.049,2.128q.033.759.083,1.931T-9.5-7.673q.066,1.3.115,2.475t.049,1.864A6.009,6.009,0,0,1-9.966-.577a4.535,4.535,0,0,1-2,1.964,8.064,8.064,0,0,1-3.746.726,10.589,10.589,0,0,1-3.7-.61,6.046,6.046,0,0,1-2.64-1.815,4.6,4.6,0,0,1-.99-3.02,5.2,5.2,0,0,1,.858-2.92A5.722,5.722,0,0,1-19.685-8.3a9.485,9.485,0,0,1,3.944-.742,16.922,16.922,0,0,1,5.346.808A19.223,19.223,0,0,1-6.006-6.171,25.759,25.759,0,0,1-2.673-3.663L-4.884-.132q-.891-.792-2.029-1.782A18.861,18.861,0,0,0-9.454-3.762,15.35,15.35,0,0,0-12.49-5.181a10.749,10.749,0,0,0-3.515-.561,4.105,4.105,0,0,0-2.277.561,1.679,1.679,0,0,0-.858,1.452A1.771,1.771,0,0,0-18.4-2.244a3.416,3.416,0,0,0,2.1.561,3.573,3.573,0,0,0,1.782-.38A2.043,2.043,0,0,0-13.6-3.151a4.565,4.565,0,0,0,.264-1.6q0-.759-.066-2.145t-.148-3.069q-.083-1.683-.149-3.366t-.132-2.97Zm5.676,1.749A22.656,22.656,0,0,0-6.4-16.236q-1.419-.891-2.92-1.7t-2.623-1.3l2.112-3.267q.891.4,2.029.973t2.31,1.2q1.171.627,2.178,1.237t1.633,1.073ZM15.642-26.334q-.2.66-.4,1.617t-.3,1.485q-.231,1.122-.578,2.739t-.759,3.432q-.413,1.815-.842,3.465-.429,1.749-1.056,3.778T10.378-5.693Q9.669-3.6,8.943-1.7T7.524,1.683L2.937.132q.726-1.254,1.551-3.053T6.089-6.8q.776-2.079,1.436-4.125t1.122-3.8q.33-1.155.627-2.376T9.8-19.47q.231-1.155.413-2.162t.28-1.765q.1-.924.132-1.848a10.168,10.168,0,0,0-.033-1.485ZM7.227-21.417q2.013,0,4.191-.2t4.389-.561q2.211-.363,4.389-.858v4.125q-2.046.462-4.356.792t-4.554.511q-2.244.182-4.125.182-1.188,0-2.145-.049t-1.848-.083l-.1-4.125q1.287.132,2.211.2T7.227-21.417Zm10.362,5.049q1.386-.132,3.069-.231t3.267-.1q1.419,0,2.887.066t2.921.231l-.1,3.96q-1.221-.165-2.69-.281t-2.986-.115q-1.683,0-3.25.082t-3.118.281Zm1.782,8.316a14.391,14.391,0,0,0-.33,1.436,7.565,7.565,0,0,0-.132,1.3,2.183,2.183,0,0,0,.231.99,2.188,2.188,0,0,0,.726.809,3.9,3.9,0,0,0,1.369.544,10.167,10.167,0,0,0,2.194.2,31.832,31.832,0,0,0,3.383-.181q1.7-.182,3.481-.511L30.129.759q-1.386.165-3.069.313T23.4,1.221A12.084,12.084,0,0,1,17.045-.148,4.326,4.326,0,0,1,14.85-4.026a13.459,13.459,0,0,1,.2-2.277q.2-1.155.4-2.145ZM52.5-22.6q-.33,2.508-.858,5.346a52.006,52.006,0,0,1-1.419,5.742,29.5,29.5,0,0,1-2.244,5.742A12.587,12.587,0,0,1,45.16-2.062a5.067,5.067,0,0,1-3.349,1.3A5.222,5.222,0,0,1,38.462-2,8.453,8.453,0,0,1,36.02-5.412a12.77,12.77,0,0,1-.908-4.95,12.926,12.926,0,0,1,1.155-5.412,14.4,14.4,0,0,1,3.218-4.5A15.255,15.255,0,0,1,44.3-23.364a15.643,15.643,0,0,1,5.957-1.122,14.685,14.685,0,0,1,5.527.99,12.441,12.441,0,0,1,4.208,2.739,11.889,11.889,0,0,1,2.673,4.092,13.638,13.638,0,0,1,.924,5.049,13.288,13.288,0,0,1-1.419,6.2A11.73,11.73,0,0,1,57.965-.891a18.041,18.041,0,0,1-6.947,2.442L48.543-2.376q.957-.1,1.683-.231t1.386-.3a12.558,12.558,0,0,0,2.953-1.138,9.218,9.218,0,0,0,2.393-1.848,8.085,8.085,0,0,0,1.6-2.59,8.941,8.941,0,0,0,.577-3.267,10.267,10.267,0,0,0-.594-3.564,8.024,8.024,0,0,0-1.749-2.821,7.706,7.706,0,0,0-2.805-1.848,10.394,10.394,0,0,0-3.795-.644,10.881,10.881,0,0,0-4.653.941,10.893,10.893,0,0,0-3.4,2.425,10.649,10.649,0,0,0-2.1,3.2,8.553,8.553,0,0,0-.71,3.267,8.252,8.252,0,0,0,.4,2.755,4.171,4.171,0,0,0,.974,1.65,1.781,1.781,0,0,0,1.237.544,1.928,1.928,0,0,0,1.369-.71,7.915,7.915,0,0,0,1.336-2.161,29.243,29.243,0,0,0,1.32-3.663,45.072,45.072,0,0,0,1.287-5.082,51.719,51.719,0,0,0,.759-5.28ZM-146.652,40.146h29.436v3.267h-29.436Zm.1-14.784h29.238V28.6h-29.238Zm1.353,5.907h26.6v3.1h-26.6Zm1.617,4.554h23.463v2.871h-23.463Zm9.57-3h3.927V50.97h-3.927Zm-2.871-12.9h3.7v7h-3.7Zm6.138,0h3.729v6.765h-3.729ZM-134.739,41.6l3.135,1.419A20.016,20.016,0,0,1-135.35,46.2a30.7,30.7,0,0,1-4.7,2.574,35.986,35.986,0,0,1-5.049,1.8,9.508,9.508,0,0,0-.71-1.106q-.445-.61-.924-1.2a9.24,9.24,0,0,0-.908-.99,45.033,45.033,0,0,0,4.934-1.353,28.883,28.883,0,0,0,4.537-1.947A16.7,16.7,0,0,0-134.739,41.6Zm5.445-.1a14.231,14.231,0,0,0,2.442,1.864,22.334,22.334,0,0,0,3.118,1.584,30.672,30.672,0,0,0,3.6,1.238,32.751,32.751,0,0,0,3.844.825q-.462.462-.974,1.073a13.94,13.94,0,0,0-.957,1.287q-.445.677-.742,1.237a28.521,28.521,0,0,1-3.878-1.271,29.72,29.72,0,0,1-3.614-1.765,25.411,25.411,0,0,1-3.234-2.211,18.8,18.8,0,0,1-2.673-2.607Zm6.138-21.285,4.125.99q-.759,1.353-1.551,2.623t-1.452,2.162l-3.234-.99q.4-.66.792-1.5t.743-1.716Q-123.387,20.907-123.156,20.214Zm-4.356,7.062,4.191.99q-.693,1.155-1.32,2.227t-1.122,1.832l-3.366-.924q.429-.924.891-2.062A20.625,20.625,0,0,0-127.512,27.276Zm-16.7-6.006,3.4-1.155a23.327,23.327,0,0,1,1.452,2.359,15.725,15.725,0,0,1,1.056,2.294l-3.564,1.32a12.237,12.237,0,0,0-.957-2.343Q-143.517,22.392-144.21,21.27Zm4.191,7.392,3.861-.627a15.752,15.752,0,0,1,.842,1.567,11.3,11.3,0,0,1,.611,1.535l-4.026.693a14.485,14.485,0,0,0-.528-1.551A12.442,12.442,0,0,0-140.019,28.662Zm44.979-5.874h3.8v26.1h-3.8Zm-7.458,2.937h18.414v3.069H-102.5Zm-.99,21.582h20.1v3.1h-20.1Zm1.881-4.554h16.962v3.036h-16.962Zm15.18-22.506,2.277,2.9q-1.782.363-3.894.611t-4.356.413q-2.244.165-4.521.247t-4.356.115a8.036,8.036,0,0,0-.33-1.485,13.155,13.155,0,0,0-.528-1.452q2.046-.066,4.208-.181t4.241-.281q2.079-.165,3.943-.4T-86.427,20.247Zm-11.55,16.632v1.65h9.768v-1.65Zm0-3.993v1.65h9.768v-1.65Zm-3.432-2.739h16.8V41.268h-16.8Zm-7.986-7.095h3.828V50.937h-3.828Zm-4.752,6.2h12.111v3.663h-12.111Zm4.95,1.485,2.31.99q-.462,1.782-1.122,3.7t-1.452,3.778q-.792,1.865-1.683,3.515a20.252,20.252,0,0,1-1.848,2.871,15.649,15.649,0,0,0-.841-1.931q-.544-1.073-1.007-1.832a19.049,19.049,0,0,0,1.7-2.326q.842-1.337,1.6-2.855t1.353-3.036Q-109.593,32.094-109.2,30.741Zm4.917-10.428,2.673,3.036q-1.683.627-3.7,1.155t-4.108.908q-2.1.38-4.009.643a10,10,0,0,0-.462-1.534,13.452,13.452,0,0,0-.66-1.5q1.815-.3,3.713-.709t3.6-.94Q-105.534,20.841-104.28,20.313Zm-1.353,13.53a11.311,11.311,0,0,1,.908.841q.611.61,1.32,1.336t1.271,1.336q.561.611.825.875l-2.277,3.135q-.3-.627-.776-1.419t-1.023-1.65q-.544-.858-1.073-1.633t-.924-1.271Zm48.147,12.474-8.481-8.481-8.481,8.481-2.376-2.376,8.481-8.481-8.481-8.481,2.376-2.376,8.481,8.481,8.481-8.481,2.376,2.376-8.481,8.481,8.481,8.481Zm27.192-24.453h9.636v3.7h-5.775V50.97h-3.861Zm-17.358,1.287h15.939v3.432H-47.652Zm-.726,9.207h17.094v3.6H-48.378Zm6.765-12.144h3.861V25.3h-3.861Zm-4.158,7.26,3.267-.66a15.8,15.8,0,0,1,.858,2.442,18.454,18.454,0,0,1,.495,2.376l-3.465.792a12.553,12.553,0,0,0-.363-2.392A17.982,17.982,0,0,0-45.771,27.474Zm8.877-.792,3.7.792q-.528,1.353-1.04,2.689t-.941,2.294l-3.1-.792q.264-.693.528-1.567t.479-1.782Q-37.059,27.408-36.894,26.682Zm-8.217,19.239h10.2v3.432h-10.2Zm-1.353-7.788h13.7V50.871H-36.63V41.565H-42.8V51h-3.663Zm24.783-16.269h.759l.594-.165,2.9,1.815q-.891,2.409-1.931,5.065t-2,4.769a13.141,13.141,0,0,1,2.1,2.854,10,10,0,0,1,.957,2.59,11.647,11.647,0,0,1,.247,2.31,9.372,9.372,0,0,1-.429,3.069,3.693,3.693,0,0,1-1.386,1.881,4.861,4.861,0,0,1-2.277.825q-.561.066-1.238.083t-1.369.017a11.328,11.328,0,0,0-.28-1.947,7.1,7.1,0,0,0-.71-1.947q.561.066,1.023.083a7.251,7.251,0,0,0,.858-.016,6.037,6.037,0,0,0,.643-.1,1.432,1.432,0,0,0,.545-.231,1.444,1.444,0,0,0,.61-.809,4.522,4.522,0,0,0,.182-1.4,8.689,8.689,0,0,0-.677-3.118,10.616,10.616,0,0,0-2.689-3.646q.495-1.188,1.006-2.657t.99-2.97q.479-1.5.891-2.821t.677-2.178ZM5.412,23.745v2.046H9.273V23.745Zm-7.392,0v2.046h3.8V23.745Zm-7.26,0v2.046h3.663V23.745ZM-13,21.072H13.2V28.5H-13Zm-1.782,13.563h29.6V37.77h-29.6Zm3.531-4.587H7.689v2.97H-11.253Zm5.016,13.266H9.669v2.442H-6.237Zm-.132,3.96h16v2.805h-16ZM10.857,29.157l3.135,1.914a32.672,32.672,0,0,1-5.61,4.686,50.6,50.6,0,0,1-6.8,3.8A72.844,72.844,0,0,1-5.94,42.538q-3.894,1.3-7.854,2.228a8.67,8.67,0,0,0-.495-1.089q-.33-.627-.693-1.254a7.426,7.426,0,0,0-.693-1.023A72.376,72.376,0,0,0-7.92,39.519a62.771,62.771,0,0,0,7.293-2.69,45.289,45.289,0,0,0,6.4-3.448A27.012,27.012,0,0,0,10.857,29.157ZM-2.937,28.068H.891v8.151H-2.937ZM-4.455,39.222H10.032v2.772H-4.455v8.877H-8.118v-9.4l2.211-2.244Zm12.672,0h3.828v11.55H8.217ZM31.284,24.933q1.518.2,3.416.28t3.861.066q1.964-.016,3.778-.132t3.135-.248v4.257q-1.518.132-3.333.214t-3.729.083q-1.914,0-3.745-.083t-3.382-.214Zm2.64,14.091q-.2.825-.3,1.469a8.56,8.56,0,0,0-.1,1.3,1.875,1.875,0,0,0,.264.973,2.164,2.164,0,0,0,.809.759,4.3,4.3,0,0,0,1.419.462,12.966,12.966,0,0,0,2.129.148,38.039,38.039,0,0,0,4.158-.215q1.947-.215,4.125-.644l.066,4.455a35.236,35.236,0,0,1-3.646.462q-2.062.165-4.868.165-4.257,0-6.336-1.435a4.57,4.57,0,0,1-2.079-3.977,14.126,14.126,0,0,1,.148-2q.149-1.039.413-2.293ZM26.2,22.722a9.374,9.374,0,0,0-.3.924q-.165.594-.313,1.155t-.215.858q-.1.693-.313,1.8t-.429,2.475q-.214,1.37-.412,2.789t-.313,2.739q-.116,1.32-.116,2.31,0,.462.017,1.056a6.485,6.485,0,0,0,.115,1.089q.231-.561.5-1.122t.528-1.139q.264-.577.462-1.105l2.046,1.617q-.462,1.353-.941,2.9t-.858,2.921q-.38,1.369-.578,2.26-.066.363-.115.825a7.236,7.236,0,0,0-.049.726q0,.264.016.644t.049.709l-3.828.264a33.978,33.978,0,0,1-.891-4.57,45.4,45.4,0,0,1-.4-6.221q0-1.848.165-3.762t.4-3.68q.231-1.766.445-3.217t.379-2.409q.066-.693.182-1.568t.149-1.666Zm31.581,7.887H74.316v3.5H57.783Zm-.429,15.675H74.415v3.5H57.354ZM55.6,37.407H76.659V51H72.567V40.872H59.5V51H55.6Zm10.3-13.53a27.666,27.666,0,0,1-3.416,3.96A42.451,42.451,0,0,1,57.9,31.7a47.7,47.7,0,0,1-5.23,3.333q-.264-.462-.676-1.056T51.1,32.8a8.012,8.012,0,0,0-.941-.974,34.442,34.442,0,0,0,5.494-3.4,37.153,37.153,0,0,0,4.7-4.191,25.885,25.885,0,0,0,3.3-4.224h4.125a30.3,30.3,0,0,0,2.97,3.6,38.219,38.219,0,0,0,3.481,3.2,30.25,30.25,0,0,0,3.812,2.64A30.956,30.956,0,0,0,81.972,31.4a14.512,14.512,0,0,0-1.386,1.7q-.66.94-1.188,1.864a39.921,39.921,0,0,1-3.861-2.293q-1.947-1.3-3.745-2.772a42.21,42.21,0,0,1-3.317-3A24.634,24.634,0,0,1,65.9,23.877ZM87.219,34.041q.759-.165,1.749-.412t1.749-.479q.825-.264,2.211-.693T95.98,31.6q1.667-.429,3.366-.726a18.722,18.722,0,0,1,3.217-.3,10.168,10.168,0,0,1,4.571.973,7.208,7.208,0,0,1,3.052,2.789,8.247,8.247,0,0,1,1.089,4.323,8.643,8.643,0,0,1-.974,4.092,9.212,9.212,0,0,1-2.953,3.234,16.96,16.96,0,0,1-4.934,2.261,30.727,30.727,0,0,1-6.88,1.105l-1.749-4.059a34.215,34.215,0,0,0,5.23-.495,17.356,17.356,0,0,0,4.158-1.237,7.147,7.147,0,0,0,2.739-2.062,4.6,4.6,0,0,0,.974-2.9,4.109,4.109,0,0,0-.577-2.194,3.927,3.927,0,0,0-1.633-1.469,5.549,5.549,0,0,0-2.508-.528,12.67,12.67,0,0,0-2.574.3q-1.419.3-2.921.759t-2.953.99q-1.452.528-2.706,1.023t-2.079.858Zm43.923-12.375q-.2.66-.4,1.617t-.3,1.485q-.231,1.122-.577,2.739t-.759,3.432q-.413,1.815-.842,3.465-.429,1.749-1.056,3.778t-1.336,4.125q-.709,2.1-1.436,3.993t-1.419,3.382l-4.587-1.551q.726-1.254,1.551-3.053t1.6-3.877q.775-2.079,1.436-4.125t1.122-3.8q.33-1.155.627-2.376t.528-2.376q.231-1.155.412-2.162t.281-1.765q.1-.924.132-1.848a10.169,10.169,0,0,0-.033-1.485Zm-8.415,4.917q2.013,0,4.191-.2t4.389-.561q2.211-.363,4.389-.858v4.125q-2.046.462-4.356.792t-4.554.511q-2.244.182-4.125.182-1.188,0-2.145-.049t-1.848-.083l-.1-4.125q1.287.132,2.211.2T122.727,26.583Zm10.362,5.049q1.386-.132,3.069-.231t3.267-.1q1.419,0,2.887.066t2.921.231l-.1,3.96q-1.221-.165-2.689-.28t-2.986-.115q-1.683,0-3.251.082t-3.118.281Zm1.782,8.316a14.391,14.391,0,0,0-.33,1.436,7.565,7.565,0,0,0-.132,1.3,2.115,2.115,0,0,0,.957,1.8,3.9,3.9,0,0,0,1.37.544,10.167,10.167,0,0,0,2.194.2,31.833,31.833,0,0,0,3.383-.181q1.7-.181,3.482-.512l-.165,4.224q-1.386.165-3.069.313t-3.663.149a12.084,12.084,0,0,1-6.353-1.369,4.326,4.326,0,0,1-2.194-3.878,13.459,13.459,0,0,1,.2-2.277q.2-1.155.4-2.145ZM-179.5,96l7.821-24.453h5.775L-158.087,96h-5.148L-166.7,83.262q-.561-1.914-1.072-3.977t-1.073-4.009h-.132q-.462,1.98-1.007,4.026t-1.073,3.96L-174.554,96Zm4.851-6.27v-3.8h11.616v3.8ZM-155.215,96V71.547h4.884V96Zm20.823-10.428h17.325v13.2h-3.795v-9.6h-9.9v9.768h-3.63Zm14.685-17.622,3.036,3.1a40.063,40.063,0,0,1-5.346,1.6q-2.937.677-6.023,1.105t-6.022.693a9.566,9.566,0,0,0-.446-1.7,13.958,13.958,0,0,0-.676-1.666q2.112-.231,4.273-.528t4.208-.693q2.046-.4,3.828-.874A27.487,27.487,0,0,0-119.708,67.95Zm-7.92,3.729h3.762V87.651h-3.762Zm-8.811,5.907h21.021v3.762h-21.021Zm4.653,16.4h12.507v3.6h-12.507Zm-12.8-22.737,2.244-2.871q.924.462,2.079,1.056t2.26,1.188q1.105.594,1.8,1.056l-2.343,3.2a19.609,19.609,0,0,0-1.716-1.122q-1.056-.627-2.211-1.3T-144.59,71.25Zm-1.584,9.141,2.145-2.937q.924.4,2.112.99t2.31,1.172a19.172,19.172,0,0,1,1.815,1.039l-2.211,3.3a18.6,18.6,0,0,0-1.732-1.122q-1.073-.627-2.261-1.287T-146.174,80.391Zm.495,15.51q.891-1.254,1.964-2.953t2.195-3.63q1.122-1.93,2.112-3.844l2.9,2.64q-.858,1.716-1.831,3.531t-1.98,3.564q-1.007,1.749-2.029,3.366Zm38.313-25.74h20.229v3.8h-20.229Zm0,7.623h20.295v3.7h-20.295Zm-.066,7.788h20.493V89.3h-20.493Zm-2.211-15.411h3.894v11.88q0,1.947-.165,4.257a35.578,35.578,0,0,1-.644,4.636,21.545,21.545,0,0,1-1.419,4.438,13.809,13.809,0,0,1-2.459,3.762,5.618,5.618,0,0,0-.891-.891q-.594-.5-1.2-.957t-1.039-.726a12.076,12.076,0,0,0,2.145-3.284,17.692,17.692,0,0,0,1.172-3.729,28.966,28.966,0,0,0,.5-3.861q.115-1.93.115-3.679Zm21.12,0h3.96V94.284a6.119,6.119,0,0,1-.4,2.459,2.688,2.688,0,0,1-1.419,1.337,7.578,7.578,0,0,1-2.541.594q-1.551.132-3.828.1a9.468,9.468,0,0,0-.5-1.914,14.7,14.7,0,0,0-.792-1.881q.957.033,1.914.049t1.7.017h1.073a.963.963,0,0,0,.643-.165.837.837,0,0,0,.182-.627Zm-10.956,1.518h3.993V98.541h-3.993Zm33.165-1.518q-.132.627-.3,1.37t-.3,1.369q-.132.726-.33,1.633t-.38,1.815q-.182.908-.38,1.766-.33,1.419-.825,3.3t-1.155,4.042q-.66,2.162-1.485,4.34t-1.749,4.241a28.5,28.5,0,0,1-1.98,3.713l-4.29-1.716a25.747,25.747,0,0,0,2.161-3.481q1.006-1.93,1.832-3.96t1.468-4.026q.644-2,1.122-3.713t.742-2.937q.462-2.244.726-4.323a24.329,24.329,0,0,0,.2-3.927Zm11.352,3.333a23.239,23.239,0,0,1,1.633,2.656q.842,1.568,1.667,3.317t1.485,3.366q.66,1.617,1.023,2.805l-4.191,1.914a26.967,26.967,0,0,0-.875-3.069q-.577-1.683-1.336-3.416t-1.6-3.284a15.524,15.524,0,0,0-1.732-2.607Zm-24.75,3.432q.891.066,1.766.049t1.766-.049q.825-.033,1.98-.116t2.459-.182q1.3-.1,2.623-.215t2.442-.181q1.122-.066,1.848-.066a7.69,7.69,0,0,1,3.1.577,4.4,4.4,0,0,1,2.1,1.964,7.726,7.726,0,0,1,.775,3.762q0,1.947-.165,4.224A35.6,35.6,0,0,1-59.6,91.05a14.021,14.021,0,0,1-1.138,3.531A4.66,4.66,0,0,1-62.9,96.957a7.419,7.419,0,0,1-3.25.66,14.972,14.972,0,0,1-2.013-.148q-1.089-.148-1.947-.313L-70.8,92.8q.627.165,1.4.33t1.485.264a8.655,8.655,0,0,0,1.139.1,3.206,3.206,0,0,0,1.452-.313A2.346,2.346,0,0,0-64.3,92.073a10.348,10.348,0,0,0,.759-2.475,30.414,30.414,0,0,0,.445-3.284q.148-1.766.148-3.382a3.87,3.87,0,0,0-.379-1.947,1.859,1.859,0,0,0-1.089-.841,6.053,6.053,0,0,0-1.732-.215q-.759,0-2.046.116t-2.756.264q-1.468.148-2.723.313t-1.947.231q-.726.132-1.831.281t-1.865.281Zm24.156-8.019q.429.594.907,1.419t.941,1.65q.462.825.792,1.452l-2.673,1.155q-.33-.693-.759-1.518t-.891-1.65A11.352,11.352,0,0,0-58.163,70Zm3.927-1.485q.429.627.924,1.452t.973,1.65q.479.825.743,1.386L-51.6,73.032q-.528-1.023-1.254-2.326a19.751,19.751,0,0,0-1.419-2.228Zm12.9,10.263v2.046H-24.9V77.685Zm0,5.28v2.079H-24.9V82.965Zm0-10.527v2.046H-24.9V72.438Zm-3.828-3.432h21.681v19.47H-42.554Zm12.243,16.83h4.059v7.887q0,.792.247,1.007a2.031,2.031,0,0,0,1.171.215h3.465a1.162,1.162,0,0,0,.858-.3,2.316,2.316,0,0,0,.429-1.254q.132-.957.2-2.9a7.03,7.03,0,0,0,1.073.66,9.2,9.2,0,0,0,1.353.561q.71.231,1.2.4a16.9,16.9,0,0,1-.693,4.042,3.517,3.517,0,0,1-1.452,2A5.154,5.154,0,0,1-21,98.706h-4.389a7.864,7.864,0,0,1-3.019-.462A2.646,2.646,0,0,1-29.9,96.693a8.5,8.5,0,0,1-.413-2.937Zm-8.052,1.353h4.224a23.283,23.283,0,0,1-.71,4.108,9.637,9.637,0,0,1-1.65,3.35,9.713,9.713,0,0,1-3.217,2.59A22.156,22.156,0,0,1-45.128,99.1a5.41,5.41,0,0,0-.544-1.2q-.38-.644-.825-1.287a6.274,6.274,0,0,0-.875-1.039,20.356,20.356,0,0,0,4.587-1.3,7.681,7.681,0,0,0,2.624-1.8,5.814,5.814,0,0,0,1.271-2.326A17.576,17.576,0,0,0-38.363,87.189Zm24.816-9.273q.924-.165,2.046-.462t2.013-.528q.957-.3,2.59-.825t3.614-1.056q1.98-.528,4.042-.908a21.322,21.322,0,0,1,3.844-.38,12.668,12.668,0,0,1,5.412,1.122,9.173,9.173,0,0,1,3.828,3.234,9.079,9.079,0,0,1,1.419,5.181,10.392,10.392,0,0,1-.825,4.158,10.352,10.352,0,0,1-2.426,3.432,15.607,15.607,0,0,1-3.877,2.64,23.989,23.989,0,0,1-5.2,1.8,36.005,36.005,0,0,1-6.418.841L-5.4,91.776a37.784,37.784,0,0,0,6.254-.611,20.62,20.62,0,0,0,5.065-1.584,9.18,9.18,0,0,0,3.4-2.623,5.931,5.931,0,0,0,1.221-3.729A5.608,5.608,0,0,0,9.85,80.44a4.947,4.947,0,0,0-2.062-1.964,7.078,7.078,0,0,0-3.35-.726,16.58,16.58,0,0,0-3.2.347,36.363,36.363,0,0,0-3.58.908q-1.832.561-3.581,1.2T-9.158,81.48q-1.485.627-2.508,1.056ZM32.917,69.93q-.165.627-.314,1.369t-.28,1.369q-.132.726-.33,1.633t-.379,1.815q-.182.908-.38,1.765-.33,1.419-.825,3.3t-1.155,4.043q-.66,2.162-1.485,4.34t-1.749,4.24a28.5,28.5,0,0,1-1.98,3.713L19.75,95.8a25.748,25.748,0,0,0,2.161-3.481q1.006-1.931,1.832-3.977t1.469-4.026q.643-1.98,1.105-3.7t.726-2.937q.462-2.244.726-4.323A27.356,27.356,0,0,0,28,69.435Zm11.352,3.1A19.915,19.915,0,0,1,45.9,75.688q.842,1.6,1.65,3.382T49.038,82.5q.677,1.65,1.039,2.805l-4.191,1.947q-.33-1.386-.908-3.085T43.659,80.7q-.743-1.766-1.584-3.35a15.036,15.036,0,0,0-1.733-2.64Zm-24.75,3.663q.891.066,1.749.049t1.782-.049q.792-.033,1.963-.116t2.475-.181q1.3-.1,2.623-.215T32.554,76q1.122-.066,1.848-.066a7.719,7.719,0,0,1,3.085.577A4.388,4.388,0,0,1,39.6,78.477a7.726,7.726,0,0,1,.776,3.762q0,1.947-.182,4.224a40.466,40.466,0,0,1-.577,4.356,13.61,13.61,0,0,1-1.122,3.531,4.66,4.66,0,0,1-2.161,2.376,7.419,7.419,0,0,1-3.25.66,14.827,14.827,0,0,1-2.029-.148q-1.073-.149-1.931-.313L28.4,92.568q.66.165,1.436.33t1.485.264a8.655,8.655,0,0,0,1.139.1,3.206,3.206,0,0,0,1.452-.313,2.347,2.347,0,0,0,1.023-1.105,9.919,9.919,0,0,0,.742-2.475q.281-1.518.429-3.284T36.25,82.7a4.019,4.019,0,0,0-.363-1.947,1.793,1.793,0,0,0-1.072-.841,6.191,6.191,0,0,0-1.766-.215q-.726,0-2.029.116t-2.755.264q-1.452.148-2.722.313t-1.964.231q-.693.132-1.8.28t-1.865.281ZM62.584,69.5q-.165.594-.363,1.485t-.4,1.865q-.2.973-.347,1.9t-.214,1.617a13.344,13.344,0,0,1,1.419-1.93,12.072,12.072,0,0,1,1.865-1.716,9.122,9.122,0,0,1,2.277-1.237,7.439,7.439,0,0,1,2.623-.462,6.654,6.654,0,0,1,4.158,1.419A9.454,9.454,0,0,1,76.527,76.5a16.618,16.618,0,0,1,1.073,6.27,16.8,16.8,0,0,1-1.023,6.122,12.37,12.37,0,0,1-2.937,4.471,15.522,15.522,0,0,1-4.571,3.02,26.307,26.307,0,0,1-5.924,1.765l-2.508-3.828a32.863,32.863,0,0,0,5.032-1.172,12.93,12.93,0,0,0,3.96-2.03A8.484,8.484,0,0,0,72.2,87.8a12.234,12.234,0,0,0,.908-5,15.2,15.2,0,0,0-.528-4.307A5.826,5.826,0,0,0,71.049,75.8a3.418,3.418,0,0,0-2.393-.924,4.651,4.651,0,0,0-2.772.957,9.865,9.865,0,0,0-2.359,2.492,13.941,13.941,0,0,0-1.65,3.316,12.078,12.078,0,0,0-.676,3.432q-.033.693-.017,1.518a16.677,16.677,0,0,0,.182,1.98l-4.059.264q-.132-.957-.28-2.392a30.414,30.414,0,0,1-.149-3.118q0-1.155.083-2.475t.2-2.689q.115-1.37.3-2.756t.346-2.64q.132-.957.2-1.881t.066-1.584Zm40.788-.2q-.066.495-.116,1.105t-.083,1.237q-.033.66-.066,1.766t-.033,2.425v4.95q0,1.386.066,3.085t.182,3.432q.115,1.733.2,3.234t.082,2.492a4.6,4.6,0,0,1-.726,2.524,4.906,4.906,0,0,1-2.161,1.8,8.659,8.659,0,0,1-3.614.66A10.342,10.342,0,0,1,91.1,96.561a5.017,5.017,0,0,1-1.073-7.012,6.4,6.4,0,0,1,2.805-2,11.855,11.855,0,0,1,4.372-.726,21.261,21.261,0,0,1,5.065.577,22.5,22.5,0,0,1,4.307,1.5,26.636,26.636,0,0,1,3.465,1.947q1.518,1.023,2.574,1.848l-2.376,3.7a29.167,29.167,0,0,0-2.657-2.211,23.086,23.086,0,0,0-3.2-1.98,19.648,19.648,0,0,0-3.663-1.436,14.946,14.946,0,0,0-4.076-.545,4.977,4.977,0,0,0-2.657.594,1.711,1.711,0,0,0-.94,1.452,1.62,1.62,0,0,0,.4,1.089,2.394,2.394,0,0,0,1.155.693,6.689,6.689,0,0,0,1.914.231,5.251,5.251,0,0,0,1.535-.2,1.837,1.837,0,0,0,1.007-.726,2.6,2.6,0,0,0,.363-1.485q0-.726-.049-2.079t-.115-2.986q-.066-1.633-.132-3.217t-.066-2.805q0-1.188.017-2.492t.017-2.59q0-1.287.016-2.36t.017-1.765q0-.462-.049-1.139a8.519,8.519,0,0,0-.148-1.138Zm-13.7,3.1q.891.132,1.98.264t2.228.248q1.138.115,2.161.165t1.782.049q3.366,0,6.715-.214t6.947-.809l-.033,3.795q-1.683.231-3.894.429t-4.7.313q-2.492.116-5,.116-1.023,0-2.525-.083t-2.986-.231q-1.485-.149-2.574-.281Zm-.165,7.128q.792.132,1.881.264t2.228.2q1.138.066,2.161.116t1.683.049q3.069,0,5.561-.132t4.67-.33q2.178-.2,4.191-.462l-.033,3.894q-1.716.2-3.316.33t-3.267.231q-1.667.1-3.58.132t-4.29.033q-.957,0-2.376-.049t-2.887-.149q-1.468-.1-2.59-.231ZM138.22,69.4q-.033.264-.082.841t-.083,1.155q-.033.578-.066.841-.033.66-.033,1.766v2.459q0,1.353.016,2.722t.033,2.574q.017,1.2.016,2L133.9,82.371V78.427q0-1.237-.016-2.458t-.049-2.211q-.033-.99-.066-1.485-.066-1.023-.165-1.8t-.165-1.073Zm-18.645,4.092q1.452,0,3.3-.033l3.861-.066,3.96-.066q1.947-.033,3.663-.049t2.97-.017q1.254,0,2.739-.017t2.937-.017h4.521l-.033,3.894q-1.551-.066-4.092-.116t-6.2-.049q-2.244,0-4.554.049t-4.587.116q-2.277.066-4.389.148t-3.993.215Zm17.853,9.768a13.368,13.368,0,0,1-.644,4.488,5.033,5.033,0,0,1-5.132,3.6,5.267,5.267,0,0,1-1.93-.4,6.265,6.265,0,0,1-1.865-1.155,5.542,5.542,0,0,1-1.369-1.881,6.315,6.315,0,0,1-.511-2.64,5.827,5.827,0,0,1,.891-3.251,6.181,6.181,0,0,1,2.392-2.145,7.119,7.119,0,0,1,3.317-.775,6.459,6.459,0,0,1,3.646.973,6.062,6.062,0,0,1,2.211,2.624,8.992,8.992,0,0,1,.742,3.729,11.633,11.633,0,0,1-.528,3.366,11.517,11.517,0,0,1-1.732,3.416,12.431,12.431,0,0,1-3.234,3.02,17.868,17.868,0,0,1-5.066,2.211l-3.531-3.5a24.889,24.889,0,0,0,3.927-1.122,12.447,12.447,0,0,0,3.185-1.749,7.467,7.467,0,0,0,2.145-2.607,8.26,8.26,0,0,0,.776-3.729,3.269,3.269,0,0,0-.776-2.376,2.516,2.516,0,0,0-1.864-.792,2.7,2.7,0,0,0-1.221.3,2.328,2.328,0,0,0-.957.891,2.735,2.735,0,0,0-.363,1.452,2.268,2.268,0,0,0,.775,1.8,2.611,2.611,0,0,0,1.766.676,2.164,2.164,0,0,0,1.4-.495,2.607,2.607,0,0,0,.809-1.65,7.561,7.561,0,0,0-.33-3.1Zm15.312,4.554a5.085,5.085,0,0,1,2.706.726,5.64,5.64,0,0,1,1.914,1.931,5.314,5.314,0,0,1,0,5.362,5.594,5.594,0,0,1-1.914,1.947,5.344,5.344,0,0,1-5.379,0,5.37,5.37,0,0,1-1.93-1.947,5.421,5.421,0,0,1,0-5.362,5.411,5.411,0,0,1,1.93-1.931A5.135,5.135,0,0,1,152.741,87.816Zm.033,8.316a2.8,2.8,0,0,0,2.079-.875,2.886,2.886,0,0,0,.858-2.1,2.917,2.917,0,0,0-.4-1.5,2.949,2.949,0,0,0-1.072-1.073,2.951,2.951,0,0,0-2.953,0,3.128,3.128,0,0,0-1.073,1.073,2.939,2.939,0,0,0,0,3,3.128,3.128,0,0,0,1.073,1.073A2.83,2.83,0,0,0,152.773,96.132Z" transform="translate(206 170.013)"/>
  </g>
</svg>
