<svg xmlns="http://www.w3.org/2000/svg" width="350" height="529" viewBox="0 0 350 529">
  <g id="sp_numbers" transform="translate(-20 -1059)">
    <rect id="長方形_382" data-name="長方形 382" width="170" height="260" rx="16" transform="translate(20 1059)" fill="#fff"/>
    <rect id="長方形_1181" data-name="長方形 1181" width="170" height="260" rx="16" transform="translate(20 1328)" fill="#fff"/>
    <rect id="長方形_1180" data-name="長方形 1180" width="170" height="260" rx="16" transform="translate(200 1059)" fill="#fff"/>
    <rect id="長方形_1182" data-name="長方形 1182" width="170" height="260" rx="16" transform="translate(200 1328)" fill="#fff"/>
    <text id="業種" transform="translate(105 1188)" fill="#6b6f73" font-size="16" font-family="NotoSansJP-Bold, Noto Sans JP" font-weight="700"><tspan x="-16" y="0">業種</tspan></text>
    <text id="課題事例" transform="translate(105 1457)" fill="#6b6f73" font-size="16" font-family="NotoSansJP-Bold, Noto Sans JP" font-weight="700"><tspan x="-32" y="0">課題事例</tspan></text>
    <text id="部門" transform="translate(285 1188)" fill="#6b6f73" font-size="16" font-family="NotoSansJP-Bold, Noto Sans JP" font-weight="700"><tspan x="-16" y="0">部門</tspan></text>
    <text id="段階別AI活用度" transform="translate(285 1457)" fill="#6b6f73" font-size="16" font-family="NotoSansJP-Bold, Noto Sans JP" font-weight="700"><tspan x="-55.768" y="0">段階別</tspan><tspan y="0">AI</tspan><tspan y="0">活用度</tspan></text>
    <text id="_9" data-name="9" transform="translate(76 1156)" fill="#19334d" font-size="96" font-family="AzoSans-Bold, Azo Sans" font-weight="700"><tspan x="0" y="0">9</tspan></text>
    <text id="_30" data-name="30" transform="translate(42 1425)" fill="#19334d" font-size="96" font-family="AzoSans-Bold, Azo Sans" font-weight="700" letter-spacing="-0.05em"><tspan x="0" y="0">30</tspan></text>
    <path id="パス_3713" data-name="パス 3713" d="M14.493-33.877h5.874v-9.508h9.309V-48.86H20.367v-9.508H14.493v9.508H5.184v5.476h9.309Z" transform="translate(143.325 1459.741)" fill="#19334d"/>
    <text id="_6" data-name="6" transform="translate(256 1156)" fill="#19334d" font-size="96" font-family="AzoSans-Bold, Azo Sans" font-weight="700"><tspan x="0" y="0">6</tspan></text>
    <text id="_6-2" data-name="6" transform="translate(256 1425)" fill="#19334d" font-size="96" font-family="AzoSans-Bold, Azo Sans" font-weight="700"><tspan x="0" y="0">6</tspan></text>
    <text id="製造業_小売_EC_サービス業_建設_不動産_医療_介護_物流_運輸_士業_コンサル_飲食_宿泊_教育_学習" data-name="製造業／小売・EC／サービス業／建設・不動産／医療・介護／物流・運輸／士業・コンサル／飲食・宿泊／教育・学習" transform="translate(30 1206)" font-size="12" font-family="NotoSansJP-Regular, Noto Sans JP"><tspan x="0" y="14">製造業／小売・</tspan><tspan y="14">EC／</tspan><tspan y="14">サービ</tspan><tspan x="0" y="31">ス</tspan><tspan y="31">業／建設・不動産／医</tspan><tspan x="0" y="48">療・介護／物流・運輸／士</tspan><tspan x="0" y="65">業・</tspan><tspan y="65">コンサル／</tspan><tspan y="65">飲食・宿泊</tspan><tspan x="0" y="82">／教育・学習</tspan></text>
    <text id="_見積作成に毎回3日かかる_仕訳ミスが月末に発覚して修正地獄_発注タイミングが_勘と経験_頼み_など" data-name="「見積作成に毎回3日かかる」「仕訳ミスが月末に発覚して修正地獄」「発注タイミングが「勘と経験」頼み」など" transform="translate(30 1475)" font-size="12" font-family="NotoSansJP-Regular, Noto Sans JP"><tspan x="0" y="14">「見積作成</tspan><tspan y="14">に</tspan><tspan y="14">毎回3日</tspan><tspan y="14">かか</tspan><tspan x="0" y="31">る」</tspan><tspan y="31">「仕訳</tspan><tspan y="31">ミスが</tspan><tspan y="31">月末</tspan><tspan y="31">に</tspan><tspan y="31">発</tspan><tspan x="0" y="48">覚</tspan><tspan y="48">して</tspan><tspan y="48">修正地獄」「発注</tspan><tspan y="48">タ</tspan><tspan x="0" y="65">イミングが</tspan><tspan y="65">「勘</tspan><tspan y="65">と</tspan><tspan y="65">経験」頼</tspan><tspan x="0" y="82">み」など</tspan></text>
    <text id="営業_マーケティング_カスタマーサポート_総務_経理_人事_情シス_DX推進_経営_戦略" data-name="営業／マーケティング／カスタマーサポート／総務・経理・人事／情シス・DX推進／経営・戦略" transform="translate(210 1206)" font-size="12" font-family="NotoSansJP-Regular, Noto Sans JP"><tspan x="0" y="14">営業／</tspan><tspan y="14">マーケティング／カ</tspan><tspan x="0" y="31">スタマーサポート／</tspan><tspan y="31">総務・</tspan><tspan x="0" y="48">経理・人事／情</tspan><tspan y="48">シス・</tspan><tspan y="48">DX</tspan><tspan y="48">推</tspan><tspan x="0" y="65">進／経営・戦略</tspan></text>
    <text id="まだAIは使っていない_ChatGPT等を個人的に使い始めた_導入したが_定着していない_AIツールを業務に導入済み" data-name="まだAIは使っていない→ChatGPT等を個人的に使い始めた→導入したが、定着していない→AIツールを業務に導入済み" transform="translate(210 1475)" font-size="12" font-family="NotoSansJP-Regular, Noto Sans JP"><tspan x="0" y="14">まだ</tspan><tspan y="14">AI</tspan><tspan y="14">は</tspan><tspan y="14">使</tspan><tspan y="14">っていない</tspan><tspan x="0" y="31">→</tspan><tspan y="31">ChatGPT</tspan><tspan y="31">等</tspan><tspan y="31">を</tspan><tspan y="31">個人的</tspan><tspan y="31">に</tspan><tspan y="31">使</tspan><tspan x="0" y="48">い</tspan><tspan y="48">始</tspan><tspan y="48">めた→</tspan><tspan y="48">導入</tspan><tspan y="48">したが、</tspan><tspan y="48">定</tspan><tspan x="0" y="65">着</tspan><tspan y="65">していない→</tspan><tspan y="65">AI</tspan><tspan y="65">ツールを</tspan><tspan x="0" y="82">業務</tspan><tspan y="82">に</tspan><tspan y="82">導入済</tspan><tspan y="82">み</tspan></text>
    <g id="グループ_1279" data-name="グループ 1279" transform="translate(-365 24)">
      <circle id="楕円形_18" data-name="楕円形 18" cx="28" cy="28" r="28" transform="translate(532 1272)" fill="#19334d"/>
      <path id="パス_2077" data-name="パス 2077" d="M7.073-18.15l6.112-6.112L19.3-18.15l1.973-1.973-6.112-6.112,6.112-6.112L19.3-34.32l-6.112,6.112L7.073-34.32,5.1-32.347l6.112,6.112L5.1-20.123Z" transform="translate(546.815 1326.235)" fill="#fff"/>
    </g>
  </g>
</svg>
