<svg xmlns="http://www.w3.org/2000/svg" xmlns:xlink="http://www.w3.org/1999/xlink" width="535.994" height="512.343" viewBox="0 0 535.994 512.343">
  <defs>
    <clipPath id="clip-path">
      <rect id="長方形_1072" data-name="長方形 1072" width="447.903" height="12.668" fill="none"/>
    </clipPath>
    <clipPath id="clip-path-2">
      <rect id="長方形_1071" data-name="長方形 1071" width="447.904" height="12.668" fill="none"/>
    </clipPath>
    <clipPath id="clip-path-4">
      <rect id="長方形_457" data-name="長方形 457" width="522.656" height="266.056" fill="none"/>
    </clipPath>
    <clipPath id="clip-path-6">
      <rect id="長方形_388" data-name="長方形 388" width="19.248" height="29.328" fill="none"/>
    </clipPath>
    <clipPath id="clip-path-7">
      <rect id="長方形_410" data-name="長方形 410" width="12.605" height="10.27" fill="none"/>
    </clipPath>
    <clipPath id="clip-path-11">
      <rect id="長方形_414" data-name="長方形 414" width="10.531" height="3.395" fill="none"/>
    </clipPath>
    <clipPath id="clip-path-15">
      <rect id="長方形_420" data-name="長方形 420" width="57.684" height="2.568" fill="none"/>
    </clipPath>
    <linearGradient id="linear-gradient" x1="-4.274" y1="57.27" x2="-4.265" y2="57.27" gradientUnits="objectBoundingBox">
      <stop offset="0" stop-color="#b9e9ed"/>
      <stop offset="1" stop-color="#96c4fa"/>
    </linearGradient>
    <clipPath id="clip-path-17">
      <path id="パス_2136" data-name="パス 2136" d="M326.909,109.261a2.68,2.68,0,0,0-2.659,3.568L339.7,168.711a4.907,4.907,0,0,0,4.477,3.567H409.54a2.68,2.68,0,0,0,2.658-3.567L396.75,112.829a4.908,4.908,0,0,0-4.477-3.568Z" transform="translate(-324.135 -109.261)" fill="none"/>
    </clipPath>
    <linearGradient id="linear-gradient-2" x1="-1.611" y1="2.558" x2="-1.606" y2="2.558" xlink:href="#linear-gradient"/>
    <clipPath id="clip-path-19">
      <rect id="長方形_425" data-name="長方形 425" width="80.023" height="23.575" fill="none"/>
    </clipPath>
  </defs>
  <g id="sp_result_illust" transform="translate(80.288 -1977.59)">
    <rect id="長方形_382" data-name="長方形 382" width="350" height="260" rx="16" transform="translate(20 1977.59)" fill="#fff"/>
    <rect id="長方形_956" data-name="長方形 956" width="310" height="36" rx="8" transform="translate(40.036 2038.136)" fill="#eeebe4"/>
    <rect id="長方形_1183" data-name="長方形 1183" width="310" height="36" rx="8" transform="translate(40.036 1996.136)" fill="#eeebe4"/>
    <text id="部門は経営_戦略部門" data-name="部門は経営・戦略部門" transform="translate(204.381 2063.234)" font-size="16" font-family="NotoSansJP-Bold, Noto Sans JP" font-weight="700"><tspan x="-80" y="0">部門</tspan><tspan y="0">は</tspan><tspan y="0">経営・戦略部門</tspan></text>
    <text id="業種は小売_EC" data-name="業種は小売・EC" transform="translate(204.381 2021.234)" font-size="16" font-family="NotoSansJP-Bold, Noto Sans JP" font-weight="700"><tspan x="-58.168" y="0">業種</tspan><tspan y="0">は</tspan><tspan y="0">小売・</tspan><tspan y="0">EC</tspan></text>
    <rect id="長方形_957" data-name="長方形 957" width="310" height="60" rx="8" transform="translate(40.036 2079.676)" fill="#eeebe4"/>
    <text id="課題は_需要予測が当たらず_廃棄ロスが大きい_" data-name="課題は「需要予測が当たらず
廃棄ロスが大きい」" transform="translate(197.461 2105.676)" font-size="16" font-family="NotoSansJP-Bold, Noto Sans JP" font-weight="700"><tspan x="-103.84" y="0">課題</tspan><tspan y="0">は</tspan><tspan y="0">「需要予測</tspan><tspan y="0">が</tspan><tspan y="0">当</tspan><tspan y="0">たらず</tspan><tspan x="-72" y="22">廃棄</tspan><tspan y="22">ロスが</tspan><tspan y="22">大</tspan><tspan y="22">きい」</tspan></text>
    <rect id="長方形_958" data-name="長方形 958" width="310" height="32.883" rx="8" transform="translate(40.036 2145.676)" fill="#eeebe4"/>
    <text id="AIは導入したが_定着していない" data-name="AIは導入したが、定着していない" transform="translate(204.32 2169.117)" font-size="16" font-family="NotoSansJP-Bold, Noto Sans JP" font-weight="700"><tspan x="-119.368" y="0">AI</tspan><tspan y="0">は</tspan><tspan y="0">導入</tspan><tspan y="0">したが、</tspan><tspan y="0">定着</tspan><tspan y="0">していない</tspan></text>
    <rect id="長方形_959" data-name="長方形 959" width="310" height="36" rx="8" transform="translate(39.964 2184.559)" fill="#eeebe4"/>
    <text id="会社の規模は11-50名" transform="translate(195 2207.559)" font-size="16" font-family="NotoSansJP-Bold, Noto Sans JP" font-weight="700"><tspan x="-77.84" y="0">会社</tspan><tspan y="0">の</tspan><tspan y="0">規模</tspan><tspan y="0">は11-50</tspan><tspan y="0">名</tspan></text>
    <path id="パス_2298" data-name="パス 2298" d="M2571.806,1740.759l33.857,15.348-5.047-18.616Z" transform="translate(-2384.097 496.285)" fill="#fff"/>
    <g id="グループ_1280" data-name="グループ 1280" transform="translate(-27.288 37)">
      <g id="グループ_1136" data-name="グループ 1136" transform="translate(35.09 2440.266)">
        <g id="グループ_1135" data-name="グループ 1135" clip-path="url(#clip-path)">
          <g id="グループ_1134" data-name="グループ 1134" transform="translate(0 0)">
            <g id="グループ_1133" data-name="グループ 1133" clip-path="url(#clip-path-2)">
              <g id="グループ_1132" data-name="グループ 1132" transform="translate(0 0)" opacity="0.3" style="mix-blend-mode: multiply;isolation: isolate">
                <g id="グループ_1131" data-name="グループ 1131" transform="translate(0 0)">
                  <g id="グループ_1130" data-name="グループ 1130" clip-path="url(#clip-path)">
                    <path id="パス_3415" data-name="パス 3415" d="M447.9,6.334c0,3.5-100.267,6.334-223.952,6.334S0,9.832,0,6.334,100.267,0,223.952,0,447.9,2.836,447.9,6.334" transform="translate(0 0)" fill="#835353"/>
                  </g>
                </g>
              </g>
            </g>
          </g>
        </g>
      </g>
      <g id="グループ_482" data-name="グループ 482" transform="translate(-53 2180.625)">
        <g id="グループ_481" data-name="グループ 481" clip-path="url(#clip-path-4)">
          <g id="グループ_469" data-name="グループ 469">
            <g id="グループ_468" data-name="グループ 468" clip-path="url(#clip-path-4)">
              <path id="パス_2078" data-name="パス 2078" d="M898.861,80.16c6.067,7.491,5.795,20,5.795,20s-12.294-2.332-18.361-9.823-9.623-13.729-1.329-14.487c2.013-8.485,7.828-3.182,13.9,4.308" transform="translate(-408.772 -33.213)" fill="#231f20"/>
              <path id="パス_2079" data-name="パス 2079" d="M904.68,100.225l-.217-.041c-.123-.024-12.432-2.431-18.472-9.889-3.646-4.5-7.212-9.5-5.994-12.377.573-1.359,2.1-2.144,4.661-2.4.712-2.892,1.949-4.358,3.678-4.358,2.384,0,5.626,2.69,10.513,8.722,6.039,7.457,5.839,20,5.836,20.123ZM888.336,71.533c-1.581,0-2.676,1.374-3.346,4.2l-.031.131-.133.012c-2.493.228-3.96.943-4.484,2.186-1.14,2.7,2.363,7.58,5.941,12,5.51,6.8,16.35,9.352,18.031,9.711,0-1.719-.245-12.852-5.755-19.654-3.237-4-7.324-8.584-10.222-8.584" transform="translate(-408.614 -33.051)" fill="#29190f"/>
              <path id="パス_2080" data-name="パス 2080" d="M855.484,89.577c-5.838,5.51-16.244,6.071-16.244,6.071s1.163-10.356,7-15.865,10.795-8.855,11.946-2.015c7.172,1.138,3.135,6.3-2.7,11.81" transform="translate(-389.797 -34.34)" fill="#231f20"/>
              <path id="パス_2081" data-name="パス 2081" d="M838.848,95.683l.025-.219c.011-.1,1.238-10.487,7.059-15.98,4.381-4.134,7.095-5.9,9.073-5.9,1.64,0,2.7,1.3,3.162,3.856,2.167.365,3.4,1.111,3.756,2.278.785,2.542-3.057,6.589-6.492,9.83-5.821,5.492-16.258,6.116-16.363,6.122ZM855,73.959c-2.37,0-5.957,3.1-8.817,5.8-5.249,4.953-6.7,13.992-6.914,15.526,1.544-.123,10.652-1.051,15.9-6,3.356-3.167,7.116-7.1,6.392-9.448-.318-1.027-1.525-1.713-3.59-2.041l-.133-.021-.022-.133c-.417-2.474-1.338-3.676-2.817-3.676" transform="translate(-389.615 -34.178)" fill="#29190f"/>
              <path id="パス_2082" data-name="パス 2082" d="M879.785,101.1c-1.738,7.837-10.034,14.144-10.034,14.144s-4.851-9.224-3.113-17.06,3.961-13.388,8.754-8.375c6.574-3.085,6.131,3.454,4.393,11.291" transform="translate(-402.348 -40.823)" fill="#231f20"/>
              <path id="パス_2083" data-name="パス 2083" d="M869.53,115.362l-.1-.2c-.049-.093-4.864-9.374-3.131-17.187,1.145-5.16,2.709-10.435,5.632-10.435,1.021,0,2.116.614,3.347,1.876,2.265-1.035,3.854-.978,4.758.148,1.249,1.557,1.18,5.076-.224,11.408-1.733,7.813-10.02,14.189-10.1,14.252Zm2.4-27.444c-2.659,0-4.155,5.127-5.267,10.141-1.564,7.049,2.309,15.343,2.995,16.732,1.209-.969,8.225-6.85,9.787-13.9.928-4.181,1.8-9.221.3-11.094-.811-1.011-2.278-1-4.429.013l-.122.057-.093-.1c-1.178-1.232-2.245-1.857-3.17-1.857" transform="translate(-402.189 -40.661)" fill="#29190f"/>
              <path id="パス_2084" data-name="パス 2084" d="M821.006,76.558c-9.841-.3-19.338-8.859-19.338-8.859s10.005-7.954,19.846-7.651,17.039,1.713,12.092,8.636c5.22,7.217-2.76,8.178-12.6,7.875" transform="translate(-372.346 -27.886)" fill="#231f20"/>
              <path id="パス_2085" data-name="パス 2085" d="M823.643,76.63c-.9,0-1.843-.016-2.895-.048-9.8-.3-19.361-8.821-19.457-8.907l-.164-.147.173-.138c.1-.078,10.175-8,19.969-7.691,5.914.183,12.152.755,13.569,3.616.668,1.348.258,3.053-1.253,5.2,1.547,2.175,1.974,3.869,1.306,5.178-1.022,2-4.6,2.932-11.248,2.932m-21.932-9.085c1.32,1.134,10.1,8.388,19.049,8.663,1.048.032,1.991.048,2.883.048,6.5,0,9.964-.868,10.915-2.729.6-1.177.146-2.825-1.353-4.9l-.079-.109.078-.109c1.488-2.082,1.913-3.695,1.3-4.931-1.329-2.685-7.442-3.23-13.246-3.409-8.955-.288-18.159,6.422-19.547,7.473" transform="translate(-372.095 -27.724)" fill="#29190f"/>
              <path id="パス_2086" data-name="パス 2086" d="M916.154,40.933c8.64,4.721,13.241,16.647,13.241,16.647s-12.521,2.569-21.161-2.152-14.422-9.234-6.88-13.171c-1.392-8.8,6.161-6.045,14.8-1.324" transform="translate(-417.025 -16.958)" fill="#231f20"/>
              <path id="パス_2087" data-name="パス 2087" d="M921.352,58.3c-5.383,0-9.881-.967-13.369-2.874-5.194-2.838-10.5-6.169-10.468-9.363.015-1.5,1.151-2.839,3.472-4.074-.339-2.257-.105-3.822.713-4.78a3.378,3.378,0,0,1,2.705-1.05c2.45,0,6.052,1.37,11.676,4.444,8.6,4.7,13.279,16.624,13.325,16.743l.079.206-.216.044a44.093,44.093,0,0,1-7.919.7M904.406,36.536a2.987,2.987,0,0,0-2.421.919c-.749.877-.953,2.428-.607,4.61l.021.133-.119.062c-2.268,1.184-3.377,2.43-3.39,3.81-.029,3,5.176,6.247,10.273,9.032,3.433,1.876,7.871,2.827,13.19,2.827a44.7,44.7,0,0,0,7.623-.652c-.664-1.607-5.216-12.049-13.071-16.342-3.456-1.888-8.407-4.4-11.5-4.4" transform="translate(-416.864 -16.796)" fill="#29190f"/>
              <path id="パス_2088" data-name="パス 2088" d="M893.349,47.27c6.407,7.476,4.038,22.354,4.038,22.354s-15.065.063-21.472-7.413-9.864-14.046.678-16.85c3.9-10.51,10.348-5.567,16.755,1.909" transform="translate(-404.018 -18.27)" fill="#231f20"/>
              <path id="パス_2089" data-name="パス 2089" d="M897.213,69.649c-.62,0-15.266-.085-21.6-7.478-3.542-4.132-7.01-8.843-5.889-12.453.661-2.129,2.81-3.658,6.567-4.674,1.532-4.075,3.513-6.056,6.055-6.056,2.855,0,6.242,2.467,10.983,8,6.389,7.455,4.105,22.355,4.081,22.5l-.025.157ZM882.345,39.361c-2.386,0-4.263,1.931-5.739,5.9l-.034.091-.093.025c-3.681.979-5.775,2.435-6.4,4.448-1.074,3.457,2.544,8.283,5.815,12.1,5.964,6.959,19.5,7.327,21.169,7.346.227-1.617,1.906-15.13-4.019-22.045-3.139-3.663-7.193-7.868-10.7-7.868" transform="translate(-403.856 -18.109)" fill="#29190f"/>
              <path id="パス_2090" data-name="パス 2090" d="M901.333,7.519c7.776,3.05,11.924,15.137,11.924,15.137S902,28.7,894.222,25.651s-12.98-6.6-6.2-12.892c-1.259-9.426,5.536-8.29,13.311-5.24" transform="translate(-410.998 -2.475)" fill="#231f20"/>
              <path id="パス_2091" data-name="パス 2091" d="M899.062,26.537a13.86,13.86,0,0,1-5.071-.873c-4.305-1.688-8.786-3.841-9.386-7.005-.353-1.866.646-3.872,3.057-6.131-.37-2.87-.021-4.871,1.067-6.114a4.824,4.824,0,0,1,3.816-1.433c2.1,0,4.861.7,8.693,2.2C909,10.23,913.23,22.313,913.272,22.435l.052.15-.14.075c-.072.039-7.3,3.877-14.121,3.877M892.546,5.354A4.417,4.417,0,0,0,889.01,6.66c-1.01,1.155-1.336,3.144-.965,5.913l.012.1-.071.066c-2.36,2.192-3.347,4.106-3.015,5.854.569,3,5.192,5.173,9.156,6.727a13.5,13.5,0,0,0,4.935.847c6.2,0,12.759-3.225,13.8-3.758C912.351,21,908.24,10.332,901.1,7.531c-3.788-1.485-6.507-2.177-8.557-2.177" transform="translate(-410.836 -2.313)" fill="#29190f"/>
              <path id="パス_2092" data-name="パス 2092" d="M890.32,21.978c5.574,2.186,8.88,10.008,8.88,10.008s-7.741,3.488-13.316,1.3-9.353-4.607-4.776-8.4c-1.186-6.037,3.637-5.1,9.212-2.912" transform="translate(-408.294 -9.431)" fill="#1c8b91"/>
              <path id="パス_2093" data-name="パス 2093" d="M863.782,13.4C859.927,8.823,860.754.373,860.754.373s8.468.628,12.323,5.209,6.021,8.512.19,9.659c-1.839,5.871-5.63,2.745-9.485-1.837" transform="translate(-399.755 -0.173)" fill="#231f20"/>
              <path id="パス_2094" data-name="パス 2094" d="M870.179,18.466c-1.655,0-3.721-1.578-6.7-5.114C859.62,8.763,860.4.267,860.412.182L860.429,0l.182.014C860.7.02,869.2.7,873.063,5.289c2.228,2.647,4.407,5.632,3.68,7.7-.389,1.1-1.53,1.838-3.489,2.241-.694,2.147-1.729,3.236-3.075,3.236M860.768.4c-.089,1.259-.448,8.612,3,12.708,1.8,2.138,4.422,4.981,6.411,4.981,1.2,0,2.1-1.008,2.752-3.08l.033-.105.109-.021c1.883-.371,2.968-1.032,3.317-2.021.669-1.9-1.579-4.919-3.613-7.335-3.449-4.1-10.754-5-12.009-5.126" transform="translate(-399.598)" fill="#29190f"/>
              <path id="パス_2095" data-name="パス 2095" d="M848.66,66.548c-8.272,4.949-20.619,2.914-20.619,2.914s4.045-11.842,12.316-16.792,14.949-7.589,14.53.729c8.115,3.191,2.045,8.2-6.227,13.148" transform="translate(-384.596 -22.31)" fill="#1c8b91"/>
              <path id="パス_2096" data-name="パス 2096" d="M857.3,35.22c-6.755,4.912-19.175,1.9-19.175,1.9s.965-12.744,7.72-17.656,12.544-7.391,14.2,1.713c8.624,4.011,4.008,9.127-2.747,14.039" transform="translate(-389.28 -6.997)" fill="#231f20"/>
              <path id="パス_2097" data-name="パス 2097" d="M846.229,38.06a39.792,39.792,0,0,1-8.319-.917l-.154-.037.012-.159c.01-.128,1.05-12.886,7.8-17.793,4.222-3.07,7.1-4.44,9.324-4.44,2.692,0,4.378,2.02,5.155,6.175,2.987,1.406,4.529,3,4.71,4.871.32,3.3-3.847,6.782-7.513,9.448-2.6,1.892-6.306,2.851-11.01,2.851m-8.075-1.244a39.861,39.861,0,0,0,8.075.871c4.623,0,8.254-.935,10.79-2.78,3.585-2.608,7.662-6,7.361-9.109-.167-1.722-1.709-3.273-4.584-4.609l-.087-.041-.017-.1c-.731-4.012-2.3-5.963-4.805-5.963-2.143,0-4.951,1.347-9.1,4.368-6.2,4.51-7.486,15.875-7.628,17.359" transform="translate(-389.108 -6.835)" fill="#29190f"/>
              <path id="パス_2098" data-name="パス 2098" d="M901.887,17.079c7.736.58,16.022-7.122,16.022-7.122S910.864,1.106,903.127.527,889.615.71,892.8,8.075c-4.8,6.747,1.349,8.424,9.085,9" transform="translate(-413.887 -0.173)" fill="#71bd7e"/>
              <path id="パス_2099" data-name="パス 2099" d="M849.839,29.215c-6.81,2.875-16.4-1-16.4-1s3.907-9.575,10.717-12.451,12.224-4.021,11.383,3.118c6.188,4.155,1.107,7.458-5.7,10.334" transform="translate(-387.104 -6.284)" fill="#1c8b91"/>
              <path id="パス_2100" data-name="パス 2100" d="M871.784,31.8c-.794,5.885,4.715,12.565,4.715,12.565s7.083-4.982,7.877-10.867.472-10.334-5.3-8.233c-4.938-3.977-6.5.649-7.292,6.534" transform="translate(-404.876 -11.044)" fill="#71bd7e"/>
              <path id="パス_2101" data-name="パス 2101" d="M914.624,54.333c9.544,1.353,17.865,10.7,17.865,10.7S921.9,71.7,912.355,70.344s-16.4-3.5-10.839-9.7c-4.3-7.584,3.565-7.661,13.109-6.308" transform="translate(-417.796 -24.925)" fill="#71bd7e"/>
              <path id="パス_2102" data-name="パス 2102" d="M883.4,91.292c.944,4.136-4.012,9.579-4.012,9.579s-6.827-2.753-7.772-6.889-.79-7.37,4.707-6.534c4.51-3.434,6.132-.292,7.077,3.844" transform="translate(-404.629 -39.936)" fill="#1c8b91"/>
              <path id="パス_2103" data-name="パス 2103" d="M907.923,118.775h10.8a10.922,10.922,0,0,1,10.459,7.664,14.865,14.865,0,0,1,.606,2.833,47.244,47.244,0,0,1-13.981-6.616c-4.541,10.751-13.826,8.887-13.826,8.887s-1.819-10.42,5.94-12.768" transform="translate(-418.853 -55.167)" fill="#231f20"/>
              <path id="パス_2104" data-name="パス 2104" d="M903.44,131.691a9.152,9.152,0,0,1-1.645-.127l-.125-.025-.022-.126c-.019-.106-1.758-10.609,6.069-12.978l.054-.008h10.8a11.041,11.041,0,0,1,10.637,7.8,15.049,15.049,0,0,1,.614,2.869l.028.272-.263-.073a47.67,47.67,0,0,1-13.849-6.514c-3.366,7.75-9.14,8.915-12.3,8.915M902,131.219a9.842,9.842,0,0,0,1.444.1c3.1,0,8.777-1.156,12.046-8.9l.088-.211.189.13a47.466,47.466,0,0,0,13.658,6.515,15.3,15.3,0,0,0-.568-2.523,10.669,10.669,0,0,0-10.281-7.532H907.8c-7.021,2.148-5.973,11.223-5.8,12.419" transform="translate(-418.701 -55.005)" fill="#29190f"/>
              <path id="パス_2105" data-name="パス 2105" d="M851.727,105.057H836.072a15.831,15.831,0,0,0-15.16,11.108,21.59,21.59,0,0,0-.879,4.106,68.463,68.463,0,0,0,20.263-9.589c6.581,15.582,20.038,12.88,20.038,12.88s2.638-15.1-8.608-18.5" transform="translate(-380.876 -48.795)" fill="#231f20"/>
              <path id="パス_2106" data-name="パス 2106" d="M857.821,123.767h0c-4.571,0-12.936-1.692-17.79-12.963a69.058,69.058,0,0,1-20.131,9.485l-.263.073.028-.272a21.708,21.708,0,0,1,.886-4.142,15.92,15.92,0,0,1,15.338-11.239l15.709.008c11.274,3.411,8.765,18.563,8.739,18.716l-.023.126-.125.025a13.138,13.138,0,0,1-2.366.183m-17.626-13.53.089.212c4.757,11.263,13.028,12.944,17.536,12.945h0a14.028,14.028,0,0,0,2.166-.154c.217-1.471,1.908-14.992-8.472-18.157H835.887a15.548,15.548,0,0,0-14.981,10.976,21.95,21.95,0,0,0-.841,3.8,68.836,68.836,0,0,0,19.942-9.489Z" transform="translate(-380.691 -48.634)" fill="#29190f"/>
              <path id="パス_2107" data-name="パス 2107" d="M898.856,94.676h15s-1.143,20.195-26.672,25.148c-2.191-6.477,2.877-25.148,11.677-25.148" transform="translate(-411.827 -43.974)" fill="#1c8b91"/>
              <path id="パス_2108" data-name="パス 2108" d="M854.158,112.7h9.161c7.759,2.348,5.939,12.768,5.939,12.768s-11.37,2.287-15.1-12.768" transform="translate(-396.726 -52.346)" fill="#1c8b91"/>
              <path id="パス_2109" data-name="パス 2109" d="M841.5,112.7h7.788a47.192,47.192,0,0,1-18.854,10.5,14.9,14.9,0,0,1,.606-2.833A10.923,10.923,0,0,1,841.5,112.7" transform="translate(-385.706 -52.346)" fill="#71bd7e"/>
              <path id="パス_2110" data-name="パス 2110" d="M923.746,94.676H909.424A86.79,86.79,0,0,0,944.1,113.982a27.333,27.333,0,0,0-1.116-5.21,20.087,20.087,0,0,0-19.236-14.1" transform="translate(-422.395 -43.974)" fill="#71bd7e"/>
              <path id="パス_2111" data-name="パス 2111" d="M851.219,130.812h40.407l-3.291,29.328H854.509Z" transform="translate(-395.361 -60.757)" fill="#ffd18f"/>
              <path id="パス_2112" data-name="パス 2112" d="M852.326,140.684h39.106l.123-1.1H852.2Z" transform="translate(-395.818 -64.834)" fill="#ffbd65"/>
              <g id="グループ_443" data-name="グループ 443" transform="translate(455.858 70.054)" style="mix-blend-mode: multiply;isolation: isolate">
                <g id="グループ_442" data-name="グループ 442">
                  <g id="グループ_441" data-name="グループ 441" clip-path="url(#clip-path-6)">
                    <path id="パス_2113" data-name="パス 2113" d="M851.219,130.812l3.291,29.328h15.957l-11.689-29.328Z" transform="translate(-851.219 -130.812)" fill="#f3ecf1"/>
                  </g>
                </g>
              </g>
              <rect id="長方形_389" data-name="長方形 389" width="2.735" height="40.673" transform="translate(462.317 225.364)" fill="#4f4548"/>
              <rect id="長方形_390" data-name="長方形 390" width="2.735" height="40.673" transform="translate(370.168 225.364)" fill="#4f4548"/>
              <rect id="長方形_391" data-name="長方形 391" width="2.735" height="40.673" transform="translate(519.922 225.364)" fill="#29190f"/>
              <rect id="長方形_392" data-name="長方形 392" width="57.605" height="15.655" transform="translate(465.052 225.364)" fill="#5d5d5d"/>
              <rect id="長方形_393" data-name="長方形 393" width="94.883" height="15.655" transform="translate(370.168 225.365)" fill="#4f4548"/>
              <rect id="長方形_394" data-name="長方形 394" width="135.569" height="125.982" transform="translate(370.168 99.382)" fill="#f3ecf1"/>
              <rect id="長方形_395" data-name="長方形 395" width="57.605" height="125.982" transform="translate(465.052 99.382)" fill="#c7b5c3"/>
              <rect id="長方形_396" data-name="長方形 396" width="1.17" height="125.982" transform="translate(468.632 99.383)" fill="#ab9ca8"/>
              <rect id="長方形_397" data-name="長方形 397" width="1.17" height="125.982" transform="translate(411.28 99.382)" fill="#ab9ca8"/>
              <rect id="長方形_398" data-name="長方形 398" width="18.195" height="40.067" transform="translate(407.469 59.315)" fill="#a16e79"/>
              <rect id="長方形_399" data-name="長方形 399" width="0.481" height="40.067" transform="translate(412.973 59.315)" fill="#c48995"/>
              <rect id="長方形_400" data-name="長方形 400" width="4.343" height="40.067" transform="translate(407.469 59.315)" fill="#c48995"/>
              <rect id="長方形_401" data-name="長方形 401" width="21.701" height="41.308" transform="translate(416.257 58.074)" fill="#a9bfbd"/>
              <rect id="長方形_402" data-name="長方形 402" width="0.415" height="41.303" transform="translate(422.51 58.075)" fill="#cadcd7"/>
              <rect id="長方形_403" data-name="長方形 403" width="5.18" height="41.308" transform="translate(416.257 58.074)" fill="#cadcd7"/>
              <rect id="長方形_404" data-name="長方形 404" width="21.701" height="39.057" transform="translate(425.206 60.325)" fill="#ee7e61"/>
              <rect id="長方形_405" data-name="長方形 405" width="0.574" height="39.057" transform="translate(431.772 60.325)" fill="#f7ba91"/>
              <rect id="長方形_406" data-name="長方形 406" width="5.179" height="39.057" transform="translate(425.207 60.325)" fill="#f7ba91"/>
              <path id="パス_2114" data-name="パス 2114" d="M741.557,112.873l.432,0c0-.093-.079-9.464-.721-23.129-.646-13.746-10.117-23.046-10.212-23.139l-.3.311c.095.091,9.444,9.278,10.08,22.848.642,13.657.721,23.02.721,23.113" transform="translate(-339.41 -30.934)" fill="#1c8b91"/>
              <path id="パス_2115" data-name="パス 2115" d="M736.446,124.026l.432-.028c-.064-1-1.607-24.625-4.34-28.825s-9.891-7.182-10.194-7.307l-.164.4c.073.03,7.33,3.047,10,7.142s4.255,28.372,4.271,28.617" transform="translate(-335.427 -40.811)" fill="#1c8b91"/>
              <path id="パス_2116" data-name="パス 2116" d="M746.52,136.249c0-.076.158-7.7-.268-13.109-.435-5.52-6.773-8.8-7.043-8.937l-.2.386c.064.032,6.393,3.309,6.808,8.585.425,5.389.269,12.99.267,13.066Z" transform="translate(-343.245 -53.043)" fill="#1c8b91"/>
              <path id="パス_2117" data-name="パス 2117" d="M711.936,59.809s7.629-2.187,12.106,3.354A34.757,34.757,0,0,1,730.1,75.7Z" transform="translate(-330.669 -27.581)" fill="#1c8b91"/>
              <path id="パス_2118" data-name="パス 2118" d="M738.124,118.911l-15.239-7.765s10.5-7.642,15.239,7.765" transform="translate(-335.754 -50.743)" fill="#1c8b91"/>
              <path id="パス_2119" data-name="パス 2119" d="M721.212,88.271l10.7,7.194s-1.027-7.767-10.7-7.194" transform="translate(-334.977 -40.985)" fill="#1c8b91"/>
              <path id="パス_2120" data-name="パス 2120" d="M743.5,167.276V148.09a1.912,1.912,0,0,1,1.912-1.912h3.27a1.913,1.913,0,0,1,1.912,1.912v19.186Z" transform="translate(-345.327 -67.894)" fill="#f3ecf1"/>
              <rect id="長方形_407" data-name="長方形 407" width="4.072" height="2.653" transform="translate(399.68 76.31)" fill="#f3ecf1"/>
              <rect id="長方形_408" data-name="長方形 408" width="5.337" height="0.956" transform="translate(399.047 75.353)" fill="#f3ecf1"/>
              <path id="パス_2121" data-name="パス 2121" d="M731.2,168.127h9.947V172.5a4.973,4.973,0,1,1-9.947,0Z" transform="translate(-339.615 -78.089)" fill="#a16e79"/>
              <rect id="長方形_409" data-name="長方形 409" width="6.078" height="3.115" transform="translate(393.516 96.267)" fill="#a16e79"/>
              <path id="パス_2122" data-name="パス 2122" d="M642.748,357.391l.766-3.394,1.178-5.247,2.314-10.27H636.09L634.4,348.75,633.542,354l-.559,3.394-10.82,65.859h5.758Z" transform="translate(-288.972 -157.212)" fill="#3b2316"/>
              <path id="パス_2123" data-name="パス 2123" d="M800.113,357.391,799.554,354l-.859-5.247-1.689-10.27H786.09l2.314,10.27L789.583,354l.766,3.394,14.827,65.859h5.758Z" transform="translate(-365.111 -157.212)" fill="#ffcaa6"/>
              <path id="パス_2124" data-name="パス 2124" d="M541.335,357.391,542.1,354l1.178-5.247,2.314-10.27H534.676l-1.689,10.27L532.129,354l-.559,3.394L520.749,423.25h5.758Z" transform="translate(-241.869 -157.212)" fill="#29190f"/>
              <path id="パス_2125" data-name="パス 2125" d="M692.615,357.391,692.056,354l-.858-5.247-1.689-10.27H678.592l2.314,10.27L682.084,354l.766,3.394,14.827,65.859h5.758Z" transform="translate(-315.182 -157.212)" fill="#ffcaa6"/>
              <path id="パス_2126" data-name="パス 2126" d="M693.113,251.637a12.02,12.02,0,0,1-11.8,9.749H534.255l7.353-33.331a12.022,12.022,0,0,1,10.455-9.667l37.273-4.22a12.016,12.016,0,0,0,9.575-6.936l12.7-27.731a12.022,12.022,0,0,1,10.927-7.012h68.285l.972,33.537Z" transform="translate(-248.142 -80.115)" fill="#593322"/>
              <g id="グループ_446" data-name="グループ 446" transform="translate(291.118 181.268)" opacity="0.46" style="mix-blend-mode: multiply;isolation: isolate">
                <g id="グループ_445" data-name="グループ 445">
                  <g id="グループ_444" data-name="グループ 444" clip-path="url(#clip-path-7)">
                    <path id="パス_2127" data-name="パス 2127" d="M545.29,338.48h10.916l-2.313,10.27H543.6Z" transform="translate(-543.601 -338.48)" fill="#835353"/>
                  </g>
                </g>
              </g>
              <g id="グループ_449" data-name="グループ 449" transform="translate(345.428 181.268)" opacity="0.46" style="mix-blend-mode: multiply;isolation: isolate">
                <g id="グループ_448" data-name="グループ 448">
                  <g id="グループ_447" data-name="グループ 447" clip-path="url(#clip-path-7)">
                    <path id="パス_2128" data-name="パス 2128" d="M646.7,338.48H657.62l-2.314,10.27H645.014Z" transform="translate(-645.014 -338.48)" fill="#835353"/>
                  </g>
                </g>
              </g>
              <g id="グループ_452" data-name="グループ 452" transform="translate(363.41 181.268)" opacity="0.46" style="mix-blend-mode: multiply;isolation: isolate">
                <g id="グループ_451" data-name="グループ 451">
                  <g id="グループ_450" data-name="グループ 450" clip-path="url(#clip-path-7)">
                    <path id="パス_2129" data-name="パス 2129" d="M689.508,338.48l1.689,10.27H680.906l-2.314-10.27Z" transform="translate(-678.592 -338.48)" fill="#835353"/>
                  </g>
                </g>
              </g>
              <g id="グループ_455" data-name="グループ 455" transform="translate(420.979 181.268)" opacity="0.46" style="mix-blend-mode: multiply;isolation: isolate">
                <g id="グループ_454" data-name="グループ 454">
                  <g id="グループ_453" data-name="グループ 453" clip-path="url(#clip-path-7)">
                    <path id="パス_2130" data-name="パス 2130" d="M798.7,348.75H788.4l-2.313-10.27h10.916Z" transform="translate(-786.09 -338.48)" fill="#835353"/>
                  </g>
                </g>
              </g>
              <g id="グループ_458" data-name="グループ 458" transform="translate(289.7 196.784)" opacity="0.46" style="mix-blend-mode: multiply;isolation: isolate">
                <g id="グループ_457" data-name="グループ 457">
                  <g id="グループ_456" data-name="グループ 456" clip-path="url(#clip-path-11)">
                    <path id="パス_2131" data-name="パス 2131" d="M541.513,367.453h9.972l-.766,3.394h-9.765Z" transform="translate(-540.954 -367.453)" fill="#835353"/>
                  </g>
                </g>
              </g>
              <g id="グループ_461" data-name="グループ 461" transform="translate(344.01 196.784)" opacity="0.46" style="mix-blend-mode: multiply;isolation: isolate">
                <g id="グループ_460" data-name="グループ 460">
                  <g id="グループ_459" data-name="グループ 459" clip-path="url(#clip-path-11)">
                    <path id="パス_2132" data-name="パス 2132" d="M642.927,367.453H652.9l-.765,3.394h-9.765Z" transform="translate(-642.367 -367.453)" fill="#835353"/>
                  </g>
                </g>
              </g>
              <g id="グループ_464" data-name="グループ 464" transform="translate(366.902 196.784)" opacity="0.46" style="mix-blend-mode: multiply;isolation: isolate">
                <g id="グループ_463" data-name="グループ 463">
                  <g id="グループ_462" data-name="グループ 462" clip-path="url(#clip-path-11)">
                    <path id="パス_2133" data-name="パス 2133" d="M695.084,367.453l.559,3.394h-9.765l-.766-3.394Z" transform="translate(-685.113 -367.453)" fill="#835353"/>
                  </g>
                </g>
              </g>
              <g id="グループ_467" data-name="グループ 467" transform="translate(424.471 196.784)" opacity="0.46" style="mix-blend-mode: multiply;isolation: isolate">
                <g id="グループ_466" data-name="グループ 466">
                  <g id="グループ_465" data-name="グループ 465" clip-path="url(#clip-path-11)">
                    <path id="パス_2134" data-name="パス 2134" d="M803.142,370.848h-9.765l-.766-3.394h9.972Z" transform="translate(-792.611 -367.453)" fill="#835353"/>
                  </g>
                </g>
              </g>
            </g>
          </g>
          <g id="グループ_471" data-name="グループ 471" transform="translate(246.545 118.962)">
            <g id="グループ_470" data-name="グループ 470" clip-path="url(#clip-path-15)">
              <rect id="長方形_419" data-name="長方形 419" width="57.684" height="2.568" fill="url(#linear-gradient)"/>
            </g>
          </g>
          <g id="グループ_473" data-name="グループ 473">
            <g id="グループ_472" data-name="グループ 472" clip-path="url(#clip-path-4)">
              <path id="パス_2135" data-name="パス 2135" d="M412.376,172.279H347.011a4.907,4.907,0,0,1-4.477-3.568l-15.449-55.882a2.681,2.681,0,0,1,2.659-3.568h65.364a4.908,4.908,0,0,1,4.477,3.568l15.448,55.882a2.68,2.68,0,0,1-2.658,3.568" transform="translate(-151.866 -50.748)" fill="#29190f"/>
            </g>
          </g>
          <g id="グループ_475" data-name="グループ 475" transform="translate(173.586 58.513)">
            <g id="グループ_474" data-name="グループ 474" clip-path="url(#clip-path-17)">
              <rect id="長方形_422" data-name="長方形 422" width="103.11" height="85.537" transform="matrix(0.959, -0.282, 0.282, 0.959, -17.431, 5.008)" fill="url(#linear-gradient-2)"/>
            </g>
          </g>
          <g id="グループ_480" data-name="グループ 480">
            <g id="グループ_479" data-name="グループ 479" clip-path="url(#clip-path-4)">
              <path id="パス_2137" data-name="パス 2137" d="M401.517,168.885l-7.447-5.935,4.422-5.934,7.447,5.934Zm-4.961-5.935,4.327,3.448,2.57-3.448-4.327-3.448Z" transform="translate(-183.032 -72.928)" fill="#29190f"/>
              <rect id="長方形_423" data-name="長方形 423" width="46.96" height="134.97" transform="translate(143.174 131.085)" fill="#593322"/>
              <g id="グループ_478" data-name="グループ 478" transform="translate(110.194 131.085)" opacity="0.6" style="mix-blend-mode: multiply;isolation: isolate">
                <g id="グループ_477" data-name="グループ 477">
                  <g id="グループ_476" data-name="グループ 476" clip-path="url(#clip-path-19)">
                    <rect id="長方形_424" data-name="長方形 424" width="80.023" height="23.575" fill="#996973"/>
                  </g>
                </g>
              </g>
              <rect id="長方形_426" data-name="長方形 426" width="300.412" height="9.555" transform="translate(0 121.531)" fill="#d99d7a"/>
              <rect id="長方形_427" data-name="長方形 427" width="126.85" height="9.555" transform="translate(0 121.531)" fill="#ffcaa6"/>
              <path id="パス_2138" data-name="パス 2138" d="M402.851,360.7c-.023-.927-.277-11.723-.127-24.137-.186-9.825-.577-21.065-1.376-30.486C400.2,292.5,397.1,288.6,395.36,287.486a2.491,2.491,0,0,0-1.944-.47l-.6-1.666a4.105,4.105,0,0,1,3.5.645c3.585,2.3,5.871,9,6.8,19.932.2,2.374.377,4.86.529,7.411.448-5.525,1.091-10.186,2.007-13,1.373-4.215,3.453-6.774,6.182-7.606,3.832-1.168,7.392,1.572,7.542,1.69l-1.091,1.394c-.028-.022-3-2.292-5.944-1.387-2.139.657-3.823,2.83-5.005,6.458-2.019,6.2-2.668,22.265-2.827,36.18.238,13.027.119,23.436.117,23.619Z" transform="translate(-182.449 -132.467)" fill="#71bd7e"/>
              <path id="パス_2139" data-name="パス 2139" d="M445.271,396.259l-1.677-.567c.357-1.055,8.812-25.961,14.941-36.224a8.62,8.62,0,0,1,6.348-4.548c6.339-.831,13.17,5.723,13.457,6l-1.233,1.27c-.065-.063-6.5-6.241-12-5.516a6.852,6.852,0,0,0-5.055,3.7c-6.032,10.1-14.7,35.628-14.784,35.884" transform="translate(-206.034 -164.814)" fill="#71bd7e"/>
              <rect id="長方形_428" data-name="長方形 428" width="28.092" height="1.77" transform="matrix(0.258, -0.966, 0.966, 0.258, 231.869, 227.982)" fill="#71bd7e"/>
              <rect id="長方形_429" data-name="長方形 429" width="1.77" height="31.128" transform="translate(224.533 192.416)" fill="#71bd7e"/>
              <path id="パス_2140" data-name="パス 2140" d="M390.853,377.273a278.4,278.4,0,0,0-6.389-39.977c-2.545-10.506-5.752-13.674-7.994-14.482a3.976,3.976,0,0,0-3.592.424l-1.074-1.406a5.756,5.756,0,0,1,5.223-.7c3.876,1.365,6.957,6.662,9.158,15.746a280.379,280.379,0,0,1,6.435,40.267Z" transform="translate(-172.689 -148.998)" fill="#71bd7e"/>
              <path id="パス_2141" data-name="パス 2141" d="M375.177,393.524c-.018-.114-1.843-11.616-8.43-33.314-1.757-5.79-3.971-8.954-6.4-9.152-.085-.007-.17-.011-.256-.011-3.788,0-7.906,6.666-9.2,9.3l-1.589-.78c.216-.439,5.342-10.748,11.185-10.269,3.311.268,5.913,3.671,7.957,10.4,6.628,21.835,8.467,33.442,8.485,33.557Z" transform="translate(-162.237 -162.227)" fill="#71bd7e"/>
              <path id="パス_2142" data-name="パス 2142" d="M429.494,446.749V417.421H379.433v29.328a18.112,18.112,0,0,0,5.674,13.184H423.82a18.114,18.114,0,0,0,5.674-13.184" transform="translate(-176.233 -193.877)" fill="#f3ecf1"/>
              <path id="パス_2143" data-name="パス 2143" d="M407.2,346.677c-6.117,9.578-17.014,13.55-24.339,8.872s-8.3-16.235-2.186-25.813,17.482-15.215,20.9-3.489c11.965-3.023,11.74,10.853,5.624,20.43" transform="translate(-174.944 -148.467)" fill="#71bd7e"/>
              <path id="パス_2144" data-name="パス 2144" d="M351.807,366.335c.312,8.834-2.952,16.119-7.292,16.273s-8.111-6.883-8.424-15.717,2.656-17.4,7.467-11.309c3.976-7.135,7.936,1.919,8.248,10.753" transform="translate(-156.092 -163.96)" fill="#71bd7e"/>
              <path id="パス_2145" data-name="パス 2145" d="M458.362,362.33c6.01,6.8,6.664,16.044,1.461,20.64s-14.292,2.806-20.3-4-7.839-16.77,1.916-16.817c.31-9.853,10.915-6.629,16.925.173" transform="translate(-201.841 -165.319)" fill="#71bd7e"/>
              <path id="パス_2146" data-name="パス 2146" d="M508.091,366.647c.234,6.612-2.21,12.065-5.458,12.18s-6.071-5.152-6.305-11.764,1.988-13.022,5.589-8.465c2.976-5.34,5.94,1.437,6.174,8.049" transform="translate(-230.519 -165.662)" fill="#71bd7e"/>
              <path id="パス_2147" data-name="パス 2147" d="M451.113,299.288c7.913,7.522,11.332,16.77,7.637,20.658s-13.105.941-21.018-6.58-12.7-17.642-3.191-16.431c-2.662-9.731,8.659-5.168,16.572,2.354" transform="translate(-199.384 -135.341)" fill="#71bd7e"/>
              <path id="パス_2148" data-name="パス 2148" d="M366.175,325.811c-2.871,4.751-7.091,7.459-9.425,6.049s-1.9-6.406.973-11.157,7.375-8.233,7.812-3.379c4.542-2.385,3.513,3.736.641,8.487" transform="translate(-165 -146.3)" fill="#71bd7e"/>
              <path id="パス_2149" data-name="パス 2149" d="M389.651,289.936c-3.712,5.812-10.324,8.222-14.769,5.383s-5.038-9.851-1.326-15.663,10.608-9.232,12.683-2.117c7.26-1.834,7.124,6.585,3.412,12.4" transform="translate(-172.371 -127.048)" fill="#71bd7e"/>
              <rect id="長方形_430" data-name="長方形 430" width="22.284" height="41.182" transform="translate(168.521 80.349)" fill="#3b2316"/>
              <rect id="長方形_431" data-name="長方形 431" width="0.589" height="41.182" transform="translate(183.474 80.349)" fill="#593322"/>
              <rect id="長方形_432" data-name="長方形 432" width="5.318" height="41.182" transform="translate(185.486 80.349)" fill="#593322"/>
              <rect id="長方形_433" data-name="長方形 433" width="26.578" height="42.458" transform="translate(153.464 79.073)" fill="#1c8b91"/>
              <rect id="長方形_434" data-name="長方形 434" width="0.508" height="42.453" transform="translate(171.875 79.073)" fill="#25c0c9"/>
              <rect id="長方形_435" data-name="長方形 435" width="6.343" height="42.458" transform="translate(173.699 79.073)" fill="#25c0c9"/>
              <rect id="長方形_436" data-name="長方形 436" width="26.578" height="40.144" transform="translate(142.503 81.387)" fill="#ee7e61"/>
              <rect id="長方形_437" data-name="長方形 437" width="0.703" height="40.144" transform="translate(160.338 81.387)" fill="#f7ba91"/>
              <rect id="長方形_438" data-name="長方形 438" width="6.343" height="40.144" transform="translate(162.738 81.387)" fill="#f7ba91"/>
              <path id="パス_2150" data-name="パス 2150" d="M338.654,158.024l-.41,0c0-.088.076-8.971.683-21.923.612-13.029,9.589-21.843,9.679-21.931l.285.3c-.089.086-8.95,8.794-9.555,21.655-.608,12.943-.683,21.819-.683,21.907" transform="translate(-157.102 -53.027)" fill="#29190f"/>
              <path id="パス_2151" data-name="パス 2151" d="M340.651,168.6l-.409-.026c.061-.951,1.523-23.34,4.113-27.321s9.375-6.807,9.663-6.925l.155.379c-.069.028-6.948,2.888-9.474,6.77s-4.033,26.892-4.048,27.124" transform="translate(-158.03 -62.388)" fill="#29190f"/>
              <path id="パス_2152" data-name="パス 2152" d="M336.99,180.18c0-.072-.149-7.3.254-12.425.412-5.232,6.42-8.341,6.675-8.471l.186.366c-.06.031-6.059,3.137-6.452,8.138-.4,5.108-.254,12.311-.253,12.384Z" transform="translate(-156.507 -73.982)" fill="#29190f"/>
              <path id="パス_2153" data-name="パス 2153" d="M361.031,107.728s-7.231-2.073-11.474,3.178a32.939,32.939,0,0,0-5.745,11.888Z" transform="translate(-159.688 -49.848)" fill="#29190f"/>
              <path id="パス_2154" data-name="パス 2154" d="M338.616,163.747l14.444-7.36s-9.951-7.243-14.444,7.36" transform="translate(-157.275 -71.802)" fill="#29190f"/>
              <path id="パス_2155" data-name="パス 2155" d="M358.381,134.705l-10.137,6.819s.973-7.361,10.137-6.819" transform="translate(-161.747 -62.553)" fill="#29190f"/>
              <rect id="長方形_439" data-name="長方形 439" width="3.86" height="2.514" transform="translate(180.031 99.662)" fill="#e0d3dc"/>
              <path id="パス_2156" data-name="パス 2156" d="M340.22,209.589V191.4a1.813,1.813,0,0,0-1.813-1.812h-3.1a1.812,1.812,0,0,0-1.813,1.812v18.185Z" transform="translate(-154.897 -88.059)" fill="#f3ecf1"/>
              <path id="パス_2157" data-name="パス 2157" d="M339.758,184.4H335.4a.351.351,0,0,0-.351.351v.205a.351.351,0,0,0,.351.351h4.357a.351.351,0,0,0,.351-.351v-.205a.351.351,0,0,0-.351-.351" transform="translate(-155.619 -85.65)" fill="#f3ecf1"/>
              <path id="パス_2158" data-name="パス 2158" d="M543.213,470.939l11.891-5.928h30.225l1.688,13.962v1.081a1.964,1.964,0,0,1-1.964,1.964H541.107a1.964,1.964,0,0,1-1.964-1.964V478.3a8.683,8.683,0,0,1,4.07-7.357" transform="translate(-250.413 -215.981)" fill="#29190f"/>
              <path id="パス_2159" data-name="パス 2159" d="M608.755,487.717l.511.523,5.167-5.069a7.652,7.652,0,0,1,4.305-2.123l-.088-.724a8.353,8.353,0,0,0-4.729,2.328Z" transform="translate(-282.745 -223.094)" fill="#343642"/>
              <rect id="長方形_440" data-name="長方形 440" width="19.295" height="0.731" transform="translate(301.729 257.359) rotate(-25.574)" fill="#343642"/>
              <path id="パス_2160" data-name="パス 2160" d="M562.161,467.762h7.181v-.731h-5.716Z" transform="translate(-261.104 -216.919)" fill="#343642"/>
              <path id="パス_2161" data-name="パス 2161" d="M556.613,470.525h7.046v-.731h-5.577Z" transform="translate(-258.527 -218.203)" fill="#343642"/>
              <path id="パス_2162" data-name="パス 2162" d="M548.813,470.387l1.465-.731h5.453l2.8-1.352,1.506-.727,1.564-.753,1.513-.73,1.561-.753.681-.329h1.679L555.9,470.387Z" transform="translate(-254.904 -215.981)" fill="#343642"/>
              <path id="パス_2163" data-name="パス 2163" d="M539.143,491.083h47.874v1.081a1.964,1.964,0,0,1-1.964,1.964H541.107a1.964,1.964,0,0,1-1.964-1.964Z" transform="translate(-250.413 -228.091)" fill="#555863"/>
              <path id="パス_2164" data-name="パス 2164" d="M541.232,481.225h15.14a4.946,4.946,0,0,1,4.938,4.941h.731a5.677,5.677,0,0,0-5.669-5.672h-14.68c-.164.238-.318.479-.46.731" transform="translate(-251.383 -223.172)" fill="#343642"/>
              <path id="パス_2165" data-name="パス 2165" d="M447.648,470.939l11.892-5.928h30.225l1.688,13.962v1.081a1.964,1.964,0,0,1-1.964,1.964H445.542a1.964,1.964,0,0,1-1.964-1.964V478.3a8.684,8.684,0,0,1,4.07-7.357" transform="translate(-206.026 -215.981)" fill="#29190f"/>
              <path id="パス_2166" data-name="パス 2166" d="M513.19,487.717l.511.523,5.168-5.069a7.649,7.649,0,0,1,4.3-2.123l-.088-.724a8.355,8.355,0,0,0-4.729,2.328Z" transform="translate(-238.359 -223.094)" fill="#343642"/>
              <rect id="長方形_441" data-name="長方形 441" width="19.295" height="0.731" transform="matrix(0.902, -0.432, 0.432, 0.902, 250.55, 257.359)" fill="#343642"/>
              <path id="パス_2167" data-name="パス 2167" d="M466.6,467.762h7.181v-.731h-5.715Z" transform="translate(-216.717 -216.919)" fill="#343642"/>
              <path id="パス_2168" data-name="パス 2168" d="M461.047,470.525h7.046v-.731h-5.577Z" transform="translate(-214.14 -218.203)" fill="#343642"/>
              <path id="パス_2169" data-name="パス 2169" d="M453.247,470.387l1.465-.731h5.453l2.8-1.352,1.506-.727,1.564-.753,1.513-.73,1.56-.753.681-.329h1.679l-11.134,5.376Z" transform="translate(-210.517 -215.981)" fill="#343642"/>
              <path id="パス_2170" data-name="パス 2170" d="M443.578,491.083h47.874v1.081a1.964,1.964,0,0,1-1.964,1.964H445.542a1.964,1.964,0,0,1-1.964-1.964Z" transform="translate(-206.026 -228.091)" fill="#555863"/>
              <path id="パス_2171" data-name="パス 2171" d="M445.666,481.225h15.141a4.946,4.946,0,0,1,4.937,4.941h.731a5.676,5.676,0,0,0-5.668-5.672h-14.68c-.164.238-.318.479-.461.731" transform="translate(-206.996 -223.172)" fill="#343642"/>
              <rect id="長方形_442" data-name="長方形 442" width="21.939" height="51.626" transform="translate(286.317 160.432) rotate(-89.672)" fill="#89899a"/>
              <path id="パス_2172" data-name="パス 2172" d="M477.121,287.389l-4.612,81.656,36.958.206,13.9-74.317c6.378-10.834,6.108-21.623.863-28.6-3.565-4.741-9.427-7.725-17.063-7.768-.424,0-.843,0-1.267.023-19.112.712-27.873,6.693-28.778,28.8" transform="translate(-219.464 -120.093)" fill="#789c9e"/>
              <rect id="長方形_443" data-name="長方形 443" width="36.602" height="1.12" transform="translate(253.792 242.453)" fill="#5a7780"/>
              <rect id="長方形_444" data-name="長方形 444" width="70.766" height="1.121" transform="translate(282.095 242.964) rotate(-85.066)" fill="#5a7780"/>
              <path id="パス_2173" data-name="パス 2173" d="M536.654,287.389l10.889,81.657,37,.205-.223-74.317c4.342-10.834,2.046-21.623-4.511-28.6a25.171,25.171,0,0,0-18.523-7.768c-.425,0-.843,0-1.263.023-18.978.712-26.616,6.693-23.367,28.8" transform="translate(-248.92 -120.093)" fill="#789c9e"/>
              <path id="パス_2174" data-name="パス 2174" d="M578,258.8l-.242,42.264,26.006.405H648.82c16.148.093,24.043-12.564,23.139-30.8l-.89-11.335Z" transform="translate(-268.349 -120.205)" fill="#789c9e"/>
              <path id="パス_2175" data-name="パス 2175" d="M604.6,375.5l-2.864-65.048a12.108,12.108,0,0,1,12.1-12.641h39.7a10.138,10.138,0,0,0,10.125-10.126V285.2h1.12v2.485a11.258,11.258,0,0,1-11.246,11.246h-39.7a10.988,10.988,0,0,0-10.978,11.472l2.864,65.048Z" transform="translate(-279.48 -132.467)" fill="#5a7780"/>
              <path id="パス_2176" data-name="パス 2176" d="M521.022,160.924a16.138,16.138,0,0,0,26.507,11.753l49.532-36.1a16.1,16.1,0,0,0,1.951-22.732,15.8,15.8,0,0,0-2.874-2.669,16.154,16.154,0,0,0-10.584-3.039A15.961,15.961,0,0,0,576.3,111.9l-.863.732-2.135,1.783-.214.175-1.771,1.455L526.761,148.01c-.047.04-.093.077-.137.117a16.032,16.032,0,0,0-5.6,12.8" transform="translate(-241.991 -50.211)" fill="#789c9e"/>
              <path id="パス_2177" data-name="パス 2177" d="M618.678,112.52l2.295,74.541a69.232,69.232,0,0,1,21.7,7.077c.429.214.858.44,1.3.686a60.894,60.894,0,0,1,9.328,6.23c10.025,8.138,38.343,11.033,38.343,11.033s-4.492-99-4.525-99.119c-1.021-3.657-7.816-7.321-16.534-8.2l-1.33-.129c-1.952-.171-4-.3-6.112-.386l-.761-.033c-.215,0-.429-.011-.654-.021a145.035,145.035,0,0,0-23.342,1.148c-.182.021-.364.043-.547.075-.257.032-.515.075-.772.118-2.134.322-4.16.7-6.058,1.136-.451.108-.89.215-1.319.333-5.2,1.319-9.2,3.152-11.012,5.511" transform="translate(-287.354 -48.367)" fill="#789c9e"/>
              <path id="パス_2178" data-name="パス 2178" d="M763.617,162.163l-21.4-27.66-12.25-15.836c-4.724-6.139-12.568-6.634-17.521-1.1s-5.128,15-.406,21.148l30.026,38.812,3.625,4.685a12.438,12.438,0,0,0,6.668,4.605,10.707,10.707,0,0,0,10.846-3.507c4.946-5.536,5.128-15,.406-21.148" transform="translate(-329.129 -52.819)" fill="#789c9e"/>
              <path id="パス_2179" data-name="パス 2179" d="M663.486,204.044v36.5c.429.214.858.44,1.3.686V204.044Z" transform="translate(-308.166 -94.771)" fill="#29190f"/>
              <path id="パス_2180" data-name="パス 2180" d="M654.457,105.422l5.308,47.993L679,104.221c-.214,0-.429-.011-.654-.021A145.033,145.033,0,0,0,655,105.347c-.182.021-.364.043-.547.075" transform="translate(-303.972 -48.367)" fill="#f3ecf1"/>
              <path id="パス_2181" data-name="パス 2181" d="M666.42,48.041a14.727,14.727,0,1,1-14.727-14.727A14.727,14.727,0,0,1,666.42,48.041" transform="translate(-295.848 -15.473)" fill="#ff9d7c"/>
              <path id="パス_2182" data-name="パス 2182" d="M654.285,72.687l-9.043,2.75a9.808,9.808,0,0,1-11.627-11.27L635.8,53.405l20.482-.692Z" transform="translate(-294.224 -24.483)" fill="#ff9d7c"/>
              <path id="パス_2183" data-name="パス 2183" d="M655.094,54.989a5.362,5.362,0,0,1,1.391,1.062c.349.4-.238,1-.589.589a4.666,4.666,0,0,0-1.223-.931.417.417,0,0,1,.42-.719" transform="translate(-303.979 -25.512)" fill="#29190f"/>
              <path id="パス_2184" data-name="パス 2184" d="M642.247,54.708a5.362,5.362,0,0,1,1.391,1.062c.349.4-.238,1-.589.589a4.665,4.665,0,0,0-1.223-.931.417.417,0,0,1,.42-.719" transform="translate(-298.012 -25.381)" fill="#29190f"/>
              <path id="パス_2185" data-name="パス 2185" d="M643.324,65.156c0,.7-.306,1.26-.685,1.26s-.684-.564-.684-1.26Z" transform="translate(-298.165 -30.263)" fill="#29190f"/>
              <path id="パス_2186" data-name="パス 2186" d="M635.924,59.332a3.481,3.481,0,0,1,.288-.5,2.174,2.174,0,0,1,1.759-1.118c1.291,0,2.335,1.492,2.59,3.543.02.164.037.329.049.5.008.156.012.317.012.477a7.15,7.15,0,0,1-.1,1.241,5.615,5.615,0,0,1-.559,1.767,2.483,2.483,0,0,1-1.788,1.5,1.691,1.691,0,0,1-.2.012c-1.475,0-2.626-1.945-2.651-4.443v-.078a6.756,6.756,0,0,1,.6-2.9m1.973,6.906a.49.49,0,0,0,.074,0c.7,0,1.332-.666,1.722-1.669a5.309,5.309,0,0,0,.28-.978,5.945,5.945,0,0,0,.127-1.139v0a1.952,1.952,0,0,0,.008-.218c0-.181-.008-.358-.025-.534-.14-1.932-1.048-3.473-2.113-3.473-.719,0-1.369.7-1.759,1.747v.013a6.57,6.57,0,0,0-.382,2.248c0,2.125.941,3.93,2.068,4" transform="translate(-295.083 -26.806)" fill="#f5d9d9"/>
              <path id="パス_2187" data-name="パス 2187" d="M635.79,26.591a8.528,8.528,0,1,0,8.528-8.528,8.528,8.528,0,0,0-8.528,8.528" transform="translate(-295.302 -8.39)" fill="#5e3d49"/>
              <path id="パス_2188" data-name="パス 2188" d="M656.269,34.031s3.024,8.391,7.567,12.374,7.488,4.937,7.488,4.937l3.95-2.12s3.828-12.328-7.124-17.182-12.908-.744-11.881,1.992" transform="translate(-304.702 -13.836)" fill="#5e3d49"/>
              <path id="パス_2189" data-name="パス 2189" d="M671.644,89.606l-9.883,3.04a2.539,2.539,0,0,1-3.236-1.593l-5.9-22.579h16.062l4.577,18.56a2.193,2.193,0,0,1-1.619,2.572" transform="translate(-303.121 -31.804)" fill="#ff9d7c"/>
              <path id="パス_2190" data-name="パス 2190" d="M654.744,69.531a18.893,18.893,0,0,1-13.3,7.491c-9.153,1.058-8.854-7.052-8.854-7.052s-7.375,16.585,4.874,16.585c10.773,0,17.287-5.953,18.854-15.9Z" transform="translate(-292.795 -32.295)" fill="#5e3d49"/>
              <path id="パス_2191" data-name="パス 2191" d="M642.356,87.437h-6.8a2.435,2.435,0,0,1-2.3-3.235l2.567-7.388a2.436,2.436,0,0,1,2.3-1.636h6.805a2.436,2.436,0,0,1,2.3,3.235L644.657,85.8a2.436,2.436,0,0,1-2.3,1.636" transform="translate(-294.059 -34.918)" fill="#5e3d49"/>
              <path id="パス_2192" data-name="パス 2192" d="M646.059,80.781a12.306,12.306,0,0,1-1.356-.071l.1-.847a11.665,11.665,0,0,0,2.429,0A6.862,6.862,0,0,0,649.592,79l.447.726a7.649,7.649,0,0,1-2.7.986,10.833,10.833,0,0,1-1.277.071" transform="translate(-299.442 -36.692)" fill="#ff9d7c"/>
              <rect id="長方形_445" data-name="長方形 445" width="3.373" height="6.727" transform="translate(361.638 33.119)" fill="#5e3d49"/>
              <rect id="長方形_446" data-name="長方形 446" width="0.498" height="12.659" transform="matrix(0.096, -0.995, 0.995, 0.096, 352.82, 35.676)" fill="#f5d9d9"/>
              <path id="パス_2193" data-name="パス 2193" d="M686.354,71.048c-2.3,2.44-5.588,3.075-7.346,1.418s-1.318-4.977.981-7.417,5.588-3.075,7.346-1.418,1.319,4.977-.981,7.417" transform="translate(-314.875 -29.126)" fill="#ff9d7c"/>
              <path id="パス_2194" data-name="パス 2194" d="M685.209,70.055l-.69-.5a5.483,5.483,0,0,1,4.609-2.333l-.064.85.032-.425-.03.425a4.63,4.63,0,0,0-3.857,1.983" transform="translate(-317.935 -31.22)" fill="#29190f"/>
              <path id="パス_2195" data-name="パス 2195" d="M644.111,69.785c-.261-.4-.853-1.385-.724-1.956a.626.626,0,0,1,.3-.4A2.46,2.46,0,0,1,645.2,67.4l.237-1.456.841.137-.387,2.379-.458-.127a4.68,4.68,0,0,0-1.195-.188,5.092,5.092,0,0,0,.587,1.172Z" transform="translate(-298.822 -30.629)" fill="#29190f"/>
              <path id="パス_2196" data-name="パス 2196" d="M655.592,65.156c0,.7-.306,1.26-.684,1.26s-.684-.564-.684-1.26Z" transform="translate(-303.863 -30.263)" fill="#29190f"/>
              <path id="パス_2197" data-name="パス 2197" d="M683.819,82.638a3.544,3.544,0,0,1-.578-.044l.139-.841a4.6,4.6,0,0,0,1.653-.13l.228.822a6.019,6.019,0,0,1-1.442.194" transform="translate(-317.341 -37.911)" fill="#29190f"/>
              <path id="パス_2198" data-name="パス 2198" d="M648.867,61.92c0-.169.017-.337.037-.5.226-2.142,1.361-3.724,2.767-3.724,1.529,0,2.738,1.874,2.807,4.3,0,.074,0,.152,0,.226,0,.095,0,.185-.009.276a6.034,6.034,0,0,1-.1.966c-.32,1.891-1.365,3.247-2.643,3.289h-.062c-1.579,0-2.812-1.99-2.812-4.53,0-.1,0-.205.008-.308m2.725,4.3a.478.478,0,0,0,.078,0c.991,0,1.858-1.176,2.166-2.759a6.7,6.7,0,0,0,.115-1.241c0-2.17-1.044-4-2.281-4s-2.281,1.829-2.281,4c0,2.121,1,3.922,2.2,4" transform="translate(-301.372 -26.799)" fill="#f5d9d9"/>
              <rect id="長方形_447" data-name="長方形 447" width="0.498" height="2.478" transform="matrix(0.084, -0.996, 0.996, 0.084, 345.261, 34.933)" fill="#f5d9d9"/>
              <rect id="長方形_448" data-name="長方形 448" width="6.913" height="1.003" transform="translate(334.927 181.351) rotate(-86.664)" fill="#29190f"/>
              <rect id="長方形_449" data-name="長方形 449" width="1.003" height="10.819" transform="matrix(0.998, -0.067, 0.067, 0.998, 331.725, 93.399)" fill="#29190f"/>
              <path id="パス_2199" data-name="パス 2199" d="M699.966,101.975c.225-.021.45-.021.665-.021-.225,0-.44,0-.665.011Z" transform="translate(-325.109 -47.354)" fill="#29190f"/>
              <path id="パス_2200" data-name="パス 2200" d="M653.015,105.6l5.725,50.62,20.351-51.906-.761-.033c-.215,0-.429-.011-.654-.021l-18.217,46.471L654.334,105.4c-.183.021-.365.043-.547.075-.258.032-.515.075-.772.118" transform="translate(-303.302 -48.423)" fill="#29190f"/>
              <path id="パス_2201" data-name="パス 2201" d="M663.947,158.313l.965.911c.118-.118,11.4-12.041,18.035-22.967,5.522-9.093,7.935-25.23,8.663-31.052l-1.329-.129c-.74,5.769-3.174,21.756-8.471,30.494-6.562,10.8-17.745,22.624-17.863,22.742" transform="translate(-308.38 -48.805)" fill="#29190f"/>
              <path id="パス_2202" data-name="パス 2202" d="M639.24,109.214c.783,22.677,8.2,41.87,12.673,51.5.172.354.268.579.3.665l.5-.193.8-.043c-.011-.171-.032-.193-.407-.986-4.439-9.575-11.827-28.7-12.556-51.274-.45.107-.89.215-1.319.333" transform="translate(-296.904 -50.571)" fill="#29190f"/>
              <path id="パス_2203" data-name="パス 2203" d="M662.335,110.4l-2.436,7.459.736,4.56v17.175l1.586,15.336,6.573-16.708-5.272-15.762,3.006-4.88Z" transform="translate(-306.5 -51.276)" fill="#29190f"/>
              <rect id="長方形_450" data-name="長方形 450" width="1.333" height="7.391" transform="matrix(0.316, -0.949, 0.949, 0.316, 372.058, 71.862)" fill="#29190f"/>
              <rect id="長方形_451" data-name="長方形 451" width="5.172" height="1.333" transform="translate(344.161 72.922) rotate(-21.147)" fill="#29190f"/>
              <path id="パス_2204" data-name="パス 2204" d="M681.114,92.81l-16.667,9.42L669.213,111l15.256-11.566Z" transform="translate(-308.612 -43.107)" fill="#f3ecf1"/>
              <path id="パス_2205" data-name="パス 2205" d="M659.679,104.456l-2-6.852-3.5,5.051,2.933,10.326Z" transform="translate(-303.844 -45.334)" fill="#f3ecf1"/>
              <rect id="長方形_452" data-name="長方形 452" width="18.764" height="1.162" transform="translate(379.899 132.989)" fill="#29190f"/>
              <path id="パス_2206" data-name="パス 2206" d="M693.534,284.075c-1.162-.119-28.581-3-38.607-11.143a60.7,60.7,0,0,0-9.252-6.179c-.438-.245-.86-.467-1.282-.677a69.326,69.326,0,0,0-21.533-7.027l.111-1a70.442,70.442,0,0,1,21.877,7.13c.43.215.865.444,1.312.695a61.594,61.594,0,0,1,9.4,6.278c9.8,7.952,37.8,10.895,38.077,10.924Z" transform="translate(-289.296 -119.856)" fill="#29190f"/>
              <path id="パス_2207" data-name="パス 2207" d="M542.863,337.487l-7.355-56.119a20.14,20.14,0,0,1,19.981-22.662v1A19.135,19.135,0,0,0,536.5,281.241l7.355,56.116Z" transform="translate(-248.651 -120.16)" fill="#29190f"/>
              <path id="パス_2208" data-name="パス 2208" d="M692.444,195.083l-1.016,20.287-9.543-1.706.827-19.232Z" transform="translate(-316.711 -90.307)" fill="#f3ecf1"/>
              <path id="パス_2209" data-name="パス 2209" d="M759.7,210.16h0a14.26,14.26,0,0,0-14.511-14.006l-51.153-1.871L692.8,216.059l52.885,8.612A14.26,14.26,0,0,0,759.7,210.16" transform="translate(-321.783 -90.238)" fill="#789c9e"/>
              <path id="パス_2210" data-name="パス 2210" d="M557.421,152.708l15.63,12.973,5.2-8.184-14.725-12.4Z" transform="translate(-258.902 -67.394)" fill="#f3ecf1"/>
              <path id="パス_2211" data-name="パス 2211" d="M525.7,191.953h0c-5.706-5.429-5.33-16.725.1-22.431L541.8,151.974l17.664,14.69-13.6,24.787a14.261,14.261,0,0,1-20.162.5" transform="translate(-242.253 -70.587)" fill="#789c9e"/>
              <path id="パス_2212" data-name="パス 2212" d="M730.285,195.423c-1.872-.035-45.868-.854-46.917-.924l.067-1c1.024.069,46.41.913,46.868.922Z" transform="translate(-317.4 -89.873)" fill="#29190f"/>
              <rect id="長方形_453" data-name="長方形 453" width="1.003" height="12.85" transform="translate(391.048 94.612) rotate(-36.897)" fill="#29190f"/>
              <rect id="長方形_454" data-name="長方形 454" width="26.24" height="1.003" transform="translate(303.657 119.734) rotate(-60.027)" fill="#29190f"/>
              <rect id="長方形_455" data-name="長方形 455" width="36.242" height="1.12" transform="translate(299.36 242.453)" fill="#5a7780"/>
              <path id="パス_2213" data-name="パス 2213" d="M654.4,168.455a40.518,40.518,0,0,1,9.7,8.173c2.971,3.769,7.922-.605,4.981-4.337a46.994,46.994,0,0,0-10.975-9.88c-4.14-2.376-7.865,3.659-3.709,6.044" transform="translate(-303.101 -75.182)" fill="#ff9d7c"/>
              <path id="パス_2214" data-name="パス 2214" d="M662.083,173.074s15.106,5.2,13.76,17.2-5.238,13.539-9.124,14.733c-1.5.461-8.234,1.007-10.555-8.775s5.919-23.157,5.919-23.157" transform="translate(-304.573 -80.387)" fill="#ff9d7c"/>
              <path id="パス_2215" data-name="パス 2215" d="M638.9,173.642a40.516,40.516,0,0,1,12.331,2.98c4.342,2.046,6.818-4.079,2.52-6.1a46.983,46.983,0,0,0-14.232-3.939c-4.765-.277-5.4,6.786-.619,7.064" transform="translate(-295.221 -77.366)" fill="#ff9d7c"/>
              <path id="パス_2216" data-name="パス 2216" d="M659.1,199.316c.774-2.011-.337-3.749-2.074-4.677a44,44,0,0,0-10.249-3.668c-.846.962-.943,2.988-.8,4.177A9.982,9.982,0,0,0,647,198.567a39.083,39.083,0,0,1,7.426,2.823c1.742.931,4.034-.4,4.677-2.074" transform="translate(-300.009 -88.699)" fill="#ff9d7c"/>
              <path id="パス_2217" data-name="パス 2217" d="M637.944,171.879A2.241,2.241,0,0,1,636.7,169.6a2.2,2.2,0,0,1,2.335-2.034,2.223,2.223,0,0,1,1.89,2.454,2.313,2.313,0,0,1-.767,1.518,2.049,2.049,0,0,1-1.569.517,2.011,2.011,0,0,1-.645-.176m1.445-3.508a1.3,1.3,0,0,0-.423-.115,1.5,1.5,0,0,0-1.578,1.412,1.523,1.523,0,0,0,1.269,1.7,1.36,1.36,0,0,0,1.043-.348,1.625,1.625,0,0,0,.536-1.065,1.549,1.549,0,0,0-.847-1.581" transform="translate(-295.719 -77.824)" fill="#29190f"/>
              <path id="パス_2218" data-name="パス 2218" d="M636.208,185.535a40.516,40.516,0,0,1,12.331,2.98c4.342,2.046,6.818-4.079,2.52-6.1a46.982,46.982,0,0,0-14.232-3.939c-4.765-.277-5.4,6.786-.619,7.064" transform="translate(-293.969 -82.89)" fill="#ff9d7c"/>
              <path id="パス_2219" data-name="パス 2219" d="M635.25,183.772A2.241,2.241,0,0,1,634,181.494a2.2,2.2,0,0,1,2.335-2.034,2.223,2.223,0,0,1,1.89,2.454,2.315,2.315,0,0,1-.766,1.518,2.05,2.05,0,0,1-1.569.517,2,2,0,0,1-.645-.176m1.445-3.508a1.3,1.3,0,0,0-.423-.115,1.5,1.5,0,0,0-1.578,1.412,1.523,1.523,0,0,0,1.269,1.7,1.36,1.36,0,0,0,1.043-.348,1.624,1.624,0,0,0,.536-1.065,1.549,1.549,0,0,0-.847-1.581" transform="translate(-294.467 -83.348)" fill="#29190f"/>
              <path id="パス_2220" data-name="パス 2220" d="M645.177,207.9a3.581,3.581,0,0,0,2.4,3.386,26.262,26.262,0,0,1,3.911,1.666c3.9,2.148,6.741-4.139,2.876-6.265a37.987,37.987,0,0,0-8.074-3.012,8.064,8.064,0,0,0-1.113,4.225" transform="translate(-299.662 -94.601)" fill="#ff9d7c"/>
              <path id="パス_2221" data-name="パス 2221" d="M647.268,191.634a71.142,71.142,0,0,1,9.3,3.12.444.444,0,0,0,.584-.227.454.454,0,0,0-.227-.583,72.621,72.621,0,0,0-9.838-3.273c.05.321.115.642.185.963" transform="translate(-300.547 -88.56)" fill="#29190f"/>
              <path id="パス_2222" data-name="パス 2222" d="M658.687,182.685a.445.445,0,0,0-.269-.565c-.068-.025-5.445-1.863-10.693-3.262-.174.257-.279.569-.44.834,5.307,1.4,10.767,3.237,10.837,3.261a.442.442,0,0,0,.565-.268" transform="translate(-300.641 -83.073)" fill="#29190f"/>
              <path id="パス_2223" data-name="パス 2223" d="M647.621,203.823a38.023,38.023,0,0,1,8.016,3.122.33.33,0,0,0,.46-.125.337.337,0,0,0-.124-.46,39.278,39.278,0,0,0-8.5-3.274c.056.244.108.489.153.737" transform="translate(-300.726 -94.326)" fill="#29190f"/>
              <path id="パス_2224" data-name="パス 2224" d="M669.061,176.812a.44.44,0,0,1-.125-.087,31.964,31.964,0,0,0-5.7-4.4,49.616,49.616,0,0,0-9.9-3.69.443.443,0,0,1,.215-.858,49.974,49.974,0,0,1,10.115,3.776,32.326,32.326,0,0,1,5.888,4.548.442.442,0,0,1-.5.717" transform="translate(-303.297 -77.918)" fill="#29190f"/>
              <path id="パス_2225" data-name="パス 2225" d="M569.031,107.776a40.546,40.546,0,0,0-3.865,12.083c-.509,4.772-7.029,3.7-6.525-1.021a47.013,47.013,0,0,1,4.033-14.206c2.241-4.215,8.606-1.088,6.357,3.144" transform="translate(-259.456 -47.67)" fill="#ff9d7c"/>
              <path id="パス_2226" data-name="パス 2226" d="M563.066,117.484s-10.023,12.441-2.5,21.883,11.64,8.675,15.565,7.617c1.515-.408,7.508-3.53,4.266-13.046s-17.336-16.454-17.336-16.454" transform="translate(-259.064 -54.567)" fill="#ff9d7c"/>
              <path id="パス_2227" data-name="パス 2227" d="M580.155,103.867a40.536,40.536,0,0,0-8.854,9.086c-2.586,4.043-7.943.175-5.383-3.827a46.992,46.992,0,0,1,9.953-10.909c3.886-2.771,8.186,2.869,4.284,5.651" transform="translate(-262.535 -45.271)" fill="#ff9d7c"/>
              <path id="パス_2228" data-name="パス 2228" d="M581.763,135.586c-1.726-1.291-1.71-3.353-.733-5.063a43.946,43.946,0,0,1,6.724-8.559c1.229.365,2.388,2.028,2.9,3.11a9.96,9.96,0,0,1,.958,3.438,39.007,39.007,0,0,0-4.784,6.342c-.979,1.715-3.631,1.8-5.063.733" transform="translate(-269.559 -56.647)" fill="#ff9d7c"/>
              <path id="パス_2229" data-name="パス 2229" d="M589.715,101.426a2.241,2.241,0,0,0-.159-2.592,2.2,2.2,0,0,0-3.06-.479,2.223,2.223,0,0,0-.294,3.083,2.311,2.311,0,0,0,1.458.877,2.046,2.046,0,0,0,1.6-.4,2,2,0,0,0,.453-.492m-3.091-2.2a1.31,1.31,0,0,1,.3-.322,1.5,1.5,0,0,1,2.088.356,1.523,1.523,0,0,1-.172,2.112,1.366,1.366,0,0,1-1.068.261,1.627,1.627,0,0,1-1.02-.616,1.55,1.55,0,0,1-.125-1.789" transform="translate(-272.045 -45.485)" fill="#29190f"/>
              <path id="パス_2230" data-name="パス 2230" d="M588.765,112.5a40.534,40.534,0,0,0-8.854,9.086c-2.586,4.043-7.943.175-5.383-3.827a46.994,46.994,0,0,1,9.953-10.909c3.887-2.771,8.186,2.869,4.284,5.651" transform="translate(-266.534 -49.282)" fill="#ff9d7c"/>
              <path id="パス_2231" data-name="パス 2231" d="M598.326,110.061a2.242,2.242,0,0,0-.159-2.591,2.2,2.2,0,0,0-3.06-.479,2.223,2.223,0,0,0-.294,3.084,2.316,2.316,0,0,0,1.457.877,2.049,2.049,0,0,0,1.6-.4,2.021,2.021,0,0,0,.453-.492m-3.091-2.2a1.314,1.314,0,0,1,.3-.322,1.5,1.5,0,0,1,2.088.356,1.523,1.523,0,0,1-.173,2.111,1.36,1.36,0,0,1-1.067.261,1.622,1.622,0,0,1-1.021-.617,1.549,1.549,0,0,1-.125-1.789" transform="translate(-276.044 -49.496)" fill="#29190f"/>
              <path id="パス_2232" data-name="パス 2232" d="M599.4,135.563a3.58,3.58,0,0,1-.229,4.143,26.214,26.214,0,0,0-2.424,3.493c-2.163,3.9-7.91.084-5.769-3.773a37.977,37.977,0,0,1,5.232-6.847,8.062,8.062,0,0,1,3.191,2.985" transform="translate(-274.268 -61.578)" fill="#ff9d7c"/>
              <path id="パス_2233" data-name="パス 2233" d="M588.956,122.39a71.177,71.177,0,0,0-6.211,7.589.444.444,0,0,1-.615.118.454.454,0,0,1-.118-.614,72.622,72.622,0,0,1,6.587-8.007c.129.3.245.6.357.914" transform="translate(-270.29 -56.421)" fill="#29190f"/>
              <path id="パス_2234" data-name="パス 2234" d="M573.551,121.094a.446.446,0,0,1-.073-.622c.045-.057,3.619-4.475,7.316-8.452.284.124.539.333.816.471-3.748,4.01-7.393,8.471-7.439,8.529a.442.442,0,0,1-.621.074" transform="translate(-266.316 -52.029)" fill="#29190f"/>
              <path id="パス_2235" data-name="パス 2235" d="M596.15,132.9a38.029,38.029,0,0,0-5.124,6.91.331.331,0,0,1-.456.139.335.335,0,0,1-.139-.455,39.2,39.2,0,0,1,5.458-7.3c.081.236.168.472.262.706" transform="translate(-274.215 -61.398)" fill="#29190f"/>
              <path id="パス_2236" data-name="パス 2236" d="M560.076,121.585a.449.449,0,0,0,.06-.14,31.967,31.967,0,0,1,2.48-6.762,49.618,49.618,0,0,1,6.417-8.392.443.443,0,0,0-.639-.612,49.945,49.945,0,0,0-6.554,8.58,32.3,32.3,0,0,0-2.565,6.984.442.442,0,0,0,.8.343" transform="translate(-259.758 -49.02)" fill="#29190f"/>
              <path id="パス_2237" data-name="パス 2237" d="M773.188,280.723a12.02,12.02,0,0,1-11.8,9.749H706.657l7.354-33.331a12.023,12.023,0,0,1,10.455-9.667l37.273-4.22a12.016,12.016,0,0,0,9.575-6.936l.554-1.205Z" transform="translate(-328.217 -109.202)" fill="#c27a58"/>
            </g>
          </g>
        </g>
      </g>
    </g>
  </g>
</svg>
