<svg xmlns="http://www.w3.org/2000/svg" width="369.891" height="75.728" viewBox="0 0 369.891 75.728">
  <g id="sp_worries_title" transform="translate(-10.554 -4614.204)">
    <path id="パス_3714" data-name="パス 3714" d="M-119.84-18.5h17.024v3.04H-119.84Zm6.112-8.8h4v4.832h-4ZM-125.44-1.184q1.888-.224,4.3-.576t5.088-.752q2.672-.4,5.3-.816l.224,3.616q-2.432.384-4.928.8t-4.816.784q-2.32.368-4.24.688ZM-110.784-11.3a14.9,14.9,0,0,0,5.04,7.072,20.849,20.849,0,0,0,9.3,3.68,7.326,7.326,0,0,0-.88,1.008q-.464.624-.88,1.28a11.108,11.108,0,0,0-.672,1.2A23.221,23.221,0,0,1-106.048.32a17.052,17.052,0,0,1-4.992-4.432,24.33,24.33,0,0,1-3.36-6.352Zm9.856.576,3.04,2.336q-1.28.992-2.768,1.984t-2.976,1.856q-1.488.864-2.768,1.536l-2.56-2.176q1.248-.672,2.72-1.6t2.88-1.968Q-101.952-9.792-100.928-10.72ZM-120-24.224h19.616V-9.536H-120V-12.9h15.68v-7.968H-120Zm-2.048,0h3.968V-.576l-3.968.288Zm50.016,1.152q-.768.544-1.5,1.136t-1.28,1.072q-.8.608-1.9,1.488t-2.3,1.824q-1.2.944-2.32,1.84t-1.92,1.6a6.188,6.188,0,0,0-1.12,1.2.776.776,0,0,0,.016.912A7.564,7.564,0,0,0-83.2-10.784q.7.608,1.808,1.5t2.4,1.968Q-77.7-6.24-76.336-5.1t2.624,2.24q1.264,1.1,2.256,2.064L-75.2,2.624q-1.344-1.5-2.784-2.976-.736-.736-1.9-1.808t-2.528-2.256l-2.7-2.352q-1.344-1.168-2.432-2.1a7.06,7.06,0,0,1-2.064-2.464,2.483,2.483,0,0,1,.128-2.224A8.705,8.705,0,0,1-87.3-15.968q.96-.736,2.176-1.744t2.5-2.08q1.28-1.072,2.432-2.08t1.952-1.776q.7-.7,1.408-1.44a9.122,9.122,0,0,0,1.056-1.28Zm20.384-2.3q-.128.992-.24,2.144t-.176,2.112q-.032,1.312-.112,3.184t-.128,3.92q-.048,2.048-.1,4.032t-.048,3.456a4.752,4.752,0,0,0,.592,2.544A3.287,3.287,0,0,0-50.272-2.64a5.946,5.946,0,0,0,2.24.4,11.7,11.7,0,0,0,3.616-.528A11.982,11.982,0,0,0-41.44-4.192a12.891,12.891,0,0,0,2.416-2.08,20.578,20.578,0,0,0,1.936-2.5l2.912,3.52a17.3,17.3,0,0,1-2.016,2.432,17.464,17.464,0,0,1-2.96,2.4A15.87,15.87,0,0,1-43.1,1.408a16.487,16.487,0,0,1-4.96.7,11.685,11.685,0,0,1-4.56-.816,6.371,6.371,0,0,1-3.008-2.528A8.239,8.239,0,0,1-56.7-5.664q0-1.312.032-2.992t.1-3.5q.064-1.824.1-3.568t.064-3.152q.032-1.408.032-2.24,0-1.152-.1-2.256a14.689,14.689,0,0,0-.32-2.064Zm35.3-.16q-.192.64-.384,1.568t-.288,1.44q-.224,1.088-.56,2.656t-.736,3.328q-.4,1.76-.816,3.36-.416,1.7-1.024,3.664t-1.3,4q-.688,2.032-1.392,3.872t-1.376,3.28l-4.448-1.5q.7-1.216,1.5-2.96t1.552-3.76q.752-2.016,1.392-4t1.088-3.68q.32-1.12.608-2.3t.512-2.3q.224-1.12.4-2.1t.272-1.712q.1-.9.128-1.792a9.86,9.86,0,0,0-.032-1.44Zm-8.16,4.768q1.952,0,4.064-.192t4.256-.544q2.144-.352,4.256-.832v4q-1.984.448-4.224.768t-4.416.5q-2.176.176-4,.176-1.152,0-2.08-.048t-1.792-.08l-.1-4q1.248.128,2.144.192T-24.512-20.768Zm10.048,4.9Q-13.12-16-11.488-16.1t3.168-.1q1.376,0,2.8.064t2.832.224l-.1,3.84q-1.184-.16-2.608-.272t-2.9-.112q-1.632,0-3.152.08t-3.024.272Zm1.728,8.064a13.955,13.955,0,0,0-.32,1.392,7.336,7.336,0,0,0-.128,1.264,2.117,2.117,0,0,0,.224.96,2.122,2.122,0,0,0,.7.784,3.781,3.781,0,0,0,1.328.528A9.859,9.859,0,0,0-8.8-2.688a30.868,30.868,0,0,0,3.28-.176q1.648-.176,3.376-.5L-2.3.736q-1.344.16-2.976.3t-3.552.144a11.718,11.718,0,0,1-6.16-1.328A4.2,4.2,0,0,1-17.12-3.9a13.051,13.051,0,0,1,.192-2.208q.192-1.12.384-2.08ZM8.8-22.88a12.146,12.146,0,0,0-.208,1.312q-.08.736-.128,1.44t-.048,1.152Q8.384-17.92,8.4-16.8t.064,2.288q.048,1.168.144,2.32a30.771,30.771,0,0,0,.64,4.064,8.188,8.188,0,0,0,1.088,2.736,2,2,0,0,0,1.7.976A1.465,1.465,0,0,0,13.1-5.024a6.289,6.289,0,0,0,.96-1.584,18.8,18.8,0,0,0,.768-2.064q.336-1.088.592-2.048l3.2,3.9a25.281,25.281,0,0,1-2.1,4.432,7.518,7.518,0,0,1-2.16,2.368A4.411,4.411,0,0,1,11.936.7,5.415,5.415,0,0,1,8.656-.448a8.753,8.753,0,0,1-2.64-3.728A24.611,24.611,0,0,1,4.48-11.04q-.16-1.472-.24-3.1t-.1-3.1q-.016-1.472-.016-2.432,0-.672-.064-1.6a16.353,16.353,0,0,0-.192-1.664Zm16,.736a15.9,15.9,0,0,1,1.728,2.656,32.581,32.581,0,0,1,1.536,3.36q.7,1.792,1.248,3.664t.88,3.648a27.09,27.09,0,0,1,.432,3.248L26.4-3.936q-.16-1.952-.576-4.256a41.843,41.843,0,0,0-1.12-4.64,32.365,32.365,0,0,0-1.68-4.416,15.3,15.3,0,0,0-2.288-3.584Zm26.144-1.632q-.224.32-.5.72t-.528.784q-.576.864-1.264,2t-1.424,2.4q-.736,1.264-1.424,2.512t-1.3,2.3a6.964,6.964,0,0,1,1.824-.736,7.885,7.885,0,0,1,1.856-.224,3.763,3.763,0,0,1,2.832,1.072A4.588,4.588,0,0,1,52.16-9.856q.032.7.032,1.7t.016,1.984q.016.992.08,1.664a1.713,1.713,0,0,0,.688,1.328,2.427,2.427,0,0,0,1.392.4,3.141,3.141,0,0,0,1.872-.608,5.85,5.85,0,0,0,1.52-1.68A12.865,12.865,0,0,0,58.928-7.5a25.71,25.71,0,0,0,.848-2.832L63.232-7.52A20.316,20.316,0,0,1,61.12-2.736,9.645,9.645,0,0,1,58,.464,8.026,8.026,0,0,1,53.7,1.6,6.264,6.264,0,0,1,50.752.976a4.226,4.226,0,0,1-1.76-1.632,4.888,4.888,0,0,1-.64-2.192q-.064-.864-.08-1.92T48.24-6.832q-.016-1.008-.08-1.648a2,2,0,0,0-.544-1.312,1.817,1.817,0,0,0-1.344-.48,3.462,3.462,0,0,0-2.016.672,7.39,7.39,0,0,0-1.744,1.76,13.09,13.09,0,0,0-1.36,2.4q-.32.7-.672,1.664t-.672,1.984Q39.488-.768,39.2.144T38.72,1.7L34.208.16Q34.816-1.44,35.7-3.5T37.632-7.84q1.056-2.272,2.144-4.512t2.08-4.24q.992-2,1.776-3.488t1.2-2.256q.32-.64.736-1.44T46.4-25.6Zm27.744-1.408q-.192.672-.4,1.584t-.3,1.456q-.224,1.088-.56,2.656t-.72,3.312q-.384,1.744-.8,3.376-.448,1.664-1.04,3.648t-1.28,4Q72.9-3.136,72.192-1.28t-1.376,3.3l-4.48-1.5a27.146,27.146,0,0,0,1.52-2.976q.784-1.76,1.552-3.76t1.408-4q.64-2,1.088-3.664.288-1.152.576-2.336t.528-2.3q.24-1.12.416-2.1T73.7-22.3q.1-.9.128-1.792a10.422,10.422,0,0,0-.032-1.472Zm-8.16,4.8q1.952,0,4.064-.192t4.256-.56q2.144-.368,4.256-.848v4q-1.984.48-4.224.8t-4.416.5q-2.176.176-4,.176-1.152,0-2.08-.048t-1.792-.08l-.1-4q1.248.128,2.144.192T70.528-20.384Zm10.048,4.9q1.344-.16,2.976-.24t3.168-.08q1.376,0,2.8.064t2.832.224l-.1,3.84q-1.184-.16-2.608-.288t-2.9-.128q-1.664,0-3.168.08t-3.008.272ZM82.3-7.456a13.617,13.617,0,0,0-.32,1.408A7.479,7.479,0,0,0,81.856-4.8a2.187,2.187,0,0,0,.224.992,2.122,2.122,0,0,0,.7.784,3.6,3.6,0,0,0,1.328.512,10.728,10.728,0,0,0,2.128.176q1.6,0,3.264-.16t3.392-.48l-.16,4.064q-1.344.192-2.976.336t-3.552.144A11.6,11.6,0,0,1,80.048.224,4.205,4.205,0,0,1,77.92-3.52,14.409,14.409,0,0,1,78.1-5.76q.176-1.12.368-2.048Zm6.624-16.8q.416.576.88,1.376t.912,1.6q.448.8.736,1.408l-2.56,1.12q-.32-.672-.736-1.472t-.864-1.6a11.008,11.008,0,0,0-.9-1.376ZM92.7-25.7a13.1,13.1,0,0,1,.928,1.392q.48.816.944,1.6a13.584,13.584,0,0,1,.72,1.36l-2.528,1.088q-.512-1.024-1.216-2.272a19.829,19.829,0,0,0-1.376-2.144ZM101.7-7.936a4.93,4.93,0,0,1,2.624.7,5.469,5.469,0,0,1,1.856,1.872,4.954,4.954,0,0,1,.7,2.608,4.979,4.979,0,0,1-.7,2.592,5.424,5.424,0,0,1-1.856,1.888,4.93,4.93,0,0,1-2.624.7,4.979,4.979,0,0,1-2.592-.7A5.207,5.207,0,0,1,97.232-.16a5.068,5.068,0,0,1-.688-2.592,5.042,5.042,0,0,1,.688-2.608A5.247,5.247,0,0,1,99.1-7.232,4.979,4.979,0,0,1,101.7-7.936Zm.032,8.064a2.72,2.72,0,0,0,2.016-.848,2.8,2.8,0,0,0,.832-2.032,2.829,2.829,0,0,0-.384-1.456,2.86,2.86,0,0,0-1.04-1.04,2.77,2.77,0,0,0-1.424-.384,2.744,2.744,0,0,0-1.44.384,3.033,3.033,0,0,0-1.04,1.04,2.742,2.742,0,0,0-.4,1.456,2.742,2.742,0,0,0,.4,1.456,3.033,3.033,0,0,0,1.04,1.04A2.744,2.744,0,0,0,101.728.128ZM-134.624,20.56q-.064.512-.1,1.072t-.064,1.1q-.032.448-.016,1.36t.016,2.048v2.3q0,1.168.016,2.16t.016,1.536q0,2.848-.208,5.168a17.522,17.522,0,0,1-.9,4.272,11.635,11.635,0,0,1-2.08,3.616,16.474,16.474,0,0,1-3.792,3.2l-3.68-2.912a12.828,12.828,0,0,0,1.984-1.1,8.476,8.476,0,0,0,1.728-1.456,9.352,9.352,0,0,0,1.5-2.016,10.34,10.34,0,0,0,.912-2.336,15.626,15.626,0,0,0,.448-2.848q.112-1.568.112-3.616V29.936q0-1.312-.032-2.72t-.064-2.608q-.032-1.2-.1-1.84a9.447,9.447,0,0,0-.144-1.216q-.112-.608-.208-.992Zm-12.608,6.24q.768.1,1.568.176t1.616.128q.816.048,1.648.048,2.08,0,4.352-.1t4.384-.3q2.112-.208,3.68-.5l-.032,4.16q-1.5.16-3.552.3t-4.3.224q-2.256.08-4.432.08-.672,0-1.536-.032l-1.728-.064-1.664-.064Zm-3.3-5.7q-.192.576-.416,1.328T-151.3,23.7q-.288,1.312-.608,3.152t-.544,3.824a34.644,34.644,0,0,0-.224,3.888,15.991,15.991,0,0,0,.32,3.376q.32-.736.736-1.776t.8-1.936l1.984,1.28q-.448,1.376-.88,2.832t-.752,2.752q-.32,1.3-.544,2.224a5.134,5.134,0,0,0-.144.816q-.048.464-.048.752,0,.224.016.608t.048.7l-3.552.352q-.352-.96-.784-2.64a36.861,36.861,0,0,1-.736-3.712,27.114,27.114,0,0,1-.3-4.016q0-2.624.176-5.056t.432-4.432q.256-2,.416-3.28a9.846,9.846,0,0,0,.16-1.424q.032-.752.064-1.36Zm47.776,7.2q-.768.448-1.552.848t-1.648.848q-.992.48-2.288,1.136t-2.736,1.44q-1.44.784-2.912,1.712a15.882,15.882,0,0,0-3.216,2.72,4.609,4.609,0,0,0-1.232,3.1,2.848,2.848,0,0,0,1.664,2.608,10.782,10.782,0,0,0,5.024.912q1.632,0,3.52-.144t3.7-.416q1.808-.272,3.216-.592l-.064,4.576q-1.344.256-2.928.448t-3.408.288q-1.824.1-3.936.1a23.972,23.972,0,0,1-4.416-.384,12,12,0,0,1-3.568-1.216,6.144,6.144,0,0,1-2.368-2.24,6.653,6.653,0,0,1-.848-3.488,7.637,7.637,0,0,1,.9-3.68,11.693,11.693,0,0,1,2.432-3.072A27.471,27.471,0,0,1-116,31.152q1.536-.992,3.056-1.84t2.88-1.568q1.36-.72,2.32-1.3.9-.512,1.616-.96a11.44,11.44,0,0,0,1.328-.96Zm-15.1-7.328q.768,2.112,1.648,4.08t1.76,3.664q.88,1.7,1.616,3.008l-3.616,2.144q-.864-1.472-1.792-3.3t-1.84-3.856q-.912-2.032-1.808-4.112Zm15.456-.48q.416.576.9,1.376t.912,1.6q.432.8.752,1.408l-2.592,1.088q-.48-.992-1.168-2.256a24.607,24.607,0,0,0-1.328-2.192Zm3.808-1.472q.416.608.9,1.424t.944,1.6q.464.784.752,1.36L-98.56,24.5q-.48-1.024-1.2-2.272a21.51,21.51,0,0,0-1.392-2.144Zm19.424,23.968a21.91,21.91,0,0,0,3.872-.928A11.286,11.286,0,0,0-72.24,40.5a6.612,6.612,0,0,0,2-2.352,7.183,7.183,0,0,0,.7-3.28,4.706,4.706,0,0,0-.352-1.792,4.674,4.674,0,0,0-1.04-1.552,4.843,4.843,0,0,0-1.648-1.072,5.819,5.819,0,0,0-2.176-.384,10.766,10.766,0,0,0-5.664,1.584,23.337,23.337,0,0,0-4.96,4.08V31.184a17.655,17.655,0,0,1,5.808-3.776A15.8,15.8,0,0,1-74.08,26.32a9.188,9.188,0,0,1,4.464,1.088,8.3,8.3,0,0,1,3.184,3.04,8.527,8.527,0,0,1,1.184,4.512,11.889,11.889,0,0,1-.768,4.384,9.719,9.719,0,0,1-2.272,3.424,12.791,12.791,0,0,1-3.744,2.48,24.857,24.857,0,0,1-5.216,1.616ZM-86.432,29.1q-.512.032-1.312.144t-1.712.224q-.912.112-1.84.24t-1.728.224l-.416-4.1q.7.032,1.328.016t1.456-.048q.768-.064,1.84-.176t2.176-.272q1.1-.16,2.064-.352a11.522,11.522,0,0,0,1.5-.384l1.28,1.632q-.288.384-.656.96t-.752,1.168q-.384.592-.672,1.04L-85.76,35.44q-.512.736-1.264,1.856t-1.584,2.368q-.832,1.248-1.632,2.4t-1.44,2.016l-2.528-3.488,1.408-1.776q.8-1.008,1.648-2.144t1.68-2.272q.832-1.136,1.552-2.144t1.2-1.744l.064-.832Zm-.384-6.176V21.5a8.485,8.485,0,0,0-.128-1.456l4.672.16q-.16.736-.384,2.128t-.432,3.184q-.208,1.792-.384,3.76t-.288,3.92q-.112,1.952-.112,3.648,0,1.312.016,2.656t.048,2.752q.032,1.408.128,2.912.032.416.1,1.168t.128,1.3h-4.416q.064-.544.08-1.264t.016-1.1q.032-1.568.064-2.912t.048-2.848q.016-1.5.08-3.488.032-.736.1-1.872t.144-2.5q.08-1.36.176-2.768t.176-2.64q.08-1.232.128-2.112T-86.816,22.928Zm38.08-2.208q-.16.608-.3,1.328t-.272,1.328q-.128.7-.32,1.584T-50,26.72q-.176.88-.368,1.712-.32,1.376-.8,3.2t-1.12,3.92q-.64,2.1-1.44,4.208t-1.7,4.112a27.638,27.638,0,0,1-1.92,3.6l-4.16-1.664a24.967,24.967,0,0,0,2.1-3.376q.976-1.872,1.776-3.856t1.424-3.9q.624-1.92,1.072-3.584t.7-2.848q.448-2.176.7-4.192A26.527,26.527,0,0,0-53.5,20.24Zm11.008,3.008A19.312,19.312,0,0,1-36.144,26.3q.816,1.552,1.6,3.28t1.44,3.328q.656,1.6,1.008,2.72L-36.16,37.52q-.32-1.344-.88-2.992t-1.28-3.36q-.72-1.712-1.536-3.248a14.58,14.58,0,0,0-1.68-2.56Zm-24,3.552q.864.064,1.7.048t1.728-.048q.768-.032,1.9-.112t2.4-.176q1.264-.1,2.544-.208t2.368-.176q1.088-.064,1.792-.064a7.486,7.486,0,0,1,2.992.56,4.255,4.255,0,0,1,2.048,1.9,7.492,7.492,0,0,1,.752,3.648q0,1.888-.176,4.1a39.239,39.239,0,0,1-.56,4.224A13.2,13.2,0,0,1-43.328,44.4a4.519,4.519,0,0,1-2.1,2.3,7.2,7.2,0,0,1-3.152.64,14.377,14.377,0,0,1-1.968-.144q-1.04-.144-1.872-.3l-.7-4.224q.64.16,1.392.32t1.44.256a8.393,8.393,0,0,0,1.1.1,3.109,3.109,0,0,0,1.408-.3,2.275,2.275,0,0,0,.992-1.072,9.618,9.618,0,0,0,.72-2.4q.272-1.472.416-3.184t.144-3.28a3.9,3.9,0,0,0-.352-1.888A1.739,1.739,0,0,0-46.9,30.4a6,6,0,0,0-1.712-.208q-.7,0-1.968.112t-2.672.256q-1.408.144-2.64.3t-1.9.224q-.672.128-1.744.272t-1.808.272Zm40.9-7.04q1.152.352,2.88.736t3.616.752q1.888.368,3.568.624t2.736.384l-.96,3.9q-.96-.128-2.32-.368t-2.88-.528q-1.52-.288-2.992-.592t-2.688-.592q-1.216-.288-1.984-.48Zm.192,6.432q-.16.64-.336,1.648t-.336,2.1q-.16,1.088-.3,2.08t-.24,1.664a15.7,15.7,0,0,1,4.56-2.3,16.451,16.451,0,0,1,4.88-.736,10.36,10.36,0,0,1,4.8,1.024,7.533,7.533,0,0,1,3.024,2.688,6.7,6.7,0,0,1,1.04,3.616A8.889,8.889,0,0,1-4.48,42.48a7.967,7.967,0,0,1-3.04,3.168A14.921,14.921,0,0,1-13.056,47.5a35.827,35.827,0,0,1-8.416.128l-1.216-4.192a30.247,30.247,0,0,0,8.064.176A9.847,9.847,0,0,0-9.68,41.76,4.27,4.27,0,0,0-8,38.352a3.05,3.05,0,0,0-.608-1.872,4.025,4.025,0,0,0-1.7-1.28,6.226,6.226,0,0,0-2.464-.464,13.018,13.018,0,0,0-5.04.976,9.731,9.731,0,0,0-3.856,2.8,9.82,9.82,0,0,0-.688.944,8.285,8.285,0,0,0-.5.912l-3.68-.928q.192-.928.384-2.192t.384-2.72q.192-1.456.352-2.928t.288-2.912q.128-1.44.192-2.624ZM3.136,25.04q1.024.128,2.192.176t2.064.048a36.632,36.632,0,0,0,4.016-.224q2.032-.224,3.92-.592a32.139,32.139,0,0,0,3.424-.848l.128,3.712q-1.376.352-3.28.72t-4.016.608a36.826,36.826,0,0,1-4.16.24q-.96,0-1.952-.032t-2.048-.1Zm12.448-4.8q-.192.8-.512,2.08t-.72,2.688q-.4,1.408-.848,2.784a43.234,43.234,0,0,1-1.856,4.9q-1.152,2.592-2.5,5.056a42.346,42.346,0,0,1-2.72,4.384L2.56,40.144A34.613,34.613,0,0,0,4.7,37.168q1.056-1.632,1.984-3.36t1.68-3.344a30.061,30.061,0,0,0,1.2-2.928,31.356,31.356,0,0,0,1.072-3.792,21.812,21.812,0,0,0,.528-3.952Zm7.488,9.952q-.064,1.024-.048,2.032t.048,2.064q.032.736.08,1.872t.112,2.4q.064,1.264.112,2.4t.048,1.808a5.827,5.827,0,0,1-.608,2.672,4.4,4.4,0,0,1-1.936,1.9,7.82,7.82,0,0,1-3.632.7,10.268,10.268,0,0,1-3.584-.592A5.863,5.863,0,0,1,11.1,45.7a4.459,4.459,0,0,1-.96-2.928,5.038,5.038,0,0,1,.832-2.832,5.549,5.549,0,0,1,2.416-1.984,9.2,9.2,0,0,1,3.824-.72,16.41,16.41,0,0,1,5.184.784,18.64,18.64,0,0,1,4.256,2,24.978,24.978,0,0,1,3.232,2.432l-2.144,3.424q-.864-.768-1.968-1.728a18.289,18.289,0,0,0-2.464-1.792,14.885,14.885,0,0,0-2.944-1.376,10.423,10.423,0,0,0-3.408-.544,3.981,3.981,0,0,0-2.208.544,1.628,1.628,0,0,0-.832,1.408,1.717,1.717,0,0,0,.72,1.44,3.313,3.313,0,0,0,2.032.544A3.465,3.465,0,0,0,18.4,44a1.981,1.981,0,0,0,.9-1.056,4.426,4.426,0,0,0,.256-1.552q0-.736-.064-2.08t-.144-2.976q-.08-1.632-.144-3.264t-.128-2.88Zm5.5,1.7a21.969,21.969,0,0,0-2.3-1.632q-1.376-.864-2.832-1.648T20.9,27.344l2.048-3.168q.864.384,1.968.944t2.24,1.168q1.136.608,2.112,1.2t1.584,1.04ZM40.8,23.12a12.147,12.147,0,0,0-.208,1.312q-.08.736-.128,1.44t-.048,1.152Q40.384,28.08,40.4,29.2t.064,2.288q.048,1.168.144,2.32a30.771,30.771,0,0,0,.64,4.064,8.188,8.188,0,0,0,1.088,2.736,2,2,0,0,0,1.7.976,1.465,1.465,0,0,0,1.072-.608,6.289,6.289,0,0,0,.96-1.584,18.806,18.806,0,0,0,.768-2.064q.336-1.088.592-2.048l3.2,3.9a25.281,25.281,0,0,1-2.1,4.432,7.518,7.518,0,0,1-2.16,2.368,4.411,4.411,0,0,1-2.432.72,5.415,5.415,0,0,1-3.28-1.152,8.753,8.753,0,0,1-2.64-3.728A24.61,24.61,0,0,1,36.48,34.96q-.16-1.472-.24-3.1t-.1-3.1q-.016-1.472-.016-2.432,0-.672-.064-1.6a16.353,16.353,0,0,0-.192-1.664Zm16,.736a15.9,15.9,0,0,1,1.728,2.656,32.582,32.582,0,0,1,1.536,3.36q.7,1.792,1.248,3.664t.88,3.648a27.09,27.09,0,0,1,.432,3.248L58.4,42.064q-.16-1.952-.576-4.256a41.842,41.842,0,0,0-1.12-4.64,32.365,32.365,0,0,0-1.68-4.416,15.3,15.3,0,0,0-2.288-3.584Zm26.144-1.632q-.224.32-.5.72t-.528.784q-.576.864-1.264,2t-1.424,2.4q-.736,1.264-1.424,2.512t-1.3,2.3a6.964,6.964,0,0,1,1.824-.736,7.885,7.885,0,0,1,1.856-.224,3.763,3.763,0,0,1,2.832,1.072,4.588,4.588,0,0,1,1.136,3.088q.032.7.032,1.7t.016,1.984q.016.992.08,1.664a1.713,1.713,0,0,0,.688,1.328,2.427,2.427,0,0,0,1.392.4,3.141,3.141,0,0,0,1.872-.608,5.85,5.85,0,0,0,1.52-1.68A12.866,12.866,0,0,0,90.928,38.5a25.71,25.71,0,0,0,.848-2.832l3.456,2.816a20.316,20.316,0,0,1-2.112,4.784,9.645,9.645,0,0,1-3.12,3.2A8.026,8.026,0,0,1,85.7,47.6a6.264,6.264,0,0,1-2.944-.624,4.226,4.226,0,0,1-1.76-1.632,4.888,4.888,0,0,1-.64-2.192q-.064-.864-.08-1.92t-.032-2.064q-.016-1.008-.08-1.648a2,2,0,0,0-.544-1.312,1.817,1.817,0,0,0-1.344-.48,3.462,3.462,0,0,0-2.016.672,7.39,7.39,0,0,0-1.744,1.76,13.09,13.09,0,0,0-1.36,2.4q-.32.7-.672,1.664t-.672,1.984q-.32,1.024-.608,1.936T70.72,47.7L66.208,46.16q.608-1.6,1.488-3.664t1.936-4.336q1.056-2.272,2.144-4.512t2.08-4.24q.992-2,1.776-3.488t1.2-2.256q.32-.64.736-1.44T78.4,20.4Zm27.744-1.408q-.192.672-.4,1.584t-.3,1.456q-.224,1.088-.56,2.656t-.72,3.312q-.384,1.744-.8,3.376-.448,1.664-1.04,3.648t-1.28,4q-.688,2.016-1.392,3.872t-1.376,3.3l-4.48-1.5a27.146,27.146,0,0,0,1.52-2.976q.784-1.76,1.552-3.76t1.408-4q.64-2,1.088-3.664.288-1.152.576-2.336t.528-2.3q.24-1.12.416-2.1t.272-1.68q.1-.9.128-1.792a10.42,10.42,0,0,0-.032-1.472Zm-8.16,4.8q1.952,0,4.064-.192t4.256-.56q2.144-.368,4.256-.848v4q-1.984.48-4.224.8t-4.416.5q-2.176.176-4,.176-1.152,0-2.08-.048t-1.792-.08l-.1-4q1.248.128,2.144.192T102.528,25.616Zm10.048,4.9q1.344-.16,2.976-.24t3.168-.08q1.376,0,2.8.064t2.832.224l-.1,3.84q-1.184-.16-2.608-.288t-2.9-.128q-1.664,0-3.168.08t-3.008.272Zm1.728,8.032a13.617,13.617,0,0,0-.32,1.408,7.479,7.479,0,0,0-.128,1.248,2.187,2.187,0,0,0,.224.992,2.122,2.122,0,0,0,.7.784,3.6,3.6,0,0,0,1.328.512,10.728,10.728,0,0,0,2.128.176q1.6,0,3.264-.16t3.392-.48l-.16,4.064q-1.344.192-2.976.336t-3.552.144a11.6,11.6,0,0,1-6.16-1.344,4.205,4.205,0,0,1-2.128-3.744,14.409,14.409,0,0,1,.176-2.24q.176-1.12.368-2.048Zm6.624-16.8q.416.576.88,1.376t.912,1.6q.448.8.736,1.408l-2.56,1.12q-.32-.672-.736-1.472t-.864-1.6a11.008,11.008,0,0,0-.9-1.376ZM124.7,20.3a13.1,13.1,0,0,1,.928,1.392q.48.816.944,1.6a13.584,13.584,0,0,1,.72,1.36l-2.528,1.088q-.512-1.024-1.216-2.272a19.831,19.831,0,0,0-1.376-2.144Zm8.992,17.76a4.93,4.93,0,0,1,2.624.7,5.469,5.469,0,0,1,1.856,1.872,5.153,5.153,0,0,1,0,5.2,5.425,5.425,0,0,1-1.856,1.888,5.183,5.183,0,0,1-5.216,0,5.207,5.207,0,0,1-1.872-1.888,5.257,5.257,0,0,1,0-5.2,5.247,5.247,0,0,1,1.872-1.872A4.979,4.979,0,0,1,133.7,38.064Zm.032,8.064a2.72,2.72,0,0,0,2.016-.848,2.8,2.8,0,0,0,.832-2.032,2.829,2.829,0,0,0-.384-1.456,2.86,2.86,0,0,0-1.04-1.04,2.862,2.862,0,0,0-2.864,0,3.033,3.033,0,0,0-1.04,1.04,2.85,2.85,0,0,0,0,2.912,3.033,3.033,0,0,0,1.04,1.04A2.744,2.744,0,0,0,133.728,46.128Z" transform="translate(203.512 4641.5)"/>
    <g id="グループ_1284" data-name="グループ 1284" transform="translate(3)">
      <line id="線_4" data-name="線 4" x2="20.5" y2="74" transform="translate(9 4615.5)" fill="none" stroke="#000" stroke-width="3"/>
      <line id="線_6" data-name="線 6" x1="20.5" y2="74" transform="translate(355.5 4615.5)" fill="none" stroke="#000" stroke-width="3"/>
    </g>
  </g>
</svg>
