<svg xmlns="http://www.w3.org/2000/svg" xmlns:xlink="http://www.w3.org/1999/xlink" width="157" height="350.802" viewBox="0 0 157 350.802">
  <defs>
    <clipPath id="clip-path">
      <rect id="長方形_1053" data-name="長方形 1053" width="138.9" height="257.601" fill="none"/>
    </clipPath>
  </defs>
  <g id="worries_01" transform="translate(19 -2973)">
    <g id="グループ_1121" data-name="グループ 1121" transform="translate(31 2973)">
      <circle id="楕円形_22" data-name="楕円形 22" cx="53.5" cy="53.5" r="53.5" fill="#ffff34"/>
      <circle id="楕円形_23" data-name="楕円形 23" cx="9.5" cy="9.5" r="9.5" transform="translate(36 96)" fill="#ffff34"/>
      <circle id="楕円形_24" data-name="楕円形 24" cx="5" cy="5" r="5" transform="translate(28 112)" fill="#ffff34"/>
    </g>
    <g id="グループ_1109" data-name="グループ 1109" transform="translate(-19 3066.201)">
      <path id="パス_3219" data-name="パス 3219" d="M75.03,159.919H37.118l2.774,119.718H69Z" transform="translate(-8.524 -36.727)" fill="#9e9492"/>
      <path id="パス_3220" data-name="パス 3220" d="M102.273,252.582l.964-.673-7.207-9.651-.964.674Z" transform="translate(-21.833 -55.636)" fill="#29190f"/>
      <path id="パス_3221" data-name="パス 3221" d="M103.184,263.066l-4.63-9.179-1.075.494,4.38,8.686Z" transform="translate(-22.387 -58.307)" fill="#29190f"/>
      <path id="パス_3222" data-name="パス 3222" d="M55.669,245.921l.964-.673L49.425,235.6l-.964.674Z" transform="translate(-11.129 -54.107)" fill="#29190f"/>
      <path id="パス_3223" data-name="パス 3223" d="M57.929,261.542,59,261.049l-6.972-13.823-1.075.493Z" transform="translate(-11.703 -56.777)" fill="#29190f"/>
      <path id="パス_3224" data-name="パス 3224" d="M40.516,306.574h29.6l-.053,1.061H40.54Z" transform="translate(-9.305 -70.407)" fill="#80736f"/>
      <rect id="長方形_1040" data-name="長方形 1040" width="1.229" height="19.817" transform="matrix(0.996, -0.084, 0.084, 0.996, 46.937, 130.823)" fill="#29190f"/>
      <path id="パス_3225" data-name="パス 3225" d="M63.136,186.255l-.171-1.216,7.055-.991-.773-15.381,1.227-.062.83,16.5Z" transform="translate(-14.46 -38.722)" fill="#29190f"/>
      <g id="グループ_1108" data-name="グループ 1108">
        <g id="グループ_1107" data-name="グループ 1107" clip-path="url(#clip-path)">
          <path id="パス_3226" data-name="パス 3226" d="M11.193,139.467l18-30.944a11.3,11.3,0,1,1,18.464,13.015L24.793,149.655Z" transform="translate(-2.571 -23.79)" fill="#9e9492"/>
          <path id="パス_3227" data-name="パス 3227" d="M10.9,177.834a2.2,2.2,0,0,0,1.686-3.876,9.987,9.987,0,0,1-3.309-7.12,26.1,26.1,0,0,1,2.243-9.41,2.2,2.2,0,0,0-3.964-1.905,30.236,30.236,0,0,0-2.676,11.236c-.118,6.413,4.711,10.43,4.916,10.6a2.195,2.195,0,0,0,1.1.477" transform="translate(-1.121 -35.431)" fill="#cc715e"/>
          <path id="パス_3228" data-name="パス 3228" d="M18.5,177.96a1.965,1.965,0,0,0,.348-3.761,8.926,8.926,0,0,1-4.8-5.119,23.32,23.32,0,0,1-.725-8.614,1.965,1.965,0,0,0-3.9-.509,27.019,27.019,0,0,0,.867,10.284,12.793,12.793,0,0,0,7.133,7.623,1.959,1.959,0,0,0,1.071.1" transform="translate(-2.13 -36.343)" fill="#cc715e"/>
          <path id="パス_3229" data-name="パス 3229" d="M16.335,167.579s4.506-2.563,6.042-5.322a7.437,7.437,0,0,0,1.2-4.561s.075-4.109-3.131-6.157a7.387,7.387,0,0,0-6.751-.3L8.848,161.563Z" transform="translate(-2.032 -34.574)" fill="#cc715e"/>
          <path id="パス_3230" data-name="パス 3230" d="M20.712,174.889a1.965,1.965,0,0,0,.348-3.761,8.926,8.926,0,0,1-4.8-5.119,23.32,23.32,0,0,1-.725-8.614,1.965,1.965,0,0,0-3.9-.509,27.019,27.019,0,0,0,.867,10.284,12.793,12.793,0,0,0,7.133,7.623,1.959,1.959,0,0,0,1.071.1" transform="translate(-2.637 -35.638)" fill="#cc715e"/>
          <path id="パス_3231" data-name="パス 3231" d="M2.286,175.6a2.2,2.2,0,0,0,3.075-2.9,9.988,9.988,0,0,1-.24-7.847,26.109,26.109,0,0,1,5.764-7.77,2.2,2.2,0,0,0-2.894-3.31,30.227,30.227,0,0,0-6.882,9.276,14.319,14.319,0,0,0,.35,11.678,2.19,2.19,0,0,0,.827.873" transform="translate(0 -35.191)" fill="#cc715e"/>
          <path id="パス_3232" data-name="パス 3232" d="M7.962,172.144h0a2.456,2.456,0,0,0,3.239-1.252l4-9.046a2.456,2.456,0,0,0-4.492-1.987l-4,9.046a2.456,2.456,0,0,0,1.253,3.239" transform="translate(-1.493 -36.377)" fill="#cc715e"/>
          <path id="パス_3233" data-name="パス 3233" d="M10.1,163.875a2.485,2.485,0,0,0-.7-3.032c-1.578-1.541-5.253-.212-5.253-.212s1.2-4.723,4-7.331c1.406-1.308,5.486-2.613,5.486-2.613l5.01,6.363s-2.185,7.363-8.544,6.825" transform="translate(-0.954 -34.606)" fill="#cc715e"/>
          <path id="パス_3234" data-name="パス 3234" d="M10.546,163.127h0a.352.352,0,0,1-.481-.126l-.532-.91a.352.352,0,0,1,.608-.355l.532.91a.352.352,0,0,1-.126.481" transform="translate(-2.178 -37.104)" fill="#29190f"/>
          <path id="パス_3235" data-name="パス 3235" d="M9.039,165.554h0a.352.352,0,0,1-.481-.126l-.532-.91a.352.352,0,0,1,.608-.355l.532.91a.351.351,0,0,1-.126.481" transform="translate(-1.832 -37.661)" fill="#29190f"/>
          <path id="パス_3236" data-name="パス 3236" d="M5.335,169.678a20.246,20.246,0,0,0,.9,5.638c.038.136.072.265.109.4.33.455.589.267.77-.072l-.144-.526a19.3,19.3,0,0,1-.874-5.44,6.714,6.714,0,0,1,2.148-4.445l-.5-.571a7.4,7.4,0,0,0-2.407,5.02" transform="translate(-1.225 -37.815)" fill="#29190f"/>
          <path id="パス_3237" data-name="パス 3237" d="M15.184,179.719a.638.638,0,0,0,.046-.075,2.584,2.584,0,0,0-.332-.583,34.53,34.53,0,0,1-2.618-3.822l-.61.456s1.777,2.715,2.621,3.827a1.888,1.888,0,0,1,.131.21.57.57,0,0,0,.761-.012" transform="translate(-2.68 -40.245)" fill="#29190f"/>
          <path id="パス_3238" data-name="パス 3238" d="M21.306,178.211a5.437,5.437,0,0,0-2.536-2.1c-2.041-.951-3.567-3.931-3.583-3.961l-.607.307c.067.131,1.646,3.22,3.9,4.271a5.086,5.086,0,0,1,2.126,1.657,2.164,2.164,0,0,0,.4.26,1.174,1.174,0,0,0,.3-.431" transform="translate(-3.348 -39.535)" fill="#29190f"/>
          <path id="パス_3239" data-name="パス 3239" d="M9.252,174.582h0c.045-.015.091-.032.136-.052a1.481,1.481,0,0,0,.774-.778,1.348,1.348,0,0,0,0-1.072,1.449,1.449,0,0,0-2.652,1.162,1.4,1.4,0,0,0,1.746.74M8.533,172.3a1.025,1.025,0,0,1,1.278.531.974.974,0,0,1,0,.772,1.093,1.093,0,0,1-.576.577,1.007,1.007,0,1,1-.807-1.84c.035-.015.069-.028.1-.039" transform="translate(-1.698 -39.469)" fill="#29190f"/>
          <path id="パス_3240" data-name="パス 3240" d="M16.348,150.977a8.6,8.6,0,0,1-1.462.517c-.16.078-.212-.3-.139-.393a7.726,7.726,0,0,1,1.462-.516c.2-.023.227.24.139.392" transform="translate(-3.379 -34.583)" fill="#29190f"/>
          <path id="パス_3241" data-name="パス 3241" d="M27.91,159.275c-.111.273-.225.31-.415.034a3.769,3.769,0,0,1-.147-1.789c.108-.166.29-.266.414-.034a4.564,4.564,0,0,1,.148,1.789" transform="translate(-6.269 -36.137)" fill="#29190f"/>
          <path id="パス_3242" data-name="パス 3242" d="M18.2,162.013a.309.309,0,0,1-.008.3,9.27,9.27,0,0,1-4.353,3.969l-2.445,5.527a2.763,2.763,0,0,1-5.054-2.236l3.2-7.227a.307.307,0,1,1,.562.249l-3.2,7.227a2.148,2.148,0,1,0,3.928,1.738l2.5-5.645a.305.305,0,0,1,.174-.163A8.593,8.593,0,0,0,17.661,162a.308.308,0,0,1,.422-.106.3.3,0,0,1,.115.121" transform="translate(-1.401 -37.17)" fill="#29190f"/>
          <path id="パス_3243" data-name="パス 3243" d="M36.186,66.414v66.663H111.1V66.414a23.34,23.34,0,0,0-23.37-23.37H59.556A23.355,23.355,0,0,0,37,60.281a23.487,23.487,0,0,0-.811,6.133" transform="translate(-8.31 -9.885)" fill="#f5e2da"/>
          <path id="パス_3244" data-name="パス 3244" d="M116.678,159.919H72.709l15.26,119.717h33.519Z" transform="translate(-16.698 -36.727)" fill="#9e9492"/>
          <path id="パス_3245" data-name="パス 3245" d="M125.55,307.635H91.536l-.136-1.061h34.108Z" transform="translate(-20.991 -70.407)" fill="#80736f"/>
          <rect id="長方形_1041" data-name="長方形 1041" width="46.587" height="8.193" transform="translate(32.739 123.192)" fill="#29190f"/>
          <rect id="長方形_1042" data-name="長方形 1042" width="11.648" height="8.294" transform="translate(42.487 123.195)" fill="#ffaa64"/>
          <path id="パス_3246" data-name="パス 3246" d="M122.649,159.919h-1.06l4.336,113.575h1.06Z" transform="translate(-27.924 -36.727)" fill="#80736f"/>
          <path id="パス_3247" data-name="パス 3247" d="M79.931,102.317c0,7-.008,18.5-.022,31.106a10.632,10.632,0,0,0,10.63,10.644l33.024-.438-1.488-77.236A24.342,24.342,0,0,0,97.74,43.052s-.167.067-.454.2a22.054,22.054,0,0,0-2.592,1.417c-.441.28-.928.6-1.43.961-5.364,3.8-13.593,12.319-13.433,28.544.053,5.551.08,12.565.1,20.067Z" transform="translate(-18.333 -9.887)" fill="#9e9492"/>
          <path id="パス_3248" data-name="パス 3248" d="M33.481,144.066h6.058a5.411,5.411,0,0,0,5.412-5.412V87.166c0-18.938,3.46-29.86,7.054-36.1a24.655,24.655,0,0,1,3.754-5.043,13.9,13.9,0,0,1,3.487-2.672,5.359,5.359,0,0,1,.694-.3h-.3c-.107,0-.22.006-.32.013-24.636.387-25.05,24.048-25.05,24.048-.821,8.951-.9,45.077-.788,76.953" transform="translate(-7.68 -9.887)" fill="#9e9492"/>
          <rect id="長方形_1043" data-name="長方形 1043" width="30.274" height="1.229" transform="translate(25.148 121.212) rotate(-89.892)" fill="#29190f"/>
          <path id="パス_3249" data-name="パス 3249" d="M67.33,43.053l-.4.3a5.432,5.432,0,0,1,.7-.305c-.1,0-.2,0-.3,0" transform="translate(-15.372 -9.886)" fill="#d6c5cf"/>
          <path id="パス_3250" data-name="パス 3250" d="M45.759,91.815,38.961,70.2l8.847-7.137-3.36-4.7,8.366-6.411a24.564,24.564,0,0,1,3.755-5.04l-14.485,11.1,3.382,4.731L36.972,69.6l8.787,27.937Z" transform="translate(-8.491 -10.774)" fill="#29190f"/>
          <path id="パス_3251" data-name="パス 3251" d="M81.744,13.3A11.436,11.436,0,1,1,70.308,1.862,11.437,11.437,0,0,1,81.744,13.3" transform="translate(-13.52 -0.428)" fill="#cc715e"/>
          <path id="パス_3252" data-name="パス 3252" d="M73.148,27.846l-7.022,2.135A7.616,7.616,0,0,1,57.1,21.229l1.694-8.357L74.7,12.335Z" transform="translate(-13.087 -2.833)" fill="#cc715e"/>
          <path id="パス_3253" data-name="パス 3253" d="M69.348,14.374l.861.334c.612.236.179,1.156-.431.921l-.861-.332c-.612-.236-.179-1.158.431-.922" transform="translate(-15.76 -3.292)" fill="#29190f"/>
          <path id="パス_3254" data-name="パス 3254" d="M61.741,14.465l-.872.306c-.619.216-.215,1.15.4.934l.872-.305c.619-.217.215-1.151-.4-.934" transform="translate(-13.908 -3.315)" fill="#29190f"/>
          <path id="パス_3255" data-name="パス 3255" d="M62.254,5.6s8.467-.889,11.037,1.91c1.677,1.828-1.415,5.1.318,6.184A19.007,19.007,0,0,0,81.3,16.7l2.971-2.4S85.59,3.184,75.727.642,62.243,3.805,62.254,5.6" transform="translate(-14.297 0)" fill="#29190f"/>
          <path id="パス_3256" data-name="パス 3256" d="M83.549,38.347,70.24,43.011,65.08,20.844H79.673Z" transform="translate(-14.946 -4.787)" fill="#cc715e"/>
          <path id="パス_3257" data-name="パス 3257" d="M68.029,25.625l-1.047,4.127-10.373-.418,1.32-5.169A2.033,2.033,0,0,1,60.05,22.64l6.159.457a2.034,2.034,0,0,1,1.82,2.528" transform="translate(-13.001 -5.198)" fill="#29190f"/>
          <path id="パス_3258" data-name="パス 3258" d="M76.548,20.241s-.335,8.689-.576,9.437S64.158,37.112,58.963,33.8s-1.836-12.228-1.836-12.228-1.282,5.569,4.892,5.447,11.973-2.866,13.108-7.969Z" transform="translate(-12.874 -4.375)" fill="#29190f"/>
          <path id="パス_3259" data-name="パス 3259" d="M88,22.931c-1.292,2.084-3.555,3.017-5.057,2.088s-1.669-3.376-.377-5.459,3.557-3.017,5.058-2.086S89.3,20.848,88,22.931" transform="translate(-18.763 -3.93)" fill="#cc715e"/>
          <path id="パス_3260" data-name="パス 3260" d="M85.219,21.814a3.384,3.384,0,0,1,2.474-1.982l-.079-.619a4.014,4.014,0,0,0-2.964,2.343Z" transform="translate(-19.441 -4.412)" fill="#29190f"/>
          <path id="パス_3261" data-name="パス 3261" d="M64,27.011a8.407,8.407,0,0,0,.991-.055,5.942,5.942,0,0,0,2.1-.766l-.347-.564a5.352,5.352,0,0,1-1.832.673,9.13,9.13,0,0,1-1.885,0l-.08.657A9.56,9.56,0,0,0,64,27.011" transform="translate(92.735 76.478) rotate(-149)" fill="#cc715e"/>
          <path id="パス_3262" data-name="パス 3262" d="M62.9,22.461l.554-.363A3.871,3.871,0,0,1,63,21.188a3.781,3.781,0,0,1,.927.146l.356.1.3-1.847-.653-.106-.184,1.13a1.91,1.91,0,0,0-1.176.022.484.484,0,0,0-.23.31c-.1.443.359,1.21.562,1.519" transform="translate(-14.314 -4.474)" fill="#29190f"/>
          <path id="パス_3263" data-name="パス 3263" d="M69.25,19.052c0,.541-.238.978-.532.978s-.532-.438-.532-.978Z" transform="translate(-15.66 -4.375)" fill="#29190f"/>
          <path id="パス_3264" data-name="パス 3264" d="M62.627,19.052c0,.541-.238.978-.532.978s-.532-.438-.532-.978Z" transform="translate(-14.139 -4.375)" fill="#29190f"/>
          <path id="パス_3265" data-name="パス 3265" d="M84.842,28.455a4.641,4.641,0,0,0,.707-.052l-.109-.653a3.577,3.577,0,0,1-1.286-.035l-.177.638a3.312,3.312,0,0,0,.865.1" transform="translate(-19.286 -6.365)" fill="#29190f"/>
          <path id="パス_3266" data-name="パス 3266" d="M84.181,34.764,71.311,45.6l2.135,7.442L88.191,41.142Z" transform="translate(-16.377 -7.984)" fill="#f5e2da"/>
          <path id="パス_3267" data-name="パス 3267" d="M68.121,39.38l1.845,7.468-5.24,6.468-.839-10.338Z" transform="translate(-14.672 -9.044)" fill="#f5e2da"/>
          <path id="パス_3268" data-name="パス 3268" d="M66.764,49.075l1.775,7.25-4.8,3.3.834,65.3-7.458,9.54-7.166-10.33L62.431,59.206l-.907-3.664Z" transform="translate(-11.47 -11.27)" fill="#29190f"/>
          <path id="パス_3269" data-name="パス 3269" d="M79.959,94.723v2.892l15.1-20.5-9.9-11.391,16.56-7.584-7-12.989c-.447.28-.927.6-1.434.958l6.049,11.232L82.365,65.118,92.862,77.2Z" transform="translate(-18.363 -10.369)" fill="#29190f"/>
          <rect id="長方形_1044" data-name="長方形 1044" width="18.567" height="1.591" transform="translate(79.844 105.099)" fill="#29190f"/>
          <path id="パス_3270" data-name="パス 3270" d="M83.671,320.448l10.272-5.12h26.106l1.458,12.06v.934a1.7,1.7,0,0,1-1.7,1.7H81.852a1.7,1.7,0,0,1-1.7-1.7V326.8a7.5,7.5,0,0,1,3.515-6.355" transform="translate(-18.408 -72.418)" fill="#29190f"/>
          <path id="パス_3271" data-name="パス 3271" d="M121.955,330.908l.442.451,4.463-4.378a6.608,6.608,0,0,1,3.718-1.834l-.076-.625a7.214,7.214,0,0,0-4.084,2.011Z" transform="translate(-28.008 -74.529)" fill="#343642"/>
          <rect id="長方形_1045" data-name="長方形 1045" width="16.666" height="0.632" transform="translate(72.974 250.105) rotate(-25.574)" fill="#343642"/>
          <path id="パス_3272" data-name="パス 3272" d="M93.977,317.172h6.2v-.632H95.242Z" transform="translate(-21.582 -72.696)" fill="#343642"/>
          <path id="パス_3273" data-name="パス 3273" d="M90.645,318.831h6.086V318.2H91.914Z" transform="translate(-20.817 -73.077)" fill="#343642"/>
          <path id="パス_3274" data-name="パス 3274" d="M85.962,319.971l1.266-.632h4.71l2.418-1.168,1.3-.628,1.351-.65,1.307-.632,1.348-.65.588-.284h1.45l-9.617,4.644Z" transform="translate(-19.742 -72.417)" fill="#343642"/>
          <path id="パス_3275" data-name="パス 3275" d="M80.155,330.983h41.351v.934a1.7,1.7,0,0,1-1.7,1.7H81.851a1.7,1.7,0,0,1-1.7-1.7Z" transform="translate(-18.408 -76.013)" fill="#555863"/>
          <path id="パス_3276" data-name="パス 3276" d="M81.409,325.257H94.486a4.272,4.272,0,0,1,4.265,4.268h.632a4.9,4.9,0,0,0-4.9-4.9H81.807c-.142.206-.274.414-.4.632" transform="translate(-18.696 -74.553)" fill="#343642"/>
          <path id="パス_3277" data-name="パス 3277" d="M28.976,320.448l10.272-5.12H65.354l1.458,12.06v.934a1.7,1.7,0,0,1-1.7,1.7H27.157a1.7,1.7,0,0,1-1.7-1.7V326.8a7.5,7.5,0,0,1,3.515-6.355" transform="translate(-5.847 -72.418)" fill="#29190f"/>
          <path id="パス_3278" data-name="パス 3278" d="M67.261,330.908l.442.451,4.463-4.378a6.605,6.605,0,0,1,3.718-1.834l-.076-.625a7.214,7.214,0,0,0-4.084,2.011Z" transform="translate(-15.447 -74.529)" fill="#343642"/>
          <rect id="長方形_1046" data-name="長方形 1046" width="16.666" height="0.632" transform="translate(30.841 250.105) rotate(-25.574)" fill="#343642"/>
          <path id="パス_3279" data-name="パス 3279" d="M39.282,317.172h6.2v-.632H40.548Z" transform="translate(-9.021 -72.696)" fill="#343642"/>
          <path id="パス_3280" data-name="パス 3280" d="M35.951,318.831h6.086V318.2H37.22Z" transform="translate(-8.256 -73.077)" fill="#343642"/>
          <path id="パス_3281" data-name="パス 3281" d="M31.267,319.971l1.266-.632h4.71l2.418-1.168,1.3-.628,1.351-.65,1.306-.632,1.348-.65.588-.284H47l-9.617,4.644Z" transform="translate(-7.181 -72.417)" fill="#343642"/>
          <path id="パス_3282" data-name="パス 3282" d="M25.461,330.983H66.812v.934a1.7,1.7,0,0,1-1.7,1.7H27.158a1.7,1.7,0,0,1-1.7-1.7Z" transform="translate(-5.847 -76.013)" fill="#555863"/>
          <path id="パス_3283" data-name="パス 3283" d="M26.715,325.257H39.792a4.272,4.272,0,0,1,4.265,4.268h.632a4.9,4.9,0,0,0-4.9-4.9H27.112c-.142.206-.274.414-.4.632" transform="translate(-6.135 -74.553)" fill="#343642"/>
          <path id="パス_3284" data-name="パス 3284" d="M40.789,170.876h-3.34v-.819h3.34a4.677,4.677,0,0,0,4.671-4.672v-5.467h.82v5.467a5.5,5.5,0,0,1-5.491,5.491" transform="translate(-8.6 -36.726)" fill="#29190f"/>
          <path id="パス_3285" data-name="パス 3285" d="M120.71,170.876H89.981a10.566,10.566,0,0,1-10.554-10.554v-.4h.819v.4a9.746,9.746,0,0,0,9.736,9.736H120.71Z" transform="translate(-18.241 -36.726)" fill="#29190f"/>
          <path id="パス_3286" data-name="パス 3286" d="M77.484,226.477,72.808,198.2l-11.9-3.041.3-1.19,12.676,3.239L78.7,226.276Z" transform="translate(-13.988 -44.547)" fill="#29190f"/>
          <rect id="長方形_1047" data-name="長方形 1047" width="54.513" height="74.791" transform="translate(54.349 203.563) rotate(-89.663)" fill="#524234"/>
          <rect id="長方形_1048" data-name="長方形 1048" width="54.513" height="74.791" transform="matrix(0.006, -1, 1, 0.006, 63.794, 203.612)" fill="#29190f"/>
          <path id="パス_3287" data-name="パス 3287" d="M140.345,190.363l-3.842-.028.053-7.435a.56.56,0,0,0-.557-.56l-23-.119a.551.551,0,0,0-.564.557l-.054,7.439-3.842-.028.054-7.435a4.407,4.407,0,0,1,4.4-4.376h.024l23,.12a4.408,4.408,0,0,1,4.379,4.426Z" transform="translate(-24.927 -40.966)" fill="#29190f"/>
          <rect id="長方形_1049" data-name="長方形 1049" width="54.513" height="1.044" transform="translate(58.511 203.584) rotate(-89.704)" fill="#29190f"/>
          <path id="パス_3288" data-name="パス 3288" d="M101.9,69.668l6.764,18.383,5.623,16.87a11.578,11.578,0,0,0,21.976-7.3L125.127,56.273a11.248,11.248,0,0,0-2.563-4.282c-3-3.191-8.324-5.077-8.324-5.077S101.251,67.675,101.9,69.668" transform="translate(-23.398 -10.774)" fill="#9e9492"/>
          <path id="パス_3289" data-name="パス 3289" d="M123.969,176.2c.568-3.863-.406-7.207-2.176-7.467s-3.665,2.662-4.233,6.525.407,7.207,2.176,7.466,3.665-2.661,4.233-6.524" transform="translate(-26.961 -38.747)" fill="#cc715e"/>
          <path id="パス_3290" data-name="パス 3290" d="M125.05,165.1l5,.375a8.884,8.884,0,0,1,8.2,9.524l-.428,5.713a3.118,3.118,0,0,1-3.06,2.886l-11.483.185a3.119,3.119,0,0,1-3.161-3.352L121,168.583a3.777,3.777,0,0,1,4.049-3.484" transform="translate(-27.583 -37.914)" fill="#cc715e"/>
          <path id="パス_3291" data-name="パス 3291" d="M135.518,184.665a2.892,2.892,0,1,1,2.44,3.282,2.892,2.892,0,0,1-2.44-3.282" transform="translate(-31.116 -41.842)" fill="#cc715e"/>
          <path id="パス_3292" data-name="パス 3292" d="M130.61,185.4a2.892,2.892,0,1,1,2.44,3.282,2.892,2.892,0,0,1-2.44-3.282" transform="translate(-29.988 -42.011)" fill="#cc715e"/>
          <path id="パス_3293" data-name="パス 3293" d="M125.538,186.435a2.892,2.892,0,1,1,2.44,3.282,2.892,2.892,0,0,1-2.44-3.282" transform="translate(-28.824 -42.249)" fill="#cc715e"/>
          <path id="パス_3294" data-name="パス 3294" d="M119.722,186.138a2.892,2.892,0,1,1,2.44,3.282,2.892,2.892,0,0,1-2.44-3.282" transform="translate(-27.488 -42.18)" fill="#cc715e"/>
          <rect id="長方形_1050" data-name="長方形 1050" width="0.718" height="1.179" transform="translate(96.874 145.139) rotate(-0.449)" fill="#29190f"/>
          <rect id="長方形_1051" data-name="長方形 1051" width="0.718" height="1.18" transform="translate(101.572 145.085) rotate(-0.785)" fill="#29190f"/>
          <rect id="長方形_1052" data-name="長方形 1052" width="0.879" height="0.718" transform="translate(105.306 145.69) rotate(-87.356)" fill="#29190f"/>
          <path id="パス_3295" data-name="パス 3295" d="M127.992,105.97h0c-6.492.857-11.2,6.367-10.508,12.3l.408,37.792,19.885.468,3.218-41.367c-.689-5.938-6.51-10.056-13-9.2" transform="translate(-26.966 -24.311)" fill="#9e9492"/>
          <path id="パス_3296" data-name="パス 3296" d="M114.284,150.313l-.832-38.474L102.885,81.11l1.162-.4,10.629,30.91,0,.1.834,38.57Z" transform="translate(-23.628 -18.536)" fill="#29190f"/>
        </g>
      </g>
    </g>
    <text id="見積書の_手入力を_減らしたい" data-name="見積書の
手入力を
減らしたい" transform="translate(86 3012.614)" font-size="13" font-family="NotoSansJP-Bold, Noto Sans JP" font-weight="700"><tspan x="-26" y="0">見積書</tspan><tspan y="0">の</tspan><tspan x="-26" y="17">手入力</tspan><tspan y="17">を</tspan><tspan x="-32.5" y="34">減</tspan><tspan y="34">らしたい</tspan></text>
  </g>
</svg>
