<svg xmlns="http://www.w3.org/2000/svg" xmlns:xlink="http://www.w3.org/1999/xlink" width="134" height="353.402" viewBox="0 0 134 353.402">
  <defs>
    <clipPath id="clip-path">
      <rect id="長方形_1069" data-name="長方形 1069" width="99.506" height="262.801" fill="none"/>
    </clipPath>
    <clipPath id="clip-path-3">
      <rect id="長方形_1067" data-name="長方形 1067" width="99.506" height="262.8" fill="none"/>
    </clipPath>
  </defs>
  <g id="worries_02" transform="translate(-137 -2973)">
    <g id="グループ_1120" data-name="グループ 1120" transform="translate(164 2973)">
      <circle id="楕円形_22" data-name="楕円形 22" cx="53.5" cy="53.5" r="53.5" fill="#4bff34"/>
      <circle id="楕円形_23" data-name="楕円形 23" cx="9.5" cy="9.5" r="9.5" transform="translate(36 96)" fill="#4bff34"/>
      <circle id="楕円形_24" data-name="楕円形 24" cx="5" cy="5" r="5" transform="translate(28 112)" fill="#4bff34"/>
    </g>
    <g id="グループ_1116" data-name="グループ 1116" transform="translate(137 3063.601)">
      <g id="グループ_1115" data-name="グループ 1115" clip-path="url(#clip-path)">
        <g id="グループ_1114" data-name="グループ 1114">
          <g id="グループ_1113" data-name="グループ 1113" clip-path="url(#clip-path)">
            <path id="パス_3297" data-name="パス 3297" d="M9.036,166.76a2.009,2.009,0,0,0,1.068-3.712,9.126,9.126,0,0,1-3.843-6.06,23.819,23.819,0,0,1,.917-8.794,2.01,2.01,0,0,0-3.818-1.256,27.661,27.661,0,0,0-1.094,10.5,13.086,13.086,0,0,0,5.712,9.021,2.006,2.006,0,0,0,1.057.3" transform="translate(-0.131 -8.905)" fill="#29190f"/>
            <path id="パス_3298" data-name="パス 3298" d="M13.178,166.189a2.009,2.009,0,0,0,1.068-3.712,9.126,9.126,0,0,1-3.843-6.06,23.842,23.842,0,0,1,.917-8.794A2.01,2.01,0,0,0,7.5,146.367a27.661,27.661,0,0,0-1.094,10.5,13.086,13.086,0,0,0,5.712,9.021,2.006,2.006,0,0,0,1.057.3" transform="translate(-0.384 -8.87)" fill="#29190f"/>
            <path id="パス_3299" data-name="パス 3299" d="M17.321,165.618a2.009,2.009,0,0,0,1.068-3.712,9.126,9.126,0,0,1-3.843-6.06,23.841,23.841,0,0,1,.917-8.794,2.01,2.01,0,0,0-3.818-1.256,27.661,27.661,0,0,0-1.094,10.5,13.086,13.086,0,0,0,5.712,9.021,2.006,2.006,0,0,0,1.057.3" transform="translate(-0.638 -8.835)" fill="#29190f"/>
            <path id="パス_3300" data-name="パス 3300" d="M23.256,97.518h0a9.82,9.82,0,0,0-11.694,7.493L1.921,138.776a2.435,2.435,0,0,0,1.569,2.978l11.682,3.914a2.436,2.436,0,0,0,3.066-1.489l12.511-34.967a9.821,9.821,0,0,0-7.493-11.694" transform="translate(-0.112 -5.952)" fill="#3a3e4a"/>
            <path id="パス_3301" data-name="パス 3301" d="M8.318,161.776h0a2.243,2.243,0,0,0,1.964-2.493l-1.064-8.977a2.244,2.244,0,0,0-4.457.529l1.064,8.977a2.244,2.244,0,0,0,2.493,1.964" transform="translate(-0.29 -9.075)" fill="#3a3e4a"/>
            <path id="パス_3302" data-name="パス 3302" d="M6.9,167.234a2.009,2.009,0,0,0,1.068-3.712,9.126,9.126,0,0,1-3.843-6.06,23.842,23.842,0,0,1,.917-8.794,2.01,2.01,0,0,0-3.818-1.256,27.661,27.661,0,0,0-1.094,10.5,13.086,13.086,0,0,0,5.712,9.021,2.006,2.006,0,0,0,1.057.3" transform="translate(0 -8.934)" fill="#3a3e4a"/>
            <path id="パス_3303" data-name="パス 3303" d="M7.167,155.157a2.27,2.27,0,0,0-1.959-2.06c-1.959-.477-3.141,1.884-3.141,1.884s-1.833-4.145-.844-7.5a10.728,10.728,0,0,1,2.051-3.4l7.435,1.733s1.708,6.808-3.542,9.345" transform="translate(-0.057 -8.815)" fill="#3a3e4a"/>
            <path id="パス_3304" data-name="パス 3304" d="M12.563,219.935c1.312,20.432,2.708,34.95,2.708,34.95H44.985l1.642-34.95,1.326-28.213,3.568-76.07H12.408c-3.652,28.114-1.843,73.09.155,104.283" transform="translate(-0.631 -7.076)" fill="#c94660"/>
            <path id="パス_3305" data-name="パス 3305" d="M12.71,226.731c.222,3.423.443,6.674.66,9.725.172,2.411.339,4.693.5,6.824.861,11.284,1.546,18.4,1.546,18.4H45.132l.865-18.4.322-6.824.455-9.725Z" transform="translate(-0.778 -13.871)" fill="#4c5061"/>
            <path id="パス_3306" data-name="パス 3306" d="M13.414,237.09c.172,2.412.339,4.693.5,6.824H46.041l.322-6.824Z" transform="translate(-0.821 -14.505)" fill="#f2e2dc"/>
            <path id="パス_3307" data-name="パス 3307" d="M41.4,147.434l.266-1.225-4.175-.905a4.111,4.111,0,0,1-3.178-3.276l-.857-4.626-1.233.229.857,4.626a5.36,5.36,0,0,0,4.145,4.273Z" transform="translate(-1.971 -8.406)" fill="#29190f"/>
            <rect id="長方形_1054" data-name="長方形 1054" width="1.254" height="11.836" transform="translate(38.566 131.133) rotate(-3.563)" fill="#29190f"/>
            <rect id="長方形_1055" data-name="長方形 1055" width="30.481" height="1.071" transform="translate(14.163 241.097)" fill="#29190f"/>
            <path id="パス_3308" data-name="パス 3308" d="M40.9,115.652l8.923,76.07,3.306,28.213,4.1,34.95H89.017s-.668-15.3-1.692-34.95c-1.263-24.173-3.06-54.935-4.8-71.97-1.952-19.086-4.3-32.313-4.3-32.313Z" transform="translate(-2.502 -7.076)" fill="#c94660"/>
            <path id="パス_3309" data-name="パス 3309" d="M53.927,226.731l1.141,9.725.8,6.824,2.156,18.4H89.813s-.321-7.347-.861-18.4c-.1-2.143-.217-4.426-.338-6.824-.15-3.072-.318-6.336-.494-9.725Z" transform="translate(-3.299 -13.871)" fill="#4c5061"/>
            <path id="パス_3310" data-name="パス 3310" d="M88.689,237.09H55.143l.8,6.824H89.028c-.105-2.143-.218-4.426-.339-6.824" transform="translate(-3.374 -14.505)" fill="#f2e2dc"/>
            <path id="パス_3311" data-name="パス 3311" d="M86.5,249.759l1.066-.075L77,132.211l-1.066.075Z" transform="translate(-4.646 -8.089)" fill="#29190f"/>
            <path id="パス_3312" data-name="パス 3312" d="M57.53,257.88H89.964l-.022-1.071H57.509Z" transform="translate(-3.518 -15.712)" fill="#29190f"/>
            <path id="パス_3313" data-name="パス 3313" d="M48.936,194.816l1.065-.1-5.723-42.666L35.8,149.815l-.273,1.034,7.757,2.044Z" transform="translate(-2.174 -9.166)" fill="#29190f"/>
            <path id="パス_3314" data-name="パス 3314" d="M10.738,68.887V134.4H79.452V68.887A25.712,25.712,0,0,0,65.272,45.9a25.247,25.247,0,0,0-6.19-2.17,25.616,25.616,0,0,0-5.349-.56H36.457a25.6,25.6,0,0,0-14.911,4.76h0a25.835,25.835,0,0,0-8.208,9.691l0,0a25.6,25.6,0,0,0-2.591,11.258" transform="translate(-0.657 -2.641)" fill="#c94660"/>
            <rect id="長方形_1056" data-name="長方形 1056" width="27.063" height="8.346" transform="translate(47.229 105.718)" fill="#29190f"/>
            <rect id="長方形_1057" data-name="長方形 1057" width="27.063" height="8.346" transform="translate(47.827 83.693)" fill="#29190f"/>
            <path id="パス_3315" data-name="パス 3315" d="M13.159,69.305c.041,3.769,5.893,3.774,5.851,0-.075-7.109-.138-14.51,2.679-21.063a25.818,25.818,0,0,0-8.208,9.691l0,0a111.049,111.049,0,0,0-.317,11.367" transform="translate(-0.804 -2.951)" fill="#29190f"/>
            <path id="パス_3316" data-name="パス 3316" d="M96.261,106.381h0A12.649,12.649,0,0,0,100.509,89L80.062,55.324A12.649,12.649,0,1,0,58.437,68.454l20.447,33.679a12.648,12.648,0,0,0,17.377,4.248" transform="translate(-3.463 -3.012)" fill="#c94660"/>
            <path id="パス_3317" data-name="パス 3317" d="M49.749,68.668A87.284,87.284,0,0,1,67.327,45.938a25.284,25.284,0,0,0-6.19-2.169A91.97,91.97,0,0,0,44.7,65.718C42.912,69.04,47.961,72,49.749,68.668" transform="translate(-2.712 -2.678)" fill="#29190f"/>
            <rect id="長方形_1058" data-name="長方形 1058" width="34.533" height="1.672" transform="translate(36.268 123.055)" fill="#963348"/>
            <rect id="長方形_1059" data-name="長方形 1059" width="6.8" height="1.672" transform="translate(9.933 122.793)" fill="#963348"/>
            <rect id="長方形_1060" data-name="長方形 1060" width="61.556" height="1.672" transform="translate(10.08 130.926)" fill="#963348"/>
            <path id="パス_3318" data-name="パス 3318" d="M30.4,134.359h1.672V73.618c0-21.884,10.755-29.731,10.864-29.808l-.964-1.365C41.5,42.777,30.4,50.876,30.4,73.618Z" transform="translate(-1.86 -2.597)" fill="#963348"/>
            <rect id="長方形_1061" data-name="長方形 1061" width="24.159" height="1.008" transform="translate(9.28 137.092) rotate(-89.296)" fill="#29190f"/>
            <path id="パス_3319" data-name="パス 3319" d="M77.41,160.507l3.005-8.444a2.263,2.263,0,0,0-1.49-2.929l-.162-.048a2.264,2.264,0,0,0-2.774,1.411l-3.005,8.444a2.264,2.264,0,0,0,1.491,2.929l.162.048a2.263,2.263,0,0,0,2.773-1.411" transform="translate(-4.457 -9.115)" fill="#29190f"/>
            <path id="パス_3320" data-name="パス 3320" d="M93.025,161.712l1.348-14.278-17.611-1.382L75.414,160.33Z" transform="translate(-4.614 -8.936)" fill="#3a3e4a"/>
            <path id="パス_3321" data-name="パス 3321" d="M79.06,168.638l1.518-16.071-4.409-.346-1.511,16.005a2.112,2.112,0,0,0,1.938,2.3l.2.016a2.113,2.113,0,0,0,2.268-1.908" transform="translate(-4.567 -9.313)" fill="#3a3e4a"/>
            <path id="パス_3322" data-name="パス 3322" d="M83.546,171.231l1.517-16.071-4.408-.346-1.511,16.005a2.112,2.112,0,0,0,1.938,2.3l.2.016a2.113,2.113,0,0,0,2.268-1.908" transform="translate(-4.841 -9.472)" fill="#3a3e4a"/>
            <path id="パス_3323" data-name="パス 3323" d="M88.389,170.043l1.518-16.071-4.409-.346-1.511,16a2.112,2.112,0,0,0,1.938,2.3l.2.016a2.113,2.113,0,0,0,2.268-1.908" transform="translate(-5.138 -9.399)" fill="#3a3e4a"/>
            <path id="パス_3324" data-name="パス 3324" d="M93.41,166.963l1.518-16.071-4.409-.346-1.511,16a2.112,2.112,0,0,0,1.938,2.3l.2.016a2.113,2.113,0,0,0,2.268-1.908" transform="translate(-5.445 -9.21)" fill="#3a3e4a"/>
            <path id="パス_3325" data-name="パス 3325" d="M77.908,143.718l16.863,1.8A2.968,2.968,0,0,0,98,143.133l4.182-29.514,1.885-13.285c.564-6-4.308-11.276-10.887-11.79s-12.366,3.924-12.935,9.921l-1.621,13.7-3.326,28.1a2.969,2.969,0,0,0,2.612,3.456" transform="translate(-4.604 -5.415)" fill="#c94660"/>
            <path id="パス_3326" data-name="パス 3326" d="M77.908,144.791l16.863,1.8A2.968,2.968,0,0,0,98,144.206l4.145-29.221.6-4.221.368-2.6L78.4,106.037,78.13,109.1l-.376,4.238-2.457,28a2.969,2.969,0,0,0,2.612,3.456" transform="translate(-4.604 -6.487)" fill="#4c5061"/>
            <path id="パス_3327" data-name="パス 3327" d="M95.406,137.058l6.556.849A1.712,1.712,0,0,0,104,136.334l.183-11.544a1.993,1.993,0,0,0-1.908-2.424l-6.556-.849a1.711,1.711,0,0,0-2.037,1.573l-.168,11.873a2.137,2.137,0,0,0,1.892,2.094" transform="translate(-5.721 -7.433)" fill="#4c5061"/>
            <path id="パス_3328" data-name="パス 3328" d="M95.8,129.122l7.293.946.025-.643-7.293-.946a1.939,1.939,0,0,1-1.714-1.9l.023-2.958-.689-.093-.022,2.96a2.69,2.69,0,0,0,2.377,2.631" transform="translate(-5.716 -7.558)" fill="#29190f"/>
            <path id="パス_3329" data-name="パス 3329" d="M93.975,132.163l-.132,3.344a1.94,1.94,0,0,0,1.713,1.9l5.1.675c.036.222.073.441.115.662l-5.238-.694a2.691,2.691,0,0,1-2.377-2.632l.132-3.344Z" transform="translate(-5.699 -8.08)" fill="#29190f"/>
            <path id="パス_3330" data-name="パス 3330" d="M77.139,117.1l24.5,2.647.722-5.095-24.657-2.043Z" transform="translate(-4.719 -6.889)" fill="#f2e2dc"/>
            <path id="パス_3331" data-name="パス 3331" d="M79.668,169.247l.806-8.534-.7-.065-.806,8.534Z" transform="translate(-4.831 -9.828)" fill="#29190f"/>
            <path id="パス_3332" data-name="パス 3332" d="M84.3,170.5l.9-9.844-.7-.065-.9,9.844Z" transform="translate(-5.115 -9.825)" fill="#29190f"/>
            <path id="パス_3333" data-name="パス 3333" d="M89.322,167.347l.6-6.321-.7-.064-.6,6.32Z" transform="translate(-5.422 -9.848)" fill="#29190f"/>
            <path id="パス_3334" data-name="パス 3334" d="M29.986,15.917a7.989,7.989,0,1,0,7.989-7.989,7.99,7.99,0,0,0-7.989,7.989" transform="translate(-1.835 -0.485)" fill="#f2e2dc"/>
            <path id="パス_3335" data-name="パス 3335" d="M52.984,21.134A11.755,11.755,0,1,1,41.229,9.379,11.755,11.755,0,0,1,52.984,21.134" transform="translate(-1.803 -0.574)" fill="#fa9378"/>
            <path id="パス_3336" data-name="パス 3336" d="M44.5,34.153l-7.217,2.195a7.829,7.829,0,0,1-9.281-9l1.742-8.589,16.348-.552Z" transform="translate(-1.706 -1.114)" fill="#fa9378"/>
            <path id="パス_3337" data-name="パス 3337" d="M37.791,20.594c.386.024.952.108,1.082.535s-.432.661-.7.4a1.034,1.034,0,0,0-.383-.1c-.535-.034-.539-.87,0-.836" transform="translate(-2.287 -1.26)" fill="#29190f"/>
            <path id="パス_3338" data-name="パス 3338" d="M32.429,20.381c.386.024.952.108,1.082.535s-.432.661-.7.4a1.034,1.034,0,0,0-.383-.1c-.535-.035-.539-.87,0-.836" transform="translate(-1.959 -1.247)" fill="#29190f"/>
            <path id="パス_3339" data-name="パス 3339" d="M33.889,11.257s9.092,2.669,8.64,6.061,9.452,7.638,9.452,7.638l3.054-2.464S56.394,11.06,46.256,8.447,32.583,9,33.889,11.257" transform="translate(-2.057 -0.457)" fill="#29190f"/>
            <path id="パス_3340" data-name="パス 3340" d="M31.286,25.389,35.93,48.537,53.487,43.38,50.979,32.054l-.268-1.2L49.5,25.389Z" transform="translate(-1.914 -1.553)" fill="#fa9378"/>
            <path id="パス_3341" data-name="パス 3341" d="M36.088,51.573,54.45,45.182a3.95,3.95,0,0,0,2.432-5.029l-1.12-3.217A3.95,3.95,0,0,0,50.733,34.5L32.371,40.894a3.95,3.95,0,0,0-2.432,5.029l1.12,3.217a3.95,3.95,0,0,0,5.029,2.432" transform="translate(-1.818 -2.097)" fill="#4c5061"/>
            <path id="パス_3342" data-name="パス 3342" d="M39.327,29.972l-.868,4.944a2.76,2.76,0,0,1-2.83,2.28l-5.063-.2a2.759,2.759,0,0,1-2.6-3.264l.982-5.256A2.089,2.089,0,0,1,31.126,26.9l6.33.469a2.091,2.091,0,0,1,1.871,2.6" transform="translate(-1.708 -1.646)" fill="#29190f"/>
            <path id="パス_3343" data-name="パス 3343" d="M55.207,28.22c-1.328,2.141-3.655,3.1-5.2,2.144s-1.716-3.468-.389-5.609,3.656-3.1,5.2-2.144,1.716,3.468.388,5.609" transform="translate(-2.981 -1.361)" fill="#fa9378"/>
            <path id="パス_3344" data-name="パス 3344" d="M51.8,26.685a3.48,3.48,0,0,1,2.543-2.037l-.082-.636a4.125,4.125,0,0,0-3.046,2.408Z" transform="translate(-3.133 -1.469)" fill="#29190f"/>
            <path id="パス_3345" data-name="パス 3345" d="M33.992,30.844a8.752,8.752,0,0,0,1.02-.056A6.122,6.122,0,0,0,37.169,30l-.357-.579a5.5,5.5,0,0,1-1.882.691,9.33,9.33,0,0,1-1.939,0l-.082.676a10.036,10.036,0,0,0,1.082.056" transform="matrix(-0.999, 0.035, -0.035, -0.999, 69.096, 57.224)" fill="#fa9378"/>
            <path id="パス_3346" data-name="パス 3346" d="M32.982,27.3l.569-.373a4.012,4.012,0,0,1-.467-.936,3.9,3.9,0,0,1,.952.15l.366.1.309-1.9-.671-.11L33.852,25.4a1.969,1.969,0,0,0-1.21.023.5.5,0,0,0-.237.319c-.1.455.369,1.243.577,1.561" transform="translate(-1.982 -1.483)" fill="#29190f"/>
            <path id="パス_3347" data-name="パス 3347" d="M38.425,23.81c0,.556-.245,1.005-.546,1.005s-.546-.45-.546-1.005.245-1.005.546-1.005.546.45.546,1.005" transform="translate(-2.284 -1.395)" fill="#29190f"/>
            <path id="パス_3348" data-name="パス 3348" d="M32.839,23.81c0,.556-.245,1.005-.546,1.005s-.546-.45-.546-1.005.245-1.005.546-1.005.546.45.546,1.005" transform="translate(-1.942 -1.395)" fill="#29190f"/>
            <path id="パス_3349" data-name="パス 3349" d="M4.279,269.184l10.481-5.225H41.4l1.488,12.307v.953a1.732,1.732,0,0,1-1.731,1.731H2.423a1.732,1.732,0,0,1-1.731-1.731v-1.55a7.653,7.653,0,0,1,3.587-6.484" transform="translate(-0.042 -16.149)" fill="#29190f"/>
            <path id="パス_3350" data-name="パス 3350" d="M35.69,278.174l.451.461,4.555-4.468A6.737,6.737,0,0,1,44.49,272.3l-.077-.638a7.366,7.366,0,0,0-4.168,2.052Z" transform="translate(-2.184 -16.62)" fill="#343642"/>
            <path id="パス_3351" data-name="パス 3351" d="M12.893,271.3l.28.581,16.491-7.924H28.181Z" transform="translate(-0.789 -16.149)" fill="#343642"/>
            <path id="パス_3352" data-name="パス 3352" d="M21.534,264.249H15.056l.583-.29h5.895Z" transform="translate(-0.921 -16.149)" fill="#343642"/>
            <path id="パス_3353" data-name="パス 3353" d="M12.264,265.619h6.33v-.644H13.556Z" transform="translate(-0.75 -16.211)" fill="#343642"/>
            <path id="パス_3354" data-name="パス 3354" d="M9.475,267.009h6.21v-.644H10.77Z" transform="translate(-0.58 -16.296)" fill="#343642"/>
            <path id="パス_3355" data-name="パス 3355" d="M5.553,268.7l1.292-.644h4.806l2.467-1.192,1.327-.64,1.379-.664,1.333-.644,1.375-.664.6-.29h1.48L11.8,268.7Z" transform="translate(-0.34 -16.149)" fill="#343642"/>
            <path id="パス_3356" data-name="パス 3356" d="M.692,277.068h42.2v.953a1.731,1.731,0,0,1-1.731,1.731H2.423a1.731,1.731,0,0,1-1.731-1.731Z" transform="translate(-0.042 -16.951)" fill="#555863"/>
            <path id="パス_3357" data-name="パス 3357" d="M1.742,272.388H15.086a4.359,4.359,0,0,1,4.351,4.355h.645a5,5,0,0,0-5-5H2.148c-.145.209-.28.422-.406.644" transform="translate(-0.107 -16.625)" fill="#343642"/>
            <path id="パス_3358" data-name="パス 3358" d="M51.409,268.9l10.481-5.225H88.529l1.488,12.307v.953a1.732,1.732,0,0,1-1.731,1.731H49.553a1.732,1.732,0,0,1-1.731-1.731v-1.55a7.655,7.655,0,0,1,3.587-6.484" transform="translate(-2.926 -16.132)" fill="#29190f"/>
            <path id="パス_3359" data-name="パス 3359" d="M82.821,277.889l.451.461,4.555-4.468a6.737,6.737,0,0,1,3.794-1.871l-.077-.638a7.364,7.364,0,0,0-4.168,2.052Z" transform="translate(-5.067 -16.603)" fill="#343642"/>
            <path id="パス_3360" data-name="パス 3360" d="M60.026,271.017l.276.581,15.626-7.924H74.5Z" transform="translate(-3.672 -16.132)" fill="#343642"/>
            <path id="パス_3361" data-name="パス 3361" d="M68.665,263.965H62.187l.583-.29h5.895Z" transform="translate(-3.805 -16.132)" fill="#343642"/>
            <path id="パス_3362" data-name="パス 3362" d="M59.395,265.334h6.33v-.644H60.686Z" transform="translate(-3.634 -16.194)" fill="#343642"/>
            <path id="パス_3363" data-name="パス 3363" d="M56.605,266.724h6.21v-.644H57.9Z" transform="translate(-3.463 -16.279)" fill="#343642"/>
            <path id="パス_3364" data-name="パス 3364" d="M52.684,268.413l1.292-.644h4.806l2.467-1.192,1.327-.64,1.379-.664,1.333-.644,1.375-.664.6-.29h1.48l-9.813,4.738Z" transform="translate(-3.223 -16.132)" fill="#343642"/>
            <path id="パス_3365" data-name="パス 3365" d="M47.822,276.783h42.2v.953a1.731,1.731,0,0,1-1.731,1.731H49.553a1.731,1.731,0,0,1-1.731-1.731Z" transform="translate(-2.926 -16.934)" fill="#555863"/>
            <path id="パス_3366" data-name="パス 3366" d="M48.872,272.1H62.216a4.359,4.359,0,0,1,4.352,4.355h.644a5,5,0,0,0-5-5H49.278c-.145.209-.28.422-.406.644" transform="translate(-2.99 -16.608)" fill="#343642"/>
            <path id="パス_3367" data-name="パス 3367" d="M45.263,3.8l3.228.847A11.92,11.92,0,0,1,57,19.2L30.709,12.3A11.919,11.919,0,0,1,45.263,3.8" transform="translate(-1.879 -0.208)" fill="#4c5061"/>
            <path id="パス_3368" data-name="パス 3368" d="M58.07,19.761a31.709,31.709,0,0,0-14.6-7.638c-9.507-2.3-13.268-.992-13.268-.992l-2.109,6.924a1.257,1.257,0,0,0,.238,1.173l1.079,1.288.459-1.5s.341-2.842,10.937.629c6.907,2.263,10.689,4.395,12.536,5.656a1.751,1.751,0,0,1,.376,2.55,1.257,1.257,0,0,0,1.535-.753Z" transform="translate(-1.715 -0.658)" fill="#c94660"/>
            <path id="パス_3369" data-name="パス 3369" d="M63.66,206.853l.984-.687-7.356-9.847-.983.687Z" transform="translate(-3.445 -12.011)" fill="#29190f"/>
            <path id="パス_3370" data-name="パス 3370" d="M65.508,220.664l1.1-.5-7.114-14.106-1.1.5Z" transform="translate(-3.573 -12.606)" fill="#29190f"/>
            <path id="パス_3371" data-name="パス 3371" d="M24.707,201.276l.984-.687-7.356-9.847-.983.687Z" transform="translate(-1.062 -11.67)" fill="#29190f"/>
            <path id="パス_3372" data-name="パス 3372" d="M26.556,215.087l1.1-.5-7.114-14.1-1.1.5Z" transform="translate(-1.189 -12.265)" fill="#29190f"/>
            <rect id="長方形_1062" data-name="長方形 1062" width="7.279" height="1.672" transform="matrix(0.92, -0.391, 0.391, 0.92, 73.62, 97.258)" fill="#963348"/>
            <rect id="長方形_1063" data-name="長方形 1063" width="7.299" height="1.672" transform="translate(67.628 88.254) rotate(-66.66)" fill="#963348"/>
            <rect id="長方形_1064" data-name="長方形 1064" width="13.479" height="1.672" transform="translate(70.538 92.446) rotate(-63.558)" fill="#963348"/>
            <path id="パス_3373" data-name="パス 3373" d="M76,143.453l.791-.973a5.223,5.223,0,0,1-1.91-4.6l3.685-36.305L64.089,79.326l-1.052.683,14.236,21.884-3.639,35.865A6.472,6.472,0,0,0,76,143.453" transform="translate(-3.857 -4.853)" fill="#29190f"/>
            <path id="パス_3374" data-name="パス 3374" d="M94.966,92.922l6.99-3.6a2.028,2.028,0,0,0,.951-2.893L91.485,68.244A2.346,2.346,0,0,0,88,67.188l-6.99,3.6a2.029,2.029,0,0,0-.951,2.893L91.719,92.174a2.52,2.52,0,0,0,3.246.748" transform="translate(-4.88 -4.087)" fill="#4c5061"/>
            <path id="パス_3375" data-name="パス 3375" d="M89.093,83.688l7.776-4-.4-.638-7.776,4a2.285,2.285,0,0,1-2.94-.678l-3.186-5.055-.736.376,3.186,5.055a3.17,3.17,0,0,0,4.079.94" transform="translate(-5.006 -4.73)" fill="#29190f"/>
            <path id="パス_3376" data-name="パス 3376" d="M90.514,89.931l2.094,3.322a2.286,2.286,0,0,0,2.941.678L101,91.146c.181.191.364.378.551.563l-5.594,2.86a3.172,3.172,0,0,1-4.08-.94l-2.094-3.322Z" transform="translate(-5.493 -5.502)" fill="#29190f"/>
            <rect id="長方形_1065" data-name="長方形 1065" width="1.672" height="19.933" transform="matrix(0.084, -0.996, 0.996, 0.084, 74.069, 132.596)" fill="#3a3e4a"/>
            <path id="パス_3377" data-name="パス 3377" d="M66.67,79.229l1.657-.218a55.215,55.215,0,0,1,.521-13.725c1.175-7.87,8.594-12.071,8.668-12.113l-.808-1.464c-.335.185-8.214,4.627-9.513,13.328a55.7,55.7,0,0,0-.525,14.19" transform="translate(-4.065 -3.164)" fill="#963348"/>
            <path id="パス_3378" data-name="パス 3378" d="M30.274,13.4c3.978,1.334,15.014,5.119,18.3,7.1a9.1,9.1,0,0,1,2.879,2.657c2.015-5.824-1.316-11.689-7.321-13.836-5.315-1.9-10.987-.274-13.861,4.076" transform="translate(-1.852 -0.522)" fill="#2c2334"/>
            <path id="パス_3379" data-name="パス 3379" d="M26.408,10.809s14.978,6.256,22.455,9.5,11.3.514,11.3.514,4.038-10.9-7.986-17.5c-.46-.259-.949-.505-1.464-.744q-1.279-.608-2.779-1.145C30.8-4.7,26.408,10.809,26.408,10.809" transform="translate(-1.616 0)" fill="#4c5061"/>
            <path id="パス_3380" data-name="パス 3380" d="M40.121,15.123c1.742-4.514,6.2-8.149,10.339-10.411.815-.443,1.643-.852,2.482-1.22-.459-.259-.948-.505-1.463-.744a28.419,28.419,0,0,0-2.8,1.558c-4.008,2.538-8.016,5.951-9.762,10.482-.293.757.919,1.078,1.207.334" transform="translate(-2.378 -0.168)" fill="#343742"/>
            <path id="パス_3381" data-name="パス 3381" d="M59.155,20.54a.818.818,0,1,0,.819-.819.818.818,0,0,0-.819.819" transform="translate(-3.619 -1.207)" fill="#29190f"/>
            <path id="パス_3382" data-name="パス 3382" d="M51.39,17.6a.818.818,0,1,0,.819-.819.819.819,0,0,0-.819.819" transform="translate(-3.144 -1.027)" fill="#29190f"/>
            <path id="パス_3383" data-name="パス 3383" d="M28.668,8.135h3.908a2.373,2.373,0,0,0,2.372-2.372V4.394a2.373,2.373,0,0,0-2.372-2.372H28.668A2.372,2.372,0,0,0,26.3,4.394V5.762a2.372,2.372,0,0,0,2.372,2.372" transform="translate(-1.609 -0.124)" fill="#29190f"/>
            <path id="パス_3384" data-name="パス 3384" d="M26.694,6.687h3.78a2.166,2.166,0,0,0,2.165-2.165V3.575a2.166,2.166,0,0,0-2.165-2.166h-3.78a2.165,2.165,0,0,0-2.165,2.166v.947a2.165,2.165,0,0,0,2.165,2.165" transform="translate(-1.501 -0.086)" fill="#f2e2dc"/>
            <path id="パス_3385" data-name="パス 3385" d="M26.657,7.219h3.78A2.737,2.737,0,0,0,33.17,4.484V3.538A2.737,2.737,0,0,0,30.437.8h-3.78a2.737,2.737,0,0,0-2.734,2.733v.946a2.737,2.737,0,0,0,2.734,2.735m3.78-5.279a1.6,1.6,0,0,1,1.6,1.6v.946a1.6,1.6,0,0,1-1.6,1.6h-3.78a1.6,1.6,0,0,1-1.6-1.6V3.538a1.6,1.6,0,0,1,1.6-1.6Z" transform="translate(-1.464 -0.049)" fill="#29190f"/>
            <path id="パス_3386" data-name="パス 3386" d="M28.135,17.58A15.853,15.853,0,0,1,30,14.731c.712-.66.752-.789.752-.789l5.7,2.038c4.519,1.617,5.07,7.32,10.208,9.158a43.42,43.42,0,0,0,9.176,2.251l4.33-5.905s-1.849,1.4-8.185-.869S34.77,7.975,26.408,11.469Z" transform="translate(-1.616 -0.658)" fill="#29190f"/>
            <path id="パス_3387" data-name="パス 3387" d="M46.815,28.659h0a1.507,1.507,0,0,1-.895-1.96l1.074-2.789a1.508,1.508,0,1,1,2.814,1.084l-1.074,2.789a1.507,1.507,0,0,1-1.919.876" transform="translate(-2.803 -1.404)" fill="#29190f"/>
            <path id="パス_3388" data-name="パス 3388" d="M49.143,31.834a5.049,5.049,0,0,0,2.763.288l-.268-1.2a3.487,3.487,0,0,1-.552.017c-2.236-.121-3.682-1.388-3.36-3.694.109-.794-1.116-1.062-1.229-.259-.326,2.353.389,3.928,2.646,4.852" transform="translate(-2.84 -1.621)" fill="#29190f"/>
            <path id="パス_3389" data-name="パス 3389" d="M29.506,73.12v49.089H57.44a4.313,4.313,0,0,0,4.313-4.313V92.224a10.368,10.368,0,0,0-.172-1.906,10.648,10.648,0,0,0-.877-2.746l-1.217-2.553-2.06-4.335-2.524-5.3-4.016-8.442a3.471,3.471,0,0,0-3.135-1.981H39.235a3.474,3.474,0,0,0-2.432.994Z" transform="translate(-1.805 -3.974)" fill="#4c5061"/>
            <path id="パス_3390" data-name="パス 3390" d="M8.067,71.022V117.9a4.313,4.313,0,0,0,4.313,4.313H26.522V73.12l-7.3-7.163a3.459,3.459,0,0,0-2.432-1H13.333a3.463,3.463,0,0,0-2.854,1.493l-1.785,2.57c-.213.682-.414,1.316-.627,2" transform="translate(-0.494 -3.974)" fill="#4c5061"/>
            <path id="パス_3391" data-name="パス 3391" d="M8.067,76.065v5.3H56.115l-2.524-5.3Z" transform="translate(-0.494 -4.654)" fill="#f2e2dc"/>
            <path id="パス_3392" data-name="パス 3392" d="M8.067,86.326v5.3h52.2a10.625,10.625,0,0,0-.878-2.744l-1.216-2.554Z" transform="translate(-0.494 -5.281)" fill="#f2e2dc"/>
            <rect id="長方形_1066" data-name="長方形 1066" width="1.671" height="49.09" transform="translate(26.029 69.145)" fill="#29190f"/>
            <path id="パス_3393" data-name="パス 3393" d="M53.386,54.306l5.138,3.4a.69.69,0,0,0,.958-.194l2.121-3.2a.692.692,0,0,0-.194-.958l-5.138-3.4a.691.691,0,0,0-.958.194l-2.121,3.2a.69.69,0,0,0,.194.958" transform="translate(-3.247 -3.049)" fill="#29190f"/>
            <path id="パス_3394" data-name="パス 3394" d="M58.852,58.579a1.493,1.493,0,0,0,1.249-.671l2.121-3.2A1.5,1.5,0,0,0,61.8,52.63l-5.138-3.4a1.5,1.5,0,0,0-2.077.422l-2.121,3.2a1.5,1.5,0,0,0,.422,2.077l5.138,3.4a1.492,1.492,0,0,0,.828.25m1.958-4.667L58.82,56.919l-4.944-3.276,1.992-3.006Z" transform="translate(-3.195 -2.996)" fill="#4c5061"/>
            <path id="パス_3395" data-name="パス 3395" d="M14.242,59.679l5.6-4.034a1.914,1.914,0,0,0,.717-1.192l.208-2.284c.037-.4-.226-.513-.586-.253l-5.6,4.034a1.914,1.914,0,0,0-.717,1.192l-.208,2.284c-.036.4.226.513.586.253" transform="translate(-0.835 -3.168)" fill="#29190f"/>
            <path id="パス_3396" data-name="パス 3396" d="M13.851,60.491a1.312,1.312,0,0,0,.765-.275l5.594-4.034a2.606,2.606,0,0,0,1.013-1.71l.208-2.284a1.1,1.1,0,0,0-.259-.874,1.078,1.078,0,0,0-1.463-.029l-5.6,4.034A2.612,2.612,0,0,0,13.1,57.03l-.208,2.283a1.1,1.1,0,0,0,.259.874.935.935,0,0,0,.7.3M19.923,52.9l-.131,1.435a1.235,1.235,0,0,1-.421.674L14.4,58.6l.131-1.435a1.233,1.233,0,0,1,.422-.675Z" transform="translate(-0.788 -3.121)" fill="#4c5061"/>
            <path id="パス_3397" data-name="パス 3397" d="M48.8,116.234H37.434a1.805,1.805,0,0,1-1.91-1.824l.961-18.527a2.047,2.047,0,0,1,2.1-1.824H49.947a1.806,1.806,0,0,1,1.91,1.824L50.9,114.41a2.047,2.047,0,0,1-2.1,1.824" transform="translate(-2.173 -5.755)" fill="#c94660"/>
            <path id="パス_3398" data-name="パス 3398" d="M49.239,106.753H37.127l.033-.64H49.272a1.857,1.857,0,0,0,1.9-1.652l.263-5.064h.7l-.263,5.064a2.575,2.575,0,0,1-2.64,2.293" transform="translate(-2.271 -6.081)" fill="#29190f"/>
            <path id="パス_3399" data-name="パス 3399" d="M48.808,117.654H38.684l.034-.639H48.841a1.857,1.857,0,0,0,1.9-1.653l.173-3.328h.7l-.173,3.328a2.575,2.575,0,0,1-2.64,2.293" transform="translate(-2.367 -6.854)" fill="#29190f"/>
            <path id="パス_3400" data-name="パス 3400" d="M16.251,117.341H7.816A1.806,1.806,0,0,1,5.9,115.517L6.867,96.99a2.046,2.046,0,0,1,2.1-1.824H17.4a1.805,1.805,0,0,1,1.91,1.824l-.961,18.527a2.047,2.047,0,0,1-2.1,1.824" transform="translate(-0.361 -5.822)" fill="#c94660"/>
            <path id="パス_3401" data-name="パス 3401" d="M16.694,107.86H7.508l.033-.639h9.186a1.856,1.856,0,0,0,1.9-1.653l.264-5.064h.7l-.263,5.064a2.575,2.575,0,0,1-2.64,2.293" transform="translate(-0.459 -6.149)" fill="#29190f"/>
            <path id="パス_3402" data-name="パス 3402" d="M16.264,118.761h-7.2l.035-.639h7.2a1.857,1.857,0,0,0,1.9-1.653l.173-3.328h.7l-.173,3.328a2.575,2.575,0,0,1-2.64,2.293" transform="translate(-0.555 -6.922)" fill="#29190f"/>
            <path id="パス_3403" data-name="パス 3403" d="M25.2,100.853h6.234a1.428,1.428,0,0,0,1.428-1.428V97.441a1.428,1.428,0,0,0-1.428-1.429H25.2a1.428,1.428,0,0,0-1.428,1.429v1.985a1.428,1.428,0,0,0,1.428,1.428" transform="translate(-1.454 -5.874)" fill="#29190f"/>
            <path id="パス_3404" data-name="パス 3404" d="M25.2,115.337h6.234a1.428,1.428,0,0,0,1.428-1.428v-1.985a1.428,1.428,0,0,0-1.428-1.428H25.2a1.428,1.428,0,0,0-1.428,1.428v1.985a1.428,1.428,0,0,0,1.428,1.428" transform="translate(-1.454 -6.76)" fill="#29190f"/>
            <g id="グループ_1112" data-name="グループ 1112" transform="translate(0 0.001)" style="mix-blend-mode: overlay;isolation: isolate">
              <g id="グループ_1111" data-name="グループ 1111">
                <g id="グループ_1110" data-name="グループ 1110" clip-path="url(#clip-path-3)">
                  <path id="パス_3405" data-name="パス 3405" d="M91.055,69.208a2.171,2.171,0,0,0-3.273-1.052L81.595,57.505a12.032,12.032,0,0,0-6.123-5.252,24.326,24.326,0,0,0-5.208-3.691,23.134,23.134,0,0,0-9.023-2.612,4.046,4.046,0,0,0,.04-2.363c.3.052.6.108.892.171a25.311,25.311,0,0,1,6.19,2.169,25.773,25.773,0,0,1,5.508,3.737,12.593,12.593,0,0,1,6.476,5.316l6.545,10.78a2.341,2.341,0,0,1,3.46,1.066l11.422,18.183a1.9,1.9,0,0,1,0,2.028Z" transform="translate(-3.747 -2.668)" fill="#fbd5a2"/>
                  <path id="パス_3406" data-name="パス 3406" d="M57.947,259.965l-.662-5.642h-.054l-.011-.558-3.372-28.75L52.628,214.6l.715-15.922.146-.015,3.021,26.947L59.7,254.019l.01.551h.052l.606,5.394Z" transform="translate(-3.22 -12.155)" fill="#fbd5a2"/>
                  <path id="パス_3407" data-name="パス 3407" d="M55.547,37.145,55.178,35.4,55,34.572a3.932,3.932,0,0,1,2.308,2.38l.109.314a3.573,3.573,0,0,0-1.871-.12" transform="translate(-3.365 -2.116)" fill="#fbd5a2"/>
                  <path id="パス_3408" data-name="パス 3408" d="M54.7,6.438c-.435-.256-.9-.5-1.383-.735a28.173,28.173,0,0,0-2.628-1.131C44.325,2.2,39.823,3.11,36.7,5.1a2.026,2.026,0,0,0-.312-.057A2.55,2.55,0,0,0,34.28,3.9H30.706a2.648,2.648,0,0,0-2.585,2.7v.935a2.649,2.649,0,0,0,2.585,2.7h.053a2.259,2.259,0,0,0,.806.631,16.051,16.051,0,0,0-1.237,2.965h0l1.634,6.039-.136.468A1.283,1.283,0,0,0,32.05,21.5l.94,1.172-1.243,6.406a8,8,0,0,0,.305,3.869l-.341,1.9a2.884,2.884,0,0,0-.042.549l-1.348-.054a2.759,2.759,0,0,1-2.6-3.263l.361-1.927a7.763,7.763,0,0,1-.323-3.916l1.314-6.483-.993-1.187a1.256,1.256,0,0,1-.239-1.173l.145-.474-1.727-6.112h0a15.767,15.767,0,0,1,1.31-3,2.389,2.389,0,0,1-.854-.639h-.054a2.737,2.737,0,0,1-2.734-2.734V3.489A2.736,2.736,0,0,1,26.657.756h3.78a2.731,2.731,0,0,1,2.228,1.155,2.369,2.369,0,0,1,.33.058c3.3-2.013,8.067-2.939,14.793-.533q1.5.538,2.779,1.144c.514.238,1,.485,1.463.744a17.108,17.108,0,0,1,6.779,6.25A18.718,18.718,0,0,0,54.7,6.438" transform="translate(-1.464 -0.001)" fill="#fbd5a2"/>
                  <path id="パス_3409" data-name="パス 3409" d="M103.088,124.216l.23-1.695a1.938,1.938,0,0,1,1.45,2.332l-.011.729a1.847,1.847,0,0,0-1.668-1.366" transform="translate(-6.307 -7.497)" fill="#fbd5a2"/>
                  <path id="パス_3410" data-name="パス 3410" d="M1.678,266.077c.009-.017.021-.032.03-.048.1-.177.212-.351.328-.52.017-.024.031-.052.048-.076h0a7.637,7.637,0,0,1,2.191-2.083l.977-.487,1.291-.644h0l2.391-1.192h0l.66-.328,4.581-2.284h0l.276-.137.306-.153h-.077s0-.023-.006-.06c-.065-.683-.724-7.634-1.541-18.341-.094-1.233-.19-2.521-.287-3.849-.284-3.875-.581-8.14-.874-12.7C10.953,207.22,9.983,187.662,9.765,168.6a10.347,10.347,0,0,0,1.224.974,1.833,1.833,0,0,0,1,.3,1.863,1.863,0,0,0,1.307-.542,1.777,1.777,0,0,0,1.355-.069c.192,19.022,1.121,38.587,2.1,54.515.277,4.506.558,8.719.827,12.548.092,1.312.182,2.586.271,3.8.773,10.579,1.4,17.446,1.457,18.12,0,.037.006.06.006.06h.072l-.29.15-.26.136L14.5,260.848l-.623.324h0l-2.26,1.177h0l-1.221.636h0l-.925.482A7.369,7.369,0,0,0,7.4,265.525h0c-.016.024-.029.051-.045.075-.11.167-.214.338-.31.514l-.029.047h0a7.818,7.818,0,0,0-.933,3.712v1.531a1.746,1.746,0,0,0,.479,1.209,1.6,1.6,0,0,0,1.158.5H2.423a1.733,1.733,0,0,1-1.731-1.732v-1.549a7.646,7.646,0,0,1,.988-3.757Z" transform="translate(-0.042 -10.316)" fill="#fbd5a2"/>
                  <path id="パス_3411" data-name="パス 3411" d="M1.224,140.954c0-.011.01-.021.014-.031a10.372,10.372,0,0,1,1.694-2.846A2.434,2.434,0,0,1,1.809,135.3l5.764-20.188V114H7.454a1.806,1.806,0,0,1-1.911-1.825l.962-18.526A1.913,1.913,0,0,1,7.573,92.08V69.524c.213-.682.414-1.316.627-2l1.784-2.57a3.514,3.514,0,0,1,.457-.527,25.53,25.53,0,0,1,2.231-6.966l0,0c.1-.2.211-.4.315-.6l.038-.41a1.914,1.914,0,0,1,.717-1.193l.276-.2a25.869,25.869,0,0,1,6.862-7.292h0a25.672,25.672,0,0,1,7.1-3.548,3.943,3.943,0,0,1,2.569-2.947l1.7-.592-.04-.2a2.517,2.517,0,0,0,.494.074l2.692.113.52,2.711-1.609.585a3.852,3.852,0,0,0-2.43,2.911,23.871,23.871,0,0,0-6.708,3.506h0a25.144,25.144,0,0,0-6.488,7.2l-.261.2a1.91,1.91,0,0,0-.678,1.178l-.036.406c-.1.2-.2.391-.3.591l0,0A26.052,26.052,0,0,0,15.3,66.84a3.362,3.362,0,0,0-.432.52L13.176,69.9c-.2.673-.391,1.3-.592,1.974V94.159A1.894,1.894,0,0,0,11.573,95.7l-.909,18.3a1.744,1.744,0,0,0,1.806,1.8h.114v1.1L7.133,136.86A2.456,2.456,0,0,0,8.194,139.6a10.375,10.375,0,0,0-1.6,2.811c0,.011-.009.021-.013.031a28.47,28.47,0,0,0-1.034,10.373,12.518,12.518,0,0,0,3.691,7.476,1.875,1.875,0,0,1-.331.037,2.021,2.021,0,0,1-.625-.1,2.008,2.008,0,0,1-2.439.247A13.083,13.083,0,0,1,.13,151.453a27.612,27.612,0,0,1,1.094-10.5" transform="translate(0 -2.477)" fill="#fbd5a2"/>
                  <path id="パス_3412" data-name="パス 3412" d="M105.765,100.653a10.306,10.306,0,0,0-.832-3.138,12.793,12.793,0,0,0-1.441-3.726l-.324-.559.351-.19a2.33,2.33,0,0,0,.42-.291,12.59,12.59,0,0,1,.944,2.689,9.994,9.994,0,0,1,.891,5.156Z" transform="translate(-6.312 -5.675)" fill="#fbd5a2"/>
                  <path id="パス_3413" data-name="パス 3413" d="M89.931,169.076a2.151,2.151,0,0,0,.061.552c-.038-.026-.081-.047-.116-.075l.043-.478Z" transform="translate(-5.499 -10.345)" fill="#fbd5a2"/>
                  <path id="パス_3414" data-name="パス 3414" d="M48.9,277.251v-.942l-.444-3.84a7.64,7.64,0,0,1,.4-.813h0c.009-.017.021-.031.03-.048q.153-.266.329-.521c.016-.024.03-.051.047-.076h0a7.633,7.633,0,0,1,2.191-2.082l.977-.487,1.292-.645h0l2.39-1.191h0l.653-.325,4.273-2.13h2.6l-.042.023-4.337,2.26-.618.321h0l-2.26,1.177h0l-1.221.637-.924.482a7.368,7.368,0,0,0-2.072,2.058h0c-.017.024-.029.051-.045.075-.11.167-.214.339-.311.514-.009.016-.02.031-.028.047h0a7.822,7.822,0,0,0-.934,3.712v1.531a1.747,1.747,0,0,0,.48,1.209,1.64,1.64,0,0,0,.52.366,1.565,1.565,0,0,0,.606.131H49.592a1.644,1.644,0,0,1-1.063-.375,1.743,1.743,0,0,0,.368-1.068" transform="translate(-2.964 -16.162)" fill="#fbd5a2"/>
                </g>
              </g>
            </g>
          </g>
        </g>
      </g>
    </g>
    <text id="工程管理を_より正確に_していきたい" data-name="工程管理を
より正確に
していきたい" transform="translate(218 3012.614)" font-size="13" font-family="NotoSansJP-Bold, Noto Sans JP" font-weight="700"><tspan x="-32.5" y="0">工程管理</tspan><tspan y="0">を</tspan><tspan x="-32.37" y="17">より</tspan><tspan y="17">正確</tspan><tspan y="17">に</tspan><tspan x="-38.805" y="34">していきたい</tspan></text>
  </g>
</svg>
