<svg xmlns="http://www.w3.org/2000/svg" xmlns:xlink="http://www.w3.org/1999/xlink" width="151" height="355.402" viewBox="0 0 151 355.402">
  <defs>
    <clipPath id="clip-path">
      <rect id="長方形_997" data-name="長方形 997" width="137.779" height="268.615" fill="none"/>
    </clipPath>
    <clipPath id="clip-path-2">
      <path id="パス_2622" data-name="パス 2622" d="M113.933,93.424,87.288,124.037a1.876,1.876,0,0,0,.6,3.056l26.387,12.635a3.438,3.438,0,0,0,3.906-.9l26.645-30.612a1.876,1.876,0,0,0-.6-3.055L117.838,92.526a2.959,2.959,0,0,0-1.278-.276,3.489,3.489,0,0,0-2.628,1.174" transform="translate(-86.747 -92.25)" fill="none"/>
    </clipPath>
    <linearGradient id="linear-gradient" x1="-0.938" y1="2.603" x2="-0.926" y2="2.603" gradientUnits="objectBoundingBox">
      <stop offset="0" stop-color="#edb9b9"/>
      <stop offset="1" stop-color="#96c4fa"/>
    </linearGradient>
  </defs>
  <g id="worries_04" transform="translate(-386 -2971)">
    <g id="グループ_1122" data-name="グループ 1122" transform="translate(90 -10)">
      <circle id="楕円形_22" data-name="楕円形 22" cx="53.5" cy="53.5" r="53.5" transform="translate(340 2981)" fill="#ffff34"/>
      <circle id="楕円形_23" data-name="楕円形 23" cx="9.5" cy="9.5" r="9.5" transform="translate(376 3077)" fill="#ffff34"/>
      <circle id="楕円形_24" data-name="楕円形 24" cx="5" cy="5" r="5" transform="translate(368 3093)" fill="#ffff34"/>
    </g>
    <g id="グループ_1084" data-name="グループ 1084" transform="translate(386 3057.787)">
      <g id="グループ_1079" data-name="グループ 1079">
        <g id="グループ_1078" data-name="グループ 1078" clip-path="url(#clip-path)">
          <path id="パス_2535" data-name="パス 2535" d="M126.1,126.79A27.619,27.619,0,0,1,128,135.225c.056,3.27,4.545,2.94,4.49-.3a32,32,0,0,0-1.876-9.886c-1.265-3-5.774-1.26-4.5,1.748" transform="translate(-11.013 -10.803)" fill="#cc715e"/>
          <path id="パス_2536" data-name="パス 2536" d="M107.474,124.863h0a10.327,10.327,0,0,0,6.545-13.056L99.8,69.265a10.327,10.327,0,1,0-19.6,6.51l14.218,42.543a10.327,10.327,0,0,0,13.056,6.545" transform="translate(-6.97 -5.441)" fill="#f5e2da"/>
          <path id="パス_2537" data-name="パス 2537" d="M86.383,102.027l22.961-8.151L98.754,64.049A12.182,12.182,0,1,0,75.793,72.2Z" transform="translate(-6.569 -4.894)" fill="#c39cfc"/>
          <path id="パス_2538" data-name="パス 2538" d="M100.461,140.266H61.02V198.94a17.959,17.959,0,1,0,35.918,0Z" transform="translate(-5.338 -12.271)" fill="#8a67bc"/>
          <path id="パス_2539" data-name="パス 2539" d="M62.968,191.606,11.932,231.2l24.891,27.773L85.016,219.92c8.553-6.931,9.973-19.186,3.111-26.843-6.261-6.985-17.226-7.627-25.159-1.472" transform="translate(-1.044 -16.393)" fill="#8a67bc"/>
          <path id="パス_2540" data-name="パス 2540" d="M41.447,259.547,16.434,231.638l-1.308,1.069L40.1,260.571Z" transform="translate(-1.323 -20.265)" fill="#29190f"/>
          <path id="パス_2541" data-name="パス 2541" d="M29.795,289.205.442,256.453a2.165,2.165,0,0,1,.416-3.012l.952-.853,14.519-10.557,18.551,20.7L38.137,278.9a10.8,10.8,0,0,1-3.755,8.834l-1.547,1.387a2.166,2.166,0,0,1-3.04.085" transform="translate(0 -21.174)" fill="#d6bbad"/>
          <path id="パス_2542" data-name="パス 2542" d="M8.088,262.4l-.8.031L8.3,254.579A7.286,7.286,0,0,0,7.288,249.7l.7-.5a7.952,7.952,0,0,1,1.11,5.36Z" transform="translate(-0.637 -21.801)" fill="#ab948a"/>
          <path id="パス_2543" data-name="パス 2543" d="M31.664,275.628l-4.3-19.54.79-.285,4.3,19.54Z" transform="translate(-2.394 -22.379)" fill="#ab948a"/>
          <path id="パス_2544" data-name="パス 2544" d="M17.585,242.032l-3.227,2.346.169,1.818a5.815,5.815,0,0,0,1.438,3.373l4,4.459a2.518,2.518,0,0,0,.327.3l1.686,1.318a4.736,4.736,0,0,0,4.2.707l3.414-.934Z" transform="translate(-1.256 -21.174)" fill="#29190f"/>
          <path id="パス_2545" data-name="パス 2545" d="M38.5,267.842l-4.908-5.477.642-.577,3.927,4.383Z" transform="translate(-2.939 -22.903)" fill="#29190f"/>
          <path id="パス_2546" data-name="パス 2546" d="M39.258,271.566l-4.8-5.352.642-.577,3.818,4.261Z" transform="translate(-3.015 -23.239)" fill="#29190f"/>
          <path id="パス_2547" data-name="パス 2547" d="M40.014,275.281l-4.706-5.252.642-.576,3.725,4.156Z" transform="translate(-3.089 -23.573)" fill="#29190f"/>
          <path id="パス_2548" data-name="パス 2548" d="M40.729,278.984,36,273.7,32.71,258.482l-.167-.775.789-.284.5,2.309.378,1.748.368,1.7.38,1.757.368,1.7.382,1.759.366,1.7.68,3.152,3.642,4.064Z" transform="translate(-2.847 -22.521)" fill="#ab948a"/>
          <path id="パス_2549" data-name="パス 2549" d="M33.787,289.28,1.81,253.6l-1.09.975a2.138,2.138,0,0,0-.165,3.017l29.126,32.5a2.137,2.137,0,0,0,3.017.164Z" transform="translate(-0.001 -22.186)" fill="#f5eae5"/>
          <path id="パス_2550" data-name="パス 2550" d="M36.35,252.413l5.78,6.449a2.207,2.207,0,0,1-1.1,3.457L37.4,263.6l-8.738-9.75,5.5-1.935a2.02,2.02,0,0,1,2.195.5" transform="translate(-2.507 -22.027)" fill="#d6bbad"/>
          <path id="パス_2551" data-name="パス 2551" d="M27.67,252.991h0a6.052,6.052,0,0,1-6.24-1.716l-2.553-2.849a6.038,6.038,0,0,1-1.119-6.152l.089-.242Z" transform="translate(-1.519 -21.174)" fill="#f5eae5"/>
          <path id="パス_2552" data-name="パス 2552" d="M39.221,286.221,29.108,274.937c-1.819-2.029-5.25-1.93-7.646.216l-.487-.545c2.752-2.467,6.689-2.576,8.776-.247l9.806,10.94c-.1.31-.209.615-.336.92" transform="translate(-1.835 -23.856)" fill="#ab948a"/>
          <path id="パス_2553" data-name="パス 2553" d="M20.038,260.555l-3.351-3.739c-1.149-1.282-3.544-.38-3.94,1.485l-1.134,5.334,6.9,7.694,1.933-9.089a1.9,1.9,0,0,0-.4-1.685" transform="translate(-1.016 -22.415)" fill="#29190f"/>
          <path id="パス_2554" data-name="パス 2554" d="M79.306,126.632l-.124,37.253-1.029,94.375H40.858l2.9-131.628Z" transform="translate(-3.575 -11.078)" fill="#a37adb"/>
          <path id="パス_2555" data-name="パス 2555" d="M46.521,257.036h-1.7l2.1-84.161h1.7Z" transform="translate(-3.921 -15.124)" fill="#8a67bc"/>
          <path id="パス_2556" data-name="パス 2556" d="M78.847,129.641V160.9s9.979-10.016,12.859-19.151a68.313,68.313,0,0,0,3.21-15.117Z" transform="translate(-6.898 -11.078)" fill="#b06c6b"/>
          <path id="パス_2557" data-name="パス 2557" d="M40.986,264.923h37.2l-.01,1.687H40.948Z" transform="translate(-3.582 -23.177)" fill="#29190f"/>
          <path id="パス_2558" data-name="パス 2558" d="M67.259,218.276l-.989-.531,9.018-13.87.989.53Z" transform="translate(-5.798 -17.836)" fill="#29190f"/>
          <path id="パス_2559" data-name="パス 2559" d="M66.553,238.114l-1.227-.4,8.1-19.868,1.227.4Z" transform="translate(-5.715 -19.058)" fill="#29190f"/>
          <path id="パス_2560" data-name="パス 2560" d="M95.613,292.311H51.632a2.35,2.35,0,0,1-2.121-2.321l-.086-1.278.633-17.858h27.8l14.774,8.365a11.648,11.648,0,0,1,4.656,8.693l.139,2.078a2,2,0,0,1-1.81,2.321" transform="translate(-4.324 -23.696)" fill="#d6bbad"/>
          <path id="パス_2561" data-name="パス 2561" d="M60.178,291.7l-.471.618-5.572-5.989a7.911,7.911,0,0,0-4.477-2.508l.031-.855a8.634,8.634,0,0,1,4.917,2.75Z" transform="translate(-4.344 -24.755)" fill="#ab948a"/>
          <path id="パス_2562" data-name="パス 2562" d="M85.166,282.967l-18.077-9.841.264-.779,18.077,9.841Z" transform="translate(-5.869 -23.826)" fill="#ab948a"/>
          <path id="パス_2563" data-name="パス 2563" d="M50.108,270.855l-.141,3.969,1.539,1.087a6.166,6.166,0,0,0,3.551,1.18h5.989a2.459,2.459,0,0,0,.442-.04l2.082-.377a4.325,4.325,0,0,0,3.15-2.653l1.371-3.166Z" transform="translate(-4.371 -23.696)" fill="#29190f"/>
          <path id="パス_2564" data-name="パス 2564" d="M83.258,272.689H75.9l-.058-.863h5.885Z" transform="translate(-6.635 -23.781)" fill="#29190f"/>
          <path id="パス_2565" data-name="パス 2565" d="M86.665,274.61H79.478l-.057-.863h5.72Z" transform="translate(-6.948 -23.949)" fill="#29190f"/>
          <path id="パス_2566" data-name="パス 2566" d="M90.065,276.527H83.014l-.058-.863h5.581Z" transform="translate(-7.257 -24.116)" fill="#29190f"/>
          <path id="パス_2567" data-name="パス 2567" d="M93.413,278.455H86.321l-14.045-7.712-.714-.393.262-.777,2.131,1.17,1.613.885,1.572.863,1.621.89,1.572.864,1.625.889,1.564.86,2.909,1.6h5.457Z" transform="translate(-6.261 -23.584)" fill="#ab948a"/>
          <path id="パス_2568" data-name="パス 2568" d="M97.339,290.425H49.427l.1,1.459a2.32,2.32,0,0,0,2.282,2.139H95.441a1.975,1.975,0,0,0,2-2.139Z" transform="translate(-4.324 -25.408)" fill="#f5eae5"/>
          <path id="パス_2569" data-name="パス 2569" d="M69.868,263.53h8.66a2.357,2.357,0,0,1,2.048,3.128l-1.233,3.556H66.251l1.866-5.385a1.856,1.856,0,0,1,1.751-1.3" transform="translate(-5.796 -23.055)" fill="#d6bbad"/>
          <path id="パス_2570" data-name="パス 2570" d="M64.838,270.855h0a5.575,5.575,0,0,1-5.209,3.5H55.8a6.545,6.545,0,0,1-5.547-3.273l-.136-.228Z" transform="translate(-4.385 -23.696)" fill="#f5eae5"/>
          <path id="パス_2571" data-name="パス 2571" d="M98.316,283.946H83.164c-2.725,0-4.766,2.621-4.551,5.837h-.732c-.247-3.7,2.1-6.7,5.224-6.7H97.8c.183.28.356.566.518.863" transform="translate(-6.812 -24.766)" fill="#ab948a"/>
          <path id="パス_2572" data-name="パス 2572" d="M66.233,281.3H61.213c-1.721,0-2.488,2.386-1.261,3.926l3.51,4.4H73.793l-5.981-7.5a2.052,2.052,0,0,0-1.58-.825" transform="translate(-5.192 -24.609)" fill="#29190f"/>
          <path id="パス_2573" data-name="パス 2573" d="M100.765,165.608h-60.3L43.767,71c.442-9.132,6.455-16.871,14.946-20.5l.278-.12a27.69,27.69,0,0,1,10.627-2.092,27.156,27.156,0,0,1,17.15,5.965c.481.4.949.808,1.4,1.232a22.834,22.834,0,0,1,7.268,14.879Z" transform="translate(-3.54 -4.225)" fill="#c39cfc"/>
          <path id="パス_2574" data-name="パス 2574" d="M18.391,124.168h0a11.923,11.923,0,0,1-3.421-16.512L43.48,64.421A11.924,11.924,0,0,1,63.413,77.512L34.9,120.747a11.924,11.924,0,0,1-16.512,3.421" transform="translate(-1.138 -5.165)" fill="#f5e2da"/>
          <path id="パス_2575" data-name="パス 2575" d="M49.24,104.9,26.048,88.981,46.729,58.855A14.066,14.066,0,1,1,69.922,74.775Z" transform="translate(-2.279 -4.615)" fill="#c39cfc"/>
          <path id="パス_2576" data-name="パス 2576" d="M88.517,54.258,81.254,71.7,60.462,50.5l.278-.119a27.7,27.7,0,0,1,10.628-2.093,27.155,27.155,0,0,1,17.149,5.965" transform="translate(-5.29 -4.225)" fill="#f5e2da"/>
          <path id="パス_2577" data-name="パス 2577" d="M102.094,100.053l-1.022-.843.511.422-.512-.42a17.273,17.273,0,0,0,2.6-14.481A57.313,57.313,0,0,0,97.3,69.609l1.111-.721a57.554,57.554,0,0,1,6.543,15.51,18.282,18.282,0,0,1-2.862,15.655" transform="translate(-8.512 -6.027)" fill="#29190f"/>
          <path id="パス_2578" data-name="パス 2578" d="M54.929,98.539l1.267.9-5.84,8.963-1.266-.9Z" transform="translate(-4.295 -8.621)" fill="#29190f"/>
          <path id="パス_2579" data-name="パス 2579" d="M73.739,8.4a8.4,8.4,0,1,1-8.4-8.4,8.4,8.4,0,0,1,8.4,8.4" transform="translate(-4.981 0)" fill="#29190f"/>
          <path id="パス_2580" data-name="パス 2580" d="M65.463,23.671A14.057,14.057,0,1,0,80.13,10.25,14.058,14.058,0,0,0,65.463,23.671" transform="translate(-5.726 -0.895)" fill="#29190f"/>
          <path id="パス_2581" data-name="パス 2581" d="M68.215,27.352A13.186,13.186,0,1,0,81.972,14.764,13.186,13.186,0,0,0,68.215,27.352" transform="translate(-5.967 -1.29)" fill="#cc715e"/>
          <path id="パス_2582" data-name="パス 2582" d="M77.745,42.622l7.979,2.818a8.781,8.781,0,0,0,10.847-9.619l-1.525-9.712L76.754,24.677Z" transform="translate(-6.715 -2.159)" fill="#cc715e"/>
          <path id="パス_2583" data-name="パス 2583" d="M85.827,28.455a3.1,3.1,0,0,1,1.232-.667c.514-.146.694.66.184.8a2.133,2.133,0,0,0-.859.471c-.4.351-.958-.257-.558-.609" transform="translate(-7.496 -2.43)" fill="#29190f"/>
          <path id="パス_2584" data-name="パス 2584" d="M92.631,28.586a3.09,3.09,0,0,1,1.232-.666c.514-.146.694.661.184.8a2.155,2.155,0,0,0-.859.471c-.4.353-.958-.256-.558-.609" transform="translate(-8.092 -2.441)" fill="#29190f"/>
          <path id="パス_2585" data-name="パス 2585" d="M84.38,12.785a3.482,3.482,0,0,1,4.145,3.623c-.468,3.675-.943,7.671-6.185,11.181-8.628,5.78-13.7,4.651-13.7,4.651s-4.395-9.03,1.594-14.89c3.839-3.756,9.645-3.933,14.144-4.565" transform="translate(-5.869 -1.115)" fill="#29190f"/>
          <path id="パス_2586" data-name="パス 2586" d="M67.834,47.815,79.65,59.248l7.173-25.817-14.775-.655Z" transform="translate(-5.934 -2.867)" fill="#cc715e"/>
          <path id="パス_2587" data-name="パス 2587" d="M68.745,95.26,65.585,84.33,63.33,76.538a4.52,4.52,0,0,0-4.573-3.2,2.933,2.933,0,0,0-2.511,3.927l2.369,8.185L61.661,95.99a4.515,4.515,0,0,0,4.568,3.194,2.93,2.93,0,0,0,2.516-3.924m-2.89,2.632a2.879,2.879,0,0,1-2.907-2.035l-3.07-10.61-2.345-8.112a1.867,1.867,0,0,1,1.6-2.5,2.874,2.874,0,0,1,2.911,2.034l2.27,7.863,3.141,10.86a1.865,1.865,0,0,1-1.6,2.5" transform="translate(-4.908 -6.415)" fill="#486dd9"/>
          <path id="パス_2588" data-name="パス 2588" d="M66.47,100.239A4.515,4.515,0,0,1,61.9,97.045L58.857,86.508l1.262-.206,3.07,10.61A2.88,2.88,0,0,0,66.1,98.947a1.865,1.865,0,0,0,1.6-2.5l-3.14-10.86,1.271-.2,3.159,10.93a2.93,2.93,0,0,1-2.516,3.924" transform="translate(-5.149 -7.47)" fill="#e3f0ff"/>
          <path id="パス_2589" data-name="パス 2589" d="M66.969,100.832a.973.973,0,0,1-.835,1.3,1.5,1.5,0,0,1-1.518-1.062.973.973,0,0,1,.835-1.3,1.5,1.5,0,0,1,1.518,1.061" transform="translate(-5.649 -8.728)" fill="#332938"/>
          <path id="パス_2590" data-name="パス 2590" d="M69.143,100.609a.973.973,0,0,1-.835,1.3,1.5,1.5,0,0,1-1.518-1.062.973.973,0,0,1,.835-1.3,1.5,1.5,0,0,1,1.518,1.061" transform="translate(-5.839 -8.708)" fill="#332938"/>
          <path id="パス_2591" data-name="パス 2591" d="M67.019,48.89l1.227-4.1c-3.31,3.385-6.792,7.574-7.98,12.232C57.939,66.14,58.53,71.843,58.53,71.843l1.684.071c-.22-2.733-.676-5.247,1.543-13.946.951-3.721,5.262-9.079,5.262-9.079" transform="translate(-5.115 -3.918)" fill="#486dd9"/>
          <path id="パス_2592" data-name="パス 2592" d="M66.762,36.979c1.96,2.273,4.876,2.972,6.514,1.56s1.376-4.4-.584-6.673-4.876-2.972-6.514-1.56-1.377,4.4.583,6.673" transform="translate(-5.696 -2.587)" fill="#cc715e"/>
          <path id="パス_2593" data-name="パス 2593" d="M70.852,34.588a4.185,4.185,0,0,0-3.369-1.926l-.024-.763a4.908,4.908,0,0,1,4.03,2.269Z" transform="translate(-5.902 -2.791)" fill="#29190f"/>
          <rect id="長方形_996" data-name="長方形 996" width="0.763" height="3.185" transform="translate(74.342 42.271) rotate(-69.223)" fill="#29190f"/>
          <path id="パス_2594" data-name="パス 2594" d="M91,39.859a9.889,9.889,0,0,1-1.14-.114,6.87,6.87,0,0,1-2.379-.99l.428-.631a6.18,6.18,0,0,0,2.075.868,10.462,10.462,0,0,0,2.172.1l.059.761a10.868,10.868,0,0,1-1.215.01" transform="matrix(-0.848, 0.53, -0.53, -0.848, 179.056, 21.12)" fill="#29190f"/>
          <path id="パス_2595" data-name="パス 2595" d="M92.541,35.783l-.62-.445a4.523,4.523,0,0,0,.569-1.026,4.16,4.16,0,0,0-1.074.12l-.415.1-.252-2.143.757-.089.154,1.311a2.209,2.209,0,0,1,1.354.086.563.563,0,0,1,.249.37c.094.516-.475,1.375-.724,1.721" transform="translate(-7.939 -2.825)" fill="#29190f"/>
          <path id="パス_2596" data-name="パス 2596" d="M86.586,31.553c-.027.622.224,1.14.562,1.154s.635-.477.662-1.1-.224-1.14-.562-1.154-.635.477-.662,1.1" transform="translate(-7.575 -2.664)" fill="#29190f"/>
          <path id="パス_2597" data-name="パス 2597" d="M93.026,31.839c-.027.622.224,1.139.562,1.154s.635-.477.662-1.1-.224-1.14-.562-1.154-.635.477-.662,1.1" transform="translate(-8.138 -2.689)" fill="#29190f"/>
          <path id="パス_2598" data-name="パス 2598" d="M71.578,40.517a5.373,5.373,0,0,1-1.282-.231l.236-.725a4.151,4.151,0,0,0,1.474.183,3.8,3.8,0,0,0,1.493-.677l.464.606A4.5,4.5,0,0,1,72.1,40.5a3.187,3.187,0,0,1-.519.016" transform="translate(-6.15 -3.418)" fill="#29190f"/>
          <path id="パス_2599" data-name="パス 2599" d="M21.425,108.55h0c6.043-1.09,11.818,2.485,12.9,7.984l10.1,36.475-17.456,3.149L12.444,120.48c-1.082-5.5,2.938-10.841,8.981-11.93" transform="translate(-1.073 -9.479)" fill="#f5e2da"/>
          <path id="パス_2600" data-name="パス 2600" d="M55.371,162.824a29.918,29.918,0,0,0-7.557-5.539c-3.223-1.475-.946-5.791,2.245-4.331a34.668,34.668,0,0,1,9,6.155c2.427,2.557-1.255,6.282-3.691,3.715" transform="translate(-4.046 -13.355)" fill="#cc715e"/>
          <path id="パス_2601" data-name="パス 2601" d="M53.026,158.038s-7.724-10.444-16.1-7.386-10.634,6.094-9.7,8.948,2.79,6.762,10.214,6.723,15.588-8.285,15.588-8.285" transform="translate(-2.365 -13.131)" fill="#cc715e"/>
          <path id="パス_2602" data-name="パス 2602" d="M54.864,169.181a29.947,29.947,0,0,0-4.288-8.331c-2.226-2.759,1.739-5.6,3.942-2.873a34.721,34.721,0,0,1,5.308,9.528c1.029,3.371-3.928,5.061-4.962,1.675" transform="translate(-4.367 -13.724)" fill="#cc715e"/>
          <path id="パス_2603" data-name="パス 2603" d="M50.847,172.489a35.815,35.815,0,0,0-5.741-9.891c-1-1.116-.423-3.043.692-3.815a2.806,2.806,0,0,1,3.815.692,39.967,39.967,0,0,1,6.408,11.2c1.223,3.32-3.953,5.128-5.174,1.814" transform="translate(-3.901 -13.849)" fill="#cc715e"/>
          <path id="パス_2604" data-name="パス 2604" d="M54.411,174.92a1.9,1.9,0,0,0,.8-.1,1.862,1.862,0,0,0,1.045-.9,1.669,1.669,0,0,0,.1-1.334,1.732,1.732,0,0,0-1.486-1.125,1.89,1.89,0,0,0-.8.1,1.861,1.861,0,0,0-1.044.9,1.665,1.665,0,0,0-.1,1.334,1.728,1.728,0,0,0,1.486,1.125m.42-2.946a1.2,1.2,0,0,1,1.048.785,1.163,1.163,0,0,1-.074.929,1.354,1.354,0,0,1-.76.648,1.281,1.281,0,0,1-1.637-.711,1.161,1.161,0,0,1,.075-.928,1.352,1.352,0,0,1,.76-.649,1.391,1.391,0,0,1,.588-.074" transform="translate(-4.622 -15)" fill="#29190f"/>
          <path id="パス_2605" data-name="パス 2605" d="M45.924,174.291a34.894,34.894,0,0,0-5.595-9.638A2.674,2.674,0,0,1,41,160.935a2.734,2.734,0,0,1,3.718.673,38.931,38.931,0,0,1,6.244,10.916c1.192,3.235-3.852,5-5.042,1.768" transform="translate(-3.484 -14.038)" fill="#cc715e"/>
          <path id="パス_2606" data-name="パス 2606" d="M49.4,176.66a1.835,1.835,0,0,0,.783-.1,1.731,1.731,0,0,0,1.119-2.173,1.683,1.683,0,0,0-1.447-1.1,1.84,1.84,0,0,0-.784.1,1.818,1.818,0,0,0-1.017.872,1.629,1.629,0,0,0-.1,1.3,1.686,1.686,0,0,0,1.448,1.1m.409-2.87a1.172,1.172,0,0,1,1.023.765,1.233,1.233,0,0,1-.814,1.537,1.252,1.252,0,0,1-1.6-.693,1.133,1.133,0,0,1,.073-.905,1.321,1.321,0,0,1,.74-.631,1.342,1.342,0,0,1,.573-.072" transform="translate(-4.187 -15.16)" fill="#29190f"/>
          <path id="パス_2607" data-name="パス 2607" d="M58.445,171.425a1.743,1.743,0,0,0,.738-.092,1.622,1.622,0,0,0,1.053-2.031,1.552,1.552,0,0,0-1.352-1.022,1.731,1.731,0,0,0-.738.093,1.706,1.706,0,0,0-.955.815,1.515,1.515,0,0,0-.1,1.216,1.572,1.572,0,0,0,1.352,1.021m.392-2.635a1.045,1.045,0,0,1,.915.681,1.109,1.109,0,0,1-.738,1.379,1.125,1.125,0,0,1-1.438-.615,1.006,1.006,0,0,1,.068-.809,1.2,1.2,0,0,1,.672-.57,1.216,1.216,0,0,1,.522-.066" transform="translate(-4.987 -14.721)" fill="#29190f"/>
          <path id="パス_2608" data-name="パス 2608" d="M40.812,175.259a27.779,27.779,0,0,0-4.456-7.472c-2.221-2.427,1.8-5.559,3.995-3.155a31.824,31.824,0,0,1,5.15,8.647c1.149,3.065-3.536,5.057-4.689,1.98" transform="translate(-3.124 -14.327)" fill="#cc715e"/>
          <path id="パス_2609" data-name="パス 2609" d="M44.154,177.151a1.627,1.627,0,0,0,.777-.122,1.507,1.507,0,0,0,.859-1.944,1.449,1.449,0,0,0-1.215-.861,1.608,1.608,0,0,0-.777.122,1.585,1.585,0,0,0-.838.81,1.407,1.407,0,0,0-.02,1.132,1.447,1.447,0,0,0,1.215.862m.377-2.455a.973.973,0,0,1,.82.574,1.031,1.031,0,0,1-.606,1.32,1.055,1.055,0,0,1-1.368-.487.937.937,0,0,1,.016-.753,1.114,1.114,0,0,1,.589-.568,1.14,1.14,0,0,1,.548-.087" transform="translate(-3.747 -15.241)" fill="#29190f"/>
          <path id="パス_2610" data-name="パス 2610" d="M51.8,174.105a.339.339,0,0,0,.151-.022.328.328,0,0,0,.182-.425,55.4,55.4,0,0,0-6.442-11.552.327.327,0,0,0-.52.4,54.614,54.614,0,0,1,6.356,11.4.328.328,0,0,0,.274.2" transform="translate(-3.946 -14.171)" fill="#29190f"/>
          <path id="パス_2611" data-name="パス 2611" d="M56.525,171.27a.327.327,0,0,0,.33-.453,89.734,89.734,0,0,0-6.131-11,.327.327,0,0,0-.547.358,89.157,89.157,0,0,1,6.076,10.9.326.326,0,0,0,.271.2" transform="translate(-4.385 -13.969)" fill="#29190f"/>
          <path id="パス_2612" data-name="パス 2612" d="M45.987,175.022a.269.269,0,0,0,.248-.124c.088-.14.427-1.022-1.477-4.666a29.2,29.2,0,0,0-4.063-5.964.249.249,0,0,0-.362.343,28.627,28.627,0,0,1,3.984,5.851c1.765,3.376,1.487,4.186,1.485,4.194a.238.238,0,0,0,.085.332.234.234,0,0,0,.1.034" transform="translate(-3.523 -14.364)" fill="#29190f"/>
          <path id="パス_2613" data-name="パス 2613" d="M57.927,163.474a.323.323,0,0,0,.182-.036.326.326,0,0,0,.137-.441,36.531,36.531,0,0,0-4.473-6.6,23.808,23.808,0,0,0-4.291-3.433.327.327,0,1,0-.342.557,23.606,23.606,0,0,1,4.154,3.322,36.561,36.561,0,0,1,4.374,6.461.327.327,0,0,0,.26.173" transform="translate(-4.285 -13.378)" fill="#29190f"/>
          <path id="パス_2614" data-name="パス 2614" d="M36.005,151.582a.326.326,0,0,0,.16-.026,18.391,18.391,0,0,1,4.177-1.152.326.326,0,1,0-.088-.647,18.655,18.655,0,0,0-4.35,1.2.327.327,0,0,0,.1.625" transform="translate(-3.124 -13.101)" fill="#29190f"/>
          <path id="パス_2615" data-name="パス 2615" d="M104.4,91.329h-10.8a.927.927,0,0,1-.927-.927V82.594a.926.926,0,0,1,.927-.926h10.8a.926.926,0,0,1,.927.926V90.4a.927.927,0,0,1-.927.927" transform="translate(-8.107 -7.145)" fill="#f5eae5"/>
          <path id="パス_2616" data-name="パス 2616" d="M101.457,83.045h-1.381l-.514-3.371h1.38Z" transform="translate(-8.71 -6.97)" fill="#29190f"/>
          <path id="パス_2617" data-name="パス 2617" d="M95.692,92.656l-1.486-.528a124.17,124.17,0,0,0-1.285-21.838c-.963-7.8-7.417-16.635-9.377-18.678l.487-1.722c.978.969,9.331,11.076,10.456,20.213a124.15,124.15,0,0,1,1.205,22.554" transform="translate(-7.309 -4.365)" fill="#486dd9"/>
          <path id="パス_2618" data-name="パス 2618" d="M98.368,97.974a2.8,2.8,0,1,1-2.383-3.158,2.8,2.8,0,0,1,2.383,3.158" transform="translate(-8.119 -8.293)" fill="#332938"/>
          <path id="パス_2619" data-name="パス 2619" d="M79.792,135.1l-.954-.835,8.861-9.493.954.836Z" transform="translate(-6.897 -10.915)" fill="#a37adb"/>
          <path id="パス_2620" data-name="パス 2620" d="M79.027,145.622l6.465-9.94-1.1-.656L78.08,144.74c.316.295.632.588.947.882" transform="translate(-6.831 -11.813)" fill="#a37adb"/>
          <path id="パス_2621" data-name="パス 2621" d="M86.837,126.59l26.388,12.634a3.434,3.434,0,0,0,3.9-.9l26.645-30.612a1.875,1.875,0,0,0-.6-3.055L116.787,92.023a3.437,3.437,0,0,0-3.906.9L86.237,123.534a1.876,1.876,0,0,0,.6,3.056" transform="translate(-7.497 -8.027)" fill="#29190f"/>
        </g>
      </g>
      <g id="グループ_1081" data-name="グループ 1081" transform="translate(79.158 84.179)">
        <g id="グループ_1080" data-name="グループ 1080" clip-path="url(#clip-path-2)">
          <rect id="長方形_998" data-name="長方形 998" width="75.437" height="76.285" transform="matrix(0.669, -0.744, 0.744, 0.669, -24.272, 26.586)" fill="url(#linear-gradient)"/>
        </g>
      </g>
      <g id="グループ_1083" data-name="グループ 1083">
        <g id="グループ_1082" data-name="グループ 1082" clip-path="url(#clip-path)">
          <path id="パス_2623" data-name="パス 2623" d="M117.931,121.325l5.374-1.238-.826-4.206-5.374,1.237Zm4.075-1.86-3.123.719-.48-2.444,3.123-.719Z" transform="translate(-10.245 -10.138)" fill="#29190f"/>
          <path id="パス_2624" data-name="パス 2624" d="M128.809,130.62s5.7,3.344.7,9.878c-3.848,5.026-8.41,4.412-10.647,4.222-3.34-.284-4.477-1.9-2.06-6.4,3.239-6.035,12.007-7.7,12.007-7.7" transform="translate(-10.105 -11.427)" fill="#cc715e"/>
          <path id="パス_2625" data-name="パス 2625" d="M120.158,126.1a27.6,27.6,0,0,1,5.458,6.7c1.51,2.9,5.381.6,3.885-2.271a32.009,32.009,0,0,0-6.093-8.007c-2.47-2.116-5.73,1.451-3.25,3.575" transform="translate(-10.435 -10.662)" fill="#cc715e"/>
          <path id="パス_2626" data-name="パス 2626" d="M115.782,128.079a33.032,33.032,0,0,1,6.24,8.507,2.532,2.532,0,0,0,3.481.826,2.591,2.591,0,0,0,.826-3.481,36.87,36.87,0,0,0-7.1-9.555c-2.354-2.261-5.8,1.446-3.445,3.7" transform="translate(-10.06 -10.819)" fill="#cc715e"/>
          <path id="パス_2627" data-name="パス 2627" d="M115.813,125.235a1.749,1.749,0,0,1,.381-.641,1.718,1.718,0,0,1,1.143-.552,1.535,1.535,0,0,1,1.166.405,1.593,1.593,0,0,1,.4,1.671,1.743,1.743,0,0,1-.382.642,1.714,1.714,0,0,1-1.142.552,1.535,1.535,0,0,1-1.166-.405,1.6,1.6,0,0,1-.4-1.672m2.645.734a1.105,1.105,0,0,0-.276-1.176,1.073,1.073,0,0,0-.812-.281,1.254,1.254,0,0,0-.829.4,1.183,1.183,0,0,0,0,1.646,1.069,1.069,0,0,0,.812.28,1.243,1.243,0,0,0,.829-.4,1.266,1.266,0,0,0,.28-.469" transform="translate(-10.124 -10.851)" fill="#29190f"/>
          <path id="パス_2628" data-name="パス 2628" d="M112.464,131.612a32.19,32.19,0,0,1,6.081,8.29,2.467,2.467,0,0,0,3.392.8,2.523,2.523,0,0,0,.8-3.392A35.911,35.911,0,0,0,115.821,128c-2.294-2.2-5.648,1.41-3.357,3.609" transform="translate(-9.772 -11.138)" fill="#cc715e"/>
          <path id="パス_2629" data-name="パス 2629" d="M112.5,128.841a1.71,1.71,0,0,1,.372-.625,1.6,1.6,0,0,1,2.25-.143,1.556,1.556,0,0,1,.392,1.629,1.7,1.7,0,0,1-.373.626,1.674,1.674,0,0,1-1.113.538,1.5,1.5,0,0,1-1.136-.4,1.555,1.555,0,0,1-.392-1.63m2.578.715a1.08,1.08,0,0,0-.268-1.147,1.139,1.139,0,0,0-1.6.12,1.156,1.156,0,0,0,0,1.6,1.045,1.045,0,0,0,.792.274,1.217,1.217,0,0,0,.808-.393,1.242,1.242,0,0,0,.273-.457" transform="translate(-9.834 -11.17)" fill="#29190f"/>
          <path id="パス_2630" data-name="パス 2630" d="M120.28,123.149a1.6,1.6,0,0,1,.351-.59,1.5,1.5,0,0,1,2.106-.14,1.432,1.432,0,0,1,.363,1.52,1.6,1.6,0,0,1-.35.59,1.577,1.577,0,0,1-1.042.506,1.4,1.4,0,0,1-1.065-.367,1.451,1.451,0,0,1-.363-1.52m2.373.642a.964.964,0,0,0-.237-1.026,1.023,1.023,0,0,0-1.438.115,1.038,1.038,0,0,0-.012,1.443.923.923,0,0,0,.708.242,1.1,1.1,0,0,0,.73-.357,1.13,1.13,0,0,0,.249-.417" transform="translate(-10.516 -10.677)" fill="#29190f"/>
          <path id="パス_2631" data-name="パス 2631" d="M109.918,135.775a25.629,25.629,0,0,1,4.669,6.527c1.232,2.775,5.364.537,4.145-2.211a29.343,29.343,0,0,0-5.408-7.548c-2.166-2.1-5.581,1.12-3.406,3.232" transform="translate(-9.555 -11.536)" fill="#cc715e"/>
          <path id="パス_2632" data-name="パス 2632" d="M110.173,133.138a1.5,1.5,0,0,1,.39-.611,1.39,1.39,0,0,1,1.96-.007,1.338,1.338,0,0,1,.28,1.345,1.511,1.511,0,0,1-.391.612,1.467,1.467,0,0,1-.995.409,1.293,1.293,0,0,1-.965-.4,1.333,1.333,0,0,1-.28-1.345m2.214.589a.9.9,0,0,0-.183-.905.95.95,0,0,0-1.34.024.974.974,0,0,0-.093,1.337.859.859,0,0,0,.642.265,1.025,1.025,0,0,0,.7-.288,1.054,1.054,0,0,0,.276-.432" transform="translate(-9.632 -11.558)" fill="#29190f"/>
          <path id="パス_2633" data-name="パス 2633" d="M115.025,127.113a.3.3,0,0,1,.075-.12.3.3,0,0,1,.426,0,51.049,51.049,0,0,1,7.385,9.715.3.3,0,1,1-.527.292,50.541,50.541,0,0,0-7.288-9.584.3.3,0,0,1-.071-.307" transform="translate(-10.062 -11.102)" fill="#29190f"/>
          <path id="パス_2634" data-name="パス 2634" d="M119.2,124.212a.308.308,0,0,1,.079-.124.3.3,0,0,1,.425.013,82.767,82.767,0,0,1,7.033,9.247.3.3,0,0,1-.5.329,82.351,82.351,0,0,0-6.966-9.163.3.3,0,0,1-.067-.3" transform="translate(-10.427 -10.849)" fill="#29190f"/>
          <path id="パス_2635" data-name="パス 2635" d="M112.172,131.821a.249.249,0,0,1,.2-.164c.15-.022,1.022.016,3.4,2.973a26.891,26.891,0,0,1,3.54,5.639.23.23,0,1,1-.423.179,26.41,26.41,0,0,0-3.475-5.529c-2.2-2.74-2.988-2.805-3-2.805a.219.219,0,0,1-.249-.194.21.21,0,0,1,.008-.1" transform="translate(-9.812 -11.518)" fill="#29190f"/>
          <path id="パス_2636" data-name="パス 2636" d="M130.378,132.108a18.643,18.643,0,0,1,1.028,3.409c.16-.21.325-.415.48-.629a17.967,17.967,0,0,0-.955-3.021A33.788,33.788,0,0,0,127,125.646a.3.3,0,0,0-.472.377,33.75,33.75,0,0,1,3.846,6.085" transform="translate(-11.064 -10.982)" fill="#29190f"/>
        </g>
      </g>
    </g>
    <text id="報告書作成の_入力の手間を_減らしたい" data-name="報告書作成の
入力の手間を
減らしたい" transform="translate(483.5 3012.614)" font-size="13" font-family="NotoSansJP-Bold, Noto Sans JP" font-weight="700"><tspan x="-39" y="0">報告書作成</tspan><tspan y="0">の</tspan><tspan x="-39" y="17">入力</tspan><tspan y="17">の</tspan><tspan y="17">手間</tspan><tspan y="17">を</tspan><tspan x="-32.5" y="34">減</tspan><tspan y="34">らしたい</tspan></text>
  </g>
</svg>
