<svg xmlns="http://www.w3.org/2000/svg" xmlns:xlink="http://www.w3.org/1999/xlink" width="169" height="349.449" viewBox="0 0 169 349.449">
  <defs>
    <clipPath id="clip-path">
      <rect id="長方形_1017" data-name="長方形 1017" width="122.208" height="262.662" fill="none"/>
    </clipPath>
  </defs>
  <g id="worries_11" transform="translate(-1299 -2971)">
    <g id="グループ_1129" data-name="グループ 1129" transform="translate(1021 -10)">
      <circle id="楕円形_22" data-name="楕円形 22" cx="53.5" cy="53.5" r="53.5" transform="translate(340 2981)" fill="#ffff34"/>
      <circle id="楕円形_23" data-name="楕円形 23" cx="9.5" cy="9.5" r="9.5" transform="translate(376 3077)" fill="#ffff34"/>
      <circle id="楕円形_24" data-name="楕円形 24" cx="5" cy="5" r="5" transform="translate(368 3093)" fill="#ffff34"/>
    </g>
    <g id="グループ_1093" data-name="グループ 1093" transform="translate(1299 3057.787)">
      <g id="グループ_1092" data-name="グループ 1092" clip-path="url(#clip-path)">
        <path id="パス_2730" data-name="パス 2730" d="M121.592,127.64,97.72,108.69a9.618,9.618,0,1,0-10.6,16.047l26.851,15.2Z" transform="translate(-14.594 -18.89)" fill="#fa9378"/>
        <path id="パス_2731" data-name="パス 2731" d="M137.581,155.452a2.364,2.364,0,0,1-3.207-3.221c.051-.1,2.251-4.24.524-8.427a28.063,28.063,0,0,0-5.933-8.545,2.364,2.364,0,0,1,3.223-3.46A32.5,32.5,0,0,1,139.27,142c2.63,6.376-.631,12.291-.77,12.54a2.353,2.353,0,0,1-.919.911" transform="translate(-22.632 -23.153)" fill="#fa9378"/>
        <path id="パス_2732" data-name="パス 2732" d="M130.665,157.976a2.113,2.113,0,0,1-1.822-3.63,9.592,9.592,0,0,0,2.8-7.005,25.075,25.075,0,0,0-2.649-8.91,2.113,2.113,0,0,1,3.7-2.037,29.048,29.048,0,0,1,3.161,10.639A13.758,13.758,0,0,1,131.7,157.46a2.1,2.1,0,0,1-1.034.516" transform="translate(-22.623 -23.883)" fill="#fa9378"/>
        <path id="パス_2733" data-name="パス 2733" d="M127.236,147.651s-5.516-.8-8.136-2.961-2.984-4.1-2.984-4.1l7.367-10.337,8.894,8.439Z" transform="translate(-20.497 -22.992)" fill="#fa9378"/>
        <path id="パス_2734" data-name="パス 2734" d="M127.468,155.909a2.113,2.113,0,0,1-1.822-3.63,9.592,9.592,0,0,0,2.8-7.005,25.074,25.074,0,0,0-2.649-8.91,2.113,2.113,0,0,1,3.7-2.036,29.035,29.035,0,0,1,3.161,10.638,13.758,13.758,0,0,1-4.156,10.428,2.1,2.1,0,0,1-1.034.516" transform="translate(-22.059 -23.518)" fill="#fa9378"/>
        <path id="パス_2735" data-name="パス 2735" d="M144.02,150.432a2.364,2.364,0,0,1-4.216-1.7c.009-.108.4-4.784-2.834-7.953a28.055,28.055,0,0,0-8.818-5.521,2.364,2.364,0,0,1,1.6-4.449,32.508,32.508,0,0,1,10.527,6.593c4.926,4.826,4.257,11.548,4.226,11.831a2.359,2.359,0,0,1-.487,1.2" transform="translate(-22.346 -23.066)" fill="#fa9378"/>
        <path id="パス_2736" data-name="パス 2736" d="M137.873,148.442h0a2.641,2.641,0,0,1-3.734.016l-7.552-7.491a2.641,2.641,0,0,1,3.72-3.749l7.552,7.49a2.641,2.641,0,0,1,.015,3.734" transform="translate(-22.207 -24.086)" fill="#fa9378"/>
        <path id="パス_2737" data-name="パス 2737" d="M131.7,141.839a2.671,2.671,0,0,1-.49-3.309c.977-2.162,5.177-2.271,5.177-2.271s-3.048-4.261-6.875-5.775c-1.92-.759-6.519-.467-6.519-.467l-2.523,8.335s5.073,6.516,11.23,3.487" transform="translate(-21.266 -22.941)" fill="#fa9378"/>
        <path id="パス_2738" data-name="パス 2738" d="M133.447,139.666h0a.378.378,0,0,0,.432-.315l.177-1.12a.378.378,0,0,0-.748-.118l-.176,1.12a.377.377,0,0,0,.315.432" transform="translate(-23.5 -24.323)" fill="#29190f"/>
        <path id="パス_2739" data-name="パス 2739" d="M135.747,141.386h0a.378.378,0,0,0,.432-.315l.177-1.12a.378.378,0,0,0-.748-.118l-.176,1.12a.377.377,0,0,0,.315.432" transform="translate(-23.906 -24.627)" fill="#29190f"/>
        <path id="パス_2740" data-name="パス 2740" d="M140.474,144.266a21.726,21.726,0,0,1,1.305,6c.016.15.032.294.048.439-.153.585-.485.5-.8.229-.021-.191-.041-.384-.062-.584a20.76,20.76,0,0,0-1.256-5.79,7.22,7.22,0,0,0-3.893-3.609l.281-.769a7.954,7.954,0,0,1,4.377,4.084" transform="translate(-23.974 -24.745)" fill="#29190f"/>
        <path id="パス_2741" data-name="パス 2741" d="M134.87,157.185a.593.593,0,0,1-.076-.058,2.789,2.789,0,0,1,.1-.714,37.042,37.042,0,0,0,1.123-4.853l.79.217s-.716,3.417-1.125,4.86a1.826,1.826,0,0,0-.049.261.614.614,0,0,1-.767.287" transform="translate(-23.794 -26.754)" fill="#29190f"/>
        <path id="パス_2742" data-name="パス 2742" d="M127.874,158.2a5.85,5.85,0,0,1,1.715-3.1c1.672-1.752,2.032-5.333,2.036-5.37l.728.069c-.015.158-.385,3.87-2.234,5.807a5.468,5.468,0,0,0-1.481,2.493,2.321,2.321,0,0,1-.3.416,1.26,1.26,0,0,1-.466-.315" transform="translate(-22.572 -26.43)" fill="#29190f"/>
        <path id="パス_2743" data-name="パス 2743" d="M138.475,150.094h0a1.431,1.431,0,0,1-.157,0,1.585,1.585,0,0,1-1.08-.476,1.446,1.446,0,0,1-.417-1.075,1.559,1.559,0,1,1,1.654,1.55m-.173-2.566a1.1,1.1,0,0,0-1.072,1.033,1.043,1.043,0,0,0,.3.773,1.179,1.179,0,0,0,.8.352,1.082,1.082,0,1,0,.086-2.159,1.126,1.126,0,0,0-.118,0" transform="translate(-24.151 -25.969)" fill="#29190f"/>
        <path id="パス_2744" data-name="パス 2744" d="M123.217,130.54a9.142,9.142,0,0,0,1.666-.056c.191.016.094-.387-.014-.447a8.411,8.411,0,0,0-1.667.056c-.207.054-.134.329.015.447" transform="translate(-21.725 -22.95)" fill="#29190f"/>
        <path id="パス_2745" data-name="パス 2745" d="M115.841,142.328c.1.3.218.35.442.067a4.045,4.045,0,0,0,.288-1.909c-.1-.186-.292-.306-.442-.067a4.9,4.9,0,0,0-.288,1.909" transform="translate(-20.444 -24.763)" fill="#29190f"/>
        <path id="パス_2746" data-name="パス 2746" d="M122.7,141.965a.328.328,0,0,0,.127.3,9.963,9.963,0,0,0,5.913,2.269l4.615,4.577a2.971,2.971,0,0,0,4.185-4.219l-6.033-5.984a.331.331,0,0,0-.466.469l6.033,5.984a2.31,2.31,0,0,1-3.253,3.28l-4.712-4.674a.329.329,0,0,0-.239-.1,9.249,9.249,0,0,1-5.639-2.129.331.331,0,0,0-.531.226" transform="translate(-21.659 -24.503)" fill="#29190f"/>
        <rect id="長方形_1009" data-name="長方形 1009" width="25.033" height="22.354" transform="translate(57.108 221.624)" fill="#fa9378"/>
        <path id="パス_2747" data-name="パス 2747" d="M93.392,260.78H64.448L58.08,125.145H92.534c5.885,45.326.857,135.635.857,135.635" transform="translate(-10.252 -22.091)" fill="#54596b"/>
        <rect id="長方形_1010" data-name="長方形 1010" width="1.162" height="12.148" transform="translate(55.497 124.208)" fill="#29190f"/>
        <rect id="長方形_1011" data-name="長方形 1011" width="1.162" height="12.148" transform="translate(61.27 122.704)" fill="#29190f"/>
        <path id="パス_2748" data-name="パス 2748" d="M114.256,314.961H69.044a2.021,2.021,0,0,1-2.021-2.021v-1.113l1.88-15.551H97.478l14.612,7.285a8.933,8.933,0,0,1,4.187,7.569v1.809a2.021,2.021,0,0,1-2.021,2.021" transform="translate(-11.831 -52.299)" fill="#778ce6"/>
        <path id="パス_2749" data-name="パス 2749" d="M105.306,312.976h-.752a4.246,4.246,0,0,0-2.456-3.839l-11.324-5.226a4.212,4.212,0,0,0-1.77-.387H68.411l.091-.752H89a5.059,5.059,0,0,1,2.087.455l11.32,5.226a5,5,0,0,1,2.9,4.523" transform="translate(-12.076 -53.445)" fill="#6072ba"/>
        <path id="パス_2750" data-name="パス 2750" d="M87.819,314.177l-.526.538L81.972,309.5a7.852,7.852,0,0,0-5.535-2.26H67.963l.091-.752h8.384a8.611,8.611,0,0,1,6.061,2.474Z" transform="translate(-11.997 -54.101)" fill="#6072ba"/>
        <path id="パス_2751" data-name="パス 2751" d="M106.1,297.967H98.536v-.752h6.05Z" transform="translate(-17.394 -52.464)" fill="#29190f"/>
        <path id="パス_2752" data-name="パス 2752" d="M109.851,299.82h-7.388v-.752h5.88Z" transform="translate(-18.087 -52.792)" fill="#29190f"/>
        <path id="パス_2753" data-name="パス 2753" d="M113.592,301.669h-7.249v-.752h5.738Z" transform="translate(-18.772 -53.118)" fill="#29190f"/>
        <path id="パス_2754" data-name="パス 2754" d="M117.35,303.523h-7.057v-.752h5.549Z" transform="translate(-19.469 -53.445)" fill="#29190f"/>
        <path id="パス_2755" data-name="パス 2755" d="M117.868,304.246h-5.816a3.656,3.656,0,0,1-1.531-.342L94.4,296.279h1.756l14.689,6.944a2.853,2.853,0,0,0,1.207.271h4.733l.135.068a10.089,10.089,0,0,1,.948.684" transform="translate(-16.663 -52.299)" fill="#29190f"/>
        <path id="パス_2756" data-name="パス 2756" d="M116.277,315.161H67.023v1.113a2.021,2.021,0,0,0,2.021,2.021h45.212a2.021,2.021,0,0,0,2.021-2.021Z" transform="translate(-11.831 -55.632)" fill="#f5eae5"/>
        <path id="パス_2757" data-name="パス 2757" d="M91.86,289.21h8.9a1.942,1.942,0,0,1,1.891,2.724l-1.513,3.1H87.681l2.289-4.689a2.088,2.088,0,0,1,1.89-1.131" transform="translate(-15.477 -51.051)" fill="#29190f"/>
        <path id="パス_2758" data-name="パス 2758" d="M84.435,296.278h0a6.373,6.373,0,0,1-5.595,3.049H74.906a6.417,6.417,0,0,1-5.477-2.849l-.124-.2Z" transform="translate(-12.234 -52.299)" fill="#f5eae5"/>
        <path id="パス_2759" data-name="パス 2759" d="M101.89,293.184l-1.075,2.144h-.842l1.248-2.482a.832.832,0,0,0-.037-.812.823.823,0,0,0-.707-.4H92.845a.829.829,0,0,0-.744.463l-1.606,3.226h-.838l1.77-3.561a1.578,1.578,0,0,1,1.418-.88h7.632a1.585,1.585,0,0,1,1.414,2.3" transform="translate(-15.826 -51.347)" fill="#778ce6"/>
        <rect id="長方形_1012" data-name="長方形 1012" width="29.691" height="1.043" transform="translate(53.914 232.15)" fill="#29190f"/>
        <path id="パス_2760" data-name="パス 2760" d="M36.309,269.131H11.276L8.888,291.485H33.921Z" transform="translate(-1.569 -47.507)" fill="#fa9378"/>
        <path id="パス_2761" data-name="パス 2761" d="M39.535,260.78H8.57s6.56-74.067,10.985-104.156c2.734-18.593,5.6-31.478,5.6-31.478H61.507Z" transform="translate(-1.513 -22.091)" fill="#54596b"/>
        <path id="パス_2762" data-name="パス 2762" d="M41.834,238.4l-.977-.683,7.3-9.775.977.683Z" transform="translate(-7.212 -40.237)" fill="#29190f"/>
        <path id="パス_2763" data-name="パス 2763" d="M41.605,248.263l4.69-9.3,1.089.5-4.437,8.8Z" transform="translate(-7.344 -42.182)" fill="#29190f"/>
        <path id="パス_2764" data-name="パス 2764" d="M85.994,232.092l-.977-.683,7.3-9.775.977.683Z" transform="translate(-15.007 -39.123)" fill="#29190f"/>
        <path id="パス_2765" data-name="パス 2765" d="M83.9,247.155l-1.089-.5,7.062-14,1.089.5Z" transform="translate(-14.617 -41.068)" fill="#29190f"/>
        <path id="パス_2766" data-name="パス 2766" d="M52.4,314.961H7.191A1.872,1.872,0,0,1,5.3,312.94l.072-1.113,2.882-15.551H36.829l14.142,7.285a8.312,8.312,0,0,1,3.7,7.569l-.117,1.809a2.186,2.186,0,0,1-2.151,2.021" transform="translate(-0.935 -52.299)" fill="#778ce6"/>
        <path id="パス_2767" data-name="パス 2767" d="M43.8,312.976h-.752a3.934,3.934,0,0,0-2.208-3.839l-10.989-5.226a4.045,4.045,0,0,0-1.746-.387H7.516l.139-.752h20.5a4.857,4.857,0,0,1,2.057.455L41.2,308.452a4.629,4.629,0,0,1,2.6,4.523" transform="translate(-1.327 -53.445)" fill="#6072ba"/>
        <path id="パス_2768" data-name="パス 2768" d="M26.238,314.177l-.561.538L20.692,309.5a7.361,7.361,0,0,0-5.389-2.26H6.829l.138-.752h8.385a8.071,8.071,0,0,1,5.9,2.474Z" transform="translate(-1.205 -54.101)" fill="#6072ba"/>
        <path id="パス_2769" data-name="パス 2769" d="M45.56,297.967H38l.049-.752H44.1Z" transform="translate(-6.708 -52.464)" fill="#29190f"/>
        <path id="パス_2770" data-name="パス 2770" d="M49.194,299.82H41.806l.049-.752h5.88Z" transform="translate(-7.38 -52.792)" fill="#29190f"/>
        <path id="パス_2771" data-name="パス 2771" d="M52.817,301.669H45.568l.049-.752h5.737Z" transform="translate(-8.044 -53.118)" fill="#29190f"/>
        <path id="パス_2772" data-name="パス 2772" d="M56.455,303.523H49.4l.049-.752H55Z" transform="translate(-8.72 -53.445)" fill="#29190f"/>
        <path id="パス_2773" data-name="パス 2773" d="M56.937,304.246H51.121a3.51,3.51,0,0,1-1.509-.342l-15.63-7.625h1.756l14.242,6.944a2.738,2.738,0,0,0,1.19.271H55.9l.131.068a9.257,9.257,0,0,1,.9.684" transform="translate(-5.999 -52.299)" fill="#29190f"/>
        <path id="パス_2774" data-name="パス 2774" d="M54.626,315.161H5.372l-.072,1.11a1.874,1.874,0,0,0,1.892,2.023H52.4a2.188,2.188,0,0,0,2.153-2.023Z" transform="translate(-0.935 -55.632)" fill="#f5eae5"/>
        <path id="パス_2775" data-name="パス 2775" d="M31.817,289.21h8.9a1.831,1.831,0,0,1,1.714,2.724l-1.711,3.1H27.263l2.591-4.689a2.254,2.254,0,0,1,1.962-1.131" transform="translate(-4.812 -51.051)" fill="#29190f"/>
        <path id="パス_2776" data-name="パス 2776" d="M24.017,296.278h0a6.863,6.863,0,0,1-5.792,3.049H14.292A5.963,5.963,0,0,1,9,296.477l-.11-.2Z" transform="translate(-1.569 -52.299)" fill="#f5eae5"/>
        <path id="パス_2777" data-name="パス 2777" d="M41.61,293.184,40.4,295.327h-.842l1.408-2.482a.834.834,0,0,0,.015-.812.763.763,0,0,0-.682-.394H32.663a.9.9,0,0,0-.775.462l-1.813,3.226h-.838l2-3.561a1.7,1.7,0,0,1,1.474-.88h7.633a1.458,1.458,0,0,1,1.3.753,1.569,1.569,0,0,1-.032,1.545" transform="translate(-5.161 -51.347)" fill="#778ce6"/>
        <path id="パス_2778" data-name="パス 2778" d="M14.185,258.045l-1.035-.073L28.563,143.535l1.036.074Z" transform="translate(-2.321 -25.337)" fill="#29190f"/>
        <path id="パス_2779" data-name="パス 2779" d="M40.543,282.956H8.947l.068-1.043h31.6Z" transform="translate(-1.579 -49.763)" fill="#29190f"/>
        <path id="パス_2780" data-name="パス 2780" d="M58.758,196.843l6.181-31.961,8.4-2.175.2,1.006L65.853,165.7l-6.366,33.027c-.259-.618-.493-1.253-.729-1.889" transform="translate(-10.372 -28.721)" fill="#29190f"/>
        <path id="パス_2781" data-name="パス 2781" d="M67.308,44.65H50.477A25.053,25.053,0,0,0,25.423,69.7v64.228H92.36V69.7A25.053,25.053,0,0,0,67.308,44.65" transform="translate(-4.488 -7.882)" fill="#778ce6"/>
        <path id="パス_2782" data-name="パス 2782" d="M64.26,82.3H54.11a.871.871,0,0,1-.871-.871V74.091a.872.872,0,0,1,.871-.871H64.26a.872.872,0,0,1,.871.871v7.335a.871.871,0,0,1-.871.871" transform="translate(-9.398 -12.925)" fill="#f5eae5"/>
        <path id="パス_2783" data-name="パス 2783" d="M62.2,74.312H60.9l-.483-3.167h1.3Z" transform="translate(-10.665 -12.559)" fill="#29190f"/>
        <path id="パス_2784" data-name="パス 2784" d="M76,53.971l.829-12.1,3.953,2.29,4.781,16.17Z" transform="translate(-13.415 -7.391)" fill="#95a7f5"/>
        <path id="パス_2785" data-name="パス 2785" d="M73.486,44.747l-.829,9.715L57.063,44.65Z" transform="translate(-10.073 -7.882)" fill="#fa9378"/>
        <path id="パス_2786" data-name="パス 2786" d="M44.752,60.236a10.253,10.253,0,0,1-1.355,5.1L42.2,67.376,28.675,90.8l-1.694,2.935L19.1,107.346A10.242,10.242,0,0,1,1.366,97.1l9.168-15.865,11.5-19.891,3.623-6.253a9.978,9.978,0,0,1,2.983-3.254,10.233,10.233,0,0,1,16.11,8.4" transform="translate(0 -8.821)" fill="#778ce6"/>
        <path id="パス_2787" data-name="パス 2787" d="M28.675,97.5l-1.694,2.935L19.1,114.048A10.242,10.242,0,0,1,1.366,103.8l9.169-15.865Z" transform="translate(0 -15.522)" fill="#fa9378"/>
        <path id="パス_2788" data-name="パス 2788" d="M25.578,111.129l-.851-.489L38.676,86.513l.851.489Z" transform="translate(-4.365 -15.271)" fill="#29190f"/>
        <path id="パス_2789" data-name="パス 2789" d="M59.639,18.571A11.451,11.451,0,1,0,71.09,7.12,11.451,11.451,0,0,0,59.639,18.571" transform="translate(-10.527 -1.257)" fill="#fa9378"/>
        <path id="パス_2790" data-name="パス 2790" d="M69.231,32.46,76.262,34.6a7.625,7.625,0,0,0,9.04-8.763l-1.7-8.367L67.681,16.93Z" transform="translate(-11.947 -2.988)" fill="#fa9378"/>
        <path id="パス_2791" data-name="パス 2791" d="M77.925,19.354a.462.462,0,0,0-.567-.322,2.884,2.884,0,0,0-.926.591c-.429.413.224,1.065.652.652a1.684,1.684,0,0,1,.519-.354.473.473,0,0,0,.322-.567" transform="translate(-13.467 -3.355)" fill="#29190f"/>
        <path id="パス_2792" data-name="パス 2792" d="M84.86,19.266a.461.461,0,0,0-.567-.322,2.884,2.884,0,0,0-.926.591c-.429.413.224,1.065.652.652a1.684,1.684,0,0,1,.519-.354.472.472,0,0,0,.322-.567" transform="translate(-14.691 -3.34)" fill="#29190f"/>
        <path id="パス_2793" data-name="パス 2793" d="M78.208,9.525s-5.378-1.008-8.6,2.4c-1.374,1.453-.337,7.084-1.652,7.9-4.395,2.744-7.422,2.236-7.422,2.236l-2.652-2.585s-1.647-10.952,8.229-13.5S79.481,7.331,78.208,9.525" transform="translate(-10.2 -0.908)" fill="#29190f"/>
        <path id="パス_2794" data-name="パス 2794" d="M81.616,11.437a5.042,5.042,0,0,1-2.476-1.52,7.9,7.9,0,0,0-1.692-1.428A8.063,8.063,0,0,0,77,11.111a4.042,4.042,0,0,1-2.757,3.764l-16.2,5.65-1.284-6.8a10.909,10.909,0,0,1,7.13-12.33L66.128.61A10.722,10.722,0,0,1,67.665.2c.157-.032.317-.056.478-.081.142-.022.287-.04.427-.057.106-.01.212-.02.32-.026s.222-.017.333-.025q.419-.016.833,0c.156,0,.315.013.469.023.121.008.24.021.358.035s.2.021.306.04a10.559,10.559,0,0,1,2.1.5c.145.05.286.1.424.158.121.044.238.095.356.144.173.077.347.157.517.24.094.049.187.094.279.148.28.149.55.31.815.482.082.053.165.106.249.164a11.176,11.176,0,0,1,1.589,1.341c.1.094.185.191.275.292s.156.174.232.261c.111.134.222.269.329.405l.2.27c.079.11.154.22.231.334.158.232.3.469.441.716.007.007.012.019.018.026.024.041.049.087.068.131.06.106.116.215.17.329.04.077.075.151.112.23.058.116.11.235.161.358s.1.238.149.362Z" transform="translate(-9.985 0)" fill="#95a7f5"/>
        <path id="パス_2795" data-name="パス 2795" d="M82.738,11.437a5.042,5.042,0,0,1-2.476-1.52,7.9,7.9,0,0,0-1.692-1.428,8.063,8.063,0,0,0-.452,2.623,4.042,4.042,0,0,1-2.757,3.764L64.4,18.7,63.11,11.9A10.909,10.909,0,0,1,68.787.2c.157-.032.317-.056.478-.081.142-.022.287-.04.427-.057.106-.01.212-.02.32-.026s.222-.017.333-.025q.419-.016.833,0c.156,0,.315.013.469.023.121.008.24.021.358.035s.2.021.306.04a10.559,10.559,0,0,1,2.1.5c.145.05.286.1.424.158.121.044.238.095.356.144.173.077.347.157.517.24.094.049.187.094.279.148.28.149.55.31.815.482.082.053.165.106.249.164a11.175,11.175,0,0,1,1.588,1.341c.1.094.185.191.275.292s.156.174.232.261c.111.134.222.269.329.405l.2.27c.079.11.154.22.231.334.158.232.3.469.441.716.007.007.012.019.018.026.024.041.049.087.068.131.06.106.116.215.17.329.04.077.075.151.112.23.058.116.11.235.161.358s.1.238.149.362Z" transform="translate(-11.107 0)" fill="#778ce6"/>
        <path id="パス_2796" data-name="パス 2796" d="M93.518,10.389l-4.652,1.622c-.922.322-3.444,1.21-3.444,1.21A25.04,25.04,0,0,0,83.606,10.6a7.926,7.926,0,0,0-1.693-1.428c-.016-.008-.03-.021-.046-.03A7.99,7.99,0,0,1,86.594,4.36l0,0c.047-.021.1-.04.149-.056a7.974,7.974,0,0,1,7.639,1.323,2.777,2.777,0,0,1-.868,4.765" transform="translate(-14.451 -0.68)" fill="#778ce6"/>
        <path id="パス_2797" data-name="パス 2797" d="M83.985,4.461l0,0,0,0A7.983,7.983,0,0,0,78.85,11.9a4.042,4.042,0,0,1-2.757,3.764l-8.577,2.992a7.977,7.977,0,0,1,4.906-10.16Z" transform="translate(-11.839 -0.787)" fill="#95a7f5"/>
        <path id="パス_2798" data-name="パス 2798" d="M59.178,42.425l13.97,1.892L77.67,24.9H63.058Z" transform="translate(-10.446 -4.395)" fill="#fa9378"/>
        <path id="パス_2799" data-name="パス 2799" d="M57.212,40.01,71.8,53.643,64.95,61.971,52.213,44.059Z" transform="translate(-9.217 -7.063)" fill="#95a7f5"/>
        <path id="パス_2800" data-name="パス 2800" d="M58.217,27.23c1.294,2.086,3.561,3.021,5.064,2.089s1.672-3.379.378-5.464-3.561-3.021-5.064-2.09-1.672,3.379-.378,5.465" transform="translate(-10.123 -3.778)" fill="#fa9378"/>
        <path id="パス_2801" data-name="パス 2801" d="M62.081,25.977A3.389,3.389,0,0,0,59.6,23.992l.079-.619a4.018,4.018,0,0,1,2.967,2.346Z" transform="translate(-10.521 -4.126)" fill="#29190f"/>
        <path id="パス_2802" data-name="パス 2802" d="M81.691,30.766a8.521,8.521,0,0,1-.993-.055,5.968,5.968,0,0,1-2.1-.767l.348-.565a5.365,5.365,0,0,0,1.834.674,9.124,9.124,0,0,0,1.887,0l.081.658a9.6,9.6,0,0,1-1.054.055" transform="translate(150.868 43.439) rotate(172)" fill="#29190f"/>
        <path id="パス_2803" data-name="パス 2803" d="M83.15,26.607l-.554-.363a3.9,3.9,0,0,0,.455-.912,3.765,3.765,0,0,0-.927.147l-.357.1-.3-1.85.654-.106.184,1.131a1.914,1.914,0,0,1,1.178.023.486.486,0,0,1,.231.31c.1.444-.359,1.211-.562,1.521" transform="translate(-14.38 -4.17)" fill="#29190f"/>
        <path id="パス_2804" data-name="パス 2804" d="M77.431,23.012c0,.541.238.98.532.98s.533-.439.533-.98-.239-.98-.533-.98-.532.439-.532.98" transform="translate(-13.668 -3.889)" fill="#29190f"/>
        <path id="パス_2805" data-name="パス 2805" d="M83.634,23.012c0,.541.238.98.532.98s.533-.439.533-.98-.239-.98-.533-.98-.532.439-.532.98" transform="translate(-14.763 -3.889)" fill="#29190f"/>
        <path id="パス_2806" data-name="パス 2806" d="M62.73,32.076a4.794,4.794,0,0,1-.708-.052l.109-.655a3.589,3.589,0,0,0,1.289-.035l.177.639a3.335,3.335,0,0,1-.866.1" transform="translate(-10.948 -5.531)" fill="#29190f"/>
        <rect id="長方形_1013" data-name="長方形 1013" width="1.851" height="0.663" transform="matrix(0.227, -0.974, 0.974, 0.227, 62.584, 38.966)" fill="#29190f"/>
        <rect id="長方形_1014" data-name="長方形 1014" width="69.643" height="57.49" transform="translate(38.215 72.395)" fill="#ab847a"/>
        <rect id="長方形_1015" data-name="長方形 1015" width="46.31" height="57.49" transform="translate(74.072 72.395)" fill="#e3c2b1"/>
        <path id="パス_2807" data-name="パス 2807" d="M131.852,146.328h7.224a.613.613,0,1,0,0-1.227h-7.224a.613.613,0,0,0,0,1.227" transform="translate(-23.166 -25.613)" fill="#ab847a"/>
        <path id="パス_2808" data-name="パス 2808" d="M131.852,149.847h7.224a.613.613,0,1,0,0-1.227h-7.224a.613.613,0,1,0,0,1.227" transform="translate(-23.166 -26.234)" fill="#ab847a"/>
        <path id="パス_2809" data-name="パス 2809" d="M131.852,153.366h7.224a.613.613,0,1,0,0-1.227h-7.224a.613.613,0,1,0,0,1.227" transform="translate(-23.166 -26.856)" fill="#ab847a"/>
        <rect id="長方形_1016" data-name="長方形 1016" width="12.006" height="12.218" transform="translate(80.094 77.441)" fill="#f5e2da"/>
        <path id="パス_2810" data-name="パス 2810" d="M2.347,107.741h0c2.9-5.017,8.988-7,13.609-4.429l32.432,14.94-8.366,14.494L5.47,121.479c-4.621-2.57-6.019-8.721-3.123-13.737" transform="translate(-0.148 -18.038)" fill="#fa9378"/>
        <path id="パス_2811" data-name="パス 2811" d="M57.6,112.886a28.245,28.245,0,0,0-2.7,8.418c-.357,3.325-4.9,2.578-4.546-.713a32.747,32.747,0,0,1,2.815-9.9c1.562-2.937,6-.756,4.428,2.192" transform="translate(-8.885 -19.294)" fill="#fa9378"/>
        <path id="パス_2812" data-name="パス 2812" d="M61.553,116.318s-12.229-.8-15.13,7.1-2.086,11.372.538,12.438,6.571,2.11,11.065-3.263,3.527-16.276,3.527-16.276" transform="translate(-7.871 -20.529)" fill="#fa9378"/>
        <path id="パス_2813" data-name="パス 2813" d="M71.949,122.862a28.244,28.244,0,0,0-8.614-1.985c-3.343-.078-2.978-4.667.332-4.59a32.75,32.75,0,0,1,10.1,1.98c3.056,1.312,1.253,5.913-1.816,4.6" transform="translate(-10.768 -20.527)" fill="#fa9378"/>
        <path id="パス_2814" data-name="パス 2814" d="M71.677,128.222a33.788,33.788,0,0,0-10.622-1.889,2.589,2.589,0,0,1-2.327-2.823,2.647,2.647,0,0,1,2.822-2.327,37.694,37.694,0,0,1,11.972,2.207c3.137,1.141,1.287,5.971-1.845,4.832" transform="translate(-10.365 -21.39)" fill="#fa9378"/>
        <path id="パス_2815" data-name="パス 2815" d="M77.089,127.566a1.785,1.785,0,0,0,.418-.64,1.762,1.762,0,0,0-.009-1.3,1.576,1.576,0,0,0-.9-.888,1.629,1.629,0,0,0-1.715.385,1.788,1.788,0,0,0-.418.641,1.758,1.758,0,0,0,.009,1.3,1.574,1.574,0,0,0,.9.888,1.632,1.632,0,0,0,1.715-.385m-1.866-2.1a1.132,1.132,0,0,1,1.2-.278,1.1,1.1,0,0,1,.624.619,1.281,1.281,0,0,1,0,.943,1.209,1.209,0,0,1-1.509.745,1.094,1.094,0,0,1-.623-.618,1.277,1.277,0,0,1,0-.943,1.307,1.307,0,0,1,.3-.469" transform="translate(-13.124 -22.001)" fill="#29190f"/>
        <path id="パス_2816" data-name="パス 2816" d="M69.824,133.4a32.919,32.919,0,0,0-10.351-1.84A2.523,2.523,0,0,1,57.2,128.8a2.579,2.579,0,0,1,2.75-2.268,36.731,36.731,0,0,1,11.667,2.151c3.057,1.113,1.254,5.82-1.8,4.709" transform="translate(-10.096 -22.335)" fill="#fa9378"/>
        <path id="パス_2817" data-name="パス 2817" d="M75.1,132.758a1.75,1.75,0,0,0,.406-.623,1.634,1.634,0,0,0-.884-2.13,1.589,1.589,0,0,0-1.672.376,1.752,1.752,0,0,0-.4,1.888,1.534,1.534,0,0,0,.875.865,1.59,1.59,0,0,0,1.672-.375m-1.819-2.043a1.1,1.1,0,0,1,1.173-.271,1.163,1.163,0,0,1,.612,1.523,1.18,1.18,0,0,1-1.471.726,1.067,1.067,0,0,1-.608-.6,1.251,1.251,0,0,1,0-.919,1.27,1.27,0,0,1,.3-.456" transform="translate(-12.785 -22.931)" fill="#29190f"/>
        <path id="パス_2818" data-name="パス 2818" d="M77.044,122.03a1.637,1.637,0,0,0,.383-.589,1.529,1.529,0,0,0-.822-2,1.463,1.463,0,0,0-1.559.352,1.646,1.646,0,0,0-.378,1.773,1.43,1.43,0,0,0,.817.811,1.483,1.483,0,0,0,1.559-.352m-1.659-1.888a.986.986,0,0,1,1.048-.245,1.046,1.046,0,0,1,.543,1.372,1.061,1.061,0,0,1-1.318.661.947.947,0,0,1-.542-.541,1.127,1.127,0,0,1,0-.831,1.149,1.149,0,0,1,.27-.417" transform="translate(-13.16 -21.068)" fill="#29190f"/>
        <path id="パス_2819" data-name="パス 2819" d="M67.4,138.208a26.2,26.2,0,0,0-8.1-1.341c-3.1.122-2.911-4.68.16-4.8a30.024,30.024,0,0,1,9.366,1.557c2.908,1.039,1.49,5.628-1.43,4.584" transform="translate(-10.073 -23.311)" fill="#fa9378"/>
        <path id="パス_2820" data-name="パス 2820" d="M71.982,137.336a1.529,1.529,0,0,0,.385-.633,1.421,1.421,0,0,0-.877-1.8,1.369,1.369,0,0,0-1.361.35,1.53,1.53,0,0,0-.385.634,1.494,1.494,0,0,0,.073,1.1,1.327,1.327,0,0,0,.8.7,1.366,1.366,0,0,0,1.36-.35m-1.538-1.766a.92.92,0,0,1,.913-.241.972.972,0,0,1,.582,1.24,1,1,0,0,1-1.184.689.887.887,0,0,1-.534-.47,1.055,1.055,0,0,1-.049-.77,1.083,1.083,0,0,1,.272-.448" transform="translate(-12.299 -23.802)" fill="#29190f"/>
        <path id="パス_2821" data-name="パス 2821" d="M73.542,129.27a.3.3,0,0,0,.076-.123.308.308,0,0,0-.2-.39,52.186,52.186,0,0,0-12.246-2.4.308.308,0,1,0-.031.615,51.631,51.631,0,0,1,12.083,2.366.311.311,0,0,0,.314-.073" transform="translate(-10.742 -22.305)" fill="#29190f"/>
        <path id="パス_2822" data-name="パス 2822" d="M74.525,123.6a.308.308,0,0,0-.125-.514A84.681,84.681,0,0,0,62.742,120.8a.308.308,0,1,0-.075.612,84.008,84.008,0,0,1,11.55,2.26.308.308,0,0,0,.308-.075" transform="translate(-11.014 -21.323)" fill="#29190f"/>
        <path id="パス_2823" data-name="パス 2823" d="M70.5,134.556a.254.254,0,0,0,.062-.254c-.048-.148-.476-.931-4.261-1.778a27.506,27.506,0,0,0-6.771-.706.235.235,0,1,0,.026.469,27.1,27.1,0,0,1,6.642.7c3.507.785,3.921,1.478,3.926,1.485a.224.224,0,0,0,.291.141.219.219,0,0,0,.086-.052" transform="translate(-10.47 -23.266)" fill="#29190f"/>
        <path id="パス_2824" data-name="パス 2824" d="M69.161,117.27a.308.308,0,0,0-.15-.52,34.479,34.479,0,0,0-7.48-.8,22.474,22.474,0,0,0-5.087,1,.308.308,0,1,0,.192.585,22.265,22.265,0,0,1,4.924-.969,34.558,34.558,0,0,1,7.318.785.307.307,0,0,0,.283-.082" transform="translate(-9.926 -20.465)" fill="#29190f"/>
        <path id="パス_2825" data-name="パス 2825" d="M46.3,126.2a.306.306,0,0,0,.078-.131,17.3,17.3,0,0,1,1.714-3.711.307.307,0,1,0-.519-.33,17.5,17.5,0,0,0-1.784,3.865.308.308,0,0,0,.511.308" transform="translate(-8.081 -21.515)" fill="#29190f"/>
      </g>
    </g>
    <text id="的確な_ルート設計を_行いたい" data-name="的確な
ルート設計を
行いたい" transform="translate(1414.5 3012.614)" font-size="13" font-family="NotoSansJP-Bold, Noto Sans JP" font-weight="700"><tspan x="-19.5" y="0">的確</tspan><tspan y="0">な</tspan><tspan x="-39" y="17">ルート</tspan><tspan y="17">設計</tspan><tspan y="17">を</tspan><tspan x="-26" y="34">行</tspan><tspan y="34">いたい</tspan></text>
  </g>
</svg>
