<svg xmlns="http://www.w3.org/2000/svg" xmlns:xlink="http://www.w3.org/1999/xlink" width="131" height="351.51" viewBox="0 0 131 351.51">
  <defs>
    <clipPath id="clip-path">
      <rect id="長方形_1029" data-name="長方形 1029" width="100.156" height="264.724" fill="none"/>
    </clipPath>
  </defs>
  <g id="worries_08" transform="translate(-938 -2971)">
    <g id="グループ_1126" data-name="グループ 1126" transform="translate(622 -10)">
      <circle id="楕円形_22" data-name="楕円形 22" cx="53.5" cy="53.5" r="53.5" transform="translate(340 2981)" fill="#9379ff"/>
      <circle id="楕円形_23" data-name="楕円形 23" cx="9.5" cy="9.5" r="9.5" transform="translate(376 3077)" fill="#9379ff"/>
      <circle id="楕円形_24" data-name="楕円形 24" cx="5" cy="5" r="5" transform="translate(368 3093)" fill="#9379ff"/>
    </g>
    <g id="グループ_1101" data-name="グループ 1101" transform="translate(938 3057.787)">
      <rect id="長方形_1027" data-name="長方形 1027" width="51.823" height="30.681" transform="translate(31.736 158.954)" fill="#d6bcb2"/>
      <g id="グループ_1100" data-name="グループ 1100">
        <g id="グループ_1099" data-name="グループ 1099" clip-path="url(#clip-path)">
          <path id="パス_2984" data-name="パス 2984" d="M19.948,247.511H50.276L57.092,102.3H20.99c-6.167,47.493-1.042,145.209-1.042,145.209" transform="translate(0.167 0.953)" fill="#4c5061"/>
          <rect id="長方形_1028" data-name="長方形 1028" width="30.679" height="1.093" transform="translate(19.785 238.552)" fill="#29190f"/>
          <path id="パス_2985" data-name="パス 2985" d="M66.868,247.43H99.745S92.384,166.812,87.9,135.284C85.128,115.8,82.19,102.3,82.19,102.3H44.1Z" transform="translate(0.411 0.953)" fill="#4c5061"/>
          <path id="パス_2986" data-name="パス 2986" d="M73.792,199.7l1.015-.71-7.594-10.169-1.016.711Z" transform="translate(0.616 1.759)" fill="#29190f"/>
          <path id="パス_2987" data-name="パス 2987" d="M74.149,207.846l-4.878-9.672-1.132.52,4.616,9.152Z" transform="translate(0.635 1.846)" fill="#29190f"/>
          <path id="パス_2988" data-name="パス 2988" d="M36.313,194.343l1.015-.71-7.594-10.169-1.016.711Z" transform="translate(0.267 1.709)" fill="#29190f"/>
          <path id="パス_2989" data-name="パス 2989" d="M38.071,207.9l1.133-.52-7.347-14.566-1.132.521Z" transform="translate(0.286 1.796)" fill="#29190f"/>
          <path id="パス_2990" data-name="パス 2990" d="M92.556,237.99l1.086-.061L80.09,119.058,79,119.118Z" transform="translate(0.736 1.109)" fill="#29190f"/>
          <path id="パス_2991" data-name="パス 2991" d="M65.282,237.414H98.388l-.065-1.093H65.216Z" transform="translate(0.607 2.201)" fill="#29190f"/>
          <path id="パス_2992" data-name="パス 2992" d="M53.571,168.069l-5.287-30.98L40.24,135l.216-1.055,8.79,2.279,5.38,31.559q-.528.144-1.055.283" transform="translate(0.375 1.247)" fill="#29190f"/>
          <path id="パス_2993" data-name="パス 2993" d="M6.326,97.173h0A12.258,12.258,0,0,1,1.535,80.513L22.469,42.676A12.258,12.258,0,0,1,43.921,54.545L22.987,92.382A12.259,12.259,0,0,1,6.326,97.173" transform="translate(0 0.339)" fill="#f5e2da"/>
          <path id="パス_2994" data-name="パス 2994" d="M14.192,127.038h72.7l-1.282-67.3a26.265,26.265,0,0,0-18.543-25.1c-.69-.211-1.4-.4-2.115-.548a26.228,26.228,0,0,0-5.593-.6H41.724A26.166,26.166,0,0,0,22.555,41.8a27.4,27.4,0,0,0-2.344,2.879v0a26.149,26.149,0,0,0-4.738,15.053Z" transform="translate(0.132 0.312)" fill="#f5e2da"/>
          <path id="パス_2995" data-name="パス 2995" d="M85.992,102.655h0a12.259,12.259,0,0,0,8.216-15.266L81.772,45.974a12.259,12.259,0,0,0-23.482,7.051L70.727,94.439a12.258,12.258,0,0,0,15.266,8.216" transform="translate(0.538 0.347)" fill="#f5e2da"/>
          <path id="パス_2996" data-name="パス 2996" d="M25.055,89.078C39,85.963,49.278,75.07,56.226,63.121c3.793-6.52,7.319-13.477,9.274-20.8a48.715,48.715,0,0,0,1.476-7.695c-.69-.211-1.4-.4-2.115-.547-.03.353-.069.7-.112,1.057a49.032,49.032,0,0,1-2.511,10.379q-.8,2.239-1.731,4.441-1.132-.836-2.274-1.662a1.081,1.081,0,0,0-1.476.385,1.1,1.1,0,0,0,.389,1.476q1.243.907,2.481,1.817A100.2,100.2,0,0,1,53.209,63.95C46.525,74.643,37.182,84.159,24.481,87c-1.36.3-.781,2.382.574,2.08" transform="translate(0.221 0.317)" fill="#d6bcb2"/>
          <path id="パス_2997" data-name="パス 2997" d="M20.058,53.461A111.314,111.314,0,0,0,23.2,79.95a1.08,1.08,0,0,0,2.08-.574,106.7,106.7,0,0,1-3.059-25.914q-.014-2.039,0-4.091a.844.844,0,0,0,.457-.151,8.142,8.142,0,0,1,2.1-1.122,1.1,1.1,0,0,0,.756-1.328,1.083,1.083,0,0,0-1.329-.752,10.243,10.243,0,0,0-1.942.9c.042-1.731.116-3.461.241-5.187a27.393,27.393,0,0,0-2.344,2.878v.005c-.125,2.964-.129,5.925-.1,8.851" transform="translate(0.187 0.389)" fill="#d6bcb2"/>
          <path id="パス_2998" data-name="パス 2998" d="M60.435,33.515a36.692,36.692,0,0,0-8.454,22.4c-.416,13.792-.215,71.119-.215,71.119h-27.5s-1.1-53.63,1.8-72.541S40.353,33.519,40.353,33.519Z" transform="translate(0.224 0.312)" fill="#dbcbfa"/>
          <path id="パス_2999" data-name="パス 2999" d="M39.68,43.944l1.915,71.7-5.707,9.58-5.16-8.76L37.974,45.04Z" transform="translate(0.286 0.409)" fill="#7d5caa"/>
          <path id="パス_3000" data-name="パス 3000" d="M57.9,33.865,42.715,37.893,37.663,16.2H53.986Z" transform="translate(0.351 0.151)" fill="#cc715e"/>
          <path id="パス_3001" data-name="パス 3001" d="M57.945,12.791A12.791,12.791,0,1,1,45.154,0,12.791,12.791,0,0,1,57.945,12.791" transform="translate(0.301)" fill="#cc715e"/>
          <path id="パス_3002" data-name="パス 3002" d="M48.632,26.238s-2.978,5.22-10.427,5.243c-8.449.026-7.439-10.769-7.439-10.769Z" transform="translate(0.286 0.193)" fill="#29190f"/>
          <path id="パス_3003" data-name="パス 3003" d="M34.357,13.6l-3.329-.317.04-.482,3.329.317Z" transform="translate(0.289 0.119)" fill="#f5d9d9"/>
          <path id="パス_3004" data-name="パス 3004" d="M48.831,26.287l-7.853,2.388a8.518,8.518,0,0,1-10.1-9.788l1.894-9.346,17.788-.6Z" transform="translate(0.286 0.083)" fill="#cc715e"/>
          <path id="パス_3005" data-name="パス 3005" d="M40.621,10.344a.522.522,0,0,1,.709-.186,3.224,3.224,0,0,1,.579.453.518.518,0,0,1-.733.732c-.059-.058-.119-.111-.183-.164-.016-.012-.064-.048-.07-.051-.038-.027-.078-.051-.117-.076a.524.524,0,0,1-.186-.709" transform="translate(0.378 0.094)" fill="#29190f"/>
          <path id="パス_3006" data-name="パス 3006" d="M34.51,9.9a.522.522,0,0,1,.709-.186,3.224,3.224,0,0,1,.579.453.518.518,0,0,1-.733.732c-.059-.058-.12-.111-.183-.164-.016-.012-.064-.048-.07-.051-.038-.027-.078-.051-.117-.076A.524.524,0,0,1,34.51,9.9" transform="translate(0.321 0.09)" fill="#29190f"/>
          <path id="パス_3007" data-name="パス 3007" d="M43.946,28.309s.036-8.046-2.1-8.66c-2.308-.664-8.158-1.321-8.8-.676s-3.439,9.487-2.814,11.3,13.654,2.247,13.712-1.963" transform="translate(0.281 0.174)" fill="#29190f"/>
          <path id="パス_3008" data-name="パス 3008" d="M33.063,18.216c-1.366,0-2.435-1.785-2.435-4.063s1.07-4.063,2.435-4.063S35.5,11.873,35.5,14.152s-1.07,4.063-2.435,4.063m0-7.666C32,10.55,31.1,12.2,31.1,14.152s.9,3.6,1.964,3.6,1.964-1.651,1.964-3.6-.9-3.6-1.964-3.6" transform="translate(0.285 0.094)" fill="#f5d9d9"/>
          <path id="パス_3009" data-name="パス 3009" d="M56.049,16.143,42.954,14.854,43,14.372,56.1,15.661Z" transform="translate(0.4 0.134)" fill="#f5d9d9"/>
          <path id="パス_3010" data-name="パス 3010" d="M40.576,19.288c-1.532,0-2.733-1.935-2.733-4.4s1.2-4.4,2.733-4.4,2.733,1.935,2.733,4.4-1.2,4.4-2.733,4.4m0-8.295c-1.2,0-2.217,1.781-2.217,3.89s1.015,3.89,2.217,3.89,2.218-1.781,2.218-3.89-1.015-3.89-2.218-3.89" transform="translate(0.352 0.098)" fill="#f5d9d9"/>
          <path id="パス_3011" data-name="パス 3011" d="M38.137,14.728l-2.842-.247.04-.482,2.842.247Z" transform="translate(0.329 0.13)" fill="#f5d9d9"/>
          <path id="パス_3012" data-name="パス 3012" d="M58.9,19.526c-1.445,2.329-3.978,3.375-5.656,2.334s-1.867-3.774-.422-6.1,3.978-3.375,5.656-2.335,1.867,3.774.422,6.1" transform="translate(0.483 0.121)" fill="#cc715e"/>
          <path id="パス_3013" data-name="パス 3013" d="M55,17.721l-.635-.289a4.489,4.489,0,0,1,3.314-2.62l.087.691-.043-.345.045.345A3.787,3.787,0,0,0,55,17.721" transform="translate(0.506 0.138)" fill="#29190f"/>
          <path id="パス_3014" data-name="パス 3014" d="M52.936,16l-.555-.422c3.1-3.336,5.29-3.146,5.383-3.137l-.069.693.034-.347.062.336c-.077-.007-1.992-.141-4.855,2.877" transform="translate(0.488 0.116)" fill="#29190f"/>
          <path id="パス_3015" data-name="パス 3015" d="M36.789,22.362a10.907,10.907,0,0,1-1.178-.062l.09-.736a10.1,10.1,0,0,0,2.109,0,5.935,5.935,0,0,0,2.048-.752l.387.631A6.626,6.626,0,0,1,37.9,22.3a9.4,9.4,0,0,1-1.108.062" transform="matrix(-0.995, 0.105, -0.105, -0.995, 78.236, 39.286)" fill="#cc715e"/>
          <path id="パス_3016" data-name="パス 3016" d="M35.959,18.373c-.227-.346-.741-1.2-.629-1.7a.544.544,0,0,1,.258-.346A2.125,2.125,0,0,1,36.9,16.3l.206-1.265.731.119L37.5,17.223l-.4-.111a4.1,4.1,0,0,0-1.038-.164,4.435,4.435,0,0,0,.51,1.018Z" transform="translate(0.329 0.14)" fill="#29190f"/>
          <path id="パス_3017" data-name="パス 3017" d="M40.331,14.684c0,.6-.266,1.094-.594,1.094s-.594-.49-.594-1.094.266-1.094.594-1.094.594.49.594,1.094" transform="translate(0.365 0.127)" fill="#29190f"/>
          <path id="パス_3018" data-name="パス 3018" d="M34.377,14.457c0,.6-.266,1.094-.594,1.094s-.594-.49-.594-1.094.266-1.094.594-1.094.594.49.594,1.094" transform="translate(0.309 0.124)" fill="#29190f"/>
          <path id="パス_3019" data-name="パス 3019" d="M54.762,22.9a3.7,3.7,0,0,1-.968-.115l.2-.714a3.941,3.941,0,0,0,1.439.039l.122.731a5.237,5.237,0,0,1-.791.059" transform="translate(0.501 0.206)" fill="#29190f"/>
          <path id="パス_3020" data-name="パス 3020" d="M19.512,75.72l-6.748-2.688,9.495-4.756Z" transform="translate(0.119 0.636)" fill="#29190f"/>
          <path id="パス_3021" data-name="パス 3021" d="M22.84,81.5l1.807-.642c-.22-11.076-.341-15.8,1.562-26.541C28.55,41.1,41.921,33.773,41.921,33.773l-.514-2.238s-14.261,7.729-17.1,22.554C22.153,65.324,22.56,70.265,22.84,81.5" transform="translate(0.211 0.294)" fill="#486dd9"/>
          <path id="パス_3022" data-name="パス 3022" d="M24.868,84.886a3.4,3.4,0,1,0,2.9-3.838,3.4,3.4,0,0,0-2.9,3.838" transform="translate(0.231 0.754)" fill="#332938"/>
          <path id="パス_3023" data-name="パス 3023" d="M36.708,65.52c5.08,3.355,4.975,12.615.006,18.4s-13.117,7.762-18.2,4.407-5.171-10.767-.2-16.556,13.312-9.611,18.392-6.256" transform="translate(0.136 0.599)" fill="#cc715e"/>
          <path id="パス_3024" data-name="パス 3024" d="M57.275,72.142s-1.881-.116-4.868-.265c-9.08-.46-24.567.188-32.011.255C1.487,72.3,6.572,87.924,6.921,88.8a12.553,12.553,0,0,0,13.457,7.756l.068-.011,39.27-8.217Z" transform="translate(0.056 0.668)" fill="#f5e2da"/>
          <path id="パス_3025" data-name="パス 3025" d="M59.221,86.055l1-13.791.72-9.833a5.491,5.491,0,0,1,4.631-4.952,3.563,3.563,0,0,1,3.975,4.036L68.8,71.845l-.968,13.294A5.488,5.488,0,0,1,63.2,90.086a3.562,3.562,0,0,1-3.98-4.031m4.1,2.4A3.5,3.5,0,0,0,66.264,85.3l.979-13.388.745-10.235a2.269,2.269,0,0,0-2.531-2.567,3.494,3.494,0,0,0-2.949,3.151l-.72,9.921-1,13.7a2.266,2.266,0,0,0,2.53,2.567" transform="translate(0.551 0.535)" fill="#486dd9"/>
          <path id="パス_3026" data-name="パス 3026" d="M63.2,89.953a5.489,5.489,0,0,0,4.627-4.948l.967-13.294-1.552.073-.978,13.388a3.5,3.5,0,0,1-2.944,3.151,2.266,2.266,0,0,1-2.53-2.567l1-13.7-1.562.078-1,13.791a3.562,3.562,0,0,0,3.98,4.031" transform="translate(0.551 0.668)" fill="#4c5061"/>
          <path id="パス_3027" data-name="パス 3027" d="M63,89.017a1.182,1.182,0,0,0,1.32,1.339,1.82,1.82,0,0,0,1.538-1.644,1.181,1.181,0,0,0-1.32-1.339A1.823,1.823,0,0,0,63,89.017" transform="translate(0.587 0.814)" fill="#332938"/>
          <path id="パス_3028" data-name="パス 3028" d="M60.612,89.271a1.181,1.181,0,0,0,1.32,1.339,1.82,1.82,0,0,0,1.538-1.644,1.181,1.181,0,0,0-1.32-1.339,1.822,1.822,0,0,0-1.538,1.644" transform="translate(0.564 0.816)" fill="#332938"/>
          <path id="パス_3029" data-name="パス 3029" d="M56.356,27.707l1.113,4.942c1.636,2.248,4.286,6.213,5.067,9.274,2.7,10.573,2.145,13.628,1.877,16.951l2.045-.087s.717-6.931-2.11-18.017c-1.242-4.859-4.535-9.3-7.992-13.063" transform="translate(0.525 0.258)" fill="#486dd9"/>
          <path id="パス_3030" data-name="パス 3030" d="M26.95,72.121s28.234,21.79,35.3,24.131c7.711,2.554,13.674-1.382,15.851-7.959a12.555,12.555,0,0,0,.591-2.82c.515-5.65-3.6-9.867-9.2-11.761-.02-.007-34.159-14.836-34.159-14.836Z" transform="translate(0.251 0.548)" fill="#f5e2da"/>
          <path id="パス_3031" data-name="パス 3031" d="M29.625,74.09l22.3,15.8-6.972,1.458Z" transform="translate(0.276 0.69)" fill="#29190f"/>
          <path id="パス_3032" data-name="パス 3032" d="M76.808,102.7l.29-1.3c-.038-.01-3.953-.924-25.454-12.581l-.583,1.2C72.745,101.762,76.646,102.66,76.808,102.7" transform="translate(0.476 0.827)" fill="#29190f"/>
          <path id="パス_3033" data-name="パス 3033" d="M77.378,78.129l.3-1.308c-.039-.009-4.043-.832-25.656-11.848l-.6,1.212c21.8,11.105,25.79,11.913,25.955,11.944" transform="translate(0.479 0.605)" fill="#29190f"/>
          <path id="パス_3034" data-name="パス 3034" d="M6.566,262.432H46.108a1.767,1.767,0,0,0,1.767-1.767v-.973l-1.644-13.6H21.241l-12.78,6.372A7.813,7.813,0,0,0,4.8,259.082v1.583a1.767,1.767,0,0,0,1.767,1.767" transform="translate(0.045 2.292)" fill="#a37adb"/>
          <path id="パス_3035" data-name="パス 3035" d="M37.52,260.587l.46.467,4.65-4.558a6.869,6.869,0,0,1,4.327-1.96l-.079-.651a7.479,7.479,0,0,0-4.708,2.141Z" transform="translate(0.349 2.364)" fill="#8a67bc"/>
          <path id="パス_3036" data-name="パス 3036" d="M16.2,259.682h.658a7.281,7.281,0,0,1,4.118-6.536l11.356-5.434-.285-.593-11.356,5.434a7.945,7.945,0,0,0-4.491,7.13" transform="translate(0.151 2.301)" fill="#8a67bc"/>
          <path id="パス_3037" data-name="パス 3037" d="M46,246.091l.365,3.023-1.318.828a5.864,5.864,0,0,1-3.121.9H36.541a2.8,2.8,0,0,1-.4-.029l-1.894-.288a4.208,4.208,0,0,1-2.993-2.021l-1.422-2.411Z" transform="translate(0.278 2.292)" fill="#29190f"/>
          <path id="パス_3038" data-name="パス 3038" d="M18.441,247.417H25.05v-.658H19.763Z" transform="translate(0.172 2.298)" fill="#29190f"/>
          <path id="パス_3039" data-name="パス 3039" d="M15.789,248.74h6.459v-.658H17.108Z" transform="translate(0.147 2.31)" fill="#29190f"/>
          <path id="パス_3040" data-name="パス 3040" d="M13.141,250.06h6.336V249.4H14.459Z" transform="translate(0.122 2.323)" fill="#29190f"/>
          <path id="パス_3041" data-name="パス 3041" d="M9.413,251.965h6.38l12.163-5.873H26.443l-1.4.674-1.362.658-1.4.677-1.362.657-1.408.681-1.351.651-2.518,1.216H10.732Z" transform="translate(0.088 2.292)" fill="#8a67bc"/>
          <path id="パス_3042" data-name="パス 3042" d="M4.8,259.566H47.876v.973a1.768,1.768,0,0,1-1.768,1.767H6.566A1.767,1.767,0,0,1,4.8,260.539Z" transform="translate(0.045 2.417)" fill="#f5eae5"/>
          <path id="パス_3043" data-name="パス 3043" d="M29.206,241.048H21.42a1.7,1.7,0,0,0-1.653,2.383l1.322,2.707H32.86l-2-4.1a1.825,1.825,0,0,0-1.652-.989" transform="translate(0.183 2.245)" fill="#a37adb"/>
          <path id="パス_3044" data-name="パス 3044" d="M32.74,246.091h0a5.574,5.574,0,0,0,4.893,2.667h3.44a5.614,5.614,0,0,0,4.791-2.493l.108-.174Z" transform="translate(0.305 2.292)" fill="#f5eae5"/>
          <path id="パス_3045" data-name="パス 3045" d="M20.842,244.254l.941,1.874h.737l-1.092-2.17a.73.73,0,0,1,.032-.711.72.72,0,0,1,.619-.345h6.677a.728.728,0,0,1,.651.4l1.4,2.821h.735l-1.549-3.114a1.382,1.382,0,0,0-1.239-.77H22.079a1.387,1.387,0,0,0-1.236,2.01" transform="translate(0.193 2.256)" fill="#8a67bc"/>
          <path id="パス_3046" data-name="パス 3046" d="M55.862,262.432H95.4a1.767,1.767,0,0,0,1.767-1.767v-.973l-1.644-13.6H70.537l-12.78,6.372a7.813,7.813,0,0,0-3.662,6.619v1.583a1.767,1.767,0,0,0,1.767,1.767" transform="translate(0.504 2.292)" fill="#a37adb"/>
          <path id="パス_3047" data-name="パス 3047" d="M86.816,260.587l.46.467,4.65-4.558a6.869,6.869,0,0,1,4.327-1.96l-.079-.651a7.479,7.479,0,0,0-4.708,2.141Z" transform="translate(0.809 2.364)" fill="#8a67bc"/>
          <path id="パス_3048" data-name="パス 3048" d="M65.5,259.682h.658a7.281,7.281,0,0,1,4.118-6.536l11.356-5.434-.285-.593-11.356,5.434a7.945,7.945,0,0,0-4.491,7.13" transform="translate(0.61 2.301)" fill="#8a67bc"/>
          <path id="パス_3049" data-name="パス 3049" d="M95.294,246.091l.365,3.023-1.318.828a5.867,5.867,0,0,1-3.121.9H85.836a2.783,2.783,0,0,1-.4-.029l-1.894-.288a4.208,4.208,0,0,1-2.993-2.021l-1.422-2.411Z" transform="translate(0.737 2.292)" fill="#29190f"/>
          <path id="パス_3050" data-name="パス 3050" d="M67.737,247.417h6.609v-.658H69.059Z" transform="translate(0.631 2.298)" fill="#29190f"/>
          <path id="パス_3051" data-name="パス 3051" d="M65.085,248.74h6.459v-.658H66.4Z" transform="translate(0.606 2.31)" fill="#29190f"/>
          <path id="パス_3052" data-name="パス 3052" d="M62.436,250.06h6.336V249.4H63.754Z" transform="translate(0.581 2.323)" fill="#29190f"/>
          <path id="パス_3053" data-name="パス 3053" d="M58.709,251.965h6.379l12.164-5.873H75.739l-1.4.674-1.362.658-1.4.677-1.361.657-1.408.681-1.351.651-2.518,1.216H60.028Z" transform="translate(0.547 2.292)" fill="#8a67bc"/>
          <path id="パス_3054" data-name="パス 3054" d="M54.1,259.566H97.172v.973a1.768,1.768,0,0,1-1.768,1.767H55.862a1.767,1.767,0,0,1-1.767-1.767Z" transform="translate(0.504 2.417)" fill="#f5eae5"/>
          <path id="パス_3055" data-name="パス 3055" d="M78.5,241.048H70.715a1.7,1.7,0,0,0-1.653,2.383l1.322,2.707H82.155l-2-4.1a1.825,1.825,0,0,0-1.652-.989" transform="translate(0.642 2.245)" fill="#a37adb"/>
          <path id="パス_3056" data-name="パス 3056" d="M82.035,246.091h0a5.574,5.574,0,0,0,4.893,2.667h3.44a5.614,5.614,0,0,0,4.791-2.493l.108-.174Z" transform="translate(0.764 2.292)" fill="#f5eae5"/>
          <path id="パス_3057" data-name="パス 3057" d="M70.138,244.254l.941,1.874h.736l-1.091-2.17a.73.73,0,0,1,.032-.711.72.72,0,0,1,.619-.345H78.05a.726.726,0,0,1,.651.4l1.4,2.821h.734l-1.549-3.114a1.381,1.381,0,0,0-1.239-.77H71.375a1.387,1.387,0,0,0-1.236,2.01" transform="translate(0.652 2.256)" fill="#8a67bc"/>
          <path id="パス_3058" data-name="パス 3058" d="M38.3,126.175l.319,1.726a5.018,5.018,0,0,0,3.876,4l3.556.768.349.079.246-1.149-.673-.146-3.228-.7a3.842,3.842,0,0,1-2.973-3.063l-.281-1.511Z" transform="translate(0.357 1.175)" fill="#29190f"/>
          <path id="パス_3059" data-name="パス 3059" d="M45.583,126.175l.324,5.274.078,1.216.228,3.743,1.17-.074-.626-10.159Z" transform="translate(0.425 1.175)" fill="#29190f"/>
          <path id="パス_3060" data-name="パス 3060" d="M51.509,126.2c0,17.947,7.244,41.922,11.03,57.558a6.184,6.184,0,0,0,6.013,4.727H97.521l-10.978-64.8Z" transform="translate(0.48 1.152)" fill="#f5e2da"/>
          <path id="パス_3061" data-name="パス 3061" d="M12.558,188.483h5.623a6.188,6.188,0,0,0,6.188-6.188V126.2l-10.163-2.516Z" transform="translate(0.117 1.152)" fill="#f5e2da"/>
          <path id="パス_3062" data-name="パス 3062" d="M42.727,37.694l2.794,5.987-7.6,5.2L36.358,42.45Z" transform="translate(0.339 0.351)" fill="#7d5caa"/>
          <path id="パス_3063" data-name="パス 3063" d="M65.16,122.252H79.483a3.291,3.291,0,0,0,3.286-3.286v-2.542H81.282v2.542a1.8,1.8,0,0,1-1.8,1.8H65.16a1.8,1.8,0,0,1-1.8-1.8v-2.542H61.874v2.542a3.291,3.291,0,0,0,3.286,3.286" transform="translate(0.576 1.084)" fill="#d6bcb2"/>
        </g>
      </g>
    </g>
    <text id="点数計算を_早く正確に_行いたい" data-name="点数計算を
早く正確に
行いたい" transform="translate(1014 3012.614)" font-size="13" font-family="NotoSansJP-Bold, Noto Sans JP" font-weight="700"><tspan x="-32.5" y="0">点数計算</tspan><tspan y="0">を</tspan><tspan x="-32.5" y="17">早</tspan><tspan y="17">く</tspan><tspan y="17">正確</tspan><tspan y="17">に</tspan><tspan x="-26" y="34">行</tspan><tspan y="34">いたい</tspan></text>
  </g>
</svg>
