<svg xmlns="http://www.w3.org/2000/svg" xmlns:xlink="http://www.w3.org/1999/xlink" width="146" height="351.51" viewBox="0 0 146 351.51">
  <defs>
    <clipPath id="clip-path">
      <rect id="長方形_1026" data-name="長方形 1026" width="96.286" height="278.907" fill="none"/>
    </clipPath>
  </defs>
  <g id="worries_09" transform="translate(-1056 -2971)">
    <g id="グループ_1125" data-name="グループ 1125" transform="translate(755 -10)">
      <circle id="楕円形_22" data-name="楕円形 22" cx="53.5" cy="53.5" r="53.5" transform="translate(340 2981)" fill="#cbcbcb"/>
      <circle id="楕円形_23" data-name="楕円形 23" cx="9.5" cy="9.5" r="9.5" transform="translate(376 3077)" fill="#cbcbcb"/>
      <circle id="楕円形_24" data-name="楕円形 24" cx="5" cy="5" r="5" transform="translate(368 3093)" fill="#cbcbcb"/>
    </g>
    <g id="グループ_1098" data-name="グループ 1098" transform="translate(1056 3043.604)">
      <path id="パス_2904" data-name="パス 2904" d="M30.241,250.935H6.148l-2.9,19.011H27.346Z" transform="translate(-0.089 -6.885)" fill="#cc715e"/>
      <rect id="長方形_1023" data-name="長方形 1023" width="24.093" height="19.011" transform="translate(51.411 244.05)" fill="#cc715e"/>
      <g id="グループ_1097" data-name="グループ 1097">
        <g id="グループ_1096" data-name="グループ 1096" clip-path="url(#clip-path)">
          <path id="パス_2905" data-name="パス 2905" d="M77.79,263.593H48.38L41.911,125.779H76.919c5.979,46.055.87,137.814.87,137.814" transform="translate(-1.15 -3.451)" fill="#fbb766"/>
          <rect id="長方形_1024" data-name="長方形 1024" width="30.168" height="1.06" transform="translate(46.945 253.498)" fill="#29190f"/>
          <path id="パス_2906" data-name="パス 2906" d="M31.462,263.593H0s6.3-75.257,10.651-105.829c2.687-18.892,5.535-31.985,5.535-31.985H53.123Z" transform="translate(0 -3.451)" fill="#fbb766"/>
          <path id="パス_2907" data-name="パス 2907" d="M25.656,224.3l-.974-.68,7.279-9.745.973.681Z" transform="translate(-0.677 -5.868)" fill="#29190f"/>
          <path id="パス_2908" data-name="パス 2908" d="M25.314,232.45l4.674-9.269,1.086.5-4.423,8.771Z" transform="translate(-0.695 -6.124)" fill="#29190f"/>
          <path id="パス_2909" data-name="パス 2909" d="M62.93,218.977l-.974-.68,7.279-9.745.973.681Z" transform="translate(-1.7 -5.722)" fill="#29190f"/>
          <path id="パス_2910" data-name="パス 2910" d="M61.176,232.31l-1.085-.5,7.039-13.959,1.085.5Z" transform="translate(-1.649 -5.977)" fill="#29190f"/>
          <path id="パス_2911" data-name="パス 2911" d="M5.954,257.917,4.9,257.858,18.753,140.649l1.052.058Z" transform="translate(-0.134 -3.859)" fill="#29190f"/>
          <path id="パス_2912" data-name="パス 2912" d="M32.4,261.71H.3l.063-1.06h32.1Z" transform="translate(-0.008 -7.152)" fill="#29190f"/>
          <path id="パス_2913" data-name="パス 2913" d="M40.157,219.235l-1.047-.1L49.241,155.1l8.524-2.21.209,1.023-7.8,2.023Z" transform="translate(-1.073 -4.195)" fill="#29190f"/>
          <path id="パス_2914" data-name="パス 2914" d="M91.625,118.39h0a11.887,11.887,0,0,0,4.646-16.156l-20.3-36.69a11.887,11.887,0,1,0-20.8,11.509l20.3,36.691a11.888,11.888,0,0,0,16.156,4.646" transform="translate(-1.473 -1.63)" fill="#585680"/>
          <path id="パス_2915" data-name="パス 2915" d="M13.6,139.349l69,.112-.757-39.828-.337-17.648A25.443,25.443,0,0,0,58.632,56.66l-.011,0c-.847-.082-1.7-.128-2.575-.128h-17.1c-.608,0-1.219.021-1.811.068a24.82,24.82,0,0,0-4.44.707A25.477,25.477,0,0,0,13.493,81.984l-.711,37.488Z" transform="translate(-0.351 -1.551)" fill="#585680"/>
          <path id="パス_2916" data-name="パス 2916" d="M42.733,75.888,27.408,132.57l-4.673,70.168S29.347,206.9,65.72,206.9c14.817,0,22.75-2.756,22.75-2.756S85.458,112.174,76.206,81.961c-.828-2.7-2.436-4.544-3.368-6.131-16.866-10.5-30.1.058-30.1.058" transform="translate(-0.624 -1.953)" fill="#585680"/>
          <rect id="長方形_1025" data-name="長方形 1025" width="8.897" height="2.717" transform="translate(37.2 78.657)" fill="#fbb766"/>
          <path id="パス_2917" data-name="パス 2917" d="M49.5,67.045A1.241,1.241,0,1,0,50.737,65.8,1.241,1.241,0,0,0,49.5,67.045" transform="translate(-1.358 -1.805)" fill="#29190f"/>
          <path id="パス_2918" data-name="パス 2918" d="M53.005,75.306a1.241,1.241,0,1,0,1.241-1.241,1.241,1.241,0,0,0-1.241,1.241" transform="translate(-1.454 -2.032)" fill="#29190f"/>
          <path id="パス_2919" data-name="パス 2919" d="M54.918,84.777a1.241,1.241,0,1,0,1.241-1.241,1.241,1.241,0,0,0-1.241,1.241" transform="translate(-1.507 -2.292)" fill="#29190f"/>
          <path id="パス_2920" data-name="パス 2920" d="M54.918,96.386a1.241,1.241,0,1,0,1.241-1.241,1.241,1.241,0,0,0-1.241,1.241" transform="translate(-1.507 -2.611)" fill="#29190f"/>
          <path id="パス_2921" data-name="パス 2921" d="M54.918,107.995a1.241,1.241,0,1,0,1.241-1.241,1.241,1.241,0,0,0-1.241,1.241" transform="translate(-1.507 -2.929)" fill="#29190f"/>
          <path id="パス_2922" data-name="パス 2922" d="M54.918,119.6a1.241,1.241,0,1,0,1.241-1.241,1.241,1.241,0,0,0-1.241,1.241" transform="translate(-1.507 -3.248)" fill="#29190f"/>
          <path id="パス_2923" data-name="パス 2923" d="M54.918,131.213a1.241,1.241,0,1,0,1.241-1.241,1.241,1.241,0,0,0-1.241,1.241" transform="translate(-1.507 -3.566)" fill="#29190f"/>
          <path id="パス_2924" data-name="パス 2924" d="M61.233,67.045A1.241,1.241,0,1,0,62.474,65.8a1.241,1.241,0,0,0-1.241,1.241" transform="translate(-1.68 -1.805)" fill="#29190f"/>
          <path id="パス_2925" data-name="パス 2925" d="M64.741,75.306a1.241,1.241,0,1,0,1.241-1.241,1.241,1.241,0,0,0-1.241,1.241" transform="translate(-1.776 -2.032)" fill="#29190f"/>
          <path id="パス_2926" data-name="パス 2926" d="M66.655,84.777A1.241,1.241,0,1,0,67.9,83.536a1.241,1.241,0,0,0-1.241,1.241" transform="translate(-1.829 -2.292)" fill="#29190f"/>
          <path id="パス_2927" data-name="パス 2927" d="M66.655,96.386A1.241,1.241,0,1,0,67.9,95.145a1.241,1.241,0,0,0-1.241,1.241" transform="translate(-1.829 -2.611)" fill="#29190f"/>
          <path id="パス_2928" data-name="パス 2928" d="M66.655,107.995a1.241,1.241,0,1,0,1.241-1.241,1.241,1.241,0,0,0-1.241,1.241" transform="translate(-1.829 -2.929)" fill="#29190f"/>
          <path id="パス_2929" data-name="パス 2929" d="M66.655,119.6a1.241,1.241,0,1,0,1.241-1.241,1.241,1.241,0,0,0-1.241,1.241" transform="translate(-1.829 -3.248)" fill="#29190f"/>
          <path id="パス_2930" data-name="パス 2930" d="M66.655,131.213a1.241,1.241,0,1,0,1.241-1.241,1.241,1.241,0,0,0-1.241,1.241" transform="translate(-1.829 -3.566)" fill="#29190f"/>
          <path id="パス_2931" data-name="パス 2931" d="M58.4,159.851l-.893-.783,8.3-8.89.894.783Z" transform="translate(-1.578 -4.12)" fill="#29190f"/>
          <path id="パス_2932" data-name="パス 2932" d="M57.726,169.116l6.055-9.31-1.025-.614-5.917,9.1c.3.275.592.55.887.826" transform="translate(-1.56 -4.368)" fill="#29190f"/>
          <path id="パス_2933" data-name="パス 2933" d="M18.325,125.013h0A11.887,11.887,0,0,1,7.857,111.859S10.5,69.773,21.12,63.886c18.684,7.695,10.359,50.659,10.359,50.659a11.886,11.886,0,0,1-13.154,10.468" transform="translate(-0.213 -1.753)" fill="#585680"/>
          <path id="パス_2934" data-name="パス 2934" d="M8.1,112.237A13.073,13.073,0,1,0,21.172,99.164,13.073,13.073,0,0,0,8.1,112.237" transform="translate(-0.222 -2.721)" fill="#fbb766"/>
          <path id="パス_2935" data-name="パス 2935" d="M32.433,103.614l-.982-.163,4.8-16.379.981.163Z" transform="translate(-0.863 -2.389)" fill="#29190f"/>
          <path id="パス_2936" data-name="パス 2936" d="M48.031,60.057l9.075,2.926a4.728,4.728,0,1,0,2.9-9l-9.075-2.926a4.728,4.728,0,1,0-2.9,9" transform="translate(-1.228 -1.395)" fill="#585680"/>
          <path id="パス_2937" data-name="パス 2937" d="M41.1,56.052l14.554,4.115,4.9-21.034H44.722Z" transform="translate(-1.128 -1.074)" fill="#cc715e"/>
          <path id="パス_2938" data-name="パス 2938" d="M40.926,35.232a12.4,12.4,0,1,0,12.4-12.4,12.4,12.4,0,0,0-12.4,12.4" transform="translate(-1.123 -0.626)" fill="#cc715e"/>
          <path id="パス_2939" data-name="パス 2939" d="M49.981,48.646,57.6,50.962a8.26,8.26,0,0,0,9.793-9.491l-1.837-9.063L48.3,31.824Z" transform="translate(-1.325 -0.873)" fill="#cc715e"/>
          <path id="パス_2940" data-name="パス 2940" d="M26.936,17.565c1.873,3.579,9.883,3.084,17.891-1.106S57.81,5.971,55.938,2.392,46.055-.692,38.045,3.5,25.063,13.986,26.936,17.565" transform="translate(-0.728 0)" fill="#585680"/>
          <path id="パス_2941" data-name="パス 2941" d="M40.582,37.436s1.714-3.79,10.226-7.782,12.407-1.881,12.407-1.881l-9.4-21.359L31.185,16.075Z" transform="translate(-0.856 -0.176)" fill="#585680"/>
          <path id="パス_2942" data-name="パス 2942" d="M58.085,34.067a.506.506,0,0,0-.687-.18,3.188,3.188,0,0,0-.562.439.5.5,0,0,0,.71.71c.056-.055.117-.108.178-.159.016-.012.061-.047.067-.05.037-.026.075-.05.114-.074a.508.508,0,0,0,.18-.687" transform="translate(-1.555 -0.928)" fill="#29190f"/>
          <path id="パス_2943" data-name="パス 2943" d="M63.808,33.744a.507.507,0,0,0-.688-.18,3.147,3.147,0,0,0-.561.439.5.5,0,0,0,.709.71c.057-.055.118-.108.179-.159.016-.012.061-.047.067-.05.037-.026.075-.05.113-.074a.507.507,0,0,0,.181-.687" transform="translate(-1.712 -0.919)" fill="#29190f"/>
          <path id="パス_2944" data-name="パス 2944" d="M39.765,42.239c1.4,2.259,3.857,3.273,5.484,2.263s1.811-3.66.41-5.919S41.8,35.31,40.176,36.32s-1.811,3.66-.41,5.919" transform="translate(-1.065 -0.986)" fill="#cc715e"/>
          <path id="パス_2945" data-name="パス 2945" d="M43.578,40.554l.616-.28a4.348,4.348,0,0,0-3.213-2.54l-.085.67.042-.336L40.9,38.4a3.674,3.674,0,0,1,2.683,2.15" transform="translate(-1.122 -1.035)" fill="#29190f"/>
          <path id="パス_2946" data-name="パス 2946" d="M61.9,45.276a10.235,10.235,0,0,0,1.142-.06l-.088-.713a9.771,9.771,0,0,1-2.044,0,5.784,5.784,0,0,1-1.986-.728l-.376.611a6.444,6.444,0,0,0,2.277.831,8.989,8.989,0,0,0,1.076.06" transform="translate(134.481 46.242) rotate(146)" fill="#29190f"/>
          <path id="パス_2947" data-name="パス 2947" d="M58.077,51.528a8.794,8.794,0,0,1-1.216-.052,5.754,5.754,0,0,1-1.986-.729l-.376.612a6.444,6.444,0,0,0,2.277.831,9.035,9.035,0,0,0,1.044.059c.089-.239.176-.479.258-.721" transform="translate(-1.495 -1.392)" fill="#29190f"/>
          <path id="パス_2948" data-name="パス 2948" d="M62.769,41.2c.221-.336.719-1.167.609-1.648a.521.521,0,0,0-.25-.337,2.064,2.064,0,0,0-1.275-.024l-.2-1.226-.709.116.327,2,.385-.107a4.021,4.021,0,0,1,1.007-.159,4.228,4.228,0,0,1-.494.988Z" transform="translate(-1.672 -1.042)" fill="#29190f"/>
          <path id="パス_2949" data-name="パス 2949" d="M57.244,37.565c0,.586.258,1.061.577,1.061s.576-.475.576-1.061-.258-1.061-.576-1.061-.577.475-.577,1.061" transform="translate(-1.571 -1.002)" fill="#29190f"/>
          <path id="パス_2950" data-name="パス 2950" d="M62.933,37.565c0,.586.258,1.061.577,1.061s.576-.475.576-1.061S63.828,36.5,63.51,36.5s-.577.475-.577,1.061" transform="translate(-1.727 -1.002)" fill="#29190f"/>
          <path id="パス_2951" data-name="パス 2951" d="M43.879,45.839a3.562,3.562,0,0,0,.938-.112l-.191-.691a3.807,3.807,0,0,1-1.4.038l-.118.709a5.259,5.259,0,0,0,.767.056" transform="translate(-1.183 -1.236)" fill="#29190f"/>
          <path id="パス_2952" data-name="パス 2952" d="M81.182,97.715l7.288.032L80.42,90.5Z" transform="translate(-2.207 -2.483)" fill="#29190f"/>
          <path id="パス_2953" data-name="パス 2953" d="M63.572,85.856c-4.926,3.253-4.825,12.234-.006,17.847s12.719,7.527,17.646,4.273,5.014-10.44.195-16.054S68.5,82.6,63.572,85.856" transform="translate(-1.644 -2.322)" fill="#cc715e"/>
          <path id="パス_2954" data-name="パス 2954" d="M71.881,108.421A13.073,13.073,0,1,0,84.954,95.348a13.072,13.072,0,0,0-13.073,13.073" transform="translate(-1.972 -2.616)" fill="#fbb766"/>
          <path id="パス_2955" data-name="パス 2955" d="M41.772,95.412s1.825-.112,4.721-.257c8.8-.447,23.823.181,31.041.247,18.336.167,13.4,15.314,13.066,16.162a12.172,12.172,0,0,1-13.05,7.521l-.065-.01L39.4,111.107Z" transform="translate(-1.081 -2.606)" fill="#cc715e"/>
          <path id="パス_2956" data-name="パス 2956" d="M70.239,95s-35.372,24.844-42.225,27.113c-7.477,2.476-13.259-1.339-15.371-7.718a12.179,12.179,0,0,1-.574-2.735c-.5-5.478,3.491-9.567,8.921-11.4L64.036,85.026Z" transform="translate(-0.33 -2.333)" fill="#cc715e"/>
          <path id="パス_2957" data-name="パス 2957" d="M68.579,97.389,46.95,112.708l6.762,1.415Z" transform="translate(-1.288 -2.672)" fill="#29190f"/>
          <path id="パス_2958" data-name="パス 2958" d="M91.28,286.328H52.936a1.714,1.714,0,0,1-1.714-1.714v-.943l1.594-13.188H77.05l12.392,6.178a7.576,7.576,0,0,1,3.551,6.419v1.535a1.714,1.714,0,0,1-1.714,1.714" transform="translate(-1.405 -7.421)" fill="#585680"/>
          <path id="パス_2959" data-name="パス 2959" d="M60.986,284.825l-.446.453-4.509-4.42a6.662,6.662,0,0,0-4.2-1.9l.077-.631a7.261,7.261,0,0,1,4.566,2.075Z" transform="translate(-1.422 -7.637)" fill="#3d3b59"/>
          <path id="パス_2960" data-name="パス 2960" d="M82.256,283.7h-.638a7.061,7.061,0,0,0-3.993-6.338l-11.011-5.269.275-.576,11.011,5.27a7.7,7.7,0,0,1,4.356,6.913" transform="translate(-1.828 -7.45)" fill="#3d3b59"/>
          <path id="パス_2961" data-name="パス 2961" d="M52.851,270.482l-.354,2.931,1.278.8a5.688,5.688,0,0,0,3.027.871h5.222a2.585,2.585,0,0,0,.387-.029l1.837-.278a4.078,4.078,0,0,0,2.9-1.96l1.38-2.338Z" transform="translate(-1.44 -7.421)" fill="#29190f"/>
          <path id="パス_2962" data-name="パス 2962" d="M80.263,271.793H73.854v-.638h5.127Z" transform="translate(-2.026 -7.44)" fill="#29190f"/>
          <path id="パス_2963" data-name="パス 2963" d="M82.936,273.124H76.674v-.638h4.983Z" transform="translate(-2.104 -7.476)" fill="#29190f"/>
          <path id="パス_2964" data-name="パス 2964" d="M85.6,274.452H79.46v-.638h4.866Z" transform="translate(-2.18 -7.513)" fill="#29190f"/>
          <path id="パス_2965" data-name="パス 2965" d="M89.022,276.178H82.835l-11.794-5.7h1.467l1.355.654,1.32.638,1.363.657,1.32.637,1.365.66,1.311.631,2.442,1.18h4.761Z" transform="translate(-1.949 -7.421)" fill="#3d3b59"/>
          <path id="パス_2966" data-name="パス 2966" d="M92.995,284.043H51.222v.943a1.714,1.714,0,0,0,1.715,1.714H91.281a1.714,1.714,0,0,0,1.714-1.714Z" transform="translate(-1.405 -7.793)" fill="#f5eae5"/>
          <path id="パス_2967" data-name="パス 2967" d="M69.6,265.407h7.55a1.647,1.647,0,0,1,1.6,2.31l-1.282,2.626H66.056L68,266.367a1.773,1.773,0,0,1,1.6-.96" transform="translate(-1.812 -7.282)" fill="#585680"/>
          <path id="パス_2968" data-name="パス 2968" d="M65.692,270.482h0a5.4,5.4,0,0,1-4.745,2.586H57.611a5.443,5.443,0,0,1-4.645-2.418l-.105-.168Z" transform="translate(-1.45 -7.421)" fill="#f5eae5"/>
          <path id="パス_2969" data-name="パス 2969" d="M77.735,268.559l-.912,1.818h-.714l1.058-2.1a.706.706,0,0,0-.031-.689.7.7,0,0,0-.6-.336H70.063a.7.7,0,0,0-.631.393l-1.362,2.736h-.711l1.5-3.02a1.338,1.338,0,0,1,1.2-.746h6.473a1.344,1.344,0,0,1,1.2,1.948" transform="translate(-1.848 -7.315)" fill="#3d3b59"/>
          <path id="パス_2970" data-name="パス 2970" d="M41.671,286.328H3.327a1.714,1.714,0,0,1-1.714-1.714v-.943l1.594-13.188H27.441l12.392,6.178a7.576,7.576,0,0,1,3.551,6.419v1.535a1.714,1.714,0,0,1-1.714,1.714" transform="translate(-0.044 -7.421)" fill="#585680"/>
          <path id="パス_2971" data-name="パス 2971" d="M11.377,284.825l-.446.453-4.509-4.42a6.662,6.662,0,0,0-4.2-1.9l.077-.631A7.261,7.261,0,0,1,6.868,280.4Z" transform="translate(-0.061 -7.637)" fill="#3d3b59"/>
          <path id="パス_2972" data-name="パス 2972" d="M32.647,283.7h-.638a7.061,7.061,0,0,0-3.993-6.338L17,272.092l.275-.576,11.011,5.27a7.7,7.7,0,0,1,4.356,6.913" transform="translate(-0.467 -7.45)" fill="#3d3b59"/>
          <path id="パス_2973" data-name="パス 2973" d="M3.242,270.482l-.354,2.931,1.278.8a5.688,5.688,0,0,0,3.027.871h5.222a2.585,2.585,0,0,0,.387-.029l1.837-.278a4.076,4.076,0,0,0,2.9-1.96l1.38-2.338Z" transform="translate(-0.079 -7.421)" fill="#29190f"/>
          <path id="パス_2974" data-name="パス 2974" d="M30.654,271.793H24.245v-.638h5.127Z" transform="translate(-0.665 -7.44)" fill="#29190f"/>
          <path id="パス_2975" data-name="パス 2975" d="M33.327,273.124H27.065v-.638h4.983Z" transform="translate(-0.743 -7.476)" fill="#29190f"/>
          <path id="パス_2976" data-name="パス 2976" d="M36,274.452H29.851v-.638h4.866Z" transform="translate(-0.819 -7.513)" fill="#29190f"/>
          <path id="パス_2977" data-name="パス 2977" d="M39.413,276.178H33.226l-11.794-5.7H22.9l1.355.654,1.321.638,1.362.657,1.32.637,1.365.66,1.311.631,2.442,1.18h4.761Z" transform="translate(-0.588 -7.421)" fill="#3d3b59"/>
          <path id="パス_2978" data-name="パス 2978" d="M43.386,284.043H1.613v.943A1.714,1.714,0,0,0,3.328,286.7H41.672a1.714,1.714,0,0,0,1.714-1.714Z" transform="translate(-0.044 -7.793)" fill="#f5eae5"/>
          <path id="パス_2979" data-name="パス 2979" d="M19.991,265.407h7.55a1.647,1.647,0,0,1,1.6,2.31l-1.282,2.626H16.447l1.941-3.976a1.773,1.773,0,0,1,1.6-.96" transform="translate(-0.451 -7.282)" fill="#585680"/>
          <path id="パス_2980" data-name="パス 2980" d="M16.083,270.482h0a5.4,5.4,0,0,1-4.745,2.586H8a5.443,5.443,0,0,1-4.645-2.418l-.105-.168Z" transform="translate(-0.089 -7.421)" fill="#f5eae5"/>
          <path id="パス_2981" data-name="パス 2981" d="M28.126,268.559l-.912,1.818H26.5l1.058-2.1a.706.706,0,0,0-.031-.689.7.7,0,0,0-.6-.336H20.455a.705.705,0,0,0-.632.393l-1.362,2.736H17.75l1.5-3.02a1.34,1.34,0,0,1,1.2-.746h6.472a1.344,1.344,0,0,1,1.2,1.948" transform="translate(-0.487 -7.315)" fill="#3d3b59"/>
          <path id="パス_2982" data-name="パス 2982" d="M13.624,141.685H84.288s-16.826,8.507-70.664,0" transform="translate(-0.374 -3.887)" fill="#29190f"/>
          <path id="パス_2983" data-name="パス 2983" d="M38.037,59.445l9.075,2.926a4.728,4.728,0,0,0,2.9-9l-9.075-2.926a4.728,4.728,0,1,0-2.9,9" transform="translate(-0.954 -1.378)" fill="#585680"/>
        </g>
      </g>
    </g>
    <text id="仕入れの_ロスやダブりを_解決したい" data-name="仕入れの
ロスやダブりを
解決したい" transform="translate(1148 3012.614)" font-size="13" font-family="NotoSansJP-Bold, Noto Sans JP" font-weight="700"><tspan x="-26" y="0">仕入</tspan><tspan y="0">れの</tspan><tspan x="-45.5" y="17">ロスやダブりを</tspan><tspan x="-32.5" y="34">解決</tspan><tspan y="34">したい</tspan></text>
  </g>
</svg>
