<svg xmlns="http://www.w3.org/2000/svg" xmlns:xlink="http://www.w3.org/1999/xlink" width="129" height="355.402" viewBox="0 0 129 355.402">
  <defs>
    <clipPath id="clip-path">
      <rect id="長方形_1022" data-name="長方形 1022" width="117.01" height="262.801" fill="none"/>
    </clipPath>
  </defs>
  <g id="worries_05" transform="translate(-541 -2971)">
    <g id="グループ_1123" data-name="グループ 1123" transform="translate(223 -10)">
      <circle id="楕円形_22" data-name="楕円形 22" cx="53.5" cy="53.5" r="53.5" transform="translate(340 2981)" fill="#ffb134"/>
      <circle id="楕円形_23" data-name="楕円形 23" cx="9.5" cy="9.5" r="9.5" transform="translate(376 3077)" fill="#ffb134"/>
      <circle id="楕円形_24" data-name="楕円形 24" cx="5" cy="5" r="5" transform="translate(368 3093)" fill="#ffb134"/>
    </g>
    <g id="グループ_1095" data-name="グループ 1095" transform="translate(541 3063.601)">
      <g id="グループ_1094" data-name="グループ 1094" clip-path="url(#clip-path)">
        <path id="パス_2826" data-name="パス 2826" d="M64.734,19.086S61.223,30.259,73.86,35.18c14.117,5.5,30.092,21.411,18.058,37.408s-59.394-3.846-59.394-3.846-20.876-15.44-6.2-38.286C34.61,17.565,37.071,10.875,37.071,10.875Z" transform="translate(-3.9 -2.011)" fill="#29190f"/>
        <path id="パス_2827" data-name="パス 2827" d="M68.874,14.913A14.912,14.912,0,1,1,53.962,0,14.913,14.913,0,0,1,68.874,14.913" transform="translate(-7.22)" fill="#29190f"/>
        <path id="パス_2828" data-name="パス 2828" d="M63.91,19.161A12.694,12.694,0,1,1,51.216,6.467,12.693,12.693,0,0,1,63.91,19.161" transform="translate(-7.122 -1.196)" fill="#fa9378"/>
        <path id="パス_2829" data-name="パス 2829" d="M54.484,34.668l-7.794,2.37a8.453,8.453,0,0,1-10.021-9.715l1.88-9.275,17.654-.6Z" transform="translate(-6.756 -3.227)" fill="#fa9378"/>
        <path id="パス_2830" data-name="パス 2830" d="M50.322,20.993a2.991,2.991,0,0,0-1.157-.694c-.487-.161-.7.606-.211.766a2.085,2.085,0,0,1,.806.49c.369.355.932-.206.562-.562" transform="translate(-9 -3.749)" fill="#29190f"/>
        <path id="パス_2831" data-name="パス 2831" d="M42.99,20.81a2.991,2.991,0,0,0-1.157-.694c-.487-.161-.7.606-.211.766a2.085,2.085,0,0,1,.806.49c.369.355.932-.206.562-.562" transform="translate(-7.645 -3.715)" fill="#29190f"/>
        <path id="パス_2832" data-name="パス 2832" d="M50.287,4.676c-2.243-.417-4.141,3.308-4.141,3.308s5.687-.384,9.128,7.975c2.072,5.033,4.654,5.234,4.81,7.323a3.146,3.146,0,0,0,4.508.776s4.612-8.5-.9-14.388c-3.532-3.776-9.109-4.195-13.409-4.994" transform="translate(-8.532 -0.858)" fill="#29190f"/>
        <path id="パス_2833" data-name="パス 2833" d="M66.691,47.9H52.452L47.439,26.377H61.678Z" transform="translate(-8.771 -4.877)" fill="#fa9378"/>
        <path id="パス_2834" data-name="パス 2834" d="M68.98,30.3c-1.982,2.1-4.817,2.65-6.332,1.223s-1.136-4.29.846-6.393,4.817-2.65,6.332-1.223,1.136,4.29-.846,6.393" transform="translate(-11.411 -4.273)" fill="#fa9378"/>
        <path id="パス_2835" data-name="パス 2835" d="M66.046,28.112A4.027,4.027,0,0,1,69.368,26.4l.055-.733a4.723,4.723,0,0,0-3.973,2.01Z" transform="translate(-12.101 -4.745)" fill="#29190f"/>
        <rect id="長方形_1018" data-name="長方形 1018" width="3.067" height="0.735" transform="translate(41.324 33.301) rotate(-18.247)" fill="#29190f"/>
        <path id="パス_2836" data-name="パス 2836" d="M43.962,32.931a9.432,9.432,0,0,0,1.1-.061,6.627,6.627,0,0,0,2.331-.85l-.386-.626a5.951,5.951,0,0,1-2.032.747,10.148,10.148,0,0,1-2.093,0l-.089.73a10.739,10.739,0,0,0,1.168.061" transform="matrix(-0.951, -0.309, 0.309, -0.951, 70.13, 70.882)" fill="#29190f"/>
        <path id="パス_2837" data-name="パス 2837" d="M42.787,28.256l.615-.4a4.322,4.322,0,0,1-.5-1.011,3.98,3.98,0,0,1,1.028.163l.4.109.334-2.051-.725-.119-.2,1.254a2.123,2.123,0,0,0-1.306.026.538.538,0,0,0-.256.344c-.112.492.4,1.343.623,1.686" transform="translate(-7.793 -4.612)" fill="#29190f"/>
        <path id="パス_2838" data-name="パス 2838" d="M49.475,24.5c0,.6-.264,1.086-.59,1.086s-.59-.486-.59-1.086Z" transform="translate(-8.929 -4.53)" fill="#29190f"/>
        <path id="パス_2839" data-name="パス 2839" d="M42.527,24.5c0,.6-.264,1.086-.59,1.086s-.59-.486-.59-1.086Z" transform="translate(-7.644 -4.53)" fill="#29190f"/>
        <path id="パス_2840" data-name="パス 2840" d="M64.827,34.563A5.2,5.2,0,0,0,66.07,34.4l-.2-.708a3.972,3.972,0,0,1-1.425.112,3.646,3.646,0,0,1-1.407-.714l-.472.563a4.333,4.333,0,0,0,1.759.875,3,3,0,0,0,.5.038" transform="translate(-11.568 -6.117)" fill="#29190f"/>
        <path id="パス_2841" data-name="パス 2841" d="M6.051,123.914h0a11.931,11.931,0,0,1-4.5-16.263L27.188,62.611A11.932,11.932,0,0,1,47.95,74.376L22.315,119.417a11.931,11.931,0,0,1-16.263,4.5" transform="translate(0 -10.457)" fill="#8b8f61"/>
        <path id="パス_2842" data-name="パス 2842" d="M26.773,149.775H66.241v58.714a17.972,17.972,0,0,1-35.943,0Z" transform="translate(-4.95 -27.691)" fill="#444857"/>
        <path id="パス_2843" data-name="パス 2843" d="M60.831,206.784,111.9,246.407,86.994,274.2,38.768,235.119c-8.559-6.936-9.979-19.2-3.112-26.861,6.264-6.99,17.237-7.632,25.176-1.473" transform="translate(-5.787 -37.45)" fill="#444857"/>
        <path id="パス_2844" data-name="パス 2844" d="M94.293,280.064l25.03-27.928,1.309,1.069-24.99,27.883Z" transform="translate(-17.433 -46.616)" fill="#29190f"/>
        <path id="パス_2845" data-name="パス 2845" d="M105.072,310.986l29.373-32.774a2.167,2.167,0,0,0-.417-3.015l-.952-.853-14.529-10.565L99.983,284.493l-3.259,16.18a10.8,10.8,0,0,0,3.757,8.84l1.548,1.388a2.167,2.167,0,0,0,3.043.085" transform="translate(-17.876 -48.769)" fill="#cc715e"/>
        <path id="パス_2846" data-name="パス 2846" d="M134.159,285.015l.8.031-1.009-7.854a7.286,7.286,0,0,1,1.008-4.886l-.7-.506a7.952,7.952,0,0,0-1.11,5.364Z" transform="translate(-24.604 -50.252)" fill="#a15342"/>
        <path id="パス_2847" data-name="パス 2847" d="M107.439,299.046l4.3-19.553-.791-.285-4.3,19.553Z" transform="translate(-19.718 -51.622)" fill="#a15342"/>
        <path id="パス_2848" data-name="パス 2848" d="M120.781,263.78l3.229,2.348-.17,1.818a5.82,5.82,0,0,1-1.439,3.375l-4,4.463a2.52,2.52,0,0,1-.327.3l-1.688,1.319a4.741,4.741,0,0,1-4.2.708l-3.417-.935Z" transform="translate(-20.11 -48.769)" fill="#29190f"/>
        <path id="パス_2849" data-name="パス 2849" d="M99.894,291.97l4.912-5.481-.643-.577-3.93,4.385Z" transform="translate(-18.469 -52.861)" fill="#29190f"/>
        <path id="パス_2850" data-name="パス 2850" d="M99.057,296.156l4.8-5.356-.643-.576-3.82,4.263Z" transform="translate(-18.314 -53.658)" fill="#29190f"/>
        <path id="パス_2851" data-name="パス 2851" d="M98.22,300.331l4.71-5.255-.644-.576-3.728,4.159Z" transform="translate(-18.159 -54.449)" fill="#29190f"/>
        <path id="パス_2852" data-name="パス 2852" d="M105.071,282.323l-3.289,15.233-4.737,5.283.333-1.669,3.644-4.069.681-3.155.368-1.695.381-1.759.368-1.708.381-1.755.368-1.708.377-1.746v0Z" transform="translate(-17.942 -52.197)" fill="#a15342"/>
        <path id="パス_2853" data-name="パス 2853" d="M102.074,312.443l32-35.7,1.089.977a2.137,2.137,0,0,1,.165,3.018l-29.145,32.521a2.138,2.138,0,0,1-3.019.165Z" transform="translate(-18.872 -51.165)" fill="#d6cdc8"/>
        <path id="パス_2854" data-name="パス 2854" d="M111.447,274.746h0a6.056,6.056,0,0,0,6.245-1.717l2.555-2.851a6.045,6.045,0,0,0,1.12-6.157l-.09-.242Z" transform="translate(-20.605 -48.769)" fill="#f5eae5"/>
        <path id="パス_2855" data-name="パス 2855" d="M97.579,311.664l10.12-11.292c1.82-2.03,5.253-1.932,7.651.217l.488-.545c-2.754-2.468-6.694-2.578-8.782-.249l-9.812,10.949c.1.311.209.615.336.92" transform="translate(-17.979 -55.118)" fill="#a15342"/>
        <path id="パス_2856" data-name="パス 2856" d="M50.578,134.5l.124,37.279,1.03,94.44H89.053L86.149,134.5Z" transform="translate(-9.351 -24.867)" fill="#54596b"/>
        <path id="パス_2857" data-name="パス 2857" d="M51.574,137.514v31.279s-9.986-10.023-12.868-19.164A68.389,68.389,0,0,1,35.493,134.5Z" transform="translate(-6.562 -24.867)" fill="#54596b"/>
        <path id="パス_2858" data-name="パス 2858" d="M89.189,289.423H51.966l.01,1.688H89.227Z" transform="translate(-9.608 -53.51)" fill="#29190f"/>
        <path id="パス_2859" data-name="パス 2859" d="M66.051,235.346l1.48-.969L58.506,220.5l-1.479.968Z" transform="translate(-10.543 -40.767)" fill="#29190f"/>
        <path id="パス_2860" data-name="パス 2860" d="M67.025,256.9l1.616-.71-8.1-19.883-1.616.71Z" transform="translate(-10.894 -43.689)" fill="#29190f"/>
        <path id="パス_2861" data-name="パス 2861" d="M31.067,317.54h44.01a2.351,2.351,0,0,0,2.123-2.322l.086-1.278-.634-17.871H48.836L34.052,304.44a11.654,11.654,0,0,0-4.658,8.7l-.139,2.079a2,2,0,0,0,1.812,2.322" transform="translate(-5.408 -54.739)" fill="#cc715e"/>
        <path id="パス_2862" data-name="パス 2862" d="M75.006,318.375l.471.618L81.053,313a7.916,7.916,0,0,1,4.479-2.511l-.03-.855a8.637,8.637,0,0,0-4.92,2.752Z" transform="translate(-13.868 -57.247)" fill="#a15342"/>
        <path id="パス_2863" data-name="パス 2863" d="M46.142,308.368l18.09-9.848-.264-.779-18.09,9.847Z" transform="translate(-8.482 -55.048)" fill="#a15342"/>
        <path id="パス_2864" data-name="パス 2864" d="M83.321,296.069l.141,3.972-1.541,1.087a6.165,6.165,0,0,1-3.552,1.181H72.377a2.5,2.5,0,0,1-.443-.04l-2.083-.377a4.326,4.326,0,0,1-3.152-2.655l-1.372-3.168Z" transform="translate(-12.078 -54.739)" fill="#29190f"/>
        <path id="パス_2865" data-name="パス 2865" d="M49.484,298.021h7.36l.058-.864H51.014Z" transform="translate(-9.149 -54.94)" fill="#29190f"/>
        <path id="パス_2866" data-name="パス 2866" d="M45.686,300.173h7.192l.058-.864H47.211Z" transform="translate(-8.447 -55.338)" fill="#29190f"/>
        <path id="パス_2867" data-name="パス 2867" d="M41.891,302.32h7.056l.058-.864H43.421Z" transform="translate(-7.745 -55.735)" fill="#29190f"/>
        <path id="パス_2868" data-name="パス 2868" d="M57.711,296.071l-14.058,7.714H36.558l1.525-.862h5.46l2.912-1.6,1.564-.858,1.625-.893,1.573-.862,1.62-.888,1.573-.866,1.616-.884Z" transform="translate(-6.759 -54.739)" fill="#a15342"/>
        <path id="パス_2869" data-name="パス 2869" d="M29.338,317.993H77.283l-.1,1.46a2.323,2.323,0,0,1-2.284,2.14H31.237a1.976,1.976,0,0,1-2-2.14Z" transform="translate(-5.405 -58.792)" fill="#d6cdc8"/>
        <path id="パス_2870" data-name="パス 2870" d="M69.336,296.069h0a5.578,5.578,0,0,0,5.211,3.5h3.829a6.55,6.55,0,0,0,5.552-3.275l.136-.228Z" transform="translate(-12.819 -54.739)" fill="#f5eae5"/>
        <path id="パス_2871" data-name="パス 2871" d="M31.215,310.632H46.377c2.727,0,4.769,2.623,4.554,5.842h.732c.247-3.7-2.1-6.706-5.227-6.706h-14.7c-.183.28-.355.566-.518.864" transform="translate(-5.771 -57.272)" fill="#a15342"/>
        <path id="パス_2872" data-name="パス 2872" d="M111.707,123.954h0a11.931,11.931,0,0,0,3.423-16.523L86.6,64.166a11.932,11.932,0,0,0-19.947,13.1L95.183,120.53a11.932,11.932,0,0,0,16.523,3.423" transform="translate(-11.961 -10.868)" fill="#8b8f61"/>
        <path id="パス_2873" data-name="パス 2873" d="M84.441,138H24.1l5.338-68.792c0-.017,0-.03,0-.047a21.462,21.462,0,0,1,.758-4.234s0,0,0,0a23.5,23.5,0,0,1,7.974-11.887,27.159,27.159,0,0,1,17.1-5.92,27.455,27.455,0,0,1,14.2,3.892,25.713,25.713,0,0,1,3.3,2.361c.281.234.558.477.827.729a22.856,22.856,0,0,1,7.55,15.744Z" transform="translate(-4.455 -8.711)" fill="#8b8f61"/>
        <path id="パス_2874" data-name="パス 2874" d="M37.819,104.023l-.815.3A103.527,103.527,0,0,1,30.651,73.2a21.463,21.463,0,0,1,.759-4.234c0,.589.008,1.192.021,1.816a102.651,102.651,0,0,0,6.388,33.239" transform="translate(-5.667 -12.751)" fill="#29190f"/>
        <path id="パス_2875" data-name="パス 2875" d="M79.623,55.517c-.039.585-.1,1.179-.174,1.777A49.434,49.434,0,0,1,75.6,70.407,103.482,103.482,0,0,1,57.37,99.265l-.646-.576A102.775,102.775,0,0,0,74.8,70.073a48.721,48.721,0,0,0,3.788-12.888c.1-.806.173-1.608.2-2.4.282.234.559.477.828.728" transform="translate(-10.487 -10.13)" fill="#29190f"/>
        <path id="パス_2876" data-name="パス 2876" d="M30.648,158.616v46.811h-11.7l4.194-46.811Z" transform="translate(-3.503 -29.326)" fill="#8b8f61"/>
        <path id="パス_2877" data-name="パス 2877" d="M58.827,158.116v47.118H97.379l-6.559-47.66Z" transform="translate(-10.876 -29.133)" fill="#8b8f61"/>
        <path id="パス_2878" data-name="パス 2878" d="M76.054,94.757l-1.267.9,9.957,15.711,1.267-.9Z" transform="translate(-13.827 -17.519)" fill="#29190f"/>
        <path id="パス_2879" data-name="パス 2879" d="M28.2,90.269l.954-.527-2.7,30.636-.876-.778Z" transform="translate(-4.73 -16.592)" fill="#29190f"/>
        <path id="パス_2880" data-name="パス 2880" d="M71.318,51.1c-.741,2.019-2.193,3.966-4.7,6.288-6.613,6.132-9.634,25.274-10.574,36.862S54.11,138,54.11,138H33.3s-.165-48.09,5.508-66.084a35.052,35.052,0,0,0,1.062-18.881c.368-.3.741-.585,1.126-.858a27.27,27.27,0,0,1,15.97-5.062,28.014,28.014,0,0,1,10.249,1.967,27.6,27.6,0,0,1,4.1,2.02" transform="translate(-6.157 -8.711)" fill="#fbd5a2"/>
        <path id="パス_2881" data-name="パス 2881" d="M77.5,139.5l-33.717-9.937a1.509,1.509,0,0,1-1.021-1.874L59,72.618A1.509,1.509,0,0,1,60.871,71.6l33.716,9.938a1.508,1.508,0,0,1,1.021,1.873L79.376,138.484A1.509,1.509,0,0,1,77.5,139.5" transform="translate(-7.895 -13.226)" fill="#b3c9ff"/>
        <path id="パス_2882" data-name="パス 2882" d="M54.417,123.031l48.595-7.749a10.461,10.461,0,1,1,3.1,20.688L59.5,140.924Z" transform="translate(-10.061 -21.287)" fill="#8b8f61"/>
        <rect id="長方形_1019" data-name="長方形 1019" width="37.376" height="0.867" transform="translate(51.049 100.022) rotate(-9.037)" fill="#29190f"/>
        <path id="パス_2883" data-name="パス 2883" d="M63.351,128.32c-.018.786-.049,1.529-.1,2.234-.5,7.823-2.674,10.628-5.62,10.664-2.88.035-6.869-.388-9.477-5.9a18.96,18.96,0,0,1-.846-2.121,13.271,13.271,0,0,1-.631-3.584c-.007-.085-.011-.17-.011-.254a3,3,0,0,1-.007-.31c-.007-.081-.007-.165-.007-.247a23.884,23.884,0,0,1,.4-4.246.872.872,0,0,1,.018-.109c.038-.219.081-.434.126-.649a.115.115,0,0,1,.007-.039,38.378,38.378,0,0,1,1.1-4.1l.074-.215c.05-.155.1-.31.152-.458.014-.038.029-.074.039-.109a42.9,42.9,0,0,1,1.642-4.063q.212-.079.423-.137c.194.067.476.173.828.313,2.735,1.089,9.613,4.353,11.439,10.164a9.855,9.855,0,0,1,.447,3.168" transform="translate(-8.626 -21.202)" fill="#fa9378"/>
        <path id="パス_2884" data-name="パス 2884" d="M51.835,119.928h0a1.712,1.712,0,0,1-.3.081,3,3,0,0,1-1.611-.169q-.581-.212-1.237-.4c-.1-.028-.191-.053-.289-.081a1.1,1.1,0,0,1-.106-.5c0-.046,0-.1,0-.152a8.214,8.214,0,0,1,.352-2.114,2.785,2.785,0,0,1,1.879-1.787c.141-.052.282-.1.423-.137a.021.021,0,0,1,.014,0l.514.191a3.25,3.25,0,0,1,.3.126,2.663,2.663,0,0,1,.07,4.941" transform="translate(-8.927 -21.201)" fill="#fa9378"/>
        <path id="パス_2885" data-name="パス 2885" d="M53.247,124.366a3.215,3.215,0,0,1-1.755,1.942,2.3,2.3,0,0,1-1.867.071,23.072,23.072,0,0,0-2.64-.906c-.218-.067-.444-.126-.672-.187.024-.024.049-.053.073-.073a2.677,2.677,0,0,1,.289-.261,1.086,1.086,0,0,1-.285-.426.118.118,0,0,1-.015-.036,2.343,2.343,0,0,1,.018-1.54,7.225,7.225,0,0,1,1.438-2.463c.116-.134.187-.208.187-.208a1.1,1.1,0,0,1-.106-.5c0-.046,0-.1,0-.152.2.053.395.106.589.162.458.134.906.271,1.332.42.473.158.916.328,1.336.5.024.011.046.017.067.028.077.032.152.068.226.1h0a2.941,2.941,0,0,1,1.787,3.52" transform="translate(-8.552 -22.118)" fill="#fa9378"/>
        <path id="パス_2886" data-name="パス 2886" d="M52.577,130.583a3.114,3.114,0,0,1-2.425,2.1,2.1,2.1,0,0,1-1.106-.141,22.958,22.958,0,0,0-2.63-.906c-.214-.06-.43-.117-.648-.173a1.914,1.914,0,0,1,.18-.211,1.844,1.844,0,0,1,.254-.233l0,0c-.015-.021-.1-.13-.2-.3a4.345,4.345,0,0,1-.765-2.467,3.177,3.177,0,0,1,.888-1.857c.025-.025.05-.053.074-.074a2.677,2.677,0,0,1,.289-.261,1.086,1.086,0,0,1-.285-.426q.374.089.74.19a27.064,27.064,0,0,1,3.358,1.1c.105.042.211.085.317.13a4.1,4.1,0,0,1,.687.367,2.753,2.753,0,0,1,1.276,3.164" transform="translate(-8.361 -23.228)" fill="#fa9378"/>
        <path id="パス_2887" data-name="パス 2887" d="M47.893,138.567a2.921,2.921,0,0,1-.483-.165c-.258-.113-.536-.222-.835-.328a13.226,13.226,0,0,1-1.353-3.754,2.621,2.621,0,0,1,.546-1.631,1.856,1.856,0,0,1,.179-.212,1.894,1.894,0,0,1,.254-.232l.2.053a21.62,21.62,0,0,1,2.83.976,2.884,2.884,0,0,1,.536.3,2.5,2.5,0,0,1,.387.335c1.72,1.775.289,5.3-2.259,4.658" transform="translate(-8.361 -24.45)" fill="#fa9378"/>
        <path id="パス_2888" data-name="パス 2888" d="M50.508,127.1a.355.355,0,0,1-.444.218c-.024-.007-1.166-.388-3.034-.849-.2-.053-.4-.1-.617-.152a2.675,2.675,0,0,1,.289-.261,1.086,1.086,0,0,1-.285-.426.1.1,0,0,1-.015-.035c.264.064.518.123.761.187,1.92.476,3.094.867,3.123.874a.367.367,0,0,1,.229.261.327.327,0,0,1-.007.183" transform="translate(-8.579 -23.22)" fill="#29190f"/>
        <path id="パス_2889" data-name="パス 2889" d="M51.522,120.928l-.011.032a.344.344,0,0,1-.412.218c-.028-.007-1.018-.243-2.509-.571l-.4-.088c.117-.134.187-.209.187-.209a1.093,1.093,0,0,1-.106-.5c.191.038.37.077.547.12.528.117.994.222,1.37.31.667.156,1.069.254,1.086.258a.353.353,0,0,1,.25.246.346.346,0,0,1,0,.18" transform="translate(-8.909 -22.152)" fill="#29190f"/>
        <path id="パス_2890" data-name="パス 2890" d="M49.951,133.476a.072.072,0,0,1-.021.029.255.255,0,0,1-.335.1,23.779,23.779,0,0,0-3.023-1.068c-.148-.042-.3-.088-.458-.13a1.864,1.864,0,0,1,.254-.232l0,0c-.015-.021-.1-.13-.2-.3.134.035.268.07.4.109a26.853,26.853,0,0,1,3.263,1.138.274.274,0,0,1,.13.356" transform="translate(-8.526 -24.381)" fill="#29190f"/>
        <path id="パス_2891" data-name="パス 2891" d="M66.786,132.91a.351.351,0,0,1-.231-.359,19.527,19.527,0,0,0-.272-4.623.349.349,0,1,1,.686-.134,19.958,19.958,0,0,1,.283,4.815.349.349,0,0,1-.377.319.344.344,0,0,1-.088-.019" transform="translate(-12.254 -23.575)" fill="#29190f"/>
        <path id="パス_2892" data-name="パス 2892" d="M21.558,123.527c2.528,6.325,2.728,21.89-3.08,24.211S3.484,137.746.956,131.421s.13-13.335,5.939-15.657,12.135,1.438,14.663,7.763" transform="translate(0 -21.275)" fill="#8b8f61"/>
        <rect id="長方形_1020" data-name="長方形 1020" width="0.867" height="18.821" transform="translate(17.851 94.404) rotate(-21.523)" fill="#29190f"/>
        <path id="パス_2893" data-name="パス 2893" d="M21.464,137.306q-.523,1.056-.953,2.023c-3.187,7.162-2.563,10.657.031,12.055,2.534,1.367,6.264,2.844,11.132-.828a19.233,19.233,0,0,0,1.734-1.487,13.231,13.231,0,0,0,2.221-2.882q.068-.108.127-.22a3.1,3.1,0,0,0,.151-.271c.043-.068.083-.143.121-.215a23.914,23.914,0,0,0,1.615-3.948c.015-.036.024-.07.035-.1.067-.212.129-.421.188-.633a.122.122,0,0,0,.011-.037,38.173,38.173,0,0,0,.932-4.142c.013-.077.024-.151.034-.225.029-.16.054-.322.079-.476,0-.041.009-.078.016-.115a42.742,42.742,0,0,0,.43-4.361q-.15-.169-.311-.319c-.2-.03-.5-.068-.88-.106-2.928-.3-10.535-.606-14.849,3.695a9.846,9.846,0,0,0-1.867,2.6" transform="translate(-3.393 -24.194)" fill="#fa9378"/>
        <path id="パス_2894" data-name="パス 2894" d="M39.643,135.391l0,0a1.792,1.792,0,0,0,.231.213,3.009,3.009,0,0,0,1.5.6c.409.055.836.127,1.281.221.1.02.193.042.294.062a1.09,1.09,0,0,0,.324-.39c.021-.041.047-.083.073-.133a8.167,8.167,0,0,0,.669-2.037,2.783,2.783,0,0,0-.835-2.453q-.15-.169-.311-.319a.051.051,0,0,0-.011-.01l-.544-.07a3.23,3.23,0,0,0-.324-.026,2.662,2.662,0,0,0-2.355,4.344" transform="translate(-7.211 -24.228)" fill="#fa9378"/>
        <path id="パス_2895" data-name="パス 2895" d="M35.83,138.666a3.212,3.212,0,0,0,.654,2.534,2.3,2.3,0,0,0,1.622.929,22.964,22.964,0,0,1,2.758.423c.224.042.452.094.682.147-.01-.033-.019-.07-.031-.1a2.645,2.645,0,0,0-.134-.365,1.076,1.076,0,0,0,.45-.245.09.09,0,0,0,.029-.024,2.341,2.341,0,0,0,.7-1.372,7.217,7.217,0,0,0-.13-2.85c-.041-.173-.068-.271-.068-.271a1.1,1.1,0,0,0,.324-.391c.021-.041.047-.082.073-.133-.2-.045-.4-.09-.6-.13-.469-.094-.928-.179-1.375-.246-.492-.079-.963-.135-1.417-.174-.027,0-.049-.006-.073-.006-.083-.008-.165-.011-.247-.015l0,0a2.942,2.942,0,0,0-3.216,2.29" transform="translate(-6.615 -25.214)" fill="#fa9378"/>
        <path id="パス_2896" data-name="パス 2896" d="M33.444,144.5a3.114,3.114,0,0,0,1.171,2.989,2.111,2.111,0,0,0,1.046.388,23.142,23.142,0,0,1,2.749.418c.218.046.434.1.655.148a1.946,1.946,0,0,0-.061-.271,1.8,1.8,0,0,0-.118-.324l.006,0c.023-.012.145-.072.317-.172a4.336,4.336,0,0,0,1.822-1.831,3.176,3.176,0,0,0,.075-2.057c-.01-.033-.019-.07-.031-.1a2.645,2.645,0,0,0-.134-.365,1.081,1.081,0,0,0,.451-.245c-.249-.063-.5-.121-.744-.174a26.981,26.981,0,0,0-3.484-.588c-.113-.011-.227-.024-.342-.032a4.133,4.133,0,0,0-.778.006,2.753,2.753,0,0,0-2.6,2.211" transform="translate(-6.174 -26.303)" fill="#fa9378"/>
        <path id="パス_2897" data-name="パス 2897" d="M34.3,153.818a2.938,2.938,0,0,0,.5.077q.421.029.892.1a13.223,13.223,0,0,0,2.94-2.7,2.625,2.625,0,0,0,.274-1.7,1.946,1.946,0,0,0-.061-.271,1.877,1.877,0,0,0-.117-.324l-.2-.045a21.773,21.773,0,0,0-2.96-.448,2.93,2.93,0,0,0-.614.017,2.592,2.592,0,0,0-.5.117c-2.348.775-2.715,4.561-.161,5.175" transform="translate(-6.015 -27.456)" fill="#fa9378"/>
        <path id="パス_2898" data-name="パス 2898" d="M37.92,142.463a.355.355,0,0,0,.292.4c.025.006,1.214.2,3.082.656.2.045.4.1.617.152a2.7,2.7,0,0,0-.135-.365,1.081,1.081,0,0,0,.451-.245.089.089,0,0,0,.029-.024c-.263-.067-.516-.131-.761-.187-1.922-.47-3.143-.668-3.172-.675A.364.364,0,0,0,38,142.3a.321.321,0,0,0-.079.165" transform="translate(-7.01 -26.285)" fill="#29190f"/>
        <path id="パス_2899" data-name="パス 2899" d="M40.079,136.538c0,.011,0,.022-.006.033a.346.346,0,0,0,.264.385c.029.007,1.015.257,2.488.659l.4.108c-.041-.173-.069-.271-.069-.271a1.1,1.1,0,0,0,.324-.39c-.187-.055-.364-.1-.54-.148-.522-.143-.983-.265-1.358-.362-.662-.171-1.064-.271-1.081-.276a.355.355,0,0,0-.337.1.346.346,0,0,0-.083.159" transform="translate(-7.408 -25.194)" fill="#29190f"/>
        <path id="パス_2900" data-name="パス 2900" d="M35.5,148.431a.073.073,0,0,0,.006.035.255.255,0,0,0,.249.245,23.883,23.883,0,0,1,3.173.457c.151.031.306.061.466.1a1.812,1.812,0,0,0-.117-.324l0,0c.022-.012.145-.071.317-.172-.135-.031-.27-.062-.4-.086a26.947,26.947,0,0,0-3.419-.506.274.274,0,0,0-.28.255" transform="translate(-6.563 -27.396)" fill="#29190f"/>
        <path id="パス_2901" data-name="パス 2901" d="M21.049,140.21a.35.35,0,0,0,.371-.21,19.558,19.558,0,0,1,2.386-3.969.349.349,0,1,0-.544-.436,19.908,19.908,0,0,0-2.485,4.133.35.35,0,0,0,.273.482" transform="translate(-3.836 -25.045)" fill="#29190f"/>
        <rect id="長方形_1021" data-name="長方形 1021" width="21.809" height="0.867" transform="translate(57.625 118.334) rotate(-5.614)" fill="#29190f"/>
        <path id="パス_2902" data-name="パス 2902" d="M41.348,10.352c.41.009,8.673,3.417,11.022,9.975s1.937,15.629,4.374,18.042,5.834,1.4,5.914-1.154c0,0-6.152,1.084-6.719-1.6s5.662-21.145-3-25.658-11.588.4-11.588.4" transform="translate(-7.645 -1.488)" fill="#29190f"/>
        <path id="パス_2903" data-name="パス 2903" d="M68.965,49.085c-1.2,4.568-6.981,8.026-13.928,8.026-5.262,0-9.855-1.985-12.29-4.931a27.275,27.275,0,0,1,15.969-5.062,28.012,28.012,0,0,1,10.249,1.968" transform="translate(-7.903 -8.711)" fill="#fa9378"/>
      </g>
    </g>
    <text id="経費漏れや_打刻漏れの_修正を正確に" data-name="経費漏れや
打刻漏れの
修正を正確に" transform="translate(616.5 3012.614)" font-size="13" font-family="NotoSansJP-Bold, Noto Sans JP" font-weight="700"><tspan x="-32.5" y="0">経費漏</tspan><tspan y="0">れや</tspan><tspan x="-32.5" y="17">打刻漏</tspan><tspan y="17">れの</tspan><tspan x="-39" y="34">修正</tspan><tspan y="34">を</tspan><tspan y="34">正確</tspan><tspan y="34">に</tspan></text>
  </g>
</svg>
