<svg xmlns="http://www.w3.org/2000/svg" xmlns:xlink="http://www.w3.org/1999/xlink" width="166" height="349.449" viewBox="0 0 166 349.449">
  <defs>
    <clipPath id="clip-path">
      <rect id="長方形_1008" data-name="長方形 1008" width="113.257" height="262.662" fill="none"/>
    </clipPath>
    <clipPath id="clip-path-3">
      <rect id="長方形_1004" data-name="長方形 1004" width="113.243" height="262.662" transform="translate(0.008)" fill="none"/>
    </clipPath>
  </defs>
  <g id="worries_10" transform="translate(-1169 -2971)">
    <g id="グループ_1128" data-name="グループ 1128" transform="translate(888 -10)">
      <circle id="楕円形_22" data-name="楕円形 22" cx="53.5" cy="53.5" r="53.5" transform="translate(340 2981)" fill="#ff8234"/>
      <circle id="楕円形_23" data-name="楕円形 23" cx="9.5" cy="9.5" r="9.5" transform="translate(376 3077)" fill="#ff8234"/>
      <circle id="楕円形_24" data-name="楕円形 24" cx="5" cy="5" r="5" transform="translate(368 3093)" fill="#ff8234"/>
    </g>
    <g id="グループ_1091" data-name="グループ 1091" transform="translate(1169 3057.787)">
      <g id="グループ_1090" data-name="グループ 1090" clip-path="url(#clip-path)">
        <g id="グループ_1089" data-name="グループ 1089">
          <g id="グループ_1088" data-name="グループ 1088" clip-path="url(#clip-path)">
            <path id="パス_2637" data-name="パス 2637" d="M54.375,24.819s-1.8,2.966-10.987,12.341C30.863,49.94,22.057,62.705,35.836,79.817c12.152,15.091,49.716-6.934,49.716-6.934s8.306-7.27,4.574-33.288a53.387,53.387,0,0,0-8.975-22.723Z" fill="#29190f"/>
            <path id="パス_2638" data-name="パス 2638" d="M53.58,22.726A14.434,14.434,0,1,0,68.014,8.292,14.434,14.434,0,0,0,53.58,22.726" fill="#7d4848"/>
            <path id="パス_2639" data-name="パス 2639" d="M58.291,25.68A12.286,12.286,0,1,0,70.578,13.393,12.287,12.287,0,0,0,58.291,25.68" fill="#ba6552"/>
            <path id="パス_2640" data-name="パス 2640" d="M67.061,38.724,74.6,41.018a8.183,8.183,0,0,0,9.7-9.4l-1.821-8.978L65.4,22.06Z" fill="#ba6552"/>
            <path id="パス_2641" data-name="パス 2641" d="M73.26,24.983a2.9,2.9,0,0,1,1.119-.672c.473-.157.673.586.205.742a2.011,2.011,0,0,0-.78.474c-.358.344-.9-.2-.544-.544" fill="#29190f"/>
            <path id="パス_2642" data-name="パス 2642" d="M79.045,24.839a2.9,2.9,0,0,1,1.119-.672c.473-.157.673.586.205.742a2,2,0,0,0-.78.474c-.358.343-.9-.2-.544-.544" fill="#29190f"/>
            <path id="パス_2643" data-name="パス 2643" d="M72.842,11.986c2.171-.4,4.008,3.2,4.008,3.2s-5.5-.371-8.835,7.72c-2.006,4.872-4.506,5.066-4.656,7.088a3.045,3.045,0,0,1-4.364.751s-4.464-8.225.869-13.926c3.418-3.655,8.816-4.06,12.978-4.834" fill="#29190f"/>
            <path id="パス_2644" data-name="パス 2644" d="M51.627,25.616,87.8,21.565a1.432,1.432,0,1,0-.319-2.847l-36.174,4.05a1.433,1.433,0,0,0,.319,2.848" fill="#fbd5a2"/>
            <path id="パス_2645" data-name="パス 2645" d="M65.166.64l.117-.013A15.769,15.769,0,0,1,82.709,14.544l.521,4.65L51.77,22.717l-.521-4.651A15.77,15.77,0,0,1,65.166.64" fill="#fbb766"/>
            <path id="パス_2646" data-name="パス 2646" d="M74.583,20.665l-3.609.4L69.706,9.746a6.31,6.31,0,0,0-6.974-5.569l-1.759.2-.207-1.85A1.769,1.769,0,0,1,62.328.568,9.942,9.942,0,0,1,73.315,9.341Z" fill="#fbd5a2"/>
            <path id="パス_2647" data-name="パス 2647" d="M79.094,20.16l-3.609.4L74.217,9.24a6.31,6.31,0,0,0-6.973-5.568l-1.76.2-.207-1.85A1.771,1.771,0,0,1,66.839.062,9.943,9.943,0,0,1,77.826,8.836Z" fill="#fbd5a2"/>
            <path id="パス_2648" data-name="パス 2648" d="M69.665,21.216l-3.609.4L64.788,10.3a6.31,6.31,0,0,0-6.973-5.568l-1.76.2-.207-1.85A1.769,1.769,0,0,1,57.41,1.119,9.942,9.942,0,0,1,68.4,9.892Z" fill="#fbd5a2"/>
            <path id="パス_2649" data-name="パス 2649" d="M57.2,49.938H70.977L75.829,29.1H62.047Z" fill="#ba6552"/>
            <path id="パス_2650" data-name="パス 2650" d="M57.535,33.484c1.918,2.035,4.662,2.565,6.129,1.183s1.1-4.152-.819-6.188-4.662-2.565-6.129-1.183-1.1,4.153.819,6.188" fill="#ba6552"/>
            <path id="パス_2651" data-name="パス 2651" d="M61.042,30.909a3.9,3.9,0,0,0-3.216-1.654l-.053-.709a4.569,4.569,0,0,1,3.845,1.946Z" fill="#29190f"/>
            <rect id="長方形_1000" data-name="長方形 1000" width="0.711" height="2.968" transform="matrix(0.313, -0.95, 0.95, 0.313, 70.217, 40.27)" fill="#29190f"/>
            <path id="パス_2652" data-name="パス 2652" d="M78.363,34.549a8.994,8.994,0,0,1-1.066-.06,6.385,6.385,0,0,1-2.255-.822l.372-.606a5.758,5.758,0,0,0,1.968.722,9.642,9.642,0,0,0,2.026,0l.086.706a10.037,10.037,0,0,1-1.131.06" transform="matrix(-0.799, 0.602, -0.602, -0.799, 159.321, 14.302)" fill="#29190f"/>
            <path id="パス_2653" data-name="パス 2653" d="M79.385,31.177l-.6-.389a4.166,4.166,0,0,0,.487-.978,3.9,3.9,0,0,0-.994.156l-.383.107-.323-1.985.7-.115.2,1.215a2.048,2.048,0,0,1,1.264.024.525.525,0,0,1,.248.333c.108.476-.386,1.3-.6,1.632" fill="#29190f"/>
            <path id="パス_2654" data-name="パス 2654" d="M74.012,27.62c0,.581.256,1.051.571,1.051s.571-.47.571-1.051Z" fill="#29190f"/>
            <path id="パス_2655" data-name="パス 2655" d="M79.493,27.62c0,.581.256,1.051.571,1.051s.571-.47.571-1.051Z" fill="#29190f"/>
            <path id="パス_2656" data-name="パス 2656" d="M61.707,35.825a5.012,5.012,0,0,1-1.2-.162l.19-.685a3.878,3.878,0,0,0,1.379.109,3.523,3.523,0,0,0,1.362-.692l.456.545a4.169,4.169,0,0,1-1.7.848,2.882,2.882,0,0,1-.482.037" fill="#29190f"/>
            <path id="パス_2657" data-name="パス 2657" d="M107.4,118.109h0a11.549,11.549,0,0,0,4.354-15.742L86.941,58.772a11.549,11.549,0,1,0-20.1,11.388l24.812,43.595a11.549,11.549,0,0,0,15.742,4.354" fill="#63bfc2"/>
            <path id="パス_2658" data-name="パス 2658" d="M92.134,126.459h-38.2V183.29a17.4,17.4,0,0,0,34.791,0Z" fill="#524f75"/>
            <path id="パス_2659" data-name="パス 2659" d="M59.979,172.193,10.547,210.544l24.108,26.9,46.68-37.827c8.284-6.713,9.659-18.583,3.012-26-6.063-6.766-16.684-7.387-24.368-1.426" fill="#524f75"/>
            <path id="パス_2660" data-name="パス 2660" d="M38.863,234.25,14.636,207.218l-1.267,1.034,24.188,26.989Z" fill="#29190f"/>
            <path id="パス_2661" data-name="パス 2661" d="M28.858,262.1.427,230.373a2.1,2.1,0,0,1,.4-2.918l.921-.826L15.815,216.4l17.969,20.049,3.154,15.661a10.459,10.459,0,0,1-3.637,8.557l-1.5,1.343a2.1,2.1,0,0,1-2.945.082" fill="#cc715e"/>
            <path id="パス_2662" data-name="パス 2662" d="M7.216,235.523l-.776.03.976-7.6a7.054,7.054,0,0,0-.975-4.729l.673-.49a7.7,7.7,0,0,1,1.076,5.192Z" fill="#a15342"/>
            <path id="パス_2663" data-name="パス 2663" d="M28.35,247.779l-4.162-18.926.767-.275L29.116,247.5Z" fill="#a15342"/>
            <path id="パス_2664" data-name="パス 2664" d="M15.816,216.4l-3.126,2.273.164,1.76a5.626,5.626,0,0,0,1.393,3.266l3.871,4.32a2.385,2.385,0,0,0,.316.295l1.634,1.277a4.59,4.59,0,0,0,4.065.685l3.306-.9Z" fill="#29190f"/>
            <path id="パス_2665" data-name="パス 2665" d="M34.444,239.73l-4.755-5.305.623-.558,3.8,4.244Z" fill="#29190f"/>
            <path id="パス_2666" data-name="パス 2666" d="M35.1,243.01l-4.646-5.184.623-.558,3.7,4.126Z" fill="#29190f"/>
            <path id="パス_2667" data-name="パス 2667" d="M35.765,246.286,31.207,241.2l.623-.558,3.607,4.025Z" fill="#29190f"/>
            <path id="パス_2668" data-name="パス 2668" d="M28.924,231.034l3.184,14.744,4.584,5.113-.323-1.615-3.527-3.938-.659-3.054-.356-1.64-.369-1.7-.357-1.653-.369-1.7-.357-1.652-.364-1.691v0Z" fill="#a15342"/>
            <path id="パス_2669" data-name="パス 2669" d="M32.725,261.188,1.753,226.629.7,227.575a2.069,2.069,0,0,0-.16,2.921l28.211,31.477a2.068,2.068,0,0,0,2.921.16Z" fill="#d6cdc8"/>
            <path id="パス_2670" data-name="パス 2670" d="M25.329,227.02h0a5.862,5.862,0,0,1-6.044-1.662l-2.473-2.76a5.851,5.851,0,0,1-1.084-5.959l.087-.234Z" fill="#f5eae5"/>
            <path id="パス_2671" data-name="パス 2671" d="M36.211,256.608l-9.795-10.929c-1.762-1.966-5.085-1.87-7.405.209l-.473-.527c2.666-2.39,6.479-2.5,8.5-.241l9.5,10.6c-.1.3-.2.6-.325.891" fill="#a15342"/>
            <path id="パス_2672" data-name="パス 2672" d="M73.353,114.409l-.12,36.083-1,91.411H36.113l2.81-127.494Z" fill="#6a6487"/>
            <path id="パス_2673" data-name="パス 2673" d="M69.689,117.324V147.6s9.666-9.7,12.455-18.549a66.163,66.163,0,0,0,3.11-14.642Z" fill="#6a6487"/>
            <path id="パス_2674" data-name="パス 2674" d="M36.228,236.637H72.257l-.01,1.634H36.192Z" fill="#29190f"/>
            <path id="パス_2675" data-name="パス 2675" d="M59.53,196.629l-1.433-.938,8.735-13.435,1.433.938Z" fill="#29190f"/>
            <path id="パス_2676" data-name="パス 2676" d="M58.926,214.659l-1.563-.687,7.844-19.245,1.563.687Z" fill="#29190f"/>
            <path id="パス_2677" data-name="パス 2677" d="M88.421,262.662h-42.6a2.277,2.277,0,0,1-2.055-2.248l-.083-1.237.614-17.3H71.222l14.309,8.1A11.279,11.279,0,0,1,90.04,258.4l.135,2.012a1.939,1.939,0,0,1-1.754,2.248" fill="#cc715e"/>
            <path id="パス_2678" data-name="パス 2678" d="M54.08,261.043l-.456.6-5.4-5.8a7.661,7.661,0,0,0-4.336-2.429l.03-.829a8.371,8.371,0,0,1,4.762,2.664Z" fill="#a15342"/>
            <path id="パス_2679" data-name="パス 2679" d="M76.805,253.485,59.3,243.953l.255-.755L77.06,252.73Z" fill="#a15342"/>
            <path id="パス_2680" data-name="パス 2680" d="M44.3,241.88l-.136,3.844,1.491,1.053a5.968,5.968,0,0,0,3.438,1.143h5.8a2.451,2.451,0,0,0,.428-.038l2.016-.365a4.191,4.191,0,0,0,3.052-2.57l1.327-3.067Z" fill="#29190f"/>
            <path id="パス_2681" data-name="パス 2681" d="M74.215,243.574H67.091l-.056-.836h5.7Z" fill="#29190f"/>
            <path id="パス_2682" data-name="パス 2682" d="M77.213,245.272H70.252l-.056-.836h5.541Z" fill="#29190f"/>
            <path id="パス_2683" data-name="パス 2683" d="M80.206,246.966h-6.83l-.056-.836h5.406Z" fill="#29190f"/>
            <path id="パス_2684" data-name="パス 2684" d="M63.94,241.882l13.607,7.466h6.867l-1.477-.834H77.652l-2.819-1.548-1.514-.831-1.573-.864-1.522-.834-1.569-.86-1.523-.839-1.564-.856Z" fill="#a15342"/>
            <path id="パス_2685" data-name="パス 2685" d="M90.092,259.177H43.685l.095,1.413a2.247,2.247,0,0,0,2.21,2.072H88.254a1.913,1.913,0,0,0,1.933-2.072Z" fill="#d6cdc8"/>
            <path id="パス_2686" data-name="パス 2686" d="M58.554,241.88h0a5.4,5.4,0,0,1-5.045,3.391H49.8a6.34,6.34,0,0,1-5.373-3.17l-.132-.221Z" fill="#f5eae5"/>
            <path id="パス_2687" data-name="パス 2687" d="M88.63,253.524H73.953c-2.639,0-4.616,2.539-4.407,5.654h-.709c-.239-3.58,2.032-6.491,5.06-6.491H88.128c.177.272.344.548.5.837" fill="#a15342"/>
            <path id="パス_2688" data-name="パス 2688" d="M16.711,117.75h0A11.55,11.55,0,0,1,13.4,101.757L41.011,59.88A11.549,11.549,0,1,1,60.318,72.559L32.7,114.436a11.549,11.549,0,0,1-15.993,3.314" fill="#63bfc2"/>
            <path id="パス_2689" data-name="パス 2689" d="M35.836,133.434h58.41L89.078,66.849c0-.017,0-.03,0-.046a20.7,20.7,0,0,0-.734-4.1c0-.005,0-.005,0-.005a22.758,22.758,0,0,0-7.718-11.506,26.293,26.293,0,0,0-16.548-5.729,26.575,26.575,0,0,0-13.741,3.766,24.867,24.867,0,0,0-3.192,2.286c-.273.227-.542.462-.8.705a22.128,22.128,0,0,0-7.307,15.239Z" fill="#63bfc2"/>
            <path id="パス_2690" data-name="パス 2690" d="M82.136,96.635l.789.294A100.232,100.232,0,0,0,89.074,66.8a20.787,20.787,0,0,0-.734-4.1c0,.57-.009,1.153-.021,1.757a99.347,99.347,0,0,1-6.183,32.173" fill="#29190f"/>
            <path id="パス_2691" data-name="パス 2691" d="M46.34,52.222c.038.566.092,1.141.168,1.72a47.856,47.856,0,0,0,3.725,12.693A100.145,100.145,0,0,0,67.879,94.566l.625-.557A99.509,99.509,0,0,1,51,66.312a47.193,47.193,0,0,1-3.666-12.475c-.1-.78-.168-1.556-.2-2.32-.272.227-.541.462-.8.705" fill="#29190f"/>
            <path id="パス_2692" data-name="パス 2692" d="M86.983,133.434v45.309H98.307l-4.059-45.309Z" fill="#63bfc2"/>
            <path id="パス_2693" data-name="パス 2693" d="M66.845,133.136v45.607H29.529l6.349-46.131Z" fill="#63bfc2"/>
            <path id="パス_2694" data-name="パス 2694" d="M53.026,83.052l1.226.872L44.614,99.132l-1.226-.872Z" fill="#29190f"/>
            <path id="パス_2695" data-name="パス 2695" d="M90.537,79.605l-.923-.511,2.609,29.654.848-.754Z" fill="#29190f"/>
            <path id="パス_2696" data-name="パス 2696" d="M50.187,49.324a16.118,16.118,0,0,0,4.544,6.086c6.4,5.936,9.327,24.465,10.236,35.68s1.874,42.342,1.874,42.342h20.14s.16-46.547-5.33-63.961a33.927,33.927,0,0,1-1.03-18.277c-.355-.288-.716-.566-1.089-.829a25.539,25.539,0,0,0-5.732-3.1,27.079,27.079,0,0,0-19.646.106,26.432,26.432,0,0,0-3.967,1.954" fill="#f5e2da"/>
            <path id="パス_2697" data-name="パス 2697" d="M52.134,65.613,71.2,54.416l14.4,8.527s.486-6.123-7.806-14.89a44.594,44.594,0,0,0-5.379-4.3L71.5,47.717l-13.426-1.61,1.422-6.033a11.3,11.3,0,0,0-5.238,2.068c-6.74,4.684-2.119,23.471-2.119,23.471" fill="#f5e2da"/>
            <path id="パス_2698" data-name="パス 2698" d="M57.274,46.351,72.653,63.645l-.387-16.922A27.062,27.062,0,0,0,66,45.079a25.389,25.389,0,0,0-8.731,1.272" fill="#ba6552"/>
            <path id="パス_2699" data-name="パス 2699" d="M47.768,137.734,80.4,128.115a1.459,1.459,0,0,0,.988-1.813L65.68,72.994a1.46,1.46,0,0,0-1.814-.988L31.231,81.625a1.461,1.461,0,0,0-.988,1.813l15.712,53.308a1.46,1.46,0,0,0,1.813.988" fill="#6c6492"/>
            <path id="パス_2700" data-name="パス 2700" d="M70.324,106.771l-47.036-7.5a10.125,10.125,0,1,0-3,20.024l45.119,4.8Z" fill="#63bfc2"/>
            <rect id="長方形_1001" data-name="長方形 1001" width="0.838" height="36.177" transform="translate(27.988 100.245) rotate(-80.942)" fill="#29190f"/>
            <path id="パス_2701" data-name="パス 2701" d="M60.288,111.973c.017.761.048,1.48.092,2.163.484,7.572,2.589,10.287,5.441,10.321,2.786.035,6.648-.375,9.172-5.71a18.323,18.323,0,0,0,.818-2.053,12.777,12.777,0,0,0,.611-3.469c.007-.082.01-.164.01-.246a2.714,2.714,0,0,0,.007-.3c.007-.078.007-.16.007-.239a23.159,23.159,0,0,0-.389-4.11.869.869,0,0,0-.017-.106c-.038-.211-.078-.419-.123-.627a.107.107,0,0,0-.007-.038,36.979,36.979,0,0,0-1.06-3.97c-.024-.072-.048-.14-.072-.208-.048-.15-.1-.3-.147-.444-.013-.037-.027-.071-.037-.1A41.4,41.4,0,0,0,73,98.9c-.136-.052-.273-.1-.409-.133-.188.064-.461.167-.8.3-2.647,1.054-9.305,4.213-11.072,9.838a9.514,9.514,0,0,0-.433,3.066" fill="#ba6552"/>
            <path id="パス_2702" data-name="パス 2702" d="M71.725,103.852h0a1.7,1.7,0,0,0,.294.078,2.905,2.905,0,0,0,1.558-.163q.564-.206,1.2-.386c.092-.027.184-.051.28-.078a1.08,1.08,0,0,0,.1-.481c0-.045,0-.092,0-.147a7.907,7.907,0,0,0-.341-2.046A2.7,2.7,0,0,0,73,98.9c-.136-.051-.273-.1-.409-.133a.029.029,0,0,0-.014,0l-.5.184a2.938,2.938,0,0,0-.29.123,2.577,2.577,0,0,0-.068,4.782" fill="#ba6552"/>
            <path id="パス_2703" data-name="パス 2703" d="M70,107.259a3.113,3.113,0,0,0,1.7,1.88,2.229,2.229,0,0,0,1.808.068,22.114,22.114,0,0,1,2.554-.877c.212-.065.43-.123.652-.181-.024-.024-.048-.051-.072-.071a2.483,2.483,0,0,0-.279-.253,1.05,1.05,0,0,0,.276-.413.106.106,0,0,0,.014-.034,2.276,2.276,0,0,0-.017-1.49,7,7,0,0,0-1.392-2.385c-.113-.129-.181-.2-.181-.2a1.061,1.061,0,0,0,.1-.481c0-.044,0-.092,0-.147-.191.052-.382.1-.57.158-.443.129-.877.262-1.289.4-.457.154-.887.318-1.293.488-.024.01-.044.017-.065.027-.075.031-.147.065-.218.1h0A2.847,2.847,0,0,0,70,107.259" fill="#ba6552"/>
            <path id="パス_2704" data-name="パス 2704" d="M70.46,112.2a3.012,3.012,0,0,0,2.347,2.036,2.035,2.035,0,0,0,1.071-.136,22.242,22.242,0,0,1,2.545-.877c.208-.058.416-.112.627-.167a2.518,2.518,0,0,0-.419-.43l0,0c.014-.02.092-.126.194-.29a4.2,4.2,0,0,0,.741-2.388,3.074,3.074,0,0,0-.86-1.8c-.024-.024-.048-.051-.072-.072a2.523,2.523,0,0,0-.279-.252,1.06,1.06,0,0,0,.276-.413q-.363.087-.716.184a26.227,26.227,0,0,0-3.251,1.061c-.1.041-.205.082-.307.126a3.945,3.945,0,0,0-.665.355A2.665,2.665,0,0,0,70.46,112.2" fill="#ba6552"/>
            <path id="パス_2705" data-name="パス 2705" d="M74.993,118.748a2.906,2.906,0,0,0,.467-.16q.374-.164.809-.318a12.85,12.85,0,0,0,1.31-3.632,2.546,2.546,0,0,0-.529-1.58,1.909,1.909,0,0,0-.174-.2,1.808,1.808,0,0,0-.246-.225l-.191.051a20.861,20.861,0,0,0-2.739.945,2.685,2.685,0,0,0-.518.29,2.422,2.422,0,0,0-.375.324c-1.665,1.719-.28,5.13,2.186,4.509" fill="#ba6552"/>
            <path id="パス_2706" data-name="パス 2706" d="M72.673,108.835a.344.344,0,0,0,.43.212c.024-.007,1.129-.376,2.937-.823.191-.051.388-.1.6-.146a2.672,2.672,0,0,0-.28-.253,1.051,1.051,0,0,0,.276-.412.122.122,0,0,0,.014-.035c-.256.062-.5.12-.737.181-1.859.461-3,.839-3.022.846a.355.355,0,0,0-.222.253.323.323,0,0,0,.007.177" fill="#29190f"/>
            <path id="パス_2707" data-name="パス 2707" d="M72.012,103.9l.01.031a.333.333,0,0,0,.4.211c.028-.007.986-.235,2.429-.552l.389-.086c-.113-.129-.181-.2-.181-.2a1.061,1.061,0,0,0,.1-.481c-.184.038-.358.075-.528.116-.512.113-.962.215-1.327.3-.645.15-1.034.246-1.051.249a.343.343,0,0,0-.242.239.331.331,0,0,0,0,.174" fill="#29190f"/>
            <path id="パス_2708" data-name="パス 2708" d="M73.161,113.887a.062.062,0,0,0,.021.027.246.246,0,0,0,.324.1,23.013,23.013,0,0,1,2.926-1.033c.143-.041.29-.086.444-.127a1.808,1.808,0,0,0-.246-.225l0,0c.014-.021.092-.126.195-.29-.13.034-.259.068-.382.106a26.052,26.052,0,0,0-3.159,1.1.266.266,0,0,0-.126.345" fill="#29190f"/>
            <path id="パス_2709" data-name="パス 2709" d="M60.474,114.119a.341.341,0,0,0,.224-.347,18.87,18.87,0,0,1,.263-4.474.338.338,0,1,0-.663-.13,19.275,19.275,0,0,0-.275,4.661.339.339,0,0,0,.365.308.3.3,0,0,0,.086-.018" fill="#29190f"/>
            <path id="パス_2710" data-name="パス 2710" d="M92.391,107.264c-2.447,6.122-2.642,21.188,2.98,23.435s14.514-9.673,16.961-15.8S112.205,102,106.583,99.75s-11.745,1.392-14.192,7.514" fill="#63bfc2"/>
            <rect id="長方形_1002" data-name="長方形 1002" width="18.217" height="0.84" transform="translate(88.515 116.307) rotate(-68.478)" fill="#29190f"/>
            <path id="パス_2711" data-name="パス 2711" d="M95.766,117.776c.338.682.645,1.333.922,1.958,3.085,6.933,2.48,10.315-.03,11.668-2.453,1.324-6.063,2.753-10.774-.8a18.22,18.22,0,0,1-1.678-1.439,12.769,12.769,0,0,1-2.151-2.789q-.066-.1-.123-.213a2.9,2.9,0,0,1-.145-.263c-.043-.066-.081-.139-.117-.208a23.108,23.108,0,0,1-1.563-3.822c-.014-.034-.024-.068-.034-.1-.065-.205-.125-.408-.182-.613a.114.114,0,0,1-.012-.037,37,37,0,0,1-.9-4.009c-.012-.074-.022-.146-.033-.217-.027-.156-.051-.312-.075-.461-.006-.04-.01-.076-.016-.111a41.114,41.114,0,0,1-.417-4.222c.1-.109.2-.211.3-.308.2-.029.485-.065.85-.1,2.834-.294,10.2-.586,14.373,3.577a9.514,9.514,0,0,1,1.807,2.515" fill="#ba6552"/>
            <path id="パス_2712" data-name="パス 2712" d="M81.866,115.888l0,0a1.738,1.738,0,0,1-.223.205,2.912,2.912,0,0,1-1.457.579c-.4.053-.81.123-1.24.214-.094.018-.186.04-.284.06a1.075,1.075,0,0,1-.314-.379c-.02-.039-.045-.08-.071-.128a7.951,7.951,0,0,1-.647-1.971,2.7,2.7,0,0,1,.808-2.376c.1-.108.2-.211.3-.307a.023.023,0,0,1,.01-.01l.527-.068c.108-.014.211-.022.314-.026a2.577,2.577,0,0,1,2.279,4.205" fill="#ba6552"/>
            <path id="パス_2713" data-name="パス 2713" d="M84.979,118.1a3.111,3.111,0,0,1-.633,2.453,2.219,2.219,0,0,1-1.569.9,22.394,22.394,0,0,0-2.67.409c-.218.041-.438.091-.661.143.01-.033.018-.068.03-.1a2.454,2.454,0,0,1,.131-.353,1.059,1.059,0,0,1-.437-.238.12.12,0,0,1-.028-.024,2.269,2.269,0,0,1-.676-1.328,6.985,6.985,0,0,1,.126-2.758c.04-.167.067-.262.067-.262a1.075,1.075,0,0,1-.314-.379c-.02-.039-.046-.08-.071-.128.193-.043.386-.087.578-.125.452-.091.9-.174,1.33-.239.476-.076.933-.131,1.371-.168l.071-.006c.08-.007.16-.01.239-.013l0,0a2.847,2.847,0,0,1,3.113,2.216" fill="#ba6552"/>
            <path id="パス_2714" data-name="パス 2714" d="M86.862,122.7a3.012,3.012,0,0,1-1.134,2.893,2.046,2.046,0,0,1-1.012.376,22.4,22.4,0,0,0-2.661.4c-.211.046-.421.094-.633.143a1.9,1.9,0,0,1,.059-.262,1.814,1.814,0,0,1,.113-.313h-.005c-.021-.012-.14-.069-.307-.167A4.21,4.21,0,0,1,79.519,124a3.071,3.071,0,0,1-.073-1.991c.01-.032.019-.067.03-.1a2.686,2.686,0,0,1,.131-.353,1.042,1.042,0,0,1-.436-.237q.362-.091.72-.17a26.069,26.069,0,0,1,3.372-.568c.109-.011.219-.023.33-.031a4.034,4.034,0,0,1,.754.006,2.665,2.665,0,0,1,2.515,2.14" fill="#ba6552"/>
            <path id="パス_2715" data-name="パス 2715" d="M85.884,130.6a2.854,2.854,0,0,1-.488.075c-.272.019-.559.05-.864.094a12.817,12.817,0,0,1-2.846-2.61,2.539,2.539,0,0,1-.264-1.645,1.85,1.85,0,0,1,.059-.261,1.808,1.808,0,0,1,.113-.314l.193-.043a20.886,20.886,0,0,1,2.865-.434,2.841,2.841,0,0,1,.594.016,2.513,2.513,0,0,1,.482.113c2.273.75,2.629,4.415.156,5.009" fill="#ba6552"/>
            <path id="パス_2716" data-name="パス 2716" d="M83.339,120.743a.344.344,0,0,1-.283.387c-.024.005-1.174.191-2.983.634-.193.044-.39.093-.6.147a2.718,2.718,0,0,1,.129-.353,1.048,1.048,0,0,1-.435-.237.105.105,0,0,1-.028-.024c.254-.065.5-.127.736-.182,1.861-.455,3.043-.646,3.07-.653a.356.356,0,0,1,.314.121.331.331,0,0,1,.076.16" fill="#29190f"/>
            <path id="パス_2717" data-name="パス 2717" d="M81.634,116.064l0,.032a.332.332,0,0,1-.255.372c-.028.007-.983.249-2.408.638l-.384.1c.04-.167.067-.262.067-.262a1.062,1.062,0,0,1-.314-.379c.181-.052.352-.1.522-.142.506-.138.952-.256,1.315-.35.641-.167,1.029-.262,1.046-.267a.342.342,0,0,1,.325.1.327.327,0,0,1,.081.154" fill="#29190f"/>
            <path id="パス_2718" data-name="パス 2718" d="M85.251,125.444a.072.072,0,0,1,0,.034.247.247,0,0,1-.242.238,23.13,23.13,0,0,0-3.072.442c-.146.03-.3.059-.451.094a1.772,1.772,0,0,1,.113-.313l-.005,0c-.021-.011-.14-.069-.306-.166.13-.03.261-.06.387-.084a26.108,26.108,0,0,1,3.309-.49.266.266,0,0,1,.272.247" fill="#29190f"/>
            <path id="パス_2719" data-name="パス 2719" d="M96.6,119.762a.338.338,0,0,1-.359-.2,18.955,18.955,0,0,0-2.309-3.842.338.338,0,1,1,.527-.422,19.316,19.316,0,0,1,2.406,4,.339.339,0,0,1-.181.443.362.362,0,0,1-.084.023" fill="#29190f"/>
            <rect id="長方形_1003" data-name="長方形 1003" width="0.839" height="21.11" transform="translate(36.39 121.6) rotate(-84.391)" fill="#29190f"/>
            <g id="グループ_1087" data-name="グループ 1087" style="mix-blend-mode: overlay;isolation: isolate">
              <g id="グループ_1086" data-name="グループ 1086">
                <g id="グループ_1085" data-name="グループ 1085" clip-path="url(#clip-path-3)">
                  <path id="パス_2720" data-name="パス 2720" d="M38.695,239.989h0l-.069-.356-.551-2.858.819.955,1.5-1.268-.01.469-.034,1.615-.071,3.356H39.064Z" fill="#fbd5a2"/>
                  <path id="パス_2721" data-name="パス 2721" d="M40.572,122.82l-.036.38.018,0-.5,10.9L34.17,178.744H29.529l6.346-46.112.508-10.483,4.2.467Z" fill="#fbd5a2"/>
                  <path id="パス_2722" data-name="パス 2722" d="M76.4,5.249a9.1,9.1,0,0,0-7.058-2.212,1.628,1.628,0,0,0-1,.515c-.158.013-.315.024-.473.043l-.11.013-.057.008a9,9,0,0,0-2.629-.08,1.659,1.659,0,0,0-1.22.805,8.975,8.975,0,0,0-3.432-.26,1.733,1.733,0,0,0-1.478,1.934l.192,1.793A15.968,15.968,0,0,0,54.6,20.836l.492,4.6,1.718-.2-2.155.252a1.405,1.405,0,0,0-1.2,1.566,1.372,1.372,0,0,0,1.5,1.25l2.081-.244c.011.06.02.121.031.18a123.381,123.381,0,0,1-9.906,11.477C36.732,50.829,29.034,61.935,36.209,75.964L18.784,103.579a11.748,11.748,0,0,0-1.778,6.848,10.138,10.138,0,0,0,4.586,9.119,11.336,11.336,0,0,1-1.462-.277,10.124,10.124,0,0,1-8.612-10.585,11.5,11.5,0,0,1,1.88-6.927L31.816,73.826C24.232,59.635,32.369,48.4,43.389,37.16a126.335,126.335,0,0,0,10.47-11.608c-.012-.06-.021-.121-.032-.182l-2.2.246a1.432,1.432,0,0,1-.319-2.847l2.278-.255-1.815.2-.521-4.651a15.743,15.743,0,0,1,4.8-13.177l-.2-1.814a1.77,1.77,0,0,1,1.562-1.957,9.915,9.915,0,0,1,3.627.264,1.759,1.759,0,0,1,1.29-.814,9.979,9.979,0,0,1,2.779.08l.06-.008.117-.013c.167-.019.333-.03.5-.043A1.754,1.754,0,0,1,66.84.063,9.908,9.908,0,0,1,74.3,2.3a15.815,15.815,0,0,1,6.9,7.08,15.174,15.174,0,0,0-4.8-4.131" fill="#fbd5a2"/>
                  <path id="パス_2723" data-name="パス 2723" d="M113.212,110.814c.022-.259.034-.519.039-.78q0,.482-.029.968c0-.063,0-.126-.01-.188" fill="#fbd5a2"/>
                  <path id="パス_2724" data-name="パス 2724" d="M113.251,109.835c0-.023,0-.045,0-.068,0,.023,0,.045,0,.068" fill="#fbd5a2"/>
                  <path id="パス_2725" data-name="パス 2725" d="M92.877,134.9h0Z" fill="#fbd5a2"/>
                  <path id="パス_2726" data-name="パス 2726" d="M.018,228.967c0-.028.008-.055.012-.082a2.051,2.051,0,0,1,.668-1.31l1.054-.945,10.938-7.953,3.115-2.265-5.258-5.867,2.876-2.232-.053-.06,1.267-1.035.081.091,22.542-17.49.224-10.125H41.59l-.231,10.95L20.033,207.936l-.077-.09-1.2,1.023.051.059-2.722,2.207,4.975,5.8-2.947,2.239L7.767,227.038l-1,.934a2.057,2.057,0,0,0-.631,1.295c-.005.027-.009.054-.012.082s0,.054,0,.081a1.772,1.772,0,0,0,.39,1.309l13.449,15.682,12.707,14.817-1,.9a2.061,2.061,0,0,1-1.375.52c-.028,0-.055,0-.083,0l-.083-.005a1.746,1.746,0,0,1-1.271-.556l-.11-.122-14.1-15.739L.428,230.374a1.736,1.736,0,0,1-.413-1.324c0-.028,0-.055,0-.083" fill="#fbd5a2"/>
                  <path id="パス_2727" data-name="パス 2727" d="M44.29,242.138h3.728l-.129,3.778-.451,13.3.079,1.224.011.174a2.224,2.224,0,0,0,.6,1.381,1.774,1.774,0,0,0,1.328.667H45.823a1.906,1.906,0,0,1-1.4-.674,2.211,2.211,0,0,1-.639-1.4l-.012-.176-.082-1.237.477-13.453Z" fill="#fbd5a2"/>
                  <path id="パス_2728" data-name="パス 2728" d="M87.8,21.565l-2.957.331-.305-2.849,2.943-.33a1.433,1.433,0,0,1,.319,2.848" fill="#fbd5a2"/>
                  <path id="パス_2729" data-name="パス 2729" d="M111.835,104.183,91.1,66.108l0-.023,20.651,36.283a11.483,11.483,0,0,1,1.463,6.556,11.734,11.734,0,0,0-1.382-4.741" fill="#fbd5a2"/>
                </g>
              </g>
            </g>
            <rect id="長方形_1005" data-name="長方形 1005" width="14.412" height="1.096" transform="translate(51.857 65.141) rotate(-30.422)" fill="#29190f"/>
            <rect id="長方形_1006" data-name="長方形 1006" width="1.096" height="12.993" transform="translate(74.143 56.797) rotate(-59.386)" fill="#29190f"/>
          </g>
        </g>
      </g>
    </g>
    <text id="情報共有を_もれなく早く_行いたい" data-name="情報共有を
もれなく早く
行いたい" transform="translate(1281.757 3012.614)" font-size="13" font-family="NotoSansJP-Bold, Noto Sans JP" font-weight="700"><tspan x="-32.5" y="0">情報共有</tspan><tspan y="0">を</tspan><tspan x="-39" y="17">もれなく</tspan><tspan y="17">早</tspan><tspan y="17">く</tspan><tspan x="-26" y="34">行</tspan><tspan y="34">いたい</tspan></text>
  </g>
</svg>
