<svg xmlns="http://www.w3.org/2000/svg" xmlns:xlink="http://www.w3.org/1999/xlink" width="147" height="351.51" viewBox="0 0 147 351.51">
  <defs>
    <clipPath id="clip-path">
      <rect id="長方形_1036" data-name="長方形 1036" width="132.872" height="255.018" fill="none"/>
    </clipPath>
  </defs>
  <g id="worries_07" transform="translate(-789 -2971)">
    <g id="グループ_1127" data-name="グループ 1127" transform="translate(489 -10)">
      <circle id="楕円形_22" data-name="楕円形 22" cx="53.5" cy="53.5" r="53.5" transform="translate(340 2981)" fill="#f734ff"/>
      <circle id="楕円形_23" data-name="楕円形 23" cx="9.5" cy="9.5" r="9.5" transform="translate(376 3077)" fill="#f734ff"/>
      <circle id="楕円形_24" data-name="楕円形 24" cx="5" cy="5" r="5" transform="translate(368 3093)" fill="#f734ff"/>
    </g>
    <g id="グループ_1103" data-name="グループ 1103" transform="translate(789 3067.492)">
      <g id="グループ_1102" data-name="グループ 1102" clip-path="url(#clip-path)">
        <path id="パス_3064" data-name="パス 3064" d="M91.759,6.3S59.217,38.448,79.338,36.5s36.589,6.975,36.3.464,3.1-36.759-11.283-35.587c-9.746.794-12.6,4.916-12.6,4.916" transform="translate(-20.408 -0.377)" fill="#29190f"/>
        <path id="パス_3065" data-name="パス 3065" d="M89.939,17.887A11.558,11.558,0,1,0,101.5,6.329,11.559,11.559,0,0,0,89.939,17.887" transform="translate(-25.222 -1.775)" fill="#cc715e"/>
        <path id="パス_3066" data-name="パス 3066" d="M100.794,33.336l7.1,2.158a7.7,7.7,0,0,0,9.126-8.845L115.3,18.2,99.23,17.66Z" transform="translate(-27.827 -4.952)" fill="#cc715e"/>
        <path id="パス_3067" data-name="パス 3067" d="M118.81,19.713l.754.327c.535.231.118,1.034-.415.8l-.754-.326c-.535-.232-.118-1.035.415-.8" transform="translate(-33.132 -5.517)" fill="#29190f"/>
        <path id="パス_3068" data-name="パス 3068" d="M111.535,19.524l-.786.241c-.558.171-.232,1.015.324.845l.786-.241c.558-.171.232-1.015-.324-.845" transform="translate(-30.977 -5.469)" fill="#29190f"/>
        <path id="パス_3069" data-name="パス 3069" d="M117.658,24.928c0,.546.24.989.538.989s.537-.443.537-.989Z" transform="translate(-32.995 -6.991)" fill="#29190f"/>
        <path id="パス_3070" data-name="パス 3070" d="M119.324,27.678c1.168,0,2.082-1.559,2.082-3.549s-.914-3.549-2.082-3.549-2.082,1.559-2.082,3.549.914,3.549,2.082,3.549m0-6.695c.91,0,1.679,1.441,1.679,3.146s-.768,3.145-1.679,3.145-1.679-1.441-1.679-3.145.768-3.146,1.679-3.146" transform="translate(-32.879 -5.771)" fill="#f5d9d9"/>
        <path id="パス_3071" data-name="パス 3071" d="M72.818,7.26A7.26,7.26,0,1,0,80.078,0a7.26,7.26,0,0,0-7.26,7.26" transform="translate(-20.421)" fill="#29190f"/>
        <path id="パス_3072" data-name="パス 3072" d="M84.129,12.631a5.293,5.293,0,1,0,5.294-5.294,5.294,5.294,0,0,0-5.294,5.294" transform="translate(-23.593 -2.058)" fill="#fbd5a2"/>
        <path id="パス_3073" data-name="パス 3073" d="M106.76,6.452s-2.149,6.739-5.714,9.865a28.358,28.358,0,0,1-8.2,4.746l-3.1-1.664s-3-9.676,5.591-13.485,12.234-1.61,11.428.538" transform="translate(-25.024 -1.077)" fill="#29190f"/>
        <path id="パス_3074" data-name="パス 3074" d="M91.518,43.451l6.912,2.386a1.741,1.741,0,0,0,2.263-1.251l4.127-17.72H93.587l-3.2,14.565a1.741,1.741,0,0,0,1.132,2.019" transform="translate(-25.336 -7.534)" fill="#cc715e"/>
        <rect id="長方形_1030" data-name="長方形 1030" width="9.935" height="0.391" transform="matrix(0.995, -0.096, 0.096, 0.995, 68.723, 19.113)" fill="#f5d9d9"/>
        <path id="パス_3075" data-name="パス 3075" d="M88.32,30.044c1.8,1.915,4.386,2.413,5.765,1.113s1.035-3.907-.77-5.821-4.386-2.413-5.765-1.113-1.035,3.907.77,5.821" transform="translate(-24.315 -6.59)" fill="#cc715e"/>
        <path id="パス_3076" data-name="パス 3076" d="M92.337,28.36l.542-.392a4.3,4.3,0,0,0-3.617-1.831l.05.668-.025-.334.024.334a3.631,3.631,0,0,1,3.027,1.556" transform="translate(-25.032 -7.328)" fill="#29190f"/>
        <rect id="長方形_1031" data-name="長方形 1031" width="0.669" height="2.19" transform="matrix(0.313, -0.95, 0.95, 0.313, 74.912, 29.272)" fill="#29190f"/>
        <path id="パス_3077" data-name="パス 3077" d="M114.962,33.441a9.56,9.56,0,0,0,1.064-.056l-.081-.664a9.184,9.184,0,0,1-1.907,0,5.374,5.374,0,0,1-1.85-.679l-.351.569a6,6,0,0,0,2.122.774,8.573,8.573,0,0,0,1,.056" transform="translate(197.091 -6.86) rotate(149)" fill="#29190f"/>
        <path id="パス_3078" data-name="パス 3078" d="M116.852,28.4c.205-.312.67-1.087.568-1.536a.491.491,0,0,0-.233-.314A1.936,1.936,0,0,0,116,26.532l-.186-1.142-.661.107.3,1.867.36-.1a3.677,3.677,0,0,1,.938-.148,4.022,4.022,0,0,1-.461.92Z" transform="translate(-32.292 -7.12)" fill="#29190f"/>
        <path id="パス_3079" data-name="パス 3079" d="M110.492,24.928c0,.546.24.989.538.989s.537-.443.537-.989Z" transform="translate(-30.986 -6.991)" fill="#29190f"/>
        <path id="パス_3080" data-name="パス 3080" d="M93.963,35.344a2.831,2.831,0,0,0,.454-.035l-.109-.66a3.611,3.611,0,0,1-1.3-.1l-.178.645a4.753,4.753,0,0,0,1.131.152" transform="translate(-26.033 -9.688)" fill="#29190f"/>
        <path id="パス_3081" data-name="パス 3081" d="M111.193,27.681c1.237,0,2.205-1.562,2.205-3.555s-.969-3.555-2.205-3.555-2.206,1.561-2.206,3.555.969,3.555,2.206,3.555m0-6.695c.97,0,1.79,1.438,1.79,3.139s-.82,3.139-1.79,3.139-1.79-1.438-1.79-3.139.82-3.139,1.79-3.139" transform="translate(-30.564 -5.769)" fill="#f5d9d9"/>
        <rect id="長方形_1032" data-name="長方形 1032" width="1.945" height="0.391" transform="translate(82.611 17.743) rotate(-4.818)" fill="#f5d9d9"/>
        <path id="パス_3082" data-name="パス 3082" d="M123.148,141.613l-5.676,137.792h-27.3L84.766,141.613Z" transform="translate(-23.771 -39.713)" fill="#b36352"/>
        <path id="パス_3083" data-name="パス 3083" d="M108.977,70.67,124.6,92.63l4.618,6.489,8.6,12.086.051.073a9.491,9.491,0,0,0,1.153,1.261c.1.094.2.189.3.276a12.444,12.444,0,0,0,4.394,2.436,16.892,16.892,0,0,0,4.937.761c.522.015,1.044-.007,1.559-.043a15.845,15.845,0,0,0,8.265-2.828c5.1-3.871,5.336-12.079.522-18.314,0,0-30.669-39.178-31.191-39.692-.036-.036-7.242-4.143-10.134-4.621a10.478,10.478,0,0,0-8.179,1.842c-5.09,3.871-5.328,12.071-.522,18.314" transform="translate(-29.592 -14.119)" fill="#fbd5a2"/>
        <path id="パス_3084" data-name="パス 3084" d="M71.681,68.939l-33.448,44.87c-4.52,4.534-12.785,3.778-18.452-1.7S13.189,98.527,17.71,93.993L48.543,51.719l2.614-2.6a9.723,9.723,0,0,1,3.637-2.3.083.083,0,0,1,.035-.01,11.485,11.485,0,0,1,3.9-.657,1.482,1.482,0,0,1,.159.006A15.971,15.971,0,0,1,69.609,50.82c5.666,5.469,6.591,13.58,2.072,18.119" transform="translate(-4.163 -12.945)" fill="#fbd5a2"/>
        <path id="パス_3085" data-name="パス 3085" d="M116.281,64.734l-.322,17.442-.1,5.834-.183,9.934L115.365,115H57.247L57.77,94.6l.48-19.108.445-17.634a12.265,12.265,0,0,1,1.744-6.131,11.3,11.3,0,0,1,6.244-4.893.066.066,0,0,1,.035-.018,13.616,13.616,0,0,1,4.064-.645,1.613,1.613,0,0,1,.2-.009h26.7a18.542,18.542,0,0,1,12.271,5.006,19.665,19.665,0,0,1,2.364,2.529,17.293,17.293,0,0,1,3.959,11.041" transform="translate(-16.054 -12.944)" fill="#29190f"/>
        <path id="パス_3086" data-name="パス 3086" d="M107.423,46.559s.1,10.221-11.314,9.255A22.878,22.878,0,0,1,79.3,46.16h24.574a16.082,16.082,0,0,1,3.547.4" transform="translate(-22.239 -12.945)" fill="#cc715e"/>
        <path id="パス_3087" data-name="パス 3087" d="M100.084,141.838l8.609,68.734-44.072,1.844s-7.369-25.583-7.369-70.579Z" transform="translate(-16.055 -39.776)" fill="#b499ff"/>
        <path id="パス_3088" data-name="パス 3088" d="M31.689,292.506l57.269-38.734a22.634,22.634,0,0,0,6.1-30.256c-7.381-12-24.234-14.848-34.3-5-14.406,14.092-42.131,50-42.131,50Z" transform="translate(-5.222 -59.609)" fill="#cc715e"/>
        <path id="パス_3089" data-name="パス 3089" d="M71.5,255.254c-11.3-8.625-30.009-3.748-30.009-3.748L62.04,225.7l34.7,30.687S82.8,263.878,71.5,255.254" transform="translate(-11.636 -63.294)" fill="#b36352"/>
        <path id="パス_3090" data-name="パス 3090" d="M31.1,225.526s30.918-19.665,48.011-2.07a42.186,42.186,0,0,0,14.722,9.412l.007.006c15.417,6.169,32.862,5.548,32.862,5.548s-.489-61.293-18.664-96.586H49.918s-11.337,16.415-15.211,42.47c-2.77,18.658-3.612,41.22-3.612,41.22" transform="translate(-8.72 -39.776)" fill="#778ce6"/>
        <path id="パス_3091" data-name="パス 3091" d="M112.015,183.736l1.2-.242-2.87-12.251-1.2.242Z" transform="translate(-30.608 -48.022)" fill="#6171ba"/>
        <path id="パス_3092" data-name="パス 3092" d="M110.267,204.437l-2.6-15.582,1.236-.024,2.583,15.321-1.221.285" transform="translate(-30.194 -52.954)" fill="#6171ba"/>
        <path id="パス_3093" data-name="パス 3093" d="M56.482,207.378l-1.134-.472,5.2-11.458,1.134.472Z" transform="translate(-15.522 -54.81)" fill="#6171ba"/>
        <path id="パス_3094" data-name="パス 3094" d="M54.027,228.02l5.585-14.777-1.207-.264L52.884,227.5c.381.173.762.344,1.143.517" transform="translate(-14.83 -59.726)" fill="#6171ba"/>
        <path id="パス_3095" data-name="パス 3095" d="M121,276.478s-2.876,8.2-14.248,11.819S91.37,300.534,91.37,300.534l.656,16.693h27.3Z" transform="translate(-25.623 -77.534)" fill="#cc715e"/>
        <path id="パス_3096" data-name="パス 3096" d="M41.129,131.035h27.9c.053-7.268.3-15.514.65-23.946.06-1.539.126-3.091.2-4.643C70.454,89.666,71.23,76.8,71.9,66.6c.024-.353.045-.7.069-1.043C72.737,53.992,73.355,46.1,73.355,46.1H65.372A11.686,11.686,0,0,0,53.848,55.84L43.741,115.575l-.207,1.247Z" transform="translate(-11.534 -12.928)" fill="#fbd5a2"/>
        <path id="パス_3097" data-name="パス 3097" d="M67.563,72.876l9.529,34.215q.091-2.313.2-4.646L69.068,73.5l10.246-6.9c.022-.353.045-.7.068-1.043L70.412,55.548,79.966,46.1H78.1l-9.585,9.513,9.3,10.365Z" transform="translate(-18.947 -12.928)" fill="#29190f"/>
        <path id="パス_3098" data-name="パス 3098" d="M44.469,143.9h10.11v-1.246h-9.9Z" transform="translate(-12.471 -40.005)" fill="#c49963"/>
        <path id="パス_3099" data-name="パス 3099" d="M108.89,46.161s3.412,2.856,7.2,17.87c.195.788.394,1.6.593,2.454,1.406,6.012,2.848,13.746,4.16,23.666.419,3.137.833,6.317,1.239,9.518q.366,2.852.731,5.712c1.1,8.741,2.162,17.5,3.128,25.673h17.65l-2.6-14.835-.219-1.251-9.628-54.852a16.865,16.865,0,0,0-16.61-13.954Z" transform="translate(-30.536 -12.945)" fill="#fbd5a2"/>
        <rect id="長方形_1033" data-name="長方形 1033" width="1.244" height="15.259" transform="translate(103.506 66.142) rotate(-13.243)" fill="#29190f"/>
        <path id="パス_3100" data-name="パス 3100" d="M122.81,53.923l-5.3,10.111c.2.784.394,1.6.594,2.45l8.589,5L123.5,99.67q.366,2.848.727,5.712l3.595-34.707-9.453-5.5,6-11.431-8.647-7.581h-1.793Z" transform="translate(-31.951 -12.945)" fill="#29190f"/>
        <path id="パス_3101" data-name="パス 3101" d="M71.353,66.893,28.3,98.385a12.179,12.179,0,1,0,17.155,17.261L78.569,85.6Z" transform="translate(-6.826 -18.759)" fill="#fbd5a2"/>
        <path id="パス_3102" data-name="パス 3102" d="M115.733,66.4a37.853,37.853,0,0,0-11.853.317c-4.367,1.023-5.436-5.059-1.112-6.072a43.915,43.915,0,0,1,13.778-.823c4.41.676,3.614,7.257-.813,6.578" transform="translate(-28.047 -16.707)" fill="#cc715e"/>
        <path id="パス_3103" data-name="パス 3103" d="M103.557,48.845l-2.522-2.522a.743.743,0,0,0-1.051,0l-.5.5a.742.742,0,0,0,0,1.051l2.522,2.522-.517.517-.332.331-.645.646.769.768,6.734,6.735.645-.645-6.734-6.736.332-.332,19.3,19.3,4.511,1.757-1.758-4.51L104.245,48.157Z" transform="translate(-27.838 -12.93)" fill="#f5e2da"/>
        <path id="パス_3104" data-name="パス 3104" d="M106.1,63.023s-15.823-4.459-21.832,5.094-3.3,12.565-.942,14.663c2.837,2.528,6.208,6.408,13.6.612s9.17-20.369,9.17-20.369" transform="translate(-22.61 -17.382)" fill="#cc715e"/>
        <path id="パス_3105" data-name="パス 3105" d="M91.356,94.841a.425.425,0,0,1,.507-.29,7.457,7.457,0,0,0,4.5-.551,7.861,7.861,0,0,0,.37.743,8.712,8.712,0,0,1-4.748.686c-.115-.022-.23-.049-.343-.08a.414.414,0,0,1-.291-.508" transform="translate(-25.615 -26.361)" fill="#29190f"/>
        <path id="パス_3106" data-name="パス 3106" d="M121.986,73.963a37.853,37.853,0,0,0-10.747-5.009c-4.364-1.035-2.6-6.954,1.716-5.929a43.9,43.9,0,0,1,12.7,5.416c3.643,2.575-.007,8.107-3.665,5.522" transform="translate(-30.487 -17.641)" fill="#cc715e"/>
        <path id="パス_3107" data-name="パス 3107" d="M114.048,78.971a38.914,38.914,0,0,0-7.968-2.63c-1.863-.343-2.783-2.716-2.266-4.352.622-1.972,2.494-2.609,4.352-2.266a44.486,44.486,0,0,1,10.227,3.6,6.764,6.764,0,0,1-4.345,5.646" transform="translate(-29.073 -19.528)" fill="#cc715e"/>
        <path id="パス_3108" data-name="パス 3108" d="M99.842,79.458c.607-1.921,2.431-2.542,4.241-2.208a41.076,41.076,0,0,1,9.626,3.293c.057,1.2-1.052,2.732-1.85,3.517a9.307,9.307,0,0,1-2.737,1.905A36.492,36.492,0,0,0,102.05,83.7c-1.815-.335-2.712-2.647-2.208-4.241" transform="translate(-27.96 -21.639)" fill="#cc715e"/>
        <path id="パス_3109" data-name="パス 3109" d="M129.871,75.6a2.1,2.1,0,0,0,2.238-.938,2.052,2.052,0,0,0-.521-2.848,2.078,2.078,0,0,0-2.811.692,2.16,2.16,0,0,0-.324,1.556,1.913,1.913,0,0,0,.845,1.292,1.863,1.863,0,0,0,.574.248m.989-3.4a1.249,1.249,0,0,1,.376.163,1.405,1.405,0,0,1,.33,1.952,1.423,1.423,0,0,1-1.915.5,1.274,1.274,0,0,1-.56-.861,1.518,1.518,0,0,1,.23-1.09,1.448,1.448,0,0,1,1.54-.662" transform="translate(-36.013 -20.058)" fill="#29190f"/>
        <path id="パス_3110" data-name="パス 3110" d="M107.63,91.621A3.346,3.346,0,0,1,103.9,92.7a24.475,24.475,0,0,0-3.829-1.062c-4.1-.707-2.513-6.952,1.55-6.253a35.477,35.477,0,0,1,7.655,2.5,7.54,7.54,0,0,1-1.649,3.735" transform="translate(-27.392 -23.929)" fill="#cc715e"/>
        <path id="パス_3111" data-name="パス 3111" d="M115.091,81.173a66.593,66.593,0,0,0-8.61-3.139.414.414,0,0,1-.294-.506.424.424,0,0,1,.505-.294,67.831,67.831,0,0,1,9.1,3.342c-.224.206-.458.4-.7.6" transform="translate(-29.774 -21.656)" fill="#29190f"/>
        <path id="パス_3112" data-name="パス 3112" d="M109.863,69.917a.416.416,0,0,1,.526-.256c.064.022,5.064,1.812,9.713,3.848-.022.289-.127.579-.164.866-4.693-2.07-9.753-3.909-9.818-3.932a.413.413,0,0,1-.257-.525" transform="translate(-30.803 -19.529)" fill="#29190f"/>
        <path id="パス_3113" data-name="パス 3113" d="M110.092,87.917a35.444,35.444,0,0,0-7.676-2.39.31.31,0,0,1-.263-.361.314.314,0,0,1,.359-.263,36.622,36.622,0,0,1,8.122,2.565q-.275.217-.542.449" transform="translate(-28.646 -23.809)" fill="#29190f"/>
        <path id="パス_3114" data-name="パス 3114" d="M102.493,62.669a.409.409,0,0,0,.142.009,29.927,29.927,0,0,1,6.73.1,46.29,46.29,0,0,1,9.383,3.073.414.414,0,0,0,.343-.753,46.675,46.675,0,0,0-9.592-3.137,30.165,30.165,0,0,0-6.952-.108.413.413,0,0,0-.055.812" transform="translate(-28.654 -17.303)" fill="#29190f"/>
        <path id="パス_3115" data-name="パス 3115" d="M83.815,71.657a.414.414,0,0,0,.462-.2,23.138,23.138,0,0,1,3.283-4.389.413.413,0,1,0-.589-.579,23.585,23.585,0,0,0-3.421,4.571.414.414,0,0,0,.265.6" transform="translate(-23.416 -18.61)" fill="#29190f"/>
        <path id="パス_3116" data-name="パス 3116" d="M163.385,80.181s-.427-6.026-10.293-6.223-24.056,2.759-24.056,2.759Z" transform="translate(-36.186 -20.738)" fill="#d5e5fd"/>
        <path id="パス_3117" data-name="パス 3117" d="M120.167,129.795H88.245a3.59,3.59,0,0,1-3.047-5.488l27.921-44.819a3.591,3.591,0,0,1,3.047-1.692h31.923a3.59,3.59,0,0,1,3.047,5.488L123.215,128.1a3.591,3.591,0,0,1-3.047,1.692" transform="translate(-23.738 -21.817)" fill="#c94660"/>
        <path id="パス_3118" data-name="パス 3118" d="M112.96,108.23l38.591.017A12.179,12.179,0,0,1,163.8,119.378h0a12.179,12.179,0,0,1-13.04,13.191l-37.8-2.128Z" transform="translate(-31.678 -30.351)" fill="#fbd5a2"/>
        <path id="パス_3119" data-name="パス 3119" d="M115.981,111.615q-.031,1.4-.112,2.644c-.594,9.262-3.167,12.582-6.654,12.624-3.409.041-8.13-.459-11.218-6.983a22.573,22.573,0,0,1-1-2.512,15.661,15.661,0,0,1-.747-4.242c-.008-.1-.012-.2-.012-.3a3.644,3.644,0,0,1-.009-.367c-.007-.1-.007-.2-.007-.292a28.215,28.215,0,0,1,.476-5.027,1.024,1.024,0,0,1,.021-.129c.046-.259.1-.513.15-.768a.146.146,0,0,1,.009-.046,45.159,45.159,0,0,1,1.3-4.856c.03-.088.058-.171.088-.255.058-.183.121-.367.179-.542.017-.046.033-.088.046-.13a50.679,50.679,0,0,1,1.944-4.81q.25-.094.5-.163c.23.08.563.2.98.371,3.237,1.289,11.381,5.152,13.542,12.031a11.657,11.657,0,0,1,.53,3.75" transform="translate(-26.983 -26.771)" fill="#cc715e"/>
        <path id="パス_3120" data-name="パス 3120" d="M102.6,101.68h0a2.052,2.052,0,0,1-.358.1,3.559,3.559,0,0,1-1.907-.2c-.458-.167-.947-.325-1.464-.471-.112-.033-.225-.063-.342-.1a1.306,1.306,0,0,1-.125-.589c0-.054,0-.112,0-.179a9.691,9.691,0,0,1,.417-2.5,3.3,3.3,0,0,1,2.223-2.115q.25-.094.5-.163a.029.029,0,0,1,.017,0l.609.225c.125.046.242.1.355.15a3.152,3.152,0,0,1,.083,5.849" transform="translate(-27.594 -26.769)" fill="#cc715e"/>
        <path id="パス_3121" data-name="パス 3121" d="M103.957,107.713a3.808,3.808,0,0,1-2.077,2.3,2.723,2.723,0,0,1-2.211.083,27.291,27.291,0,0,0-3.124-1.072c-.258-.079-.526-.15-.8-.221.029-.029.058-.063.087-.088a3.2,3.2,0,0,1,.343-.309,1.279,1.279,0,0,1-.338-.5.145.145,0,0,1-.017-.042,2.773,2.773,0,0,1,.021-1.823,8.55,8.55,0,0,1,1.7-2.916c.138-.158.221-.246.221-.246a1.313,1.313,0,0,1-.124-.588c0-.055,0-.113,0-.18.234.063.467.125.7.192.543.158,1.072.321,1.577.5q.839.282,1.582.6c.029.012.054.021.079.033.091.037.179.079.267.121h0a3.483,3.483,0,0,1,2.115,4.168" transform="translate(-26.832 -28.634)" fill="#cc715e"/>
        <path id="パス_3122" data-name="パス 3122" d="M103,116.016a3.685,3.685,0,0,1-2.87,2.49,2.5,2.5,0,0,1-1.31-.167,27.219,27.219,0,0,0-3.112-1.072c-.255-.071-.509-.137-.768-.2a2.342,2.342,0,0,1,.213-.25,2.221,2.221,0,0,1,.3-.275l0,0c-.017-.025-.113-.155-.238-.355a5.142,5.142,0,0,1-.905-2.92,3.759,3.759,0,0,1,1.051-2.2c.03-.03.058-.063.088-.088a3.159,3.159,0,0,1,.342-.309,1.29,1.29,0,0,1-.337-.5q.444.106.876.225a31.786,31.786,0,0,1,3.976,1.3c.125.05.25.1.376.154a4.871,4.871,0,0,1,.813.434,3.259,3.259,0,0,1,1.51,3.746" transform="translate(-26.444 -30.892)" fill="#cc715e"/>
        <path id="パス_3123" data-name="パス 3123" d="M97.457,126.507a3.494,3.494,0,0,1-.571-.2q-.458-.2-.989-.388a15.673,15.673,0,0,1-1.6-4.443,3.106,3.106,0,0,1,.646-1.931,2.342,2.342,0,0,1,.213-.25,2.17,2.17,0,0,1,.3-.275l.234.062a25.675,25.675,0,0,1,3.35,1.156,3.431,3.431,0,0,1,.634.355,3.018,3.018,0,0,1,.459.4c2.036,2.1.342,6.274-2.674,5.515" transform="translate(-26.443 -33.378)" fill="#cc715e"/>
        <path id="パス_3124" data-name="パス 3124" d="M100.737,111.882a.419.419,0,0,1-.525.258c-.03-.008-1.381-.458-3.592-1.005-.234-.063-.476-.121-.73-.179a3.2,3.2,0,0,1,.343-.309,1.279,1.279,0,0,1-.338-.5.145.145,0,0,1-.017-.042c.313.075.613.145.9.221,2.274.563,3.663,1.026,3.7,1.035a.433.433,0,0,1,.271.309.383.383,0,0,1-.009.217" transform="translate(-26.887 -30.876)" fill="#29190f"/>
        <path id="パス_3125" data-name="パス 3125" d="M102.218,103.673c0,.012-.009.025-.012.037a.409.409,0,0,1-.489.259c-.033-.009-1.205-.288-2.97-.676-.15-.034-.309-.067-.476-.105.137-.158.221-.246.221-.246a1.3,1.3,0,0,1-.125-.588c.225.046.438.092.647.142.625.137,1.176.263,1.623.367.789.183,1.264.3,1.285.305a.418.418,0,0,1,.3.291.411.411,0,0,1,0,.213" transform="translate(-27.559 -28.704)" fill="#29190f"/>
        <path id="パス_3126" data-name="パス 3126" d="M100.032,120.422a.085.085,0,0,1-.025.033.3.3,0,0,1-.4.122,28.165,28.165,0,0,0-3.579-1.264c-.175-.05-.355-.1-.542-.155a2.169,2.169,0,0,1,.3-.275l0,0c-.017-.025-.112-.154-.237-.355.158.042.317.083.467.13A31.816,31.816,0,0,1,99.878,120a.325.325,0,0,1,.154.422" transform="translate(-26.778 -33.238)" fill="#29190f"/>
        <path id="パス_3127" data-name="パス 3127" d="M123.131,119.066a.415.415,0,0,1-.273-.425,23.171,23.171,0,0,0-.322-5.472.413.413,0,0,1,.811-.159,23.6,23.6,0,0,1,.335,5.7.415.415,0,0,1-.551.355" transform="translate(-34.361 -31.599)" fill="#29190f"/>
        <rect id="長方形_1034" data-name="長方形 1034" width="22.434" height="1.251" transform="translate(96.559 77.488) rotate(-0.527)" fill="#29190f"/>
        <rect id="長方形_1035" data-name="長方形 1035" width="34.087" height="1.252" transform="translate(24.16 76.891) rotate(-36.231)" fill="#29190f"/>
        <path id="パス_3128" data-name="パス 3128" d="M129.67,338.426l-10.731-5.35H91.665l-1.523,12.6v.976a1.773,1.773,0,0,0,1.772,1.772H131.57a1.773,1.773,0,0,0,1.772-1.772v-1.587a7.836,7.836,0,0,0-3.673-6.639" transform="translate(-25.279 -93.406)" fill="#29190f"/>
        <path id="パス_3129" data-name="パス 3129" d="M99.917,350.031l-.462.471-4.663-4.574a6.9,6.9,0,0,0-3.885-1.916l.079-.653a7.538,7.538,0,0,1,4.268,2.1Z" transform="translate(-25.493 -96.29)" fill="#343642"/>
        <path id="パス_3130" data-name="パス 3130" d="M127.533,340.593l-.282.6-16-8.113h1.459Z" transform="translate(-31.199 -93.405)" fill="#343642"/>
        <path id="パス_3131" data-name="パス 3131" d="M121.774,333.373h6.632l-.6-.3h-6.035Z" transform="translate(-34.149 -93.406)" fill="#343642"/>
        <path id="パス_3132" data-name="パス 3132" d="M132.2,335.092h-6.48v-.66h5.158Z" transform="translate(-35.255 -93.786)" fill="#343642"/>
        <path id="パス_3133" data-name="パス 3133" d="M135.969,336.948h-6.358v-.66h5.033Z" transform="translate(-36.347 -94.306)" fill="#343642"/>
        <path id="パス_3134" data-name="パス 3134" d="M137.277,337.927l-1.323-.66h-4.92l-2.526-1.22-1.359-.656-1.412-.679-1.365-.66-1.408-.679-.615-.3h-1.515l10.047,4.851Z" transform="translate(-33.886 -93.405)" fill="#343642"/>
        <path id="パス_3135" data-name="パス 3135" d="M133.343,350.586h-43.2v.976a1.773,1.773,0,0,0,1.772,1.772H131.57a1.773,1.773,0,0,0,1.772-1.772Z" transform="translate(-25.279 -98.316)" fill="#555863"/>
        <path id="パス_3136" data-name="パス 3136" d="M141.459,344.134H127.8a4.463,4.463,0,0,0-4.456,4.458h-.659a5.122,5.122,0,0,1,5.115-5.118h13.247c.149.214.287.432.416.66" transform="translate(-34.404 -96.322)" fill="#343642"/>
        <path id="パス_3137" data-name="パス 3137" d="M26.8,326.27l-.329-11.986L13.635,290.218,1.8,294.8l-.861.459a1.773,1.773,0,0,0-.73,2.4l18.661,34.99a1.772,1.772,0,0,0,2.4.73l1.4-.747a7.836,7.836,0,0,0,4.13-6.365" transform="translate(0 -81.387)" fill="#29190f"/>
        <path id="パス_3138" data-name="パス 3138" d="M6.7,304.981l-.633-.186,1.841-6.267a6.9,6.9,0,0,0-.137-4.33l.614-.237a7.537,7.537,0,0,1,.154,4.754Z" transform="translate(-1.702 -82.437)" fill="#343642"/>
        <path id="パス_3139" data-name="パス 3139" d="M28.913,324.881l-.658.031-.37-17.934.686,1.287Z" transform="translate(-7.82 -86.087)" fill="#343642"/>
        <path id="パス_3140" data-name="パス 3140" d="M32.472,316.4l3.121,5.852-.019-.666-2.84-5.326Z" transform="translate(-9.106 -88.69)" fill="#343642"/>
        <path id="パス_3141" data-name="パス 3141" d="M35.734,326.406l-3.05-5.718.582-.311,2.427,4.551Z" transform="translate(-9.166 -89.844)" fill="#343642"/>
        <path id="パス_3142" data-name="パス 3142" d="M35.872,330.609,32.88,325l.582-.31,2.368,4.44Z" transform="translate(-9.221 -91.053)" fill="#343642"/>
        <path id="パス_3143" data-name="パス 3143" d="M35.851,332.224l-.04-1.477L33.5,326.406l-.112-2.8-.06-1.507-.065-1.565-.06-1.515-.063-1.562-.027-.681-.712-1.336.447,11.148Z" transform="translate(-9.085 -88.458)" fill="#343642"/>
        <path id="パス_3144" data-name="パス 3144" d="M22.128,334.709,1.8,296.59l-.861.46a1.772,1.772,0,0,0-.73,2.4l18.661,34.991a1.773,1.773,0,0,0,2.4.73Z" transform="translate(0 -83.174)" fill="#555863"/>
        <path id="パス_3145" data-name="パス 3145" d="M30.581,339.539l-6.429-12.056a4.463,4.463,0,0,0-6.031-1.833l-.31-.582a5.123,5.123,0,0,1,6.923,2.1l6.234,11.689c-.119.232-.246.456-.386.677" transform="translate(-4.995 -90.991)" fill="#343642"/>
      </g>
    </g>
    <text id="月次報告書の_作り直す手間を_減らしたい" data-name="月次報告書の
作り直す手間を
減らしたい" transform="translate(882.5 3012.614)" font-size="13" font-family="NotoSansJP-Bold, Noto Sans JP" font-weight="700"><tspan x="-39" y="0">月次報告書</tspan><tspan y="0">の</tspan><tspan x="-45.5" y="17">作</tspan><tspan y="17">り</tspan><tspan y="17">直</tspan><tspan y="17">す</tspan><tspan y="17">手間</tspan><tspan y="17">を</tspan><tspan x="-32.5" y="34">減</tspan><tspan y="34">らしたい</tspan></text>
  </g>
</svg>
