<svg xmlns="http://www.w3.org/2000/svg" xmlns:xlink="http://www.w3.org/1999/xlink" width="151" height="355.402" viewBox="0 0 151 355.402">
  <defs>
    <clipPath id="clip-path">
      <rect id="長方形_995" data-name="長方形 995" width="115.888" height="262.801" fill="none"/>
    </clipPath>
  </defs>
  <g id="worries_03" transform="translate(-253 -2971)">
    <g id="グループ_1119" data-name="グループ 1119" transform="translate(-43 -10)">
      <circle id="楕円形_22" data-name="楕円形 22" cx="53.5" cy="53.5" r="53.5" transform="translate(340 2981)" fill="#348aff"/>
      <circle id="楕円形_23" data-name="楕円形 23" cx="9.5" cy="9.5" r="9.5" transform="translate(376 3077)" fill="#348aff"/>
      <circle id="楕円形_24" data-name="楕円形 24" cx="5" cy="5" r="5" transform="translate(368 3093)" fill="#348aff"/>
    </g>
    <g id="グループ_1077" data-name="グループ 1077" transform="translate(253 3063.601)">
      <g id="グループ_1076" data-name="グループ 1076" clip-path="url(#clip-path)">
        <path id="パス_2460" data-name="パス 2460" d="M96.881,252.931,86.288,247.65H59.363l-1.5,12.438v.963a1.749,1.749,0,0,0,1.749,1.75H98.757a1.75,1.75,0,0,0,1.75-1.75v-1.566a7.737,7.737,0,0,0-3.626-6.554" fill="#29190f"/>
        <path id="パス_2461" data-name="パス 2461" d="M67.3,261.541l-.456.466-4.6-4.516A6.818,6.818,0,0,0,58.4,255.6l.078-.645a7.445,7.445,0,0,1,4.213,2.074Z" fill="#343642"/>
        <path id="パス_2462" data-name="パス 2462" d="M88.927,255.071l-.279.587L72.855,247.65h1.44Z" fill="#343642"/>
        <path id="パス_2463" data-name="パス 2463" d="M80.329,247.943h6.547l-.589-.293H80.329Z" fill="#343642"/>
        <path id="パス_2464" data-name="パス 2464" d="M89.525,249.265h-6.4v-.651H88.22Z" fill="#343642"/>
        <path id="パス_2465" data-name="パス 2465" d="M92.172,250.583H85.9v-.651h4.968Z" fill="#343642"/>
        <path id="パス_2466" data-name="パス 2466" d="M95.893,252.439l-1.305-.651H89.73l-2.493-1.2-1.342-.647-1.393-.671-1.348-.651-1.39-.671-.606-.293h-1.5l9.919,4.789Z" fill="#343642"/>
        <path id="パス_2467" data-name="パス 2467" d="M100.506,260.088H57.859v.963a1.749,1.749,0,0,0,1.75,1.75H98.756a1.749,1.749,0,0,0,1.75-1.75Z" fill="#555863"/>
        <path id="パス_2468" data-name="パス 2468" d="M99.51,255.688H86.023a4.406,4.406,0,0,0-4.4,4.4h-.651a5.057,5.057,0,0,1,5.05-5.052H99.1c.146.212.283.426.41.651" fill="#343642"/>
        <path id="パス_2469" data-name="パス 2469" d="M53.74,252.931,43.147,247.65H16.222l-1.5,12.438v.963a1.749,1.749,0,0,0,1.749,1.75H55.616a1.75,1.75,0,0,0,1.75-1.75v-1.566a7.737,7.737,0,0,0-3.626-6.554" fill="#29190f"/>
        <path id="パス_2470" data-name="パス 2470" d="M24.156,261.541l-.456.466-4.6-4.516a6.818,6.818,0,0,0-3.835-1.891l.078-.645a7.445,7.445,0,0,1,4.213,2.074Z" fill="#343642"/>
        <path id="パス_2471" data-name="パス 2471" d="M45.786,255.071l-.279.587L29.714,247.65h1.44Z" fill="#343642"/>
        <path id="パス_2472" data-name="パス 2472" d="M37.188,247.943h6.547l-.589-.293H37.188Z" fill="#343642"/>
        <path id="パス_2473" data-name="パス 2473" d="M46.384,249.265h-6.4v-.651h5.092Z" fill="#343642"/>
        <path id="パス_2474" data-name="パス 2474" d="M49.031,250.583H42.754v-.651h4.968Z" fill="#343642"/>
        <path id="パス_2475" data-name="パス 2475" d="M52.752,252.439l-1.305-.651H46.589l-2.493-1.2-1.342-.647-1.393-.671-1.348-.651-1.39-.671-.606-.293h-1.5l9.919,4.789Z" fill="#343642"/>
        <path id="パス_2476" data-name="パス 2476" d="M57.365,260.088H14.718v.963a1.749,1.749,0,0,0,1.75,1.75H55.615a1.75,1.75,0,0,0,1.75-1.75Z" fill="#555863"/>
        <path id="パス_2477" data-name="パス 2477" d="M56.369,255.688H42.882a4.406,4.406,0,0,0-4.4,4.4h-.651a5.057,5.057,0,0,1,5.05-5.052H55.959c.146.212.283.426.41.651" fill="#343642"/>
        <path id="パス_2478" data-name="パス 2478" d="M86.291,247.711H56.478L49.919,108H85.408c6.062,46.688.883,139.709.883,139.709" fill="#a89e9c"/>
        <path id="パス_2479" data-name="パス 2479" d="M32.653,202.854l-1.032-.721L39.34,191.8l1.032.722Z" fill="#827a78"/>
        <path id="パス_2480" data-name="パス 2480" d="M32.272,211.221l4.958-9.83,1.151.529-4.691,9.3Z" fill="#827a78"/>
        <path id="パス_2481" data-name="パス 2481" d="M71.1,197.358l-1.032-.721L77.786,186.3l1.032.722Z" fill="#827a78"/>
        <path id="パス_2482" data-name="パス 2482" d="M69.293,211.227l-1.151-.529,7.465-14.8,1.152.529Z" fill="#827a78"/>
        <rect id="長方形_991" data-name="長方形 991" width="29.77" height="1.074" transform="translate(56.188 240.976)" fill="#827a78"/>
        <path id="パス_2483" data-name="パス 2483" d="M48.819,247.711H16.186s2.58-76.292,5.141-107.285C22.91,121.274,25.007,108,25.007,108H62.452Z" fill="#a89e9c"/>
        <path id="パス_2484" data-name="パス 2484" d="M65.375,123.7a46.292,46.292,0,0,1-.4,6.4c-.273,1.76-1.793,2.578-3.314,3.142v-12.8a.738.738,0,0,0-1.475,0v16.409a.738.738,0,0,0,1.475,0V134.81a7.307,7.307,0,0,0,4.331-3.082,8.1,8.1,0,0,0,.637-3.217c.143-1.6.2-3.2.223-4.808a.738.738,0,0,0-1.475,0" fill="#827a78"/>
        <path id="パス_2485" data-name="パス 2485" d="M22.456,241.543l-1.071-.06,6.358-116.856,1.071.06Z" fill="#827a78"/>
        <rect id="長方形_992" data-name="長方形 992" width="32.544" height="1.074" transform="translate(16.879 240.976)" fill="#827a78"/>
        <path id="パス_2486" data-name="パス 2486" d="M67.661,134.735l-8.507,2.24L53.072,193.93a6.606,6.606,0,0,1,.967,1.125l6.111-57.232,7.785-2.051Z" fill="#29190f"/>
        <path id="パス_2487" data-name="パス 2487" d="M99.988,102.357h0c5.823-3.222,13.481-8.5,13.481-8.5L88.151,54C84.93,48.173,73.564,40.852,67.74,44.074a12.051,12.051,0,0,0-4.71,16.378l20.58,37.2c3.222,5.823,16.378,4.71,16.378,4.71" fill="#a67d3c"/>
        <path id="パス_2488" data-name="パス 2488" d="M65.063,39.725H47.726A25.806,25.806,0,0,0,21.92,65.531v61.963H90.869V65.531A25.806,25.806,0,0,0,65.063,39.725" fill="#a67d3c"/>
        <path id="パス_2489" data-name="パス 2489" d="M56.11,63.046l-33.02,44.3c-4.462,4.476-12.621,3.729-18.215-1.675S-1.632,92.255,2.83,87.779L33.269,46.046l2.581-2.562a9.609,9.609,0,0,1,3.589-2.267.093.093,0,0,1,.035-.01,11.328,11.328,0,0,1,3.853-.648c.053,0,.1,0,.158.005a15.759,15.759,0,0,1,10.579,4.6c5.594,5.4,6.506,13.406,2.046,17.887" fill="#a67d3c"/>
        <path id="パス_2490" data-name="パス 2490" d="M49.113,59.687,6.615,90.776A12.022,12.022,0,1,0,23.55,107.815L56.237,78.151Z" fill="#a67d3c"/>
        <path id="パス_2491" data-name="パス 2491" d="M71.975,61.223a37.367,37.367,0,0,0-11.7.313c-4.311,1.01-5.366-4.994-1.1-5.994a43.335,43.335,0,0,1,13.6-.812c4.353.668,3.568,7.164-.8,6.493" fill="#fa9378"/>
        <path id="パス_2492" data-name="パス 2492" d="M60.161,47.625l-2.49-2.49a.734.734,0,0,0-1.037,0l-.492.492a.734.734,0,0,0,0,1.037l2.49,2.49-.509.509-.328.328-.637.637.759.759,6.648,6.648L65.2,57.4,58.554,50.75l.328-.328L77.937,69.477l4.453,1.736L80.655,66.76,60.841,46.946Z" fill="#f5e2da"/>
        <path id="パス_2493" data-name="パス 2493" d="M67.83,57.225s-15.62-4.4-21.552,5.029-3.254,12.4-.93,14.474c2.8,2.5,6.128,6.326,13.429.605S67.83,57.225,67.83,57.225" fill="#fa9378"/>
        <path id="パス_2494" data-name="パス 2494" d="M50.312,79.773a.418.418,0,0,1,.5-.286,7.371,7.371,0,0,0,4.446-.544,7.679,7.679,0,0,0,.365.732,8.6,8.6,0,0,1-4.687.679c-.114-.023-.227-.049-.338-.08a.408.408,0,0,1-.287-.5" fill="#29190f"/>
        <path id="パス_2495" data-name="パス 2495" d="M75.74,67.77a37.364,37.364,0,0,0-10.609-4.945c-4.308-1.022-2.571-6.865,1.694-5.853a43.35,43.35,0,0,1,12.532,5.346c3.6,2.542-.006,8-3.617,5.452" fill="#fa9378"/>
        <path id="パス_2496" data-name="パス 2496" d="M69.3,70.851a38.4,38.4,0,0,0-7.866-2.6c-1.839-.339-2.747-2.682-2.237-4.3.614-1.947,2.462-2.576,4.3-2.238a43.971,43.971,0,0,1,10.1,3.556A6.676,6.676,0,0,1,69.3,70.851" fill="#fa9378"/>
        <path id="パス_2497" data-name="パス 2497" d="M56.374,69.247c.6-1.9,2.4-2.51,4.187-2.18a40.572,40.572,0,0,1,9.5,3.25c.056,1.181-1.039,2.7-1.826,3.472a9.2,9.2,0,0,1-2.7,1.881,35.917,35.917,0,0,0-6.98-2.236c-1.792-.331-2.677-2.613-2.18-4.187" fill="#fa9378"/>
        <path id="パス_2498" data-name="パス 2498" d="M78.068,67.006a2.069,2.069,0,0,0,2.209-.927,2.025,2.025,0,0,0-.514-2.811,2.05,2.05,0,0,0-2.775.682,2.131,2.131,0,0,0-.32,1.536,1.889,1.889,0,0,0,.834,1.275,1.863,1.863,0,0,0,.566.245m.976-3.362a1.178,1.178,0,0,1,.371.161,1.385,1.385,0,0,1,.326,1.926,1.4,1.4,0,0,1-1.891.493,1.257,1.257,0,0,1-.553-.85,1.5,1.5,0,0,1,.227-1.077,1.429,1.429,0,0,1,1.52-.653" fill="#29190f"/>
        <path id="パス_2499" data-name="パス 2499" d="M64.623,79a3.3,3.3,0,0,1-3.679,1.062,24.205,24.205,0,0,0-3.78-1.048c-4.051-.7-2.481-6.864,1.531-6.174a35.145,35.145,0,0,1,7.556,2.472A7.448,7.448,0,0,1,64.623,79" fill="#fa9378"/>
        <path id="パス_2500" data-name="パス 2500" d="M69.637,70.925a65.572,65.572,0,0,0-8.5-3.1.41.41,0,0,1-.291-.5.419.419,0,0,1,.5-.29,67.058,67.058,0,0,1,8.979,3.3c-.22.2-.452.4-.687.589" fill="#29190f"/>
        <path id="パス_2501" data-name="パス 2501" d="M63.46,61.912a.411.411,0,0,1,.519-.253c.064.022,5,1.789,9.589,3.8-.021.285-.126.571-.162.854-4.633-2.044-9.628-3.859-9.693-3.882a.408.408,0,0,1-.253-.518" fill="#29190f"/>
        <path id="パス_2502" data-name="パス 2502" d="M65.816,75.457A34.956,34.956,0,0,0,58.238,73.1a.306.306,0,0,1-.26-.356.311.311,0,0,1,.355-.26,36.257,36.257,0,0,1,8.018,2.531c-.181.144-.36.291-.535.444" fill="#29190f"/>
        <path id="パス_2503" data-name="パス 2503" d="M58.306,56.954a.385.385,0,0,0,.14.009,29.547,29.547,0,0,1,6.645.1A45.734,45.734,0,0,1,74.353,60.1a.408.408,0,0,0,.339-.743,46.084,46.084,0,0,0-9.468-3.1,29.723,29.723,0,0,0-6.864-.107.408.408,0,0,0-.054.8" fill="#29190f"/>
        <path id="パス_2504" data-name="パス 2504" d="M45.038,64.537a.409.409,0,0,0,.456-.2A22.894,22.894,0,0,1,48.735,60a.408.408,0,1,0-.582-.572,23.315,23.315,0,0,0-3.376,4.514.408.408,0,0,0,.261.592" fill="#29190f"/>
        <path id="パス_2505" data-name="パス 2505" d="M110.982,70.851s-.421-5.949-10.161-6.143-23.748,2.724-23.748,2.724Z" fill="#d5e5fd"/>
        <path id="パス_2506" data-name="パス 2506" d="M80.607,118.764H49.093a3.544,3.544,0,0,1-3.008-5.418L73.648,69.1a3.544,3.544,0,0,1,3.008-1.671H108.17a3.545,3.545,0,0,1,3.008,5.419L83.615,117.094a3.543,3.543,0,0,1-3.008,1.67" fill="#444757"/>
        <path id="パス_2507" data-name="パス 2507" d="M65.654,89.05l38.1.017a12.022,12.022,0,1,1-.781,24.011l-37.316-2.1Z" fill="#a67d3c"/>
        <path id="パス_2508" data-name="パス 2508" d="M73.27,95.926q-.031,1.377-.111,2.611c-.585,9.142-3.126,12.42-6.569,12.461-3.364.042-8.026-.453-11.073-6.893a22.137,22.137,0,0,1-.989-2.479,15.486,15.486,0,0,1-.737-4.189c-.008-.1-.012-.2-.012-.3a3.36,3.36,0,0,1-.008-.363c-.009-.094-.009-.193-.009-.288a27.84,27.84,0,0,1,.47-4.962,1.185,1.185,0,0,1,.02-.128c.046-.255.1-.506.149-.758a.151.151,0,0,1,.008-.045A44.551,44.551,0,0,1,55.69,85.8c.028-.087.057-.169.086-.252.058-.181.12-.362.177-.535.017-.045.033-.087.045-.128a50.389,50.389,0,0,1,1.919-4.748c.165-.062.33-.115.495-.161.226.079.556.2.967.367,3.2,1.272,11.235,5.086,13.368,11.877a11.507,11.507,0,0,1,.523,3.7" fill="#fa9378"/>
        <path id="パス_2509" data-name="パス 2509" d="M59.461,86.121h0a2.1,2.1,0,0,1-.354.1,3.515,3.515,0,0,1-1.882-.2q-.679-.248-1.446-.465c-.111-.033-.222-.062-.337-.1a1.284,1.284,0,0,1-.124-.581c0-.053,0-.111,0-.177a9.547,9.547,0,0,1,.412-2.471,3.255,3.255,0,0,1,2.195-2.088c.165-.061.329-.115.494-.16a.031.031,0,0,1,.017,0l.6.222c.123.045.239.1.35.148a3.112,3.112,0,0,1,.082,5.774" fill="#fa9378"/>
        <path id="パス_2510" data-name="パス 2510" d="M61.549,90.235A3.758,3.758,0,0,1,59.5,92.5a2.686,2.686,0,0,1-2.182.082,26.936,26.936,0,0,0-3.085-1.058c-.255-.078-.519-.148-.787-.218.029-.029.058-.062.087-.087a3.176,3.176,0,0,1,.338-.3,1.272,1.272,0,0,1-.334-.5.117.117,0,0,1-.016-.041,2.733,2.733,0,0,1,.02-1.8,8.446,8.446,0,0,1,1.68-2.878c.136-.157.219-.243.219-.243a1.284,1.284,0,0,1-.124-.581c0-.053,0-.111,0-.177.231.062.461.124.688.19.535.156,1.058.317,1.556.49.552.185,1.071.383,1.561.589a.833.833,0,0,1,.078.033c.091.036.177.078.264.119h0a3.438,3.438,0,0,1,2.088,4.114" fill="#fa9378"/>
        <path id="パス_2511" data-name="パス 2511" d="M60.989,96.2a3.637,3.637,0,0,1-2.833,2.458,2.461,2.461,0,0,1-1.293-.164,26.994,26.994,0,0,0-3.073-1.059c-.251-.07-.5-.136-.757-.2a2.239,2.239,0,0,1,.21-.248,2.186,2.186,0,0,1,.3-.271l0,0c-.016-.025-.111-.153-.235-.351a5.073,5.073,0,0,1-.893-2.882,3.706,3.706,0,0,1,1.038-2.171c.028-.028.057-.061.086-.086a3.132,3.132,0,0,1,.338-.305,1.262,1.262,0,0,1-.334-.5q.439.1.865.222a31.667,31.667,0,0,1,3.925,1.281c.123.05.247.1.37.153a4.77,4.77,0,0,1,.8.428,3.217,3.217,0,0,1,1.491,3.7" fill="#fa9378"/>
        <path id="パス_2512" data-name="パス 2512" d="M55.516,104.105a3.4,3.4,0,0,1-.564-.193q-.451-.2-.976-.383a15.5,15.5,0,0,1-1.582-4.386,3.07,3.07,0,0,1,.639-1.907,2.222,2.222,0,0,1,.21-.247,2.247,2.247,0,0,1,.3-.272c.078.021.157.041.231.062a25.257,25.257,0,0,1,3.307,1.141,3.36,3.36,0,0,1,.626.35,2.985,2.985,0,0,1,.453.391c2.009,2.075.338,6.194-2.64,5.444" fill="#fa9378"/>
        <path id="パス_2513" data-name="パス 2513" d="M58.317,92.137a.415.415,0,0,1-.519.256c-.029-.009-1.363-.454-3.546-.993-.23-.061-.469-.119-.72-.177a2.988,2.988,0,0,1,.337-.3,1.278,1.278,0,0,1-.333-.5.148.148,0,0,1-.017-.041c.309.073.606.143.89.218,2.244.556,3.616,1.013,3.649,1.02a.427.427,0,0,1,.267.305.372.372,0,0,1-.008.214" fill="#29190f"/>
        <path id="パス_2514" data-name="パス 2514" d="M59.116,86.178l-.012.037a.4.4,0,0,1-.482.256c-.033-.009-1.19-.285-2.932-.668-.149-.033-.305-.065-.47-.1.136-.157.218-.243.218-.243a1.3,1.3,0,0,1-.123-.58c.222.045.432.089.638.14.618.136,1.162.259,1.6.362.779.181,1.248.3,1.269.3a.412.412,0,0,1,.292.288.4.4,0,0,1,0,.21" fill="#29190f"/>
        <path id="パス_2515" data-name="パス 2515" d="M57.728,98.237a.08.08,0,0,1-.025.033.3.3,0,0,1-.391.119,27.971,27.971,0,0,0-3.533-1.247c-.173-.05-.35-.1-.536-.153a2.21,2.21,0,0,1,.3-.272l0,0c-.017-.024-.111-.152-.235-.35.157.041.313.083.461.128a31.229,31.229,0,0,1,3.814,1.33.32.32,0,0,1,.152.416" fill="#29190f"/>
        <path id="パス_2516" data-name="パス 2516" d="M73.045,98.516a.409.409,0,0,1-.27-.419,22.817,22.817,0,0,0-.318-5.4.408.408,0,1,1,.8-.156,23.286,23.286,0,0,1,.331,5.627.408.408,0,0,1-.441.372.394.394,0,0,1-.1-.022" fill="#29190f"/>
        <rect id="長方形_993" data-name="長方形 993" width="22.146" height="1.235" transform="translate(80.734 88.67) rotate(-0.557)" fill="#29190f"/>
        <rect id="長方形_994" data-name="長方形 994" width="33.65" height="1.236" transform="translate(9.261 88.071) rotate(-36.212)" fill="#29190f"/>
        <path id="パス_2517" data-name="パス 2517" d="M22.674,109.784l-.73-1L51.7,80.071l.73,1Z" fill="#29190f"/>
        <path id="パス_2518" data-name="パス 2518" d="M64.1,13.537c0,3.785,2.238,6.854,5,6.854s5-3.069,5-6.854-2.238-6.854-5-6.854-5,3.069-5,6.854" fill="#29190f"/>
        <path id="パス_2519" data-name="パス 2519" d="M48.948,19.073A12.574,12.574,0,1,0,61.522,6.5,12.575,12.575,0,0,0,48.948,19.073" fill="#fa9378"/>
        <path id="パス_2520" data-name="パス 2520" d="M57.922,32.422l7.72,2.348a8.375,8.375,0,0,0,9.928-9.623L73.707,15.96,56.22,15.369Z" fill="#fa9378"/>
        <path id="パス_2521" data-name="パス 2521" d="M64.05,18.793a6.3,6.3,0,0,1,1.417-.96.6.6,0,0,1,.805.211.592.592,0,0,1-.211.806,5.167,5.167,0,0,0-1.178.776.6.6,0,0,1-.833,0,.592.592,0,0,1,0-.833" fill="#29190f"/>
        <path id="パス_2522" data-name="パス 2522" d="M69.949,18.544a6.305,6.305,0,0,1,1.417-.96.6.6,0,0,1,.805.211.592.592,0,0,1-.211.806,5.167,5.167,0,0,0-1.178.776.6.6,0,0,1-.833,0,.592.592,0,0,1,0-.833" fill="#29190f"/>
        <path id="パス_2523" data-name="パス 2523" d="M69.557,0s3.569,4.342,1.734,8.858S51.7,15.368,51.7,15.368s-4.166-3.95-2.131-8.248S69.557,0,69.557,0" fill="#29190f"/>
        <path id="パス_2524" data-name="パス 2524" d="M54.593,23.959s6.511-4.471,4.457-9.5-10.519-2.834-12.175.5C44.861,19,50.455,24.5,50.455,24.5Z" fill="#29190f"/>
        <path id="パス_2525" data-name="パス 2525" d="M48.948,39.937,63.872,43.9l4.965-21.322H52.792Z" fill="#fa9378"/>
        <path id="パス_2526" data-name="パス 2526" d="M63.56,27.032l1.146,4.294,11.357-.436-1.446-5.378A2.217,2.217,0,0,0,72.3,23.926l-6.743.476a2.133,2.133,0,0,0-1.993,2.63" fill="#29190f"/>
        <path id="パス_2527" data-name="パス 2527" d="M54.1,22.286s.367,9.04.631,9.819S67.66,39.84,73.348,36.4s1.9-12.6,1.9-12.6S76.761,29.468,70,29.341s-13.108-2.982-14.351-8.292Z" fill="#29190f"/>
        <path id="パス_2528" data-name="パス 2528" d="M47.83,25.812c1.421,2.29,3.91,3.318,5.56,2.294s1.836-3.71.415-6-3.91-3.318-5.56-2.294-1.836,3.71-.415,6" fill="#fa9378"/>
        <path id="パス_2529" data-name="パス 2529" d="M51.637,24.054l.624-.284A4.414,4.414,0,0,0,49,21.194l-.085.68.043-.34-.044.34a3.723,3.723,0,0,1,2.72,2.18" fill="#29190f"/>
        <path id="パス_2530" data-name="パス 2530" d="M69.489,28.148a10.347,10.347,0,0,0,1.157-.061l-.088-.722a10.09,10.09,0,0,1-2.073,0,5.839,5.839,0,0,1-2.013-.74l-.382.62a6.533,6.533,0,0,0,2.309.842,9.172,9.172,0,0,0,1.09.061" transform="translate(123.246 76.505) rotate(-160)" fill="#fa9378"/>
        <path id="パス_2531" data-name="パス 2531" d="M70.535,24.7c.223-.34.728-1.183.618-1.67a.54.54,0,0,0-.254-.342,2.1,2.1,0,0,0-1.293-.024l-.2-1.243-.718.117.331,2.031.392-.108a4.031,4.031,0,0,1,1.019-.161,4.285,4.285,0,0,1-.5,1Z" fill="#29190f"/>
        <path id="パス_2532" data-name="パス 2532" d="M65.036,21.058c0,.594.263,1.076.584,1.076s.585-.482.585-1.076-.262-1.076-.585-1.076-.584.482-.584,1.076" fill="#29190f"/>
        <path id="パス_2533" data-name="パス 2533" d="M70.646,21.058c0,.594.262,1.076.584,1.076s.585-.482.585-1.076-.262-1.076-.585-1.076-.584.482-.584,1.076" fill="#29190f"/>
        <path id="パス_2534" data-name="パス 2534" d="M51.881,29.208a3.652,3.652,0,0,0,.951-.113l-.194-.7a3.868,3.868,0,0,1-1.415.039l-.12.719a5.345,5.345,0,0,0,.778.057" fill="#29190f"/>
      </g>
    </g>
    <text id="在庫把握を_的確に_していきたい" data-name="在庫把握を
的確に
していきたい" transform="translate(350.5 3012.614)" font-size="13" font-family="NotoSansJP-Bold, Noto Sans JP" font-weight="700"><tspan x="-32.5" y="0">在庫把握</tspan><tspan y="0">を</tspan><tspan x="-19.5" y="17">的確</tspan><tspan y="17">に</tspan><tspan x="-38.805" y="34">していきたい</tspan></text>
  </g>
</svg>
