<svg xmlns="http://www.w3.org/2000/svg" xmlns:xlink="http://www.w3.org/1999/xlink" width="128" height="355.402" viewBox="0 0 128 355.402">
  <defs>
    <clipPath id="clip-path">
      <rect id="長方形_1039" data-name="長方形 1039" width="96.528" height="268.615" fill="none"/>
    </clipPath>
  </defs>
  <g id="worries_06" transform="translate(-675 -2971)">
    <g id="グループ_1124" data-name="グループ 1124" transform="translate(356 -10)">
      <circle id="楕円形_22" data-name="楕円形 22" cx="53.5" cy="53.5" r="53.5" transform="translate(340 2981)" fill="#ffff34"/>
      <circle id="楕円形_23" data-name="楕円形 23" cx="9.5" cy="9.5" r="9.5" transform="translate(376 3077)" fill="#ffff34"/>
      <circle id="楕円形_24" data-name="楕円形 24" cx="5" cy="5" r="5" transform="translate(368 3093)" fill="#ffff34"/>
    </g>
    <g id="グループ_1106" data-name="グループ 1106" transform="translate(675 3057.787)">
      <path id="パス_3146" data-name="パス 3146" d="M31.961,361.4H7.808L4.9,380.458H29.058Z" transform="translate(-1.733 -127.728)" fill="#fa9378"/>
      <rect id="長方形_1037" data-name="長方形 1037" width="24.153" height="19.059" transform="translate(51.54 233.671)" fill="#fa9378"/>
      <g id="グループ_1105" data-name="グループ 1105">
        <g id="グループ_1104" data-name="グループ 1104" clip-path="url(#clip-path)">
          <path id="パス_3147" data-name="パス 3147" d="M99.17,310.83H69.687L63.2,172.669H98.3c6,46.171.873,138.161.873,138.161" transform="translate(-22.337 -61.026)" fill="#9c6759"/>
          <rect id="長方形_1038" data-name="長方形 1038" width="30.244" height="1.062" transform="translate(47.063 243.143)" fill="#29190f"/>
          <path id="パス_3148" data-name="パス 3148" d="M31.542,310.83H0s6.318-75.446,10.678-106.1c2.694-18.94,5.55-32.065,5.55-32.065h37.03Z" transform="translate(0 -61.026)" fill="#9c6759"/>
          <path id="パス_3149" data-name="パス 3149" d="M38.2,315.972l-.976-.681,7.3-9.769.976.681Z" transform="translate(-13.155 -107.979)" fill="#29190f"/>
          <path id="パス_3150" data-name="パス 3150" d="M38.172,328.838l4.686-9.293,1.088.5-4.434,8.793Z" transform="translate(-13.491 -112.936)" fill="#29190f"/>
          <path id="パス_3151" data-name="パス 3151" d="M94.4,307.939l-.976-.682,7.3-9.768.976.681Z" transform="translate(-33.02 -105.14)" fill="#29190f"/>
          <path id="パス_3152" data-name="パス 3152" d="M91.7,326.006l-1.089-.5,7.058-13.993,1.088.5Z" transform="translate(-32.025 -110.097)" fill="#29190f"/>
          <path id="パス_3153" data-name="パス 3153" d="M8.447,313.716l-1.056-.059L20.566,198.1l1.056.059Z" transform="translate(-2.612 -70.012)" fill="#29190f"/>
          <path id="パス_3154" data-name="パス 3154" d="M32.632,377.111H.448l.063-1.062H32.7Z" transform="translate(-0.158 -132.905)" fill="#29190f"/>
          <path id="パス_3155" data-name="パス 3155" d="M60.026,280.064l-1.05-.1,10.156-64.19,8.545-2.215.21,1.025-7.82,2.029Z" transform="translate(-20.844 -75.476)" fill="#29190f"/>
          <path id="パス_3156" data-name="パス 3156" d="M118.987,131.714h0a11.917,11.917,0,0,0,4.658-16.2L103.293,78.735A11.917,11.917,0,1,0,82.439,90.273l20.352,36.783a11.917,11.917,0,0,0,16.2,4.658" transform="translate(-28.609 -25.653)" fill="#54596b"/>
          <path id="パス_3157" data-name="パス 3157" d="M18.455,159.183H89.127l-.908-47.732L87.882,93.76A25.506,25.506,0,0,0,64.951,68.375l-.013,0c-.846-.083-1.708-.129-2.579-.129H45.216c-.608,0-1.218.021-1.816.067a24.879,24.879,0,0,0-4.448.709A25.536,25.536,0,0,0,19.7,93.76l-.713,37.583Z" transform="translate(-6.522 -24.119)" fill="#54596b"/>
          <path id="パス_3158" data-name="パス 3158" d="M18.2,168.052H83.864a4.822,4.822,0,0,0,4.818-5.033l-.074-1.713-.075-1.658-.352-8.076-.249-5.639-.4-9.142-.249-5.634-.863-19.706-.344-7.844-.249-5.635L85.385,87.82c-1.3-5.46-4.216-11.894-10.842-15.924a24.5,24.5,0,0,0-5.451-2.446A30.683,30.683,0,0,0,64.56,68.4a37.726,37.726,0,0,0-4-.162C65.58,85.78,61.807,95.1,61.807,95.1L44.8,68.243H39.15l-3.661.062-1.43.025a12.953,12.953,0,0,0-12.691,11.9L19.917,97.973l-.087,1.07-2.624,32.114-.016.187-.66,5.447-1.1,9.142-.68,5.639-.887,7.346-.2,1.658-.253,2.077a4.823,4.823,0,0,0,4.789,5.4" transform="translate(-4.726 -24.118)" fill="#ffaa64"/>
          <path id="パス_3159" data-name="パス 3159" d="M18.256,171.181h71l-.249-5.634H18.931l-.017.186Z" transform="translate(-6.452 -58.509)" fill="#f5e2da"/>
          <path id="パス_3160" data-name="パス 3160" d="M15.5,194.038H88.931l-.249-5.639h-72.5Z" transform="translate(-5.478 -66.585)" fill="#f5e2da"/>
          <path id="パス_3161" data-name="パス 3161" d="M47.578,68.305a75.138,75.138,0,0,1,7.533,32.807c0,2.674,4.142,2.674,4.146,0a79.35,79.35,0,0,0-7.114-32.869h-.9Z" transform="translate(-16.815 -24.119)" fill="#f5e2da"/>
          <path id="パス_3162" data-name="パス 3162" d="M99.549,70.109A75,75,0,0,1,105.7,99.893c0,2.674,4.141,2.674,4.146,0A79.342,79.342,0,0,0,105,72.555a24.5,24.5,0,0,0-5.452-2.446" transform="translate(-35.183 -24.778)" fill="#f5e2da"/>
          <path id="パス_3163" data-name="パス 3163" d="M23.36,114.224v5.634H89.608l-.249-5.634Z" transform="translate(-8.256 -40.37)" fill="#f5e2da"/>
          <path id="パス_3164" data-name="パス 3164" d="M84.3,167.776h1.658V114.933c0-16.545-22.72-46.217-23.687-47.472l-1.314,1.012c.233.3,23.342,30.479,23.342,46.46Z" transform="translate(-21.544 -23.842)" fill="#d1763d"/>
          <path id="パス_3165" data-name="パス 3165" d="M22.3,139.969h0a11.917,11.917,0,0,1-10.494-13.188S12.192,83.4,22.836,77.5c18.731,7.714,12.654,51.971,12.654,51.971A11.917,11.917,0,0,1,22.3,139.969" transform="translate(-4.146 -27.392)" fill="#54596b"/>
          <path id="パス_3166" data-name="パス 3166" d="M61.974,58.972,76.564,63.1l4.911-21.087H65.607Z" transform="translate(-21.903 -14.848)" fill="#fa9378"/>
          <path id="パス_3167" data-name="パス 3167" d="M87.255,26.949c0,3.743,2.214,6.778,4.944,6.778s4.944-3.035,4.944-6.778S94.93,20.171,92.2,20.171s-4.944,3.035-4.944,6.778" transform="translate(-30.838 -7.129)" fill="#7d4848"/>
          <path id="パス_3168" data-name="パス 3168" d="M61.715,29.857A12.435,12.435,0,1,0,74.15,17.422,12.435,12.435,0,0,0,61.715,29.857" transform="translate(-21.812 -6.157)" fill="#fa9378"/>
          <path id="パス_3169" data-name="パス 3169" d="M74.521,47.853l7.635,2.322a8.281,8.281,0,0,0,9.817-9.516l-1.841-9.086-17.293-.585Z" transform="translate(-25.743 -10.952)" fill="#fa9378"/>
          <path id="パス_3170" data-name="パス 3170" d="M84.676,48.168l1.084,4.271,10.591-1-1.223-4.786a2.1,2.1,0,0,0-2.194-1.578l-6.374.473a2.1,2.1,0,0,0-1.883,2.616" transform="translate(-29.904 -15.93)" fill="#7d4848"/>
          <path id="パス_3171" data-name="パス 3171" d="M67.865,34.957S69.8,47.5,70.046,48.274s12.226,7.693,17.6,4.267,2.225-12.6,2.225-12.6,1,5.713-5.387,5.588-12.39-2.966-15.149-11.8Z" transform="translate(-23.985 -11.92)" fill="#7d4848"/>
          <path id="パス_3172" data-name="パス 3172" d="M86.885,34.244a.507.507,0,0,0-.689-.18,3.146,3.146,0,0,0-.563.44.5.5,0,1,0,.712.712c.057-.056.116-.109.178-.16.016-.011.062-.047.067-.05.037-.026.076-.049.114-.073a.509.509,0,0,0,.18-.689" transform="translate(-30.214 -12.014)" fill="#29190f"/>
          <path id="パス_3173" data-name="パス 3173" d="M95.514,33.757a.507.507,0,0,0-.689-.18,3.145,3.145,0,0,0-.563.44.5.5,0,1,0,.712.712c.057-.056.116-.109.178-.16.016-.011.062-.047.067-.05.037-.026.076-.049.114-.073a.509.509,0,0,0,.18-.689" transform="translate(-33.263 -11.842)" fill="#29190f"/>
          <path id="パス_3174" data-name="パス 3174" d="M66.724,35.91s6.439-4.422,4.407-9.4-8.842-2.708-10.479.585c-1.992,4.006,1.979,9.345,1.979,9.345Z" transform="translate(-21.239 -8.347)" fill="#7d4848"/>
          <path id="パス_3175" data-name="パス 3175" d="M59.49,43.5c1.405,2.265,3.867,3.281,5.5,2.269S66.8,42.1,65.4,39.839s-3.867-3.281-5.5-2.269-1.815,3.669-.41,5.934" transform="translate(-20.692 -13.14)" fill="#fa9378"/>
          <path id="パス_3176" data-name="パス 3176" d="M64.357,42.727l.617-.281A4.364,4.364,0,0,0,61.753,39.9l-.085.672.042-.336-.043.336a3.681,3.681,0,0,1,2.69,2.156" transform="translate(-21.795 -14.101)" fill="#29190f"/>
          <path id="パス_3177" data-name="パス 3177" d="M91.643,50.513a10.482,10.482,0,0,0,1.144-.06l-.087-.714a9.882,9.882,0,0,1-2.05,0,5.776,5.776,0,0,1-1.99-.731l-.378.613a6.442,6.442,0,0,0,2.282.833,9.135,9.135,0,0,0,1.078.06" transform="matrix(-0.839, 0.545, -0.545, -0.839, 162.364, 24.863)" fill="#29190f"/>
          <path id="パス_3178" data-name="パス 3178" d="M93.731,43.485c.22-.336.72-1.17.611-1.652a.533.533,0,0,0-.251-.338,2.08,2.08,0,0,0-1.279-.025l-.2-1.228-.71.116.327,2.009.387-.107a4,4,0,0,1,1.009-.159,4.306,4.306,0,0,1-.5.99Z" transform="translate(-32.481 -14.223)" fill="#29190f"/>
          <path id="パス_3179" data-name="パス 3179" d="M86.322,39.108c0,.588.259,1.064.578,1.064s.578-.477.578-1.064-.259-1.064-.578-1.064-.578.477-.578,1.064" transform="translate(-30.508 -13.446)" fill="#29190f"/>
          <path id="パス_3180" data-name="パス 3180" d="M94.9,39.108c0,.588.259,1.064.578,1.064s.578-.477.578-1.064-.259-1.064-.578-1.064-.578.477-.578,1.064" transform="translate(-33.54 -13.446)" fill="#29190f"/>
          <path id="パス_3181" data-name="パス 3181" d="M65.78,51.716a3.606,3.606,0,0,0,.94-.112l-.192-.694a3.829,3.829,0,0,1-1.4.039l-.118.71a5.109,5.109,0,0,0,.769.057" transform="translate(-22.977 -17.993)" fill="#29190f"/>
          <path id="パス_3182" data-name="パス 3182" d="M122.034,126.7l7.307.032-8.071-7.268Z" transform="translate(-42.86 -42.222)" fill="#29190f"/>
          <path id="パス_3183" data-name="パス 3183" d="M94.015,111.851c-4.939,3.261-4.836,12.264-.005,17.892s12.751,7.546,17.69,4.284,5.026-10.467.2-16.095-12.941-9.343-17.88-6.082" transform="translate(-31.931 -39.101)" fill="#fa9378"/>
          <path id="パス_3184" data-name="パス 3184" d="M61.794,126.666s1.83-.113,4.732-.258c8.827-.448,23.883.182,31.12.248,18.382.167,13.44,15.352,13.1,16.2a12.2,12.2,0,0,1-13.083,7.54l-.065-.01L59.42,142.4Z" transform="translate(-21.001 -44.619)" fill="#fa9378"/>
          <path id="パス_3185" data-name="パス 3185" d="M76.494,121.216S41.033,146.122,34.162,148.4c-7.5,2.482-13.293-1.343-15.41-7.738a12.176,12.176,0,0,1-.575-2.742c-.5-5.492,3.5-9.591,8.943-11.432l43.154-15.271Z" transform="translate(-6.41 -39.306)" fill="#fa9378"/>
          <path id="パス_3186" data-name="パス 3186" d="M92.483,129.857,70.8,145.215l6.779,1.419Z" transform="translate(-25.023 -45.895)" fill="#29190f"/>
          <path id="パス_3187" data-name="パス 3187" d="M117.4,406.761H78.959a1.718,1.718,0,0,1-1.719-1.718V404.1l1.6-13.222h24.3l12.423,6.194a7.6,7.6,0,0,1,3.56,6.435v1.538a1.718,1.718,0,0,1-1.718,1.718" transform="translate(-27.299 -138.145)" fill="#54596b"/>
          <path id="パス_3188" data-name="パス 3188" d="M87.338,409.218l-.447.454-4.52-4.43a6.671,6.671,0,0,0-4.207-1.905l.077-.633a7.275,7.275,0,0,1,4.578,2.081Z" transform="translate(-27.625 -142.326)" fill="#404452"/>
          <path id="パス_3189" data-name="パス 3189" d="M116.132,404.648h-.639a7.079,7.079,0,0,0-4-6.354l-11.04-5.283.276-.577,11.039,5.283a7.722,7.722,0,0,1,4.367,6.931" transform="translate(-35.502 -138.696)" fill="#404452"/>
          <path id="パス_3190" data-name="パス 3190" d="M79.519,390.875l-.355,2.939,1.282.8a5.709,5.709,0,0,0,3.034.873h5.235a2.606,2.606,0,0,0,.389-.029l1.842-.279a4.088,4.088,0,0,0,2.908-1.965l1.384-2.344Z" transform="translate(-27.979 -138.145)" fill="#29190f"/>
          <path id="パス_3191" data-name="パス 3191" d="M117.794,392.529h-6.426v-.639h5.14Z" transform="translate(-39.36 -138.504)" fill="#29190f"/>
          <path id="パス_3192" data-name="パス 3192" d="M121.9,394.537h-6.278V393.9h5Z" transform="translate(-40.863 -139.214)" fill="#29190f"/>
          <path id="パス_3193" data-name="パス 3193" d="M125.983,396.539h-6.16V395.9H124.7Z" transform="translate(-42.349 -139.921)" fill="#29190f"/>
          <path id="パス_3194" data-name="パス 3194" d="M125.153,396.586h-6.2l-11.825-5.709h1.47l1.359.655,1.323.639,1.366.659,1.323.639,1.369.661,1.314.633,2.449,1.183h4.772Z" transform="translate(-37.861 -138.146)" fill="#404452"/>
          <path id="パス_3195" data-name="パス 3195" d="M119.118,411.324H77.241v.946a1.718,1.718,0,0,0,1.718,1.718H117.4a1.718,1.718,0,0,0,1.718-1.718Z" transform="translate(-27.299 -145.373)" fill="#f5eae5"/>
          <path id="パス_3196" data-name="パス 3196" d="M103.163,383.222h7.569a1.651,1.651,0,0,1,1.607,2.316l-1.285,2.632H99.61l1.946-3.986a1.777,1.777,0,0,1,1.607-.962" transform="translate(-35.205 -135.441)" fill="#54596b"/>
          <path id="パス_3197" data-name="パス 3197" d="M92.576,390.875h0a5.418,5.418,0,0,1-4.757,2.592H84.475a5.456,5.456,0,0,1-4.657-2.423l-.105-.169Z" transform="translate(-28.172 -138.145)" fill="#f5eae5"/>
          <path id="パス_3198" data-name="パス 3198" d="M111.977,386.99l-.914,1.822h-.716l1.061-2.11a.71.71,0,0,0-.032-.691.7.7,0,0,0-.6-.336h-6.489a.7.7,0,0,0-.633.393l-1.366,2.743h-.713l1.506-3.027a1.339,1.339,0,0,1,1.205-.748h6.489a1.348,1.348,0,0,1,1.2,1.953" transform="translate(-35.899 -136.082)" fill="#404452"/>
          <path id="パス_3199" data-name="パス 3199" d="M42.591,406.761H4.151a1.718,1.718,0,0,1-1.719-1.718V404.1l1.6-13.222h24.3l12.423,6.194a7.6,7.6,0,0,1,3.56,6.435v1.538a1.718,1.718,0,0,1-1.718,1.718" transform="translate(-0.86 -138.145)" fill="#54596b"/>
          <path id="パス_3200" data-name="パス 3200" d="M12.53,409.218l-.447.454-4.52-4.43a6.671,6.671,0,0,0-4.207-1.905l.077-.633a7.275,7.275,0,0,1,4.578,2.081Z" transform="translate(-1.186 -142.326)" fill="#404452"/>
          <path id="パス_3201" data-name="パス 3201" d="M41.324,404.648h-.639a7.079,7.079,0,0,0-4-6.354l-11.04-5.283.276-.577,11.039,5.283a7.722,7.722,0,0,1,4.367,6.931" transform="translate(-9.063 -138.696)" fill="#404452"/>
          <path id="パス_3202" data-name="パス 3202" d="M4.71,390.875l-.355,2.939,1.282.8a5.709,5.709,0,0,0,3.034.873H13.9a2.606,2.606,0,0,0,.389-.029l1.842-.279a4.088,4.088,0,0,0,2.908-1.965l1.384-2.344Z" transform="translate(-1.539 -138.145)" fill="#29190f"/>
          <path id="パス_3203" data-name="パス 3203" d="M42.985,392.529H36.56v-.639H41.7Z" transform="translate(-12.921 -138.504)" fill="#29190f"/>
          <path id="パス_3204" data-name="パス 3204" d="M47.091,394.537H40.812V393.9h5Z" transform="translate(-14.424 -139.214)" fill="#29190f"/>
          <path id="パス_3205" data-name="パス 3205" d="M51.175,396.539h-6.16V395.9h4.878Z" transform="translate(-15.909 -139.921)" fill="#29190f"/>
          <path id="パス_3206" data-name="パス 3206" d="M50.344,396.586h-6.2l-11.825-5.709h1.47l1.359.655,1.323.639,1.366.659,1.323.639,1.369.661,1.314.633,2.449,1.183h4.772Z" transform="translate(-11.422 -138.146)" fill="#404452"/>
          <path id="パス_3207" data-name="パス 3207" d="M44.31,411.324H2.433v.946a1.718,1.718,0,0,0,1.718,1.718H42.592a1.719,1.719,0,0,0,1.718-1.718Z" transform="translate(-0.86 -145.373)" fill="#f5eae5"/>
          <path id="パス_3208" data-name="パス 3208" d="M28.355,383.222h7.569a1.651,1.651,0,0,1,1.607,2.316l-1.285,2.632H24.8l1.946-3.986a1.777,1.777,0,0,1,1.607-.962" transform="translate(-8.766 -135.441)" fill="#54596b"/>
          <path id="パス_3209" data-name="パス 3209" d="M17.768,390.875h0a5.419,5.419,0,0,1-4.757,2.592H9.667a5.456,5.456,0,0,1-4.657-2.423l-.105-.169Z" transform="translate(-1.733 -138.145)" fill="#f5eae5"/>
          <path id="パス_3210" data-name="パス 3210" d="M37.169,386.99l-.914,1.822h-.716L36.6,386.7a.71.71,0,0,0-.032-.691.7.7,0,0,0-.6-.336H29.478a.7.7,0,0,0-.633.393l-1.366,2.743h-.713l1.506-3.027a1.339,1.339,0,0,1,1.205-.748h6.489a1.348,1.348,0,0,1,1.2,1.953" transform="translate(-9.46 -136.082)" fill="#734646"/>
          <path id="パス_3211" data-name="パス 3211" d="M107.532,209.611v1.658h14.353l-.075-1.658Z" transform="translate(-38.005 -74.082)" fill="#d1763d"/>
          <path id="パス_3212" data-name="パス 3212" d="M13.819,210.141h33.1v-1.658h-32.9Z" transform="translate(-4.884 -73.683)" fill="#d1763d"/>
          <path id="パス_3213" data-name="パス 3213" d="M88.391,96.814a46.3,46.3,0,0,0-.464-24.382l-1.587.482a45.36,45.36,0,0,1,.46,23.429Z" transform="translate(-30.515 -25.599)" fill="#d1763d"/>
          <path id="パス_3214" data-name="パス 3214" d="M58.285,33l33.3-3.729a1.319,1.319,0,0,0-.294-2.621l-33.3,3.729A1.319,1.319,0,1,0,58.285,33" transform="translate(-20.081 -9.414)" fill="#fbd5a2"/>
          <path id="パス_3215" data-name="パス 3215" d="M71.311.854l.107-.012A14.518,14.518,0,0,1,87.461,13.654l.479,4.28L58.98,21.178,58.5,16.9A14.518,14.518,0,0,1,71.311.854" transform="translate(-20.643 -0.265)" fill="#fbb766"/>
          <path id="パス_3216" data-name="パス 3216" d="M84.812,19.278l-3.323.372L80.322,9.226A5.809,5.809,0,0,0,73.9,4.1l-1.62.182-.191-1.7a1.63,1.63,0,0,1,1.439-1.8A9.152,9.152,0,0,1,83.645,8.853Z" transform="translate(-25.476 -0.254)" fill="#fbd5a2"/>
          <path id="パス_3217" data-name="パス 3217" d="M91.235,18.559l-3.323.372L86.745,8.506A5.808,5.808,0,0,0,80.326,3.38l-1.62.182-.191-1.7a1.63,1.63,0,0,1,1.439-1.8A9.152,9.152,0,0,1,90.068,8.134Z" transform="translate(-27.746 0)" fill="#fbd5a2"/>
          <path id="パス_3218" data-name="パス 3218" d="M77.811,20.062l-3.323.372L73.321,10.009A5.808,5.808,0,0,0,66.9,4.883l-1.62.182-.191-1.7a1.63,1.63,0,0,1,1.439-1.8A9.152,9.152,0,0,1,76.644,9.637Z" transform="translate(-23.001 -0.531)" fill="#fbd5a2"/>
        </g>
      </g>
    </g>
    <text id="現場対話を_素早く図面に_落としたい" data-name="現場対話を
素早く図面に
落としたい" transform="translate(749.5 3012.614)" font-size="13" font-family="NotoSansJP-Bold, Noto Sans JP" font-weight="700"><tspan x="-32.5" y="0">現場対話</tspan><tspan y="0">を</tspan><tspan x="-39" y="17">素早</tspan><tspan y="17">く</tspan><tspan y="17">図面</tspan><tspan y="17">に</tspan><tspan x="-32.5" y="34">落</tspan><tspan y="34">としたい</tspan></text>
  </g>
</svg>
